<svg width="48" height="48" viewBox="0 0 48 48" fill="none" xmlns="http://www.w3.org/2000/svg">
<path d="M24.1858 33.2511C29.3901 33.2511 33.609 29.0322 33.609 23.8279C33.609 18.6237 29.3901 14.4048 24.1858 14.4048C18.9816 14.4048 14.7627 18.6237 14.7627 23.8279C14.7627 29.0322 18.9816 33.2511 24.1858 33.2511Z" fill="#FFC907"/>
<path d="M24.1857 31.0954C28.1994 31.0954 31.453 27.8417 31.453 23.8281C31.453 19.8145 28.1994 16.5608 24.1857 16.5608C20.1721 16.5608 16.9185 19.8145 16.9185 23.8281C16.9185 27.8417 20.1721 31.0954 24.1857 31.0954Z" fill="#F99B1C"/>
<path d="M24.1859 29.1208C27.1092 29.1208 29.479 26.751 29.479 23.8277C29.479 20.9045 27.1092 18.5347 24.1859 18.5347C21.2626 18.5347 18.8928 20.9045 18.8928 23.8277C18.8928 26.751 21.2626 29.1208 24.1859 29.1208Z" fill="#F47521"/>
<path d="M27.2879 2.11712C27.243 2.04067 27.205 1.94754 27.1603 1.87108C26.9974 1.57168 26.8207 1.30511 26.6162 1.0365C26.3129 0.659097 25.9958 0.314285 25.6372 0C25.3329 0.449491 25.073 0.907961 24.7877 1.40389C24.3762 2.15458 24.0085 2.84703 23.6085 3.59311C23.1124 4.56828 22.6508 5.46137 22.2855 6.49145C22.2785 6.50787 22.288 6.53096 22.2811 6.54738C22.2378 6.67361 22.1944 6.79958 22.151 6.92581C22.1241 7.0587 22.0807 7.18493 22.0538 7.31783C22.0248 7.47869 21.9745 7.62134 21.9571 7.77758C21.9596 7.81709 21.9622 7.8566 21.9532 7.90099C21.9124 8.06672 21.8901 8.21116 21.8891 8.37434C21.8947 8.52109 21.8563 8.65886 21.8619 8.80561C21.8745 8.93594 21.8706 9.0596 21.867 9.18301C21.8737 9.46471 21.9153 9.7323 21.9499 10.0163C22.0035 10.3468 22.0825 10.6398 22.171 10.9558C22.3211 11.423 22.4969 11.8528 22.7398 12.282C22.8248 12.4236 22.9048 12.5534 22.9897 12.6948C22.9992 12.7179 23.0272 12.7202 23.0367 12.7433C23.2819 13.1445 23.5826 13.4824 23.8949 13.8157C23.6647 12.9203 23.5719 11.9962 23.6091 11.0595C23.6155 10.9756 23.617 10.8801 23.6234 10.7963C23.675 10.1926 23.7851 9.6325 23.9485 9.03729C24.0393 8.72916 24.1399 8.44412 24.2635 8.14959C24.4765 7.64263 24.7295 7.20032 25.0312 6.71132C25.0566 6.67386 25.0537 6.63436 25.0794 6.5969C25.3529 6.10559 25.5569 5.64301 25.7044 5.10834C25.7113 5.09192 25.7298 5.07089 25.7364 5.05447C25.7957 4.86769 25.8365 4.70195 25.8794 4.50825C25.9063 4.37535 25.9266 4.25862 25.9581 4.13727C25.9602 4.1093 25.9556 4.09776 25.9576 4.06979C26.0518 3.57053 26.0926 3.10667 26.0961 2.61741C26.1803 4.2499 25.8011 5.90906 25.0006 7.33373C24.8565 7.67727 24.691 8.00233 24.5842 8.37126C24.5773 8.38768 24.5588 8.40871 24.5522 8.42513C24.4088 8.90387 24.2979 9.32848 24.2269 9.81825C24.1294 10.5086 24.1247 11.1608 24.174 11.8456C24.1766 11.8851 24.1956 11.9315 24.1981 11.9713C24.2543 12.6394 24.4149 13.2649 24.6035 13.8927C24.7028 13.7708 24.7461 13.6446 24.8359 13.4996C24.9121 13.3872 24.9834 13.2633 25.0384 13.1325C25.0912 13.0296 25.1487 12.9383 25.2064 12.8469C25.6708 11.9934 26.0797 11.2029 26.4997 10.3401C26.8484 9.60146 27.1811 8.92337 27.4692 8.16883C27.4831 8.13599 27.4803 8.09648 27.4941 8.0639C27.7663 7.36991 27.9198 6.68413 28.0098 5.94242C28.0947 5.12168 28.0239 4.35124 27.8315 3.54898C27.822 3.52563 27.8125 3.50254 27.803 3.47919C27.6876 2.99789 27.5075 2.55635 27.2876 2.11789L27.2879 2.11712Z" fill="#F9ED32"/>
<path d="M15.9059 3.40476C15.8289 3.36089 15.7494 3.29931 15.6724 3.25544C15.3818 3.07765 15.0954 2.935 14.7837 2.80467C14.3324 2.62944 13.8853 2.48936 13.4175 2.39648C13.3788 2.93782 13.3829 3.4648 13.3839 4.03718C13.4029 4.89306 13.4306 5.67659 13.4573 6.52272C13.5153 7.61515 13.562 8.61958 13.7608 9.6943C13.7631 9.71201 13.7829 9.7274 13.7852 9.74484C13.8106 9.87569 13.8363 10.0065 13.8617 10.1376C13.9048 10.2662 13.9304 10.3973 13.9735 10.5258C14.0289 10.6797 14.0566 10.8283 14.1195 10.9722C14.1416 11.0053 14.1636 11.0382 14.178 11.081C14.2255 11.2449 14.2786 11.3812 14.3591 11.5231C14.4374 11.6472 14.4728 11.7858 14.5513 11.9099C14.6275 12.0164 14.686 12.1255 14.7445 12.2342C14.8912 12.4749 15.0608 12.686 15.233 12.9144C15.4446 13.1738 15.6596 13.388 15.8944 13.6173C16.2579 13.9468 16.6248 14.2313 17.0499 14.4814C17.1941 14.5615 17.3285 14.6338 17.4727 14.7141C17.4927 14.7295 17.5179 14.7172 17.5376 14.7326C17.9507 14.9574 18.3799 15.0997 18.8171 15.2321C18.1703 14.5717 17.6274 13.818 17.1915 12.988C17.1551 12.9121 17.1087 12.8287 17.0722 12.7527C16.8149 12.204 16.6304 11.6642 16.4742 11.0669C16.3988 10.7547 16.3433 10.4576 16.3031 10.1407C16.2341 9.59502 16.232 9.08575 16.2487 8.51131C16.2518 8.46616 16.2297 8.43332 16.233 8.38816C16.2243 7.82604 16.1697 7.32318 16.0301 6.78646C16.0278 6.76876 16.0334 6.74131 16.0311 6.72386C15.989 6.53247 15.9413 6.36853 15.8818 6.17945C15.8387 6.05091 15.7976 5.93982 15.7645 5.81872C15.7525 5.79358 15.7425 5.78588 15.7304 5.76048C15.5624 5.28098 15.3659 4.85868 15.1242 4.43331C16.0134 5.80487 16.5145 7.43145 16.5337 9.06548C16.5807 9.43518 16.5999 9.79924 16.6917 10.1723C16.6941 10.1897 16.6887 10.2174 16.6907 10.2349C16.8059 10.7211 16.9221 11.1444 17.1056 11.6041C17.3662 12.2507 17.6885 12.8179 18.0736 13.3862C18.0956 13.4193 18.1354 13.4498 18.1575 13.4829C18.5403 14.0335 18.9921 14.4948 19.4693 14.9443C19.4944 14.7891 19.4687 14.6582 19.4741 14.4876C19.4839 14.3521 19.4836 14.2092 19.4657 14.0684C19.46 13.9529 19.4641 13.8449 19.4685 13.7372C19.4439 12.7656 19.4028 11.8766 19.3351 10.9194C19.2679 10.1053 19.2171 9.3518 19.089 8.55415C19.0847 8.51901 19.0626 8.48591 19.058 8.45076C18.9466 7.71367 18.7365 7.04302 18.4438 6.3557C18.1069 5.60245 17.6603 4.97054 17.0928 4.37199C17.073 4.35659 17.053 4.3412 17.0332 4.32581C16.6925 3.96663 16.3159 3.67441 15.9062 3.40451L15.9059 3.40476Z" fill="#F2BE37"/>
<path d="M6.69242 10.2113C6.60365 10.2118 6.50437 10.1982 6.4156 10.1987C6.07489 10.1902 5.75573 10.2097 5.42066 10.2526C4.94218 10.3265 4.48499 10.4286 4.03345 10.5823C4.27051 11.0705 4.53784 11.5249 4.82467 12.0198C5.26903 12.7517 5.68492 13.4162 6.13107 14.1356C6.72757 15.0528 7.27019 15.8992 7.97958 16.7307C7.99035 16.7448 8.01524 16.7481 8.02602 16.7623C8.1135 16.8628 8.20099 16.9634 8.28873 17.064C8.39033 17.1538 8.47807 17.2543 8.57967 17.3444C8.70461 17.4501 8.80288 17.5648 8.92936 17.6582C8.96476 17.6756 9.00043 17.6933 9.03429 17.7231C9.15744 17.8413 9.27161 17.9327 9.4122 18.0153C9.54202 18.0838 9.64208 18.1859 9.77215 18.2544C9.89145 18.3085 9.99639 18.3737 10.1016 18.4386C10.3489 18.5736 10.6016 18.6716 10.8648 18.7834C11.1778 18.9022 11.4711 18.9802 11.7892 19.0615C12.2687 19.1652 12.7287 19.2278 13.2221 19.2319C13.3871 19.2291 13.5397 19.2247 13.7047 19.2219C13.7296 19.2252 13.7455 19.2021 13.7704 19.2055C14.2404 19.1937 14.6835 19.1023 15.1281 18.9984C14.2378 18.7501 13.3909 18.3686 12.5982 17.8678C12.5286 17.8203 12.4468 17.771 12.3773 17.7236C11.88 17.377 11.4503 17.0019 11.0165 16.5627C10.7951 16.33 10.5985 16.1003 10.4053 15.8461C10.0726 15.4081 9.81629 14.9679 9.54356 14.4622C9.52381 14.4214 9.48814 14.404 9.46839 14.3634C9.17976 13.8808 8.88113 13.4729 8.49193 13.0778C8.48115 13.0637 8.47217 13.037 8.4614 13.0229C8.32927 12.8782 8.20612 12.7602 8.05988 12.6263C7.95828 12.5365 7.86721 12.4605 7.77792 12.3725C7.75483 12.3566 7.74226 12.3551 7.71917 12.3392C7.33382 12.008 6.95257 11.7406 6.53053 11.4931C7.98651 12.2363 9.23364 13.3944 10.0672 14.7998C10.2925 15.0964 10.4913 15.4022 10.7573 15.6793C10.7681 15.6934 10.7771 15.7199 10.7879 15.734C11.1309 16.0975 11.4431 16.4059 11.8318 16.7122C12.3808 17.1417 12.9435 17.4719 13.561 17.7716C13.5964 17.789 13.6465 17.7959 13.6819 17.8134C14.2886 18.0989 14.9105 18.2724 15.5483 18.423C15.4924 18.276 15.4049 18.1754 15.3241 18.025C15.2648 17.9029 15.193 17.7793 15.1073 17.6661C15.0447 17.5689 14.9944 17.4734 14.9441 17.378C14.4369 16.5491 13.9569 15.7997 13.4197 15.0046C12.9543 14.3332 12.5335 13.7061 12.024 13.0794C12.0024 13.0511 11.967 13.0337 11.9455 13.0052C11.4806 12.4226 10.9631 11.9466 10.3661 11.4979C9.69775 11.0141 8.99504 10.69 8.20407 10.4555C8.17918 10.4522 8.1543 10.4489 8.12941 10.4453C7.65478 10.3044 7.18245 10.24 6.69268 10.211L6.69242 10.2113Z" fill="#009444"/>
<path d="M2.11712 20.7118C2.04041 20.7567 1.94754 20.7946 1.87108 20.8393C1.57168 21.0022 1.30511 21.179 1.0365 21.3834C0.659097 21.6867 0.314285 22.0038 0 22.3625C0.449491 22.6667 0.907961 22.9266 1.40389 23.2119C2.15458 23.6235 2.84703 23.9911 3.59311 24.3911C4.56828 24.8873 5.46137 25.3488 6.49145 25.7142C6.50787 25.7211 6.53096 25.7116 6.54738 25.7185C6.67335 25.7619 6.79958 25.8052 6.92581 25.8486C7.0587 25.8755 7.18493 25.9189 7.31783 25.9458C7.47895 25.9748 7.62134 26.0251 7.77758 26.0425C7.81709 26.04 7.8566 26.0374 7.90099 26.0464C8.06672 26.0872 8.21116 26.1095 8.37434 26.1105C8.52109 26.1049 8.65886 26.1434 8.80561 26.1377C8.93594 26.1252 9.0596 26.129 9.18301 26.1326C9.46471 26.1259 9.73256 26.0844 10.0163 26.0497C10.3468 25.9961 10.6398 25.9171 10.9558 25.8286C11.423 25.6785 11.8528 25.503 12.282 25.2598C12.4236 25.1749 12.5534 25.0948 12.6948 25.0099C12.7181 25.0004 12.7202 24.9724 12.7433 24.963C13.1445 24.7177 13.4824 24.417 13.8157 24.1048C12.9206 24.3349 11.9962 24.4278 11.0595 24.3906C10.9756 24.3842 10.8801 24.3826 10.7963 24.3762C10.1923 24.3246 9.6325 24.2146 9.03729 24.0511C8.72916 23.9603 8.44412 23.8597 8.14959 23.7361C7.64263 23.5231 7.20032 23.2702 6.71132 22.9685C6.67386 22.9431 6.63436 22.9459 6.5969 22.9205C6.10559 22.647 5.64301 22.443 5.10834 22.2955C5.09192 22.2886 5.07089 22.2701 5.05447 22.2632C4.86769 22.2039 4.70195 22.1631 4.50825 22.1203C4.37535 22.0933 4.25862 22.0731 4.13727 22.0415C4.1093 22.0395 4.09776 22.0441 4.06979 22.042C3.57053 21.9479 3.10667 21.9068 2.61741 21.9035C4.2499 21.8193 5.90906 22.1985 7.33373 22.9987C7.67727 23.1429 8.00233 23.3084 8.37126 23.4151C8.38768 23.4221 8.40871 23.4405 8.42513 23.4472C8.90387 23.5906 9.32848 23.7017 9.81825 23.7725C10.5086 23.87 11.1608 23.8746 11.8456 23.8254C11.8851 23.8228 11.9315 23.8038 11.9713 23.8013C12.6394 23.7451 13.2649 23.5845 13.8927 23.3959C13.7708 23.2966 13.6446 23.2532 13.4996 23.1634C13.3872 23.0872 13.2633 23.0159 13.1325 22.961C13.0296 22.9082 12.9383 22.8507 12.8472 22.793C11.9934 22.3286 11.2029 21.9197 10.3403 21.4997C9.60171 21.151 8.92363 20.8182 8.16909 20.5301C8.13651 20.5163 8.09674 20.5191 8.06416 20.5052C7.37016 20.233 6.68413 20.0796 5.94267 19.9896C5.12194 19.9046 4.35149 19.9754 3.54923 20.1679C3.52589 20.1774 3.5028 20.1869 3.47945 20.1963C2.99815 20.3118 2.55661 20.4919 2.11815 20.7118H2.11712Z" fill="#F9ED32"/>
<path d="M3.40476 32.0937C3.36089 32.1709 3.29931 32.2502 3.25544 32.3272C3.07765 32.6178 2.935 32.9042 2.80467 33.2159C2.62944 33.6672 2.48936 34.1143 2.39648 34.582C2.93782 34.6208 3.4648 34.6167 4.03692 34.6157C4.89306 34.5967 5.67633 34.569 6.52247 34.5423C7.61489 34.4843 8.61932 34.4376 9.69405 34.2388C9.71175 34.2365 9.72714 34.2167 9.74459 34.2144C9.87543 34.189 10.0063 34.1633 10.1374 34.1379C10.2659 34.0948 10.397 34.0692 10.5256 34.0261C10.6795 33.9707 10.828 33.943 10.972 33.8801C11.0048 33.858 11.0379 33.836 11.0807 33.8216C11.2447 33.7741 11.3809 33.721 11.5228 33.6405C11.647 33.5622 11.7855 33.5268 11.9097 33.4483C12.0162 33.3721 12.1252 33.3136 12.234 33.2551C12.4746 33.1084 12.6858 32.9388 12.9144 32.7666C13.1738 32.555 13.388 32.34 13.6173 32.1052C13.9468 31.7417 14.2313 31.3748 14.4814 30.9497C14.5615 30.8055 14.6338 30.6711 14.7141 30.5269C14.7295 30.5069 14.7172 30.4817 14.7326 30.462C14.9574 30.0489 15.0997 29.6197 15.2321 29.1825C14.5717 29.8293 13.818 30.3722 12.988 30.8081C12.9121 30.8445 12.8287 30.8909 12.7527 30.9274C12.204 31.1847 11.6642 31.3692 11.0669 31.5254C10.7547 31.6008 10.4576 31.6563 10.1407 31.6965C9.59502 31.7655 9.08575 31.7676 8.51131 31.7509C8.46616 31.7478 8.43332 31.7699 8.38816 31.7666C7.82604 31.7753 7.32318 31.8299 6.78646 31.9695C6.76876 31.9718 6.74131 31.9662 6.72361 31.9685C6.53221 32.0106 6.36827 32.0583 6.17919 32.1178C6.05065 32.1609 5.93956 32.202 5.81847 32.235C5.79332 32.2471 5.78563 32.2571 5.76023 32.2692C5.28072 32.4372 4.85842 32.6337 4.43305 32.8754C5.80461 31.9862 7.4312 31.4851 9.06522 31.4659C9.43492 31.4189 9.79898 31.3997 10.172 31.3078C10.1895 31.3055 10.2172 31.3112 10.2346 31.3089C10.7208 31.1937 11.1444 31.0775 11.6039 30.894C12.2504 30.6334 12.8177 30.3111 13.3859 29.926C13.419 29.904 13.4496 29.8642 13.4827 29.8421C14.0332 29.4593 14.4945 29.0075 14.944 28.5303C14.7888 28.5052 14.6579 28.5308 14.4873 28.5255C14.3519 28.5157 14.209 28.516 14.0681 28.5339C13.9527 28.5396 13.8447 28.5355 13.7369 28.5311C12.7653 28.5557 11.8763 28.5968 10.9191 28.6645C10.1051 28.7317 9.35154 28.7825 8.5539 28.9106C8.51875 28.9149 8.48566 28.937 8.45051 28.9416C7.71341 29.053 7.04277 29.2631 6.35545 29.5558C5.60219 29.8927 4.97028 30.3393 4.37173 30.9068C4.35634 30.9266 4.34095 30.9466 4.32555 30.9664C3.96637 31.3068 3.67415 31.6837 3.40425 32.0934L3.40476 32.0937Z" fill="#F2BE37"/>
<path d="M10.2109 41.3068C10.2114 41.3956 10.1978 41.4949 10.1983 41.5836C10.1896 41.9243 10.2093 42.2435 10.2522 42.5786C10.3261 43.057 10.4282 43.5142 10.5819 43.9658C11.0701 43.7287 11.5245 43.4614 12.0194 43.1745C12.7513 42.7302 13.4158 42.3143 14.1352 41.8682C15.0524 41.2717 15.8988 40.729 16.7303 40.0196C16.7444 40.0089 16.7477 39.984 16.7619 39.9732C16.8624 39.8857 16.963 39.798 17.0638 39.7105C17.1536 39.6089 17.2542 39.5212 17.344 39.4196C17.4497 39.2946 17.5644 39.1963 17.6578 39.0699C17.6752 39.0345 17.6929 38.9988 17.7227 38.9649C17.8409 38.8418 17.9323 38.7276 18.0149 38.587C18.0834 38.4572 18.1855 38.3571 18.254 38.2273C18.3084 38.108 18.3733 38.0031 18.4382 37.8979C18.5734 37.6506 18.6712 37.3981 18.783 37.1346C18.9018 36.8216 18.9798 36.5284 19.0611 36.2103C19.1648 35.7308 19.2274 35.2707 19.2315 34.7776C19.2287 34.6127 19.2243 34.46 19.2215 34.2951C19.2248 34.2702 19.2017 34.2543 19.2051 34.2294C19.1933 33.7594 19.1019 33.3163 18.998 32.8717C18.7497 33.7619 18.3682 34.6088 17.8674 35.4016C17.8199 35.4711 17.7706 35.553 17.7232 35.6225C17.3766 36.1197 17.0015 36.5494 16.5623 36.9833C16.3296 37.2047 16.0999 37.4012 15.8457 37.5944C15.4077 37.9272 14.9675 38.1835 14.4618 38.4562C14.421 38.4759 14.4036 38.5116 14.3628 38.5313C13.8802 38.82 13.4723 39.1186 13.0772 39.5078C13.063 39.5186 13.0364 39.5276 13.0223 39.5383C12.8776 39.6705 12.7595 39.7936 12.6256 39.9399C12.5358 40.0415 12.4599 40.1325 12.3719 40.2218C12.356 40.2449 12.3544 40.2575 12.3385 40.2806C12.0073 40.6659 11.74 41.0472 11.4924 41.4692C12.2356 40.0132 13.3937 38.7661 14.7992 37.9325C15.0958 37.707 15.4016 37.5084 15.6787 37.2424C15.6928 37.2316 15.7192 37.2226 15.7333 37.2119C16.0969 36.8688 16.4055 36.5566 16.7116 36.1679C17.141 35.6189 17.4712 35.0563 17.7709 34.4387C17.7883 34.4033 17.7953 34.3533 17.8127 34.3179C18.0983 33.7111 18.2717 33.0892 18.4223 32.4514C18.2753 32.5073 18.1747 32.5948 18.0244 32.6756C17.9023 32.7349 17.7786 32.8068 17.6655 32.8924C17.5682 32.9553 17.4728 33.0053 17.3773 33.0556C16.5484 33.5628 15.799 34.0428 15.0039 34.5801C14.3325 35.0455 13.7052 35.4662 13.0787 35.9758C13.0505 35.9971 13.033 36.0327 13.0046 36.0543C12.4219 36.5192 11.946 37.0366 11.4973 37.6336C11.0134 38.302 10.6894 39.0047 10.4549 39.7957C10.4515 39.8206 10.4482 39.8454 10.4446 39.8703C10.3038 40.345 10.2394 40.8173 10.2104 41.3071L10.2109 41.3068Z" fill="#006838"/>
<path d="M20.7118 45.8827C20.7567 45.9594 20.7944 46.0522 20.8393 46.1287C21.0022 46.4281 21.179 46.6947 21.3834 46.9635C21.6867 47.3409 22.0038 47.6858 22.3625 48C22.6667 47.5505 22.9266 47.0921 23.2119 46.5961C23.6235 45.8452 23.9911 45.153 24.3911 44.4069C24.8873 43.4317 25.3488 42.5387 25.7142 41.5086C25.7211 41.4922 25.7116 41.4691 25.7185 41.4527C25.7619 41.3264 25.8052 41.2005 25.8486 41.0742C25.8755 40.9413 25.9189 40.8151 25.9458 40.6822C25.9748 40.5211 26.0251 40.3787 26.0425 40.2225C26.04 40.1829 26.0374 40.1434 26.0464 40.099C26.0872 39.9333 26.1095 39.7889 26.1105 39.6257C26.1049 39.4789 26.1434 39.3412 26.1377 39.1947C26.1252 39.0643 26.129 38.9407 26.1326 38.8173C26.1259 38.5356 26.0844 38.268 26.0497 37.984C25.9961 37.6535 25.9171 37.3605 25.8286 37.0445C25.6785 36.5773 25.503 36.1475 25.2598 35.7186C25.1749 35.5769 25.0948 35.4471 25.0099 35.3058C25.0002 35.2824 24.9724 35.2804 24.963 35.2573C24.7177 34.856 24.417 34.5181 24.1048 34.1849C24.3349 35.08 24.4278 36.0044 24.3906 36.9411C24.3842 37.025 24.3826 37.1204 24.3762 37.2043C24.3246 37.8082 24.2146 38.368 24.0511 38.9633C23.9603 39.2714 23.8597 39.5564 23.7361 39.851C23.5231 40.3579 23.2702 40.8002 22.9685 41.2892C22.9431 41.3267 22.9456 41.3662 22.9202 41.4037C22.6467 41.895 22.4425 42.3575 22.2953 42.8922C22.2883 42.9086 22.2699 42.9297 22.2629 42.9461C22.2037 43.1329 22.1629 43.2986 22.12 43.4923C22.0931 43.6252 22.0728 43.7419 22.0413 43.8633C22.0392 43.8912 22.0438 43.9028 22.0418 43.9308C21.9476 44.43 21.9068 44.8939 21.9032 45.3831C21.8188 43.7506 22.1983 42.0915 22.9987 40.6668C23.1429 40.3233 23.3084 39.9982 23.4151 39.6293C23.4221 39.6131 23.4405 39.5918 23.4472 39.5757C23.5906 39.0969 23.7017 38.6723 23.7725 38.1826C23.87 37.4924 23.8746 36.84 23.8254 36.1552C23.8228 36.1157 23.8038 36.0693 23.8013 36.0298C23.7451 35.3617 23.5845 34.7362 23.3959 34.1084C23.2966 34.2303 23.2532 34.3565 23.1634 34.5014C23.0872 34.6138 23.0159 34.7377 22.961 34.8686C22.9082 34.9715 22.8507 35.0628 22.793 35.1539C22.3286 36.0077 21.9197 36.7979 21.4997 37.6607C21.151 38.3993 20.8182 39.0774 20.5301 39.832C20.5163 39.8646 20.5191 39.9043 20.5052 39.9369C20.233 40.6309 20.0796 41.3169 19.9896 42.0584C19.9046 42.8791 19.9754 43.6496 20.1679 44.4521C20.1774 44.4752 20.1869 44.4985 20.1963 44.5219C20.3118 45.0032 20.4919 45.4445 20.7118 45.8832V45.8827Z" fill="#F9ED32"/>
<path d="M32.0939 44.5947C32.1711 44.6386 32.2504 44.7001 32.3274 44.744C32.6181 44.9218 32.9044 45.0644 33.2161 45.1948C33.6674 45.37 34.1146 45.5101 34.5823 45.603C34.621 45.0616 34.6169 44.5347 34.6159 43.9625C34.5969 43.1064 34.5692 42.3231 34.5425 41.477C34.4845 40.3846 34.4378 39.3801 34.239 38.3054C34.2367 38.2877 34.2169 38.2723 34.2146 38.2549C34.1892 38.124 34.1636 37.9929 34.1382 37.8621C34.0951 37.7335 34.0694 37.6024 34.0266 37.4739C33.9712 37.32 33.9435 37.1714 33.8806 37.0275C33.8585 36.9944 33.8365 36.9615 33.8221 36.9187C33.7746 36.7548 33.7215 36.6185 33.641 36.4767C33.5627 36.3525 33.5273 36.2139 33.4488 36.0898C33.3726 35.983 33.3141 35.8743 33.2556 35.7655C33.1089 35.5248 32.9393 35.3137 32.7671 35.0851C32.5555 34.8257 32.3405 34.6117 32.1057 34.3821C31.7422 34.0527 31.3753 33.7682 30.9502 33.5183C30.8057 33.438 30.6716 33.3659 30.5274 33.2856C30.5074 33.2702 30.4822 33.2825 30.4625 33.2671C30.0494 33.0424 29.6202 32.9 29.183 32.7676C29.8298 33.428 30.3727 34.1817 30.8086 35.0117C30.845 35.0876 30.8914 35.171 30.9279 35.247C31.1852 35.7957 31.3699 36.3355 31.5259 36.9328C31.6013 37.2453 31.6567 37.5421 31.6968 37.859C31.7658 38.4047 31.7678 38.914 31.7512 39.4884C31.7481 39.5335 31.7699 39.5664 31.7668 39.6115C31.7755 40.1737 31.8302 40.6765 31.9697 41.2132C31.972 41.2309 31.9664 41.2584 31.9687 41.2761C32.0108 41.4675 32.0585 41.6314 32.118 41.8205C32.1611 41.9493 32.2022 42.0604 32.2353 42.1812C32.2473 42.2064 32.2573 42.2141 32.2694 42.2395C32.4374 42.719 32.634 43.141 32.8756 43.5667C31.9864 42.1951 31.4854 40.5685 31.4661 38.9345C31.4192 38.5648 31.3999 38.2007 31.3081 37.8277C31.3058 37.8102 31.3114 37.7825 31.3091 37.7651C31.1939 37.2789 31.0777 36.8553 30.8942 36.3958C30.6336 35.7493 30.3113 35.1821 29.9262 34.6138C29.9042 34.5809 29.8644 34.5501 29.8426 34.5171C29.4598 33.9665 29.008 33.5052 28.5308 33.0557C28.5057 33.2109 28.5313 33.3418 28.5259 33.5124C28.5162 33.6478 28.5165 33.7907 28.5344 33.9316C28.5401 34.047 28.536 34.155 28.5316 34.2628C28.5562 35.2344 28.5973 36.1234 28.665 37.0806C28.7322 37.8947 28.783 38.6482 28.911 39.4458C28.9154 39.481 28.9377 39.5141 28.9421 39.5492C29.0534 40.2863 29.2636 40.9569 29.5563 41.6443C29.8932 42.3975 30.3398 43.0294 30.9073 43.628C30.9271 43.6434 30.9471 43.6588 30.9669 43.6742C31.3073 44.0333 31.6842 44.3253 32.0939 44.5955V44.5947Z" fill="#F2BE37"/>
<path d="M41.3068 37.7882C41.3956 37.7877 41.4949 37.8013 41.5836 37.8008C41.9243 37.8092 42.2435 37.7897 42.5786 37.7469C43.057 37.673 43.5142 37.5706 43.9658 37.4172C43.7287 36.929 43.4614 36.4746 43.1745 35.9797C42.7302 35.2477 42.3146 34.5833 41.8682 33.8639C41.2717 32.9467 40.729 32.1003 40.0196 31.2688C40.0089 31.2547 39.984 31.2513 39.9735 31.2372C39.886 31.1366 39.7982 31.0361 39.7108 30.9352C39.6092 30.8454 39.5214 30.7449 39.4198 30.6548C39.2949 30.5491 39.1966 30.4344 39.0701 30.3413C39.0347 30.3239 38.9991 30.3062 38.9652 30.2764C38.842 30.1581 38.7279 30.0665 38.5873 29.9842C38.4575 29.9157 38.3574 29.8136 38.2276 29.7451C38.1083 29.6909 38.0034 29.6258 37.8982 29.5609C37.6508 29.4256 37.3984 29.3279 37.1349 29.216C36.8219 29.0973 36.5286 29.0193 36.2105 28.9379C35.731 28.8343 35.271 28.7717 34.7776 28.7676C34.6124 28.7701 34.46 28.7748 34.2951 28.7776C34.2702 28.7742 34.2543 28.7973 34.2294 28.794C33.7594 28.8058 33.3163 28.8971 32.8717 29.001C33.7619 29.2494 34.6088 29.6309 35.4016 30.1317C35.4711 30.1792 35.553 30.2284 35.6225 30.2759C36.1197 30.6225 36.5494 30.9976 36.9833 31.4368C37.2047 31.6698 37.4012 31.8991 37.5944 32.1534C37.9272 32.5913 38.1835 33.0316 38.4562 33.5373C38.4759 33.5781 38.5116 33.5955 38.5313 33.6363C38.82 34.1189 39.1186 34.5268 39.5078 34.9219C39.5186 34.936 39.5276 34.9627 39.5383 34.9768C39.6705 35.1215 39.7936 35.2395 39.9399 35.3735C40.0415 35.4633 40.1325 35.5392 40.2218 35.6272C40.2449 35.6431 40.2575 35.6446 40.2806 35.6605C40.6659 35.9918 41.0472 36.2591 41.4692 36.5067C40.0132 35.7634 38.7661 34.6053 37.9325 33.1999C37.707 32.9033 37.5084 32.5975 37.2424 32.3204C37.2316 32.3063 37.2226 32.2799 37.2119 32.2658C36.8688 31.9022 36.5566 31.5936 36.1679 31.2875C35.6189 30.858 35.0563 30.5278 34.4387 30.2282C34.4033 30.2107 34.3535 30.204 34.3179 30.1863C33.7111 29.9008 33.089 29.7274 32.4514 29.5768C32.5073 29.7238 32.5948 29.8243 32.6756 29.9747C32.7349 30.0968 32.8068 30.2205 32.8924 30.3336C32.9553 30.4308 33.0053 30.5263 33.0556 30.6217C33.5628 31.4507 34.0428 32.2001 34.5798 32.9951C35.0452 33.6666 35.466 34.2939 35.9755 34.9204C35.9968 34.9486 36.0325 34.966 36.054 34.9943C36.5189 35.5769 37.0364 36.0528 37.6334 36.5015C38.3017 36.9854 39.0044 37.3092 39.7954 37.5439C39.8203 37.5473 39.8452 37.5506 39.8701 37.5542C40.3447 37.6951 40.817 37.7594 41.3068 37.7884V37.7882Z" fill="#009444"/>
<path d="M45.8824 27.2876C45.9591 27.2427 46.052 27.2048 46.1285 27.1599C46.4279 26.9969 46.6944 26.8202 46.9633 26.6157C47.3407 26.3124 47.6855 25.9953 47.9998 25.6367C47.5503 25.3324 47.0918 25.0725 46.5959 24.7872C45.845 24.3757 45.1528 24.008 44.4067 23.6081C43.4315 23.1119 42.5384 22.6503 41.5083 22.285C41.4919 22.2781 41.4688 22.2876 41.4524 22.2806C41.3262 22.2373 41.2002 22.1939 41.074 22.1505C40.9411 22.1236 40.8149 22.0803 40.682 22.0533C40.5208 22.0243 40.3785 21.974 40.2222 21.9566C40.1827 21.9592 40.1432 21.9617 40.0988 21.9527C39.9331 21.912 39.7886 21.8896 39.6255 21.8886C39.4787 21.8942 39.3409 21.8558 39.1944 21.8614C39.0641 21.874 38.9404 21.8701 38.817 21.8665C38.5353 21.8732 38.2675 21.9148 37.9837 21.9494C37.6533 22.003 37.3605 22.082 37.0442 22.1706C36.577 22.3206 36.1473 22.4961 35.7183 22.7394C35.5767 22.8243 35.4469 22.9043 35.3055 22.9892C35.2822 22.9987 35.2801 23.0267 35.257 23.0362C34.8558 23.2815 34.5179 23.5821 34.1846 23.8944C35.0797 23.6642 36.0041 23.5714 36.9408 23.6088C37.0247 23.6152 37.1202 23.6168 37.204 23.6232C37.808 23.6748 38.3678 23.7848 38.963 23.9483C39.2711 24.0391 39.5562 24.1397 39.8507 24.2633C40.3577 24.4763 40.8 24.7292 41.289 25.0309C41.3264 25.0563 41.366 25.0538 41.4034 25.0792C41.8947 25.3527 42.3573 25.5569 42.892 25.7041C42.9084 25.7111 42.9294 25.7295 42.9458 25.7365C43.1326 25.7957 43.2984 25.8365 43.4921 25.8794C43.6252 25.9063 43.7417 25.9266 43.863 25.9581C43.891 25.9602 43.9025 25.9556 43.9305 25.9576C44.4298 26.0518 44.8936 26.0926 45.3829 26.0962C43.7504 26.1806 42.0912 25.8011 40.6666 25.0007C40.323 24.8565 39.998 24.691 39.629 24.5843C39.6129 24.5773 39.5916 24.5589 39.5754 24.5522C39.0967 24.4088 38.6721 24.2977 38.1823 24.2269C37.4922 24.1294 36.8397 24.1248 36.155 24.174C36.1155 24.1766 36.069 24.1956 36.0295 24.1981C35.3614 24.2543 34.7357 24.4149 34.1082 24.6035C34.23 24.7028 34.3562 24.7462 34.5012 24.836C34.6136 24.9119 34.7375 24.9835 34.8683 25.0384C34.9712 25.0912 35.0626 25.149 35.1539 25.2064C36.0075 25.6708 36.7979 26.0797 37.6607 26.4997C38.3994 26.8484 39.0774 27.1814 39.832 27.4693C39.8646 27.4831 39.9043 27.4803 39.9369 27.4942C40.6309 27.7664 41.3169 27.9198 42.0584 28.0098C42.8791 28.0948 43.6496 28.024 44.4518 27.8315C44.4749 27.822 44.4983 27.8125 44.5216 27.8031C45.0029 27.6876 45.4442 27.5075 45.8829 27.2876H45.8824Z" fill="#F9ED32"/>
<path d="M44.5949 15.9059C44.6388 15.8287 44.7004 15.7494 44.7442 15.6724C44.922 15.3818 45.0647 15.0954 45.195 14.7837C45.3702 14.3324 45.5103 13.8853 45.6032 13.4175C45.0619 13.3788 44.5349 13.3829 43.9628 13.3839C43.1066 13.4029 42.3234 13.4306 41.4772 13.4573C40.3848 13.5153 39.3804 13.562 38.3056 13.7608C38.2879 13.7631 38.2725 13.7829 38.2551 13.7852C38.1243 13.8106 37.9932 13.8363 37.8623 13.8617C37.7338 13.9048 37.6027 13.9304 37.4741 13.9733C37.3202 14.0287 37.1717 14.0564 37.0277 14.1192C36.9949 14.1413 36.9618 14.1634 36.9189 14.1777C36.755 14.2255 36.6188 14.2783 36.4769 14.3589C36.3527 14.4371 36.2142 14.4725 36.09 14.551C35.9833 14.6272 35.8745 14.6857 35.7657 14.7442C35.5251 14.891 35.3139 15.0606 35.0853 15.2327C34.8259 15.4444 34.612 15.6594 34.3823 15.8941C34.0529 16.2577 33.7684 16.6245 33.5185 17.0497C33.4382 17.1941 33.3659 17.3283 33.2858 17.4725C33.2704 17.4925 33.2827 17.5176 33.2673 17.5374C33.0426 17.9504 32.9002 18.3797 32.7678 18.8166C33.4282 18.1698 34.182 17.6272 35.0119 17.191C35.0879 17.1546 35.1713 17.1081 35.2472 17.0717C35.796 16.8144 36.3358 16.6297 36.9331 16.4737C37.2455 16.3982 37.5424 16.3428 37.8592 16.3028C38.4049 16.2338 38.9142 16.2317 39.4886 16.2484C39.5338 16.2515 39.5666 16.2297 39.6118 16.2328C40.1739 16.224 40.6768 16.1694 41.2135 16.0298C41.2312 16.0275 41.2586 16.0332 41.2763 16.0309C41.4677 15.9888 41.6317 15.9411 41.8208 15.8815C41.9496 15.8384 42.0606 15.7974 42.1815 15.7643C42.2069 15.752 42.2143 15.7422 42.2397 15.7302C42.7192 15.5621 43.1415 15.3656 43.5669 15.1239C42.1953 16.0132 40.5688 16.5142 38.9347 16.5335C38.565 16.5804 38.201 16.5996 37.8279 16.6915C37.8105 16.6938 37.783 16.6882 37.7653 16.6905C37.2792 16.8057 36.8556 16.9219 36.3961 17.1053C35.7495 17.366 35.1823 17.6882 34.614 18.0733C34.5812 18.0954 34.5504 18.1352 34.5173 18.1572C33.9667 18.54 33.5052 18.9918 33.0559 19.469C33.2112 19.4941 33.342 19.4685 33.5126 19.4739C33.6481 19.4836 33.791 19.4834 33.9318 19.4654C34.0473 19.4598 34.1553 19.4639 34.263 19.4682C35.2346 19.4436 36.1236 19.4026 37.0808 19.3348C37.8949 19.2676 38.6484 19.2168 39.446 19.0888C39.4812 19.0844 39.5143 19.0621 39.5494 19.0577C40.2865 18.9464 40.9574 18.7363 41.6445 18.4435C42.3978 18.1067 43.0297 17.66 43.6282 17.0925C43.6436 17.0727 43.659 17.0527 43.6744 17.033C44.0336 16.6925 44.3255 16.3156 44.5957 15.9059H44.5949Z" fill="#F2BE37"/>
<path d="M37.7887 6.69316C37.7882 6.60439 37.8018 6.5051 37.8012 6.41633C37.81 6.07562 37.7902 5.75646 37.7474 5.42139C37.6735 4.94291 37.5714 4.48572 37.4177 4.03418C36.9295 4.27124 36.4751 4.53857 35.9802 4.82541C35.2485 5.26977 34.5837 5.68539 33.8643 6.13181C32.9472 6.7283 32.1008 7.27092 31.2693 7.98031C31.2551 7.99109 31.2518 8.01597 31.2377 8.02649C31.1371 8.11398 31.0366 8.20172 30.9357 8.28921C30.8459 8.39081 30.7454 8.47855 30.6553 8.58014C30.5496 8.70509 30.4349 8.80335 30.3418 8.92983C30.3243 8.96524 30.3066 9.0009 30.2769 9.03477C30.1586 9.15791 30.067 9.27209 29.9847 9.41268C29.9162 9.5425 29.8141 9.64255 29.7456 9.77237C29.6912 9.89167 29.6263 9.99661 29.5613 10.1018C29.4261 10.3491 29.3284 10.6016 29.2165 10.8651C29.0977 11.1781 29.0197 11.4713 28.9384 11.7892C28.8348 12.2687 28.7722 12.7287 28.7681 13.2221C28.7706 13.3873 28.7752 13.5397 28.7781 13.7047C28.7747 13.7295 28.7978 13.7454 28.7945 13.7703C28.8063 14.2403 28.8976 14.6834 29.0015 15.128C29.2499 14.2378 29.6314 13.3909 30.1322 12.5981C30.1797 12.5286 30.2289 12.4467 30.2764 12.3772C30.623 11.88 30.9981 11.4503 31.4373 11.0164C31.6703 10.795 31.8996 10.5985 32.1539 10.4053C32.5918 10.0725 33.0321 9.81625 33.5377 9.54352C33.5785 9.52377 33.596 9.48811 33.6368 9.46835C34.1194 9.17972 34.5273 8.88109 34.9224 8.49189C34.9365 8.48111 34.9632 8.47213 34.9773 8.46136C35.122 8.32923 35.2403 8.20608 35.3739 8.05984C35.464 7.95825 35.5397 7.86717 35.6277 7.77788C35.6436 7.75479 35.6451 7.74223 35.661 7.71914C35.9922 7.33378 36.2596 6.95254 36.5072 6.5305C35.7639 7.98647 34.6058 9.2336 33.2004 10.0672C32.9038 10.2924 32.598 10.4913 32.3209 10.7573C32.3068 10.7681 32.2804 10.7771 32.2662 10.7878C31.9027 11.1309 31.5941 11.4431 31.2877 11.8318C30.8583 12.3808 30.5281 12.9434 30.2284 13.561C30.211 13.5964 30.2043 13.6462 30.1866 13.6818C29.901 14.2886 29.7273 14.9107 29.577 15.5485C29.724 15.4926 29.8246 15.4051 29.9749 15.3243C30.097 15.265 30.2207 15.1935 30.3338 15.1075C30.4311 15.0447 30.5265 14.9946 30.622 14.9443C31.4509 14.4371 32.2003 13.9571 32.9954 13.4201C33.6668 12.9547 34.2941 12.534 34.9206 12.0244C34.9488 12.0029 34.9663 11.9672 34.9945 11.9459C35.5771 11.4811 36.0531 10.9636 36.5018 10.3666C36.9856 9.69823 37.3094 8.99551 37.5442 8.20454C37.5475 8.17966 37.5511 8.15477 37.5544 8.12989C37.6953 7.65525 37.7597 7.18293 37.7887 6.69316Z" fill="#009444"/>
<path d="M21.5078 2.00116C21.4447 1.93882 21.3839 1.85877 21.3208 1.79643C21.086 1.54962 20.8461 1.3377 20.5791 1.13117C20.1883 0.845107 19.793 0.593936 19.365 0.383301C19.1875 0.896162 19.0551 1.40646 18.9081 1.95934C18.7049 2.79111 18.5289 3.55488 18.3357 4.37895C18.1089 5.44931 17.8942 6.43142 17.808 7.52102C17.8057 7.53873 17.8208 7.55848 17.8182 7.57619C17.809 7.70934 17.7998 7.84224 17.7905 7.97539C17.799 8.11086 17.7898 8.24375 17.798 8.37922C17.8116 8.54213 17.8 8.69273 17.8234 8.84821C17.8362 8.88566 17.8488 8.92338 17.8516 8.96853C17.8552 9.13914 17.8711 9.28461 17.9121 9.44239C17.9558 9.58273 17.954 9.72564 17.9976 9.86597C18.0435 9.98861 18.0717 10.1089 18.1002 10.2293C18.1797 10.4997 18.289 10.7475 18.396 11.0128C18.5333 11.3181 18.6854 11.5806 18.8529 11.863C19.119 12.2753 19.3997 12.645 19.7455 12.9968C19.864 13.1114 19.9751 13.2161 20.0937 13.3308C20.1088 13.3508 20.1365 13.3454 20.1516 13.3657C20.4923 13.6897 20.8703 13.9383 21.2582 14.1792C20.8041 13.3742 20.4752 12.5055 20.2689 11.5908C20.2532 11.5082 20.2301 11.4153 20.2145 11.3327C20.108 10.7362 20.0693 10.1669 20.0731 9.54964C20.0811 9.22843 20.1044 8.92723 20.1478 8.61089C20.2222 8.06596 20.3523 7.57336 20.517 7.02279C20.5319 6.97994 20.519 6.94248 20.5339 6.89964C20.6709 6.35445 20.7481 5.85468 20.7525 5.3C20.7548 5.28229 20.7674 5.25715 20.7697 5.2397C20.7784 5.04395 20.7751 4.87334 20.7664 4.67528C20.7581 4.53981 20.7474 4.42205 20.7466 4.29659C20.7415 4.26914 20.7338 4.25914 20.7286 4.23143C20.6904 3.72472 20.6099 3.266 20.4864 2.79265C20.9903 4.34765 21.0534 6.04838 20.6491 7.6316C20.5986 8.00079 20.5231 8.35741 20.5154 8.74148C20.5131 8.75892 20.5006 8.78407 20.4983 8.80177C20.4836 9.30129 20.4865 9.74026 20.5447 10.2316C20.6294 10.9235 20.7936 11.5549 21.0183 12.2032C21.0311 12.2407 21.0614 12.2807 21.0742 12.3184C21.3013 12.9493 21.6184 13.5119 21.9629 14.0694C22.0273 13.926 22.0366 13.7929 22.0858 13.6297C22.1302 13.5014 22.1669 13.3631 22.1864 13.2225C22.2108 13.1094 22.2429 13.0063 22.2747 12.9034C22.5022 11.9585 22.6926 11.0892 22.875 10.1472C23.0207 9.34336 23.1667 8.60242 23.2496 7.79888C23.2545 7.76373 23.2416 7.72627 23.2465 7.69087C23.3299 6.95018 23.3004 6.24798 23.1955 5.50832C23.0651 4.69375 22.7973 3.96769 22.4037 3.24239C22.3886 3.22238 22.3734 3.20237 22.3583 3.18236C22.1223 2.74723 21.8339 2.36753 21.5081 2.00065L21.5078 2.00116Z" fill="#F5D235"/>
<path d="M10.847 6.19131C10.761 6.16873 10.6687 6.12999 10.5827 6.10767C10.2559 6.0112 9.94236 5.94758 9.6078 5.90242C9.1265 5.84983 8.65853 5.83033 8.18262 5.86189C8.28524 6.39476 8.42584 6.90275 8.5749 7.45537C8.81478 8.27739 9.0444 9.0268 9.28916 9.83701C9.62781 10.8774 9.93312 11.8353 10.4031 12.8221C10.4098 12.8385 10.4329 12.8482 10.4396 12.8647C10.4981 12.9845 10.5566 13.1043 10.6151 13.2241C10.69 13.3372 10.7485 13.4571 10.8234 13.5702C10.9168 13.7046 10.9819 13.8409 11.0799 13.9638C11.1097 13.9899 11.1395 14.0161 11.1646 14.0538C11.2529 14.1998 11.3393 14.3178 11.454 14.4338C11.5618 14.5336 11.6318 14.6583 11.7395 14.7578C11.8406 14.8409 11.9253 14.931 12.01 15.021C12.2139 15.2155 12.4325 15.3753 12.658 15.5516C12.9297 15.7474 13.1927 15.8985 13.4788 16.0596C13.9152 16.2838 14.3434 16.4634 14.8185 16.595C14.9786 16.635 15.1272 16.6702 15.2872 16.7102C15.3103 16.72 15.3316 16.7015 15.3547 16.7112C15.8119 16.8216 16.2635 16.848 16.7199 16.8626C15.924 16.3923 15.2049 15.8046 14.5689 15.1157C14.514 15.0518 14.4478 14.9831 14.3929 14.9194C14.0024 14.4561 13.6843 13.9822 13.379 13.4458C13.2253 13.1636 13.0949 12.8911 12.9741 12.5955C12.766 12.0863 12.6324 11.5947 12.4997 11.0357C12.491 10.9913 12.4612 10.9651 12.4528 10.9207C12.2988 10.3799 12.1159 9.90833 11.8422 9.42626C11.8355 9.40984 11.8337 9.38187 11.8268 9.36545C11.7365 9.19151 11.6482 9.04553 11.5415 8.87825C11.4666 8.76511 11.3983 8.66838 11.335 8.56011C11.3167 8.53882 11.3052 8.53395 11.2867 8.51265C11.0004 8.09292 10.7013 7.73605 10.3577 7.38764C11.5718 8.48238 12.4766 9.92373 12.9179 11.4969C13.0588 11.8418 13.1717 12.1886 13.3572 12.525C13.3638 12.5414 13.3656 12.5694 13.3725 12.5858C13.6096 13.0255 13.8315 13.4045 14.1276 13.8008C14.5468 14.3578 15.0048 14.8225 15.5238 15.2717C15.5535 15.2979 15.6 15.3174 15.6298 15.3433C16.1418 15.7761 16.6978 16.1047 17.2748 16.4152C17.2589 16.2587 17.2004 16.1389 17.1611 15.9729C17.1355 15.8395 17.0983 15.7014 17.0447 15.5701C17.0093 15.46 16.9854 15.3546 16.9615 15.2494C16.6863 14.3173 16.4164 13.4694 16.1034 12.5622C15.8276 11.7933 15.5836 11.0785 15.2536 10.3411C15.2403 10.3083 15.2103 10.2821 15.1969 10.2493C14.8986 9.56634 14.5222 8.97266 14.0614 8.38463C13.5411 7.74426 12.9461 7.24961 12.2429 6.81808C12.2198 6.80833 12.1967 6.79858 12.1734 6.78883C11.7514 6.52997 11.3119 6.3455 10.8462 6.19054L10.847 6.19131Z" fill="#91A93E"/>
<path d="M3.70951 15.1501C3.62407 15.1737 3.52452 15.1863 3.43883 15.2096C3.10762 15.2894 2.80437 15.3912 2.49188 15.5193C2.0488 15.7145 1.63369 15.9316 1.2373 16.1966C1.59264 16.6068 1.9685 16.9765 2.3736 17.3803C2.99242 17.9722 3.56583 18.5064 4.18285 19.0859C4.9964 19.8177 5.73965 20.4947 6.64018 21.114C6.65429 21.1251 6.67917 21.1217 6.69303 21.1325C6.80361 21.2069 6.91418 21.2816 7.02476 21.356C7.14611 21.4165 7.25669 21.4909 7.3783 21.5515C7.52633 21.6213 7.65076 21.7067 7.79726 21.7639C7.836 21.7716 7.87499 21.7793 7.91553 21.7996C8.0651 21.8819 8.19903 21.9407 8.3563 21.984C8.49946 22.0166 8.62261 22.0895 8.76577 22.1218C8.89507 22.1434 9.01334 22.179 9.13162 22.2147C9.40562 22.2811 9.67475 22.3104 9.95799 22.3501C10.291 22.3838 10.5945 22.3832 10.9229 22.3797C11.4129 22.3555 11.8735 22.2973 12.3509 22.1734C12.5095 22.128 12.6557 22.0841 12.8145 22.0389C12.8394 22.0356 12.8486 22.0092 12.8735 22.0061C13.3246 21.8729 13.7286 21.67 14.1314 21.4548C13.2071 21.4453 12.2904 21.2959 11.3952 21.0173C11.3157 20.9894 11.2241 20.9632 11.1446 20.9352C10.5748 20.7292 10.0624 20.478 9.5298 20.1661C9.25579 19.9985 9.00642 19.8277 8.75396 19.6322C8.31935 19.2953 7.95761 18.9364 7.56327 18.5184C7.53351 18.4843 7.49477 18.4766 7.46501 18.4422C7.06145 18.0507 6.66712 17.7341 6.18889 17.4532C6.17478 17.4424 6.15938 17.4191 6.14527 17.4083C5.98005 17.3029 5.83073 17.2205 5.65473 17.1289C5.53338 17.0684 5.42588 17.0189 5.31685 16.9568C5.29042 16.9475 5.27785 16.9491 5.25142 16.9398C4.79347 16.7197 4.35603 16.5601 3.88422 16.4303C5.48284 16.7715 6.9873 17.5671 8.15618 18.7091C8.45071 18.9374 8.72189 19.1811 9.05055 19.38C9.06466 19.3907 9.08005 19.4141 9.09416 19.4249C9.51954 19.6871 9.90104 19.9044 10.3557 20.0996C10.9973 20.3723 11.6261 20.5458 12.3001 20.6753C12.3389 20.683 12.3889 20.6766 12.4276 20.6846C13.0875 20.8034 13.7333 20.81 14.3883 20.7903C14.2964 20.6628 14.1856 20.5881 14.0688 20.4639C13.9801 20.3613 13.8787 20.2605 13.7664 20.1735C13.6807 20.0958 13.6073 20.0165 13.5342 19.9375C12.8297 19.2681 12.1721 18.6685 11.4473 18.0394C10.8241 17.5114 10.2553 17.0145 9.60087 16.5409C9.5729 16.5191 9.5339 16.5114 9.50594 16.4896C8.9061 16.047 8.28318 15.7214 7.59021 15.4426C6.81951 15.1483 6.05676 15.0172 5.23218 14.9951C5.20729 14.9982 5.18241 15.0015 5.15752 15.0046C4.66262 14.9915 4.18978 15.0513 3.70899 15.1501H3.70951Z" fill="#006838"/>
<path d="M2.00751 26.4773C1.94517 26.5404 1.86512 26.6009 1.80277 26.6643C1.55596 26.8991 1.34405 27.1387 1.13752 27.406C0.851455 27.7968 0.600283 28.1921 0.389648 28.6201C0.90251 28.7976 1.41281 28.93 1.96569 29.077C2.79745 29.2802 3.56123 29.4562 4.38555 29.6494C5.45592 29.8762 6.43802 30.0909 7.52763 30.1771C7.54533 30.1794 7.56509 30.1643 7.58279 30.1666C7.71569 30.1758 7.84884 30.1851 7.982 30.1943C8.11746 30.1858 8.25036 30.1951 8.38582 30.1869C8.54873 30.1733 8.69933 30.1848 8.85481 30.1615C8.89226 30.1486 8.92972 30.1361 8.97513 30.1332C9.14575 30.1297 9.29121 30.1137 9.449 30.0727C9.58908 30.0293 9.73224 30.0309 9.87258 29.9873C9.99521 29.9413 10.1155 29.9131 10.2359 29.8846C10.5063 29.8051 10.7541 29.6958 11.0194 29.5888C11.3247 29.4516 11.5872 29.2994 11.8696 29.1319C12.2819 28.8661 12.6516 28.5852 13.0034 28.2393C13.118 28.1208 13.2227 28.0097 13.3374 27.8912C13.3574 27.8758 13.3523 27.8483 13.3723 27.8332C13.6963 27.4925 13.9449 27.1146 14.1861 26.7267C13.381 27.1805 12.5123 27.5097 11.5977 27.7159C11.5151 27.7316 11.4222 27.7547 11.3396 27.7703C10.7431 27.8768 10.1738 27.9155 9.5565 27.9117C9.23529 27.9037 8.93408 27.8804 8.61775 27.8373C8.07281 27.7629 7.58022 27.6328 7.02965 27.4681C6.9868 27.4532 6.94935 27.4661 6.9065 27.4514C6.36131 27.3142 5.86154 27.237 5.30686 27.2328C5.28915 27.2305 5.26401 27.218 5.24657 27.2157C5.05081 27.2069 4.8802 27.2103 4.68214 27.219C4.54667 27.2272 4.42891 27.2382 4.30345 27.2387C4.276 27.2439 4.266 27.2516 4.23829 27.2567C3.73158 27.2949 3.27286 27.3755 2.79951 27.4989C4.35451 26.995 6.05524 26.9319 7.63846 27.3362C8.00765 27.3868 8.36427 27.4622 8.74834 27.4699C8.76578 27.4722 8.79118 27.4848 8.80863 27.4871C9.30815 27.5017 9.74712 27.4989 10.2387 27.4407C10.9306 27.356 11.562 27.1918 12.2103 26.9668C12.2478 26.954 12.2878 26.9237 12.3253 26.9109C12.9562 26.6838 13.5188 26.3667 14.0763 26.0221C13.9329 25.9578 13.7997 25.9485 13.6366 25.8993C13.5083 25.8549 13.37 25.8182 13.2294 25.7989C13.1162 25.7746 13.0134 25.7425 12.9102 25.7107C11.9653 25.4831 11.0961 25.2927 10.154 25.1103C9.35022 24.9646 8.60928 24.8186 7.80574 24.7358C7.77059 24.7309 7.73313 24.7437 7.69798 24.7388C6.9573 24.6557 6.25484 24.685 5.51544 24.7899C4.70086 24.9202 3.9748 25.1881 3.24951 25.5816C3.2295 25.5968 3.20949 25.6119 3.18948 25.6273C2.75435 25.8633 2.37465 26.1517 2.00777 26.4775L2.00751 26.4773Z" fill="#F5D235"/>
<path d="M6.19767 37.1375C6.17509 37.2235 6.13635 37.3158 6.11403 37.4018C6.01756 37.7286 5.95394 38.0422 5.90853 38.3767C5.85593 38.858 5.83643 39.326 5.86799 39.8019C6.40086 39.6993 6.90885 39.5587 7.46122 39.4096C8.28324 39.1697 9.03264 38.9401 9.84285 38.6954C10.8832 38.3567 11.8412 38.0516 12.8279 37.5814C12.8443 37.5747 12.8541 37.5516 12.8705 37.5449C12.9903 37.4864 13.1101 37.428 13.2299 37.3695C13.3431 37.2945 13.4629 37.236 13.576 37.1611C13.7105 37.0677 13.8467 37.0026 13.9696 36.9046C13.9958 36.8748 14.0219 36.8451 14.0597 36.8199C14.2056 36.7314 14.3237 36.6449 14.4396 36.5305C14.5394 36.4228 14.6641 36.3527 14.7637 36.245C14.847 36.1439 14.9368 36.0592 15.0269 35.9745C15.2214 35.7706 15.3812 35.552 15.5574 35.3267C15.7532 35.055 15.9043 34.7921 16.0654 34.506C16.2897 34.0696 16.4693 33.6417 16.6009 33.1663C16.6409 33.0062 16.676 32.8576 16.7161 32.6975C16.7258 32.6742 16.7073 32.6531 16.7171 32.63C16.8274 32.1729 16.8536 31.7213 16.8685 31.2649C16.3982 32.0607 15.8104 32.7799 15.1216 33.4159C15.0577 33.4708 14.9889 33.537 14.9253 33.5919C14.4619 33.9824 13.9881 34.3005 13.4516 34.6058C13.1694 34.7595 12.8969 34.8898 12.6014 35.0107C12.0924 35.2187 11.6005 35.3524 11.0415 35.4848C10.9971 35.4935 10.9709 35.5233 10.9266 35.5317C10.3857 35.6857 9.91418 35.8686 9.43211 36.1423C9.41569 36.149 9.38772 36.1508 9.3713 36.1577C9.19736 36.248 9.05137 36.3363 8.88409 36.443C8.77095 36.5179 8.67423 36.5862 8.56596 36.6496C8.54467 36.6678 8.53979 36.6793 8.5185 36.6978C8.09877 36.9841 7.7419 37.2835 7.39349 37.6268C8.48822 36.413 9.92957 35.5079 11.5028 35.0666C11.8476 34.9257 12.1945 34.8128 12.5308 34.6274C12.5472 34.6207 12.5752 34.6189 12.5916 34.6122C13.0314 34.3749 13.4103 34.1532 13.8069 33.8572C14.3639 33.4379 14.8286 32.98 15.2778 32.461C15.304 32.4312 15.3235 32.3848 15.3494 32.355C15.7822 31.8429 16.1108 31.287 16.4213 30.71C16.265 30.7259 16.145 30.7844 15.979 30.8236C15.8456 30.8493 15.7075 30.8865 15.5762 30.9401C15.4661 30.9755 15.3609 30.9994 15.2555 31.0232C14.3234 31.2985 13.4755 31.5684 12.5683 31.8814C11.7994 32.1572 11.0846 32.4012 10.3473 32.7311C10.3144 32.7445 10.2882 32.7745 10.2554 32.7878C9.57244 33.086 8.97877 33.4626 8.39073 33.9234C7.75036 34.4437 7.25572 35.0386 6.82419 35.7418C6.81444 35.7649 6.80469 35.788 6.79494 35.8114C6.53607 36.2334 6.35135 36.6729 6.19664 37.1386L6.19767 37.1375Z" fill="#91A93E"/>
<path d="M15.156 44.2754C15.1793 44.3611 15.1921 44.4604 15.2155 44.5461C15.2953 44.8773 15.3971 45.1806 15.5251 45.4933C15.7204 45.9364 15.9374 46.3515 16.2027 46.7479C16.613 46.3926 16.9826 46.017 17.3865 45.6116C17.9784 44.9928 18.5125 44.4194 19.0921 43.8021C19.8235 42.9885 20.5008 42.2453 21.1202 41.3448C21.1312 41.3306 21.1279 41.3058 21.1386 41.2919C21.2133 41.1813 21.2877 41.0708 21.3621 40.9599C21.4227 40.8386 21.4971 40.7277 21.5576 40.6064C21.6274 40.4583 21.7128 40.3339 21.77 40.1874C21.7777 40.1487 21.7854 40.1097 21.8057 40.0691C21.8881 39.9196 21.9468 39.7856 21.9902 39.6284C22.0227 39.4852 22.0956 39.3621 22.1279 39.2189C22.1495 39.0896 22.1851 38.9713 22.2208 38.8531C22.2873 38.5791 22.3165 38.3099 22.3565 38.0267C22.3901 37.6937 22.3896 37.3902 22.386 37.0618C22.3619 36.5717 22.3037 36.1112 22.1798 35.6338C22.1344 35.4749 22.0905 35.329 22.0453 35.1702C22.042 35.1453 22.0156 35.136 22.0125 35.1111C21.8793 34.6601 21.6764 34.256 21.4611 33.8532C21.4516 34.7776 21.3023 35.6943 21.0237 36.5894C20.9957 36.6687 20.9696 36.7606 20.9416 36.8401C20.7356 37.4099 20.4844 37.9223 20.1724 38.4551C20.0049 38.7291 19.834 38.9785 19.6385 39.231C19.3017 39.6656 18.9428 40.0273 18.5248 40.4217C18.4907 40.4514 18.483 40.4902 18.4486 40.5199C18.0571 40.9235 17.7405 41.3178 17.4596 41.796C17.4488 41.8102 17.4255 41.8256 17.4144 41.8397C17.309 42.0049 17.2266 42.1542 17.135 42.3302C17.0745 42.4518 17.025 42.559 16.9629 42.6681C16.9537 42.6945 16.9552 42.7071 16.946 42.7335C16.7256 43.1915 16.5663 43.6289 16.4362 44.1007C16.7774 42.5021 17.573 40.9976 18.7149 39.8287C18.9433 39.5342 19.187 39.263 19.3858 38.9344C19.3966 38.9203 19.42 38.9049 19.4307 38.8908C19.6929 38.4654 19.9102 38.0839 20.1055 37.6293C20.3782 36.9879 20.5516 36.3588 20.6812 35.6848C20.6889 35.6461 20.6825 35.596 20.6902 35.5573C20.809 34.8974 20.8156 34.2517 20.7959 33.5967C20.6684 33.6885 20.594 33.7994 20.4695 33.9161C20.3669 34.0049 20.2661 34.1062 20.1791 34.2186C20.1016 34.3043 20.0221 34.3776 19.9431 34.4508C19.2737 35.1553 18.6741 35.8128 18.0451 36.5376C17.5171 37.1608 17.0201 37.7296 16.5465 38.3841C16.5247 38.412 16.517 38.451 16.4954 38.479C16.0529 39.0788 15.7273 39.7018 15.4482 40.3947C15.1539 41.1654 15.0228 41.9282 15.0007 42.753C15.0038 42.7779 15.0071 42.8028 15.0102 42.8277C14.9971 43.3226 15.0569 43.7954 15.1557 44.2759L15.156 44.2754Z" fill="#39B54A"/>
<path d="M26.4838 45.9769C26.5469 46.0392 26.6074 46.1193 26.6708 46.1816C26.9056 46.4287 27.1452 46.6404 27.4125 46.8471C27.8032 47.1332 28.1986 47.3841 28.6265 47.595C28.8041 47.0822 28.9365 46.5719 29.0835 46.019C29.2867 45.1872 29.4627 44.4234 29.6559 43.5994C29.8827 42.529 30.0974 41.5466 30.1836 40.4573C30.1859 40.4396 30.1708 40.4198 30.1731 40.4021C30.1823 40.269 30.1916 40.1361 30.2008 40.0029C30.1923 39.8675 30.2016 39.7346 30.1933 39.5991C30.1797 39.4359 30.1913 39.2853 30.1677 39.1301C30.1551 39.0927 30.1423 39.0549 30.1395 39.0098C30.1359 38.8392 30.12 38.6937 30.0789 38.5359C30.0356 38.3958 30.0371 38.2527 29.9935 38.1126C29.9476 37.99 29.9193 37.8696 29.8909 37.7493C29.8113 37.4789 29.702 37.2311 29.5951 36.9658C29.4578 36.6605 29.3057 36.398 29.1381 36.1155C28.8723 35.7033 28.5914 35.3336 28.2456 34.9818C28.127 34.8671 28.0159 34.7625 27.8974 34.6475C27.882 34.6275 27.8546 34.6329 27.8394 34.6129C27.4987 34.2888 27.1208 34.0402 26.7329 33.7991C27.1867 34.6042 27.5159 35.4729 27.7222 36.3875C27.7378 36.4701 27.7609 36.563 27.7766 36.6456C27.883 37.2423 27.9218 37.8114 27.9179 38.4287C27.91 38.7499 27.8866 39.0511 27.8433 39.3677C27.7689 39.9126 27.6388 40.4052 27.4741 40.9555C27.4592 40.9984 27.472 41.0358 27.4571 41.0787C27.3199 41.6239 27.2427 42.1236 27.2386 42.6783C27.2363 42.696 27.2237 42.7212 27.2214 42.7386C27.2127 42.9344 27.216 43.105 27.2247 43.303C27.2332 43.4385 27.2439 43.5565 27.2447 43.682C27.2498 43.7094 27.2575 43.7194 27.2627 43.7471C27.3009 44.2538 27.3815 44.7123 27.5049 45.1859C27.001 43.6309 26.9379 41.9302 27.3422 40.347C27.3925 39.9778 27.4682 39.6209 27.4759 39.2371C27.4782 39.2196 27.4908 39.1945 27.4931 39.1768C27.5077 38.6773 27.5049 38.2383 27.4466 37.7467C27.3622 37.0548 27.1978 36.4234 26.973 35.7748C26.9602 35.7374 26.9299 35.6974 26.9171 35.6599C26.69 35.029 26.3729 34.4664 26.0284 33.9089C25.964 34.0523 25.9547 34.1854 25.9055 34.3486C25.8611 34.4769 25.8242 34.6152 25.8049 34.7558C25.7805 34.8689 25.7485 34.9718 25.7167 35.0749C25.4891 36.0198 25.2987 36.8891 25.1163 37.8312C24.9706 38.635 24.8246 39.3759 24.7417 40.1794C24.7369 40.2146 24.7497 40.252 24.7448 40.2872C24.6614 41.0279 24.6909 41.7303 24.7959 42.4697C24.9262 43.2843 25.194 44.0104 25.5876 44.7357C25.6027 44.7557 25.6179 44.7757 25.633 44.7957C25.869 45.2308 26.1574 45.6105 26.4833 45.9772L26.4838 45.9769Z" fill="#F5D235"/>
<path d="M37.1442 41.7878C37.2301 41.8104 37.3225 41.8491 37.4084 41.8714C37.7353 41.9679 38.0488 42.0315 38.3833 42.0769C38.8646 42.1293 39.3326 42.149 39.8085 42.1174C39.7059 41.5846 39.5653 41.0766 39.4162 40.5242C39.1764 39.7022 38.9467 38.9528 38.702 38.1423C38.3633 37.102 38.058 36.144 37.588 35.1573C37.5813 35.1408 37.5582 35.1311 37.5516 35.1147C37.4931 34.9949 37.4346 34.8751 37.3761 34.7552C37.3012 34.6421 37.2427 34.5223 37.1678 34.4091C37.0744 34.2747 37.0092 34.1385 36.9112 34.0156C36.8814 33.9894 36.8517 33.9632 36.8265 33.9255C36.738 33.7795 36.6518 33.6615 36.5371 33.5453C36.4294 33.4458 36.3593 33.3208 36.2516 33.2213C36.1505 33.1379 36.0658 33.0478 35.9812 32.958C35.7772 32.7636 35.5586 32.6035 35.3334 32.4272C35.0617 32.2315 34.7987 32.0804 34.5126 31.9192C34.0762 31.695 33.6483 31.5154 33.1729 31.3838C33.0128 31.3438 32.8642 31.3086 32.7042 31.2686C32.6808 31.2589 32.6598 31.2773 32.6367 31.2676C32.1797 31.1573 31.7279 31.1311 31.2715 31.1162C32.0671 31.5865 32.7865 32.1743 33.4225 32.8631C33.4774 32.927 33.5436 32.9955 33.5985 33.0594C33.989 33.5227 34.3071 33.9966 34.6124 34.5331C34.7661 34.8153 34.8964 35.0877 35.0173 35.3835C35.2254 35.8926 35.359 36.3841 35.4914 36.9434C35.5001 36.9878 35.5299 37.014 35.5384 37.0584C35.6923 37.5992 35.8752 38.0707 36.149 38.5528C36.1556 38.5692 36.1574 38.5972 36.1644 38.6136C36.2547 38.7876 36.3429 38.9336 36.4494 39.1008C36.5243 39.214 36.5926 39.3107 36.6559 39.419C36.6741 39.4403 36.6857 39.4451 36.7039 39.4662C36.9905 39.8859 37.2896 40.2428 37.6332 40.5912C36.4191 39.4964 35.5142 38.0551 35.0727 36.4816C34.9319 36.1368 34.819 35.7899 34.6335 35.4536C34.6268 35.4374 34.625 35.4092 34.6183 35.3928C34.3813 34.953 34.1594 34.5741 33.8633 34.1775C33.4441 33.6205 32.9861 33.1559 32.4671 32.7066C32.4373 32.6804 32.3909 32.6612 32.3611 32.635C31.849 32.2022 31.2931 31.8736 30.7158 31.5631C30.7317 31.7196 30.7902 31.8394 30.8295 32.0054C30.8551 32.1389 30.8923 32.2769 30.946 32.4082C30.9814 32.5183 31.0052 32.6237 31.0291 32.7289C31.3044 33.661 31.5743 34.5089 31.8873 35.4161C32.1631 36.185 32.4071 36.8998 32.737 37.6369C32.7503 37.6697 32.7803 37.6959 32.7937 37.7288C33.0921 38.4117 33.4684 39.0054 33.9292 39.5934C34.4495 40.2338 35.0445 40.7284 35.7477 41.16C35.7708 41.1697 35.7939 41.1795 35.8172 41.1892C36.2393 41.4481 36.6788 41.6326 37.1444 41.7873L37.1442 41.7878Z" fill="#91A93E"/>
<path d="M44.2818 32.8289C44.3675 32.8055 44.4668 32.7927 44.5525 32.7694C44.8837 32.6896 45.1869 32.5877 45.4997 32.4597C45.9428 32.2644 46.3579 32.0474 46.7542 31.7821C46.3989 31.3719 46.0231 31.0022 45.618 30.5983C44.9991 30.0065 44.4257 29.4721 43.8084 28.8927C42.9949 28.161 42.2516 27.484 41.3511 26.8646C41.337 26.8536 41.3121 26.8569 41.2983 26.8462C41.1877 26.7715 41.0771 26.6971 40.9663 26.6227C40.8449 26.5622 40.7341 26.4878 40.6127 26.4272C40.4647 26.3574 40.3403 26.272 40.1938 26.2148C40.155 26.2071 40.116 26.1994 40.0755 26.1791C39.9259 26.0968 39.792 26.038 39.6347 25.9947C39.4916 25.9621 39.3684 25.8892 39.2253 25.8569C39.096 25.8353 38.9777 25.7997 38.8594 25.7643C38.5854 25.6978 38.3163 25.6686 38.033 25.6285C37.7 25.5949 37.3965 25.5955 37.0681 25.599C36.5781 25.6232 36.1176 25.6814 35.6401 25.8053C35.4813 25.8507 35.3353 25.8946 35.1765 25.9398C35.1516 25.9431 35.1424 25.9695 35.1175 25.9726C34.6665 26.1057 34.2624 26.3087 33.8596 26.5239C34.784 26.5334 35.7007 26.6827 36.5958 26.9614C36.6753 26.9893 36.7669 27.0155 36.8465 27.0435C37.4163 27.2495 37.9286 27.5007 38.4612 27.8126C38.7355 27.9802 38.9846 28.151 39.2371 28.3465C39.6717 28.6834 40.0332 29.0423 40.4278 29.4603C40.4575 29.4944 40.4963 29.5021 40.526 29.5365C40.9296 29.928 41.3239 30.2448 41.8021 30.5255C41.8163 30.5365 41.8317 30.5596 41.8458 30.5706C42.011 30.6761 42.1603 30.7584 42.3363 30.85C42.4579 30.9106 42.5652 30.9601 42.6744 31.0222C42.7009 31.0314 42.7134 31.0299 42.7399 31.0391C43.1978 31.2595 43.6353 31.4188 44.1071 31.5489C42.5085 31.2077 41.004 30.4121 39.8351 29.2701C39.5406 29.0418 39.2694 28.7981 38.9407 28.5995C38.9266 28.5887 38.9112 28.5654 38.8971 28.5546C38.4718 28.2921 38.0903 28.0751 37.6356 27.8799C36.9942 27.6071 36.3652 27.4337 35.6912 27.3041C35.6524 27.2964 35.6027 27.3028 35.5637 27.2952C34.9038 27.1764 34.2578 27.1697 33.6028 27.1895C33.6946 27.317 33.8055 27.3916 33.9222 27.5158C34.011 27.6184 34.1123 27.7192 34.2244 27.8062C34.3101 27.8837 34.3835 27.9632 34.4566 28.0423C35.1611 28.7119 35.8187 29.3112 36.5432 29.9403C37.1664 30.4683 37.7352 30.9652 38.3897 31.4388C38.4176 31.4606 38.4566 31.4683 38.4846 31.4899C39.0844 31.9325 39.7073 32.258 40.4003 32.5372C41.171 32.8314 41.9338 32.9625 42.7583 32.9846C42.7832 32.9815 42.8081 32.9782 42.833 32.9751C43.3279 32.9882 43.8007 32.9284 44.2813 32.8296L44.2818 32.8289Z" fill="#006838"/>
<path d="M45.9837 21.5012C46.0461 21.4381 46.1261 21.3773 46.1885 21.3142C46.4355 21.0794 46.6472 20.8395 46.854 20.5725C47.1401 20.1817 47.3912 19.7864 47.6019 19.3584C47.089 19.1809 46.5787 19.0485 46.0258 18.9015C45.1941 18.6983 44.4303 18.5223 43.606 18.3291C42.5356 18.1023 41.5532 17.8876 40.4639 17.8014C40.4462 17.7991 40.4264 17.8142 40.4087 17.8116C40.2756 17.8024 40.1427 17.7932 40.0095 17.7839C39.8741 17.7921 39.7412 17.7832 39.6057 17.7914C39.4425 17.805 39.2919 17.7934 39.1367 17.817C39.0992 17.8296 39.0615 17.8424 39.0164 17.8453C38.8458 17.8488 38.7003 17.8648 38.5425 17.9058C38.4024 17.9492 38.2593 17.9476 38.1192 17.9912C37.9966 18.0372 37.8762 18.0654 37.7559 18.0939C37.4855 18.1734 37.2376 18.2827 36.9724 18.3897C36.6671 18.5269 36.4046 18.6791 36.1221 18.8466C35.7098 19.1124 35.3401 19.3933 34.9887 19.7392C34.8737 19.8577 34.7693 19.9688 34.6544 20.0873C34.6344 20.1027 34.6395 20.1302 34.6195 20.1453C34.2954 20.486 34.0468 20.8639 33.8057 21.2518C34.6107 20.798 35.4795 20.4688 36.3941 20.2626C36.4767 20.2469 36.5696 20.2238 36.6522 20.2082C37.2489 20.1017 37.818 20.0629 38.4353 20.0668C38.7565 20.0747 39.0577 20.0981 39.374 20.1415C39.9189 20.2159 40.4115 20.3459 40.9619 20.5106C41.0047 20.5255 41.0422 20.5127 41.085 20.5276C41.6302 20.6648 42.13 20.7421 42.6847 20.7462C42.7024 20.7485 42.7275 20.761 42.7449 20.7634C42.9407 20.7721 43.1113 20.7687 43.3094 20.76C43.4448 20.7518 43.5629 20.7408 43.6883 20.7403C43.7158 20.7351 43.7258 20.7274 43.7535 20.7223C44.2602 20.6841 44.7189 20.6035 45.1923 20.4801C43.6373 20.984 41.9365 21.0471 40.353 20.6428C39.9839 20.5925 39.6272 20.5168 39.2432 20.5091C39.2257 20.5068 39.2006 20.4942 39.1829 20.4919C38.6834 20.4773 38.2444 20.4801 37.7528 20.5384C37.0609 20.6228 36.4295 20.7872 35.7809 21.012C35.7435 21.0248 35.7034 21.0551 35.666 21.0679C35.0351 21.2949 34.4725 21.6121 33.915 21.9566C34.0584 22.021 34.1915 22.0302 34.3547 22.0795C34.483 22.1239 34.621 22.1608 34.7619 22.1801C34.875 22.2044 34.9779 22.2365 35.081 22.2683C36.0257 22.4959 36.8951 22.6863 37.8372 22.8687C38.641 23.0144 39.382 23.1604 40.1855 23.2433C40.2207 23.2481 40.2581 23.2353 40.2933 23.2402C41.034 23.3236 41.7364 23.294 42.4758 23.1891C43.2904 23.0588 44.0164 22.7909 44.7417 22.3974C44.7618 22.3822 44.7818 22.3671 44.8018 22.352C45.2369 22.1159 45.6166 21.8276 45.9832 21.5017L45.9837 21.5012Z" fill="#F5D235"/>
<path d="M41.7941 10.8404C41.8167 10.7544 41.8554 10.6621 41.8778 10.5761C41.9742 10.2493 42.0378 9.93576 42.0833 9.60121C42.1356 9.11991 42.1553 8.65169 42.1238 8.17603C41.5909 8.27865 41.0829 8.41924 40.5306 8.5683C39.7085 8.80819 38.9591 9.03781 38.1487 9.28256C37.1083 9.62122 36.1503 9.92653 35.1636 10.3965C35.1472 10.4032 35.1374 10.4263 35.121 10.433C35.0012 10.4915 34.8814 10.55 34.7613 10.6087C34.6482 10.6836 34.5284 10.7421 34.4152 10.817C34.2808 10.9104 34.1446 10.9756 34.0217 11.0739C33.9955 11.1036 33.9693 11.1334 33.9316 11.1585C33.7856 11.247 33.6676 11.3332 33.5516 11.4479C33.4518 11.5557 33.3272 11.6257 33.2276 11.7335C33.1442 11.8346 33.0544 11.9192 32.9644 12.0041C32.7699 12.2081 32.6098 12.4267 32.4338 12.6519C32.2381 12.9236 32.087 13.1866 31.9258 13.4727C31.7016 13.9091 31.522 14.337 31.3904 14.8124C31.3504 14.9725 31.3152 15.1211 31.2752 15.2812C31.2655 15.3045 31.2839 15.3256 31.2742 15.3486C31.1639 15.8056 31.1374 16.2574 31.1228 16.7138C31.5931 15.9182 32.1809 15.1988 32.8697 14.5628C32.9336 14.5079 33.0024 14.4417 33.066 14.3868C33.5293 13.9963 34.0032 13.6782 34.5397 13.3729C34.8219 13.2192 35.0943 13.0889 35.3901 12.968C35.8992 12.76 36.3907 12.6263 36.95 12.4939C36.9944 12.4852 37.0206 12.4554 37.065 12.447C37.6058 12.293 38.0773 12.1101 38.5594 11.8364C38.5758 11.8297 38.6038 11.8279 38.6202 11.821C38.7942 11.7306 38.9402 11.6424 39.1074 11.5357C39.2206 11.4607 39.3173 11.3925 39.4256 11.3291C39.4469 11.3109 39.4517 11.2994 39.4728 11.2809C39.8925 10.9946 40.2494 10.6954 40.5978 10.3516C39.503 11.5657 38.0617 12.4706 36.4882 12.9121C36.1434 13.053 35.7965 13.1658 35.4602 13.3513C35.444 13.358 35.4158 13.3598 35.3994 13.3665C34.9596 13.6035 34.5807 13.8255 34.1841 14.1215C33.6271 14.5407 33.1625 14.9987 32.7132 15.5177C32.687 15.5475 32.6678 15.5939 32.6416 15.6237C32.2088 16.1358 31.8802 16.6917 31.5697 17.269C31.7262 17.2531 31.846 17.1946 32.012 17.1553C32.1452 17.1297 32.2835 17.0925 32.4148 17.0388C32.5249 17.0034 32.6303 16.9796 32.7355 16.9557C33.6676 16.6804 34.5155 16.4108 35.4227 16.0975C36.1916 15.8217 36.9064 15.5777 37.6438 15.2478C37.6766 15.2345 37.7028 15.2045 37.7356 15.1911C38.4188 14.8927 39.0122 14.5164 39.6003 14.0556C40.2407 13.5353 40.7353 12.9403 41.1668 12.2371C41.1766 12.214 41.1863 12.1907 41.1961 12.1676C41.4549 11.7455 41.6394 11.306 41.7941 10.8404Z" fill="#91A93E"/>
<path d="M32.8352 3.70293C32.8119 3.61724 32.7991 3.51769 32.7757 3.43226C32.6959 3.10104 32.5941 2.79779 32.4661 2.48504C32.2708 2.04196 32.0538 1.62685 31.7885 1.23047C31.3782 1.5858 31.0085 1.96166 30.6047 2.36677C30.0128 2.98559 29.4787 3.559 28.8991 4.17602C28.1674 4.98957 27.4904 5.73282 26.871 6.63334C26.8602 6.64745 26.8633 6.67234 26.8525 6.68619C26.7779 6.79677 26.7035 6.90734 26.6288 7.01818C26.5683 7.13953 26.4939 7.25036 26.4333 7.37172C26.3635 7.51975 26.2781 7.64444 26.2209 7.79068C26.2132 7.82942 26.2055 7.86841 26.1852 7.90895C26.1029 8.05852 26.0441 8.19245 26.0008 8.34972C25.9682 8.49288 25.8953 8.61603 25.863 8.75919C25.8415 8.88849 25.8058 9.00677 25.7701 9.12504C25.7037 9.39904 25.6744 9.66817 25.6344 9.95141C25.6008 10.2844 25.6013 10.5879 25.6049 10.9161C25.629 11.4061 25.6873 11.8666 25.8112 12.3441C25.8566 12.5029 25.9005 12.6489 25.9456 12.8077C25.949 12.8326 25.9754 12.8418 25.9785 12.8667C26.1116 13.3177 26.3145 13.7218 26.5298 14.1246C26.5393 13.2002 26.6886 12.2835 26.9672 11.3884C26.9949 11.3089 27.0214 11.2173 27.0493 11.1377C27.2553 10.5677 27.5065 10.0556 27.8185 9.52271C27.986 9.24844 28.1569 8.99933 28.3524 8.74687C28.6893 8.31226 29.0482 7.95077 29.4661 7.55618C29.5002 7.52642 29.5079 7.48768 29.5423 7.45792C29.9338 7.05435 30.2504 6.66002 30.5313 6.18205C30.5424 6.16794 30.5657 6.15229 30.5765 6.13844C30.6819 5.97321 30.7643 5.8239 30.8559 5.6479C30.9164 5.52629 30.966 5.41879 31.028 5.31001C31.0373 5.28359 31.0357 5.27101 31.045 5.24459C31.2651 4.78663 31.4247 4.3492 31.5545 3.87738C31.2135 5.476 30.4177 6.98046 29.2757 8.14935C29.0474 8.44387 28.8037 8.71506 28.6051 9.04371C28.5943 9.05757 28.571 9.07322 28.5602 9.08733C28.298 9.5127 28.0807 9.8942 27.8855 10.3488C27.6127 10.9902 27.4393 11.6193 27.3097 12.2933C27.302 12.332 27.3085 12.3821 27.3008 12.4208C27.182 13.0807 27.1753 13.7267 27.1951 14.3817C27.3226 14.2898 27.397 14.179 27.5214 14.0623C27.624 13.9735 27.7249 13.8721 27.8118 13.76C27.8896 13.6743 27.9688 13.601 28.0479 13.5278C28.7175 12.8233 29.3168 12.1658 29.9459 11.4413C30.4739 10.8181 30.9708 10.2493 31.4444 9.5948C31.4662 9.56684 31.4739 9.52784 31.4955 9.49987C31.9381 8.90004 32.2639 8.27711 32.5428 7.58415C32.837 6.81345 32.9681 6.0507 32.9902 5.22612C32.9871 5.20123 32.9838 5.17634 32.9807 5.15146C32.9938 4.65655 32.934 4.18372 32.8352 3.70318V3.70293Z" fill="#006838"/>
</svg>
