<svg width="189" height="72" viewBox="0 0 189 72" fill="none" xmlns="http://www.w3.org/2000/svg">
<path d="M36.0566 49.7921C43.8152 49.7921 50.1047 43.5026 50.1047 35.744C50.1047 27.9854 43.8152 21.6958 36.0566 21.6958C28.298 21.6958 22.0084 27.9854 22.0084 35.744C22.0084 43.5026 28.298 49.7921 36.0566 49.7921Z" fill="#FFC907"/>
<path d="M36.0566 46.5781C42.0401 46.5781 46.8908 41.7275 46.8908 35.744C46.8908 29.7604 42.0401 24.9098 36.0566 24.9098C30.073 24.9098 25.2224 29.7604 25.2224 35.744C25.2224 41.7275 30.073 46.5781 36.0566 46.5781Z" fill="#F99B1C"/>
<path d="M36.0564 43.6347C40.4145 43.6347 43.9474 40.1018 43.9474 35.7438C43.9474 31.3857 40.4145 27.8528 36.0564 27.8528C31.6983 27.8528 28.1654 31.3857 28.1654 35.7438C28.1654 40.1018 31.6983 43.6347 36.0564 43.6347Z" fill="#F47521"/>
<g style="mix-blend-mode:multiply">
<path d="M40.6808 3.37681C40.6138 3.26284 40.5572 3.124 40.4907 3.01002C40.2478 2.56366 39.9843 2.16626 39.6794 1.7658C39.2273 1.20317 38.7546 0.689121 38.2199 0.220581C37.7663 0.890689 37.3788 1.57418 36.9535 2.31352C36.34 3.43266 35.7919 4.46498 35.1956 5.57723C34.4559 7.03104 33.7678 8.36246 33.2231 9.89812C33.2128 9.9226 33.227 9.95703 33.2166 9.98151C33.152 10.1697 33.0874 10.3575 33.0227 10.5457C32.9826 10.7438 32.9179 10.932 32.8778 11.1301C32.8345 11.3699 32.7596 11.5826 32.7336 11.8155C32.7374 11.8744 32.7412 11.9333 32.7278 11.9995C32.667 12.2466 32.6337 12.4619 32.6322 12.7052C32.6406 12.9239 32.5833 13.1293 32.5917 13.3481C32.6104 13.5424 32.6047 13.7268 32.5993 13.9107C32.6093 14.3307 32.6712 14.7296 32.7229 15.153C32.8028 15.6457 32.9206 16.0825 33.0526 16.5537C33.2763 17.2502 33.5383 17.8908 33.9005 18.5307C34.0271 18.7419 34.1465 18.9354 34.2731 19.1461C34.2872 19.1806 34.3289 19.184 34.3431 19.2184C34.7087 19.8166 35.157 20.3204 35.6224 20.8172C35.2794 19.4823 35.1409 18.1047 35.1964 16.7082C35.2059 16.5831 35.2082 16.4409 35.2178 16.3158C35.2947 15.4158 35.4588 14.5808 35.7024 13.6935C35.8378 13.2341 35.9877 12.8092 36.1721 12.3701C36.4895 11.6143 36.8667 10.9549 37.3165 10.2259C37.3543 10.1701 37.3501 10.1112 37.3884 10.0553C37.7961 9.32288 38.1002 8.63326 38.3201 7.83617C38.3304 7.81169 38.358 7.78033 38.3679 7.75585C38.4563 7.4774 38.5171 7.23032 38.5809 6.94155C38.6211 6.74342 38.6513 6.56939 38.6984 6.38848C38.7014 6.34679 38.6945 6.32958 38.6976 6.28789C38.838 5.54358 38.8988 4.85205 38.9041 4.12265C39.0296 6.55638 38.4643 9.02989 37.2709 11.1538C37.056 11.666 36.8093 12.1506 36.6502 12.7006C36.6399 12.725 36.6123 12.7564 36.6024 12.7809C36.3886 13.4946 36.2233 14.1276 36.1174 14.8578C35.972 15.887 35.9652 16.8593 36.0386 17.8801C36.0424 17.939 36.0707 18.0083 36.0745 18.0676C36.1583 19.0635 36.3977 19.996 36.6789 20.932C36.8269 20.7503 36.8915 20.5621 37.0254 20.346C37.139 20.1785 37.2453 19.9937 37.3272 19.7987C37.406 19.6453 37.4916 19.5091 37.5777 19.373C38.27 18.1004 38.8797 16.922 39.5058 15.6357C40.0256 14.5346 40.5217 13.5237 40.9512 12.3988C40.9718 12.3498 40.9676 12.2909 40.9883 12.2424C41.3941 11.2077 41.6228 10.1854 41.7571 9.07962C41.8837 7.85606 41.7781 6.70747 41.4913 5.51145C41.4771 5.47664 41.4629 5.44222 41.4488 5.40741C41.2767 4.68988 41.0082 4.03162 40.6804 3.37796L40.6808 3.37681Z" fill="#F9ED32"/>
</g>
<g style="mix-blend-mode:multiply">
<path d="M23.7128 5.29649C23.598 5.23108 23.4795 5.13929 23.3647 5.07388C22.9314 4.80882 22.5045 4.59617 22.0398 4.40186C21.367 4.14063 20.7003 3.93179 20.0031 3.79333C19.9453 4.60037 19.9514 5.38599 19.953 6.23931C19.9813 7.51527 20.0226 8.68336 20.0624 9.94479C20.1488 11.5734 20.2184 13.0708 20.5148 14.673C20.5183 14.6994 20.5477 14.7224 20.5512 14.7484C20.589 14.9434 20.6273 15.1385 20.6652 15.334C20.7294 15.5256 20.7677 15.721 20.8319 15.9126C20.9145 16.1421 20.9558 16.3636 21.0495 16.5782C21.0824 16.6275 21.1153 16.6765 21.1368 16.7403C21.2075 16.9847 21.2867 17.1878 21.4068 17.3994C21.5234 17.5845 21.5762 17.791 21.6933 17.9761C21.8069 18.1349 21.8941 18.2974 21.9813 18.4596C22.2001 18.8184 22.4529 19.1331 22.7095 19.4736C23.0251 19.8602 23.3456 20.1796 23.6956 20.5215C24.2375 21.0127 24.7845 21.4368 25.4183 21.8097C25.6332 21.9291 25.8336 22.0369 26.0486 22.1567C26.0784 22.1796 26.1159 22.1612 26.1454 22.1842C26.7612 22.5193 27.401 22.7315 28.0528 22.9289C27.0886 21.9444 26.2792 20.8207 25.6294 19.5833C25.5751 19.4701 25.5058 19.3458 25.4515 19.2326C25.0679 18.4145 24.7929 17.6097 24.56 16.7193C24.4475 16.2538 24.3649 15.8109 24.3049 15.3385C24.202 14.525 24.1989 13.7658 24.2238 12.9094C24.2284 12.8421 24.1955 12.7931 24.2004 12.7258C24.1874 11.8878 24.106 11.1381 23.8979 10.338C23.8945 10.3116 23.9029 10.2707 23.8994 10.2447C23.8367 9.95932 23.7656 9.71492 23.6768 9.43303C23.6126 9.24141 23.5514 9.07579 23.502 8.89526C23.484 8.85777 23.4691 8.8463 23.4512 8.80843C23.2006 8.09358 22.9076 7.46401 22.5474 6.82986C23.873 8.8746 24.62 11.2995 24.6487 13.7356C24.7187 14.2867 24.7474 14.8295 24.8843 15.3856C24.8878 15.4116 24.8797 15.4529 24.8828 15.4789C25.0545 16.2037 25.2278 16.8348 25.5013 17.5202C25.8899 18.4841 26.3703 19.3297 26.9444 20.1769C26.9773 20.2263 27.0365 20.2718 27.0694 20.3211C27.6401 21.1419 28.3136 21.8296 29.0251 22.4997C29.0625 22.2683 29.0243 22.0733 29.0323 21.8189C29.0469 21.617 29.0465 21.4039 29.0197 21.194C29.0113 21.0218 29.0174 20.8608 29.0239 20.7002C28.9872 19.2517 28.926 17.9264 28.825 16.4994C28.7248 15.2858 28.6491 14.1624 28.4582 12.9733C28.4517 12.9209 28.4188 12.8715 28.4119 12.8191C28.2459 11.7203 27.9327 10.7205 27.4963 9.69579C26.9941 8.57283 26.3282 7.63077 25.4821 6.73844C25.4527 6.71549 25.4228 6.69255 25.3934 6.6696C24.8855 6.13412 24.324 5.69848 23.7132 5.29611L23.7128 5.29649Z" fill="#F2BE37"/>
</g>
<g style="mix-blend-mode:multiply">
<path d="M9.97734 15.4434C9.84501 15.4441 9.69698 15.4239 9.56465 15.4246C9.05671 15.412 8.5809 15.4411 8.08138 15.505C7.36805 15.6151 6.68647 15.7673 6.01331 15.9965C6.36672 16.7243 6.76526 17.4017 7.19288 18.1395C7.85534 19.2307 8.47534 20.2213 9.14047 21.2938C10.0297 22.6612 10.8387 23.923 11.8963 25.1626C11.9123 25.1837 11.9494 25.1886 11.9655 25.2097C12.0959 25.3596 12.2263 25.5095 12.3571 25.6595C12.5086 25.7933 12.6394 25.9433 12.7909 26.0775C12.9771 26.2351 13.1236 26.4061 13.3122 26.5453C13.365 26.5713 13.4181 26.5977 13.4686 26.6421C13.6522 26.8184 13.8224 26.9545 14.032 27.0777C14.2256 27.1798 14.3747 27.3321 14.5686 27.4342C14.7465 27.5149 14.9029 27.612 15.0598 27.7088C15.4285 27.91 15.8052 28.0561 16.1976 28.2229C16.6643 28.3999 17.1014 28.5162 17.5757 28.6375C18.2906 28.792 18.9764 28.8853 19.7119 28.8914C19.9578 28.8872 20.1854 28.8807 20.4313 28.8765C20.4684 28.8815 20.4921 28.8471 20.5292 28.852C21.23 28.8344 21.8905 28.6983 22.5533 28.5434C21.2261 28.1731 19.9636 27.6044 18.7817 26.8578C18.678 26.787 18.556 26.7136 18.4524 26.6428C17.7111 26.1261 17.0705 25.5669 16.4237 24.9121C16.0936 24.5652 15.8006 24.2229 15.5126 23.8438C15.0165 23.1909 14.6344 22.5346 14.2279 21.7807C14.1984 21.7199 14.1452 21.6939 14.1158 21.6335C13.6855 20.914 13.2403 20.3059 12.6601 19.7169C12.644 19.6958 12.6306 19.656 12.6146 19.635C12.4176 19.4193 12.234 19.2433 12.016 19.0437C11.8645 18.9098 11.7287 18.7966 11.5956 18.6654C11.5612 18.6417 11.5425 18.6394 11.508 18.6157C10.9335 18.1219 10.3652 17.7234 9.736 17.3543C11.9066 18.4623 13.7658 20.1888 15.0085 22.2841C15.3443 22.7262 15.6407 23.1821 16.0374 23.5952C16.0534 23.6163 16.0668 23.6556 16.0829 23.6767C16.5943 24.2187 17.0598 24.6784 17.6392 25.1351C18.4577 25.7754 19.2965 26.2676 20.2171 26.7143C20.2699 26.7404 20.3445 26.7507 20.3973 26.7767C21.3019 27.2024 22.229 27.461 23.1798 27.6855C23.0965 27.4663 22.966 27.3164 22.8456 27.0922C22.7572 26.9102 22.6501 26.7258 22.5224 26.5571C22.429 26.4122 22.3541 26.2699 22.2791 26.1276C21.5229 24.8918 20.8073 23.7746 20.0064 22.5893C19.3126 21.5883 18.6853 20.6535 17.9257 19.7191C17.8936 19.6771 17.8408 19.6511 17.8086 19.6086C17.1156 18.74 16.3441 18.0305 15.4541 17.3615C14.4577 16.6402 13.4101 16.1571 12.2309 15.8075C12.1938 15.8025 12.1567 15.7976 12.1196 15.7922C11.412 15.5822 10.7079 15.4862 9.97773 15.443L9.97734 15.4434Z" fill="#009444"/>
</g>
<g style="mix-blend-mode:multiply">
<path d="M3.15623 31.0982C3.04187 31.1651 2.90341 31.2217 2.78944 31.2883C2.34308 31.5311 1.94568 31.7947 1.54522 32.0995C0.982591 32.5516 0.46854 33.0243 0 33.5591C0.670108 34.0127 1.3536 34.4001 2.09294 34.8255C3.21208 35.439 4.24439 35.9871 5.35665 36.5833C6.81046 37.3231 8.14188 38.0111 9.67754 38.5558C9.70202 38.5661 9.73645 38.552 9.76093 38.5623C9.94872 38.6269 10.1369 38.6916 10.3251 38.7562C10.5232 38.7964 10.7114 38.861 10.9095 38.9012C11.1497 38.9444 11.362 39.0194 11.5949 39.0454C11.6538 39.0415 11.7127 39.0377 11.7789 39.0511C12.026 39.1119 12.2413 39.1452 12.4846 39.1467C12.7034 39.1383 12.9087 39.1957 13.1275 39.1873C13.3218 39.1685 13.5062 39.1743 13.6902 39.1796C14.1101 39.1697 14.5094 39.1077 14.9325 39.0561C15.4251 38.9761 15.8619 38.8583 16.3331 38.7264C17.0296 38.5026 17.6703 38.241 18.3102 37.8784C18.5213 37.7518 18.7148 37.6325 18.9256 37.5059C18.9604 37.4917 18.9634 37.45 18.9979 37.4359C19.5961 37.0702 20.0998 36.622 20.5966 36.1565C19.2622 36.4996 17.8841 36.638 16.4876 36.5826C16.3626 36.573 16.2203 36.5707 16.0952 36.5612C15.1948 36.4843 14.3603 36.3202 13.4729 36.0766C13.0136 35.9412 12.5886 35.7912 12.1495 35.6069C11.3937 35.2894 10.7343 34.9123 10.0053 34.4625C9.94949 34.4246 9.89059 34.4288 9.83475 34.391C9.10229 33.9832 8.41268 33.6792 7.61559 33.4592C7.59111 33.4489 7.55975 33.4214 7.53527 33.411C7.25682 33.3227 7.00974 33.2619 6.72096 33.198C6.52284 33.1578 6.34881 33.1276 6.1679 33.0806C6.12621 33.0775 6.10899 33.0844 6.0673 33.0813C5.323 32.941 4.63146 32.8798 3.90207 32.8748C6.3358 32.7493 8.80931 33.3147 10.9332 34.5076C11.4454 34.7226 11.93 34.9693 12.48 35.1284C12.5045 35.1387 12.5358 35.1662 12.5603 35.1762C13.274 35.39 13.907 35.5556 14.6372 35.6612C15.6664 35.8065 16.6387 35.8134 17.6596 35.74C17.7185 35.7361 17.7877 35.7078 17.847 35.704C18.8429 35.6203 19.7754 35.3808 20.7114 35.0997C20.5297 34.9517 20.3415 34.887 20.1254 34.7532C19.9579 34.6396 19.7731 34.5332 19.5781 34.4514C19.4247 34.3726 19.2885 34.2869 19.1528 34.2009C17.8799 33.5086 16.7014 32.8989 15.4155 32.2728C14.3144 31.753 13.3035 31.2569 12.1786 30.8274C12.13 30.8067 12.0707 30.8109 12.0222 30.7903C10.9875 30.3845 9.96479 30.1557 8.85942 30.0215C7.63586 29.8949 6.48727 30.0004 5.29125 30.2873C5.25644 30.3015 5.22202 30.3156 5.18721 30.3298C4.46968 30.5019 3.81143 30.7704 3.15776 31.0982H3.15623Z" fill="#F9ED32"/>
</g>
<g style="mix-blend-mode:multiply">
<path d="M5.07579 48.0662C5.01038 48.1813 4.91858 48.2995 4.85318 48.4142C4.58812 48.8476 4.37546 49.2744 4.18116 49.7392C3.91993 50.4119 3.71109 51.0786 3.57263 51.7759C4.37967 51.8336 5.16529 51.8275 6.01822 51.826C7.29456 51.7977 8.46228 51.7564 9.7237 51.7166C11.3523 51.6301 12.8497 51.5605 14.4519 51.2641C14.4783 51.2607 14.5013 51.2312 14.5273 51.2278C14.7224 51.1899 14.9174 51.1517 15.1129 51.1138C15.3045 51.0495 15.4999 51.0113 15.6916 50.947C15.9211 50.8644 16.1425 50.8231 16.3571 50.7294C16.406 50.6965 16.4554 50.6636 16.5192 50.6422C16.7637 50.5714 16.9668 50.4923 17.1783 50.3722C17.3634 50.2555 17.5699 50.2027 17.755 50.0857C17.9138 49.9721 18.0763 49.8849 18.2385 49.7977C18.5973 49.5789 18.9121 49.3261 19.2528 49.0694C19.6395 48.7539 19.9589 48.4334 20.3008 48.0834C20.792 47.5414 21.2161 46.9945 21.589 46.3607C21.7084 46.1457 21.8162 45.9453 21.936 45.7304C21.9589 45.7005 21.9405 45.663 21.9635 45.6336C22.2985 45.0178 22.5108 44.3779 22.7082 43.7262C21.7237 44.6904 20.5999 45.4997 19.3626 46.1496C19.2494 46.2039 19.1251 46.2731 19.0119 46.3274C18.1938 46.7111 17.389 46.9861 16.4986 47.219C16.0331 47.3314 15.5902 47.4141 15.1178 47.4741C14.3043 47.577 13.5451 47.5801 12.6887 47.5552C12.6214 47.5506 12.5724 47.5835 12.5051 47.5785C11.6671 47.5915 10.9174 47.673 10.1173 47.8811C10.0909 47.8845 10.05 47.8761 10.0236 47.8795C9.73824 47.9423 9.49383 48.0134 9.21194 48.1021C9.02032 48.1664 8.8547 48.2276 8.67417 48.2769C8.63669 48.2949 8.62521 48.3098 8.58735 48.3278C7.87249 48.5783 7.24292 48.8713 6.60877 49.2316C8.65352 47.9059 11.0785 47.1589 13.5145 47.1303C14.0656 47.0603 14.6084 47.0316 15.1645 46.8946C15.1905 46.8912 15.2318 46.8996 15.2578 46.8962C15.9826 46.7244 16.6141 46.5512 17.2991 46.2777C18.263 45.8891 19.1087 45.4087 19.9559 44.8346C20.0052 44.8017 20.0507 44.7424 20.1 44.7095C20.9209 44.1389 21.6086 43.4653 22.2787 42.7539C22.0473 42.7164 21.8522 42.7547 21.5978 42.7466C21.3959 42.7321 21.1828 42.7325 20.9729 42.7593C20.8007 42.7677 20.6397 42.7616 20.4791 42.7551C19.0306 42.7918 17.7053 42.853 16.2783 42.9539C15.0647 43.0542 13.9413 43.1299 12.7522 43.3207C12.6998 43.3272 12.6505 43.3601 12.5981 43.367C11.4992 43.533 10.4994 43.8463 9.47471 44.2827C8.35174 44.7849 7.40969 45.4508 6.51736 46.2968C6.49441 46.3263 6.47146 46.3561 6.44851 46.3856C5.91304 46.8931 5.47739 47.455 5.07502 48.0658L5.07579 48.0662Z" fill="#F2BE37"/>
</g>
<g style="mix-blend-mode:multiply">
<path d="M15.2227 61.8016C15.2235 61.9339 15.2032 62.0819 15.2039 62.2143C15.1909 62.7222 15.2204 63.198 15.2843 63.6975C15.3944 64.4109 15.5466 65.0925 15.7758 65.7656C16.5036 65.4122 17.181 65.0137 17.9188 64.5861C19.01 63.9236 20.0006 63.3036 21.0731 62.6385C22.4405 61.7492 23.7023 60.9402 24.9419 59.8827C24.963 59.8666 24.9679 59.8295 24.989 59.8135C25.1389 59.683 25.2888 59.5522 25.4391 59.4218C25.573 59.2703 25.723 59.1395 25.8568 58.9881C26.0144 58.8018 26.1854 58.6553 26.3246 58.4667C26.3506 58.4139 26.377 58.3608 26.4214 58.3103C26.5977 58.1267 26.7338 57.9565 26.857 57.7469C26.9591 57.5534 27.1114 57.4042 27.2135 57.2107C27.2946 57.0328 27.3913 56.8764 27.4881 56.7196C27.6897 56.3508 27.8354 55.9745 28.0022 55.5817C28.1792 55.115 28.2955 54.6779 28.4168 54.2036C28.5713 53.4887 28.6646 52.8029 28.6707 52.0678C28.6665 51.8219 28.66 51.5943 28.6558 51.3484C28.6608 51.3113 28.6264 51.2876 28.6313 51.2505C28.6137 50.5497 28.4776 49.8892 28.3227 49.2264C27.9524 50.5536 27.3837 51.8161 26.6371 52.998C26.5663 53.1017 26.4929 53.2237 26.4221 53.3273C25.9054 54.0686 25.3462 54.7092 24.6914 55.356C24.3445 55.6861 24.0022 55.9791 23.6231 56.2671C22.9702 56.7632 22.3139 57.1453 21.56 57.5518C21.4992 57.5813 21.4732 57.6344 21.4124 57.6639C20.6929 58.0942 20.0848 58.5394 19.4958 59.1196C19.4747 59.1357 19.4349 59.1491 19.4139 59.1651C19.1982 59.3621 19.0223 59.5457 18.8226 59.7637C18.6887 59.9152 18.5755 60.051 18.4443 60.1841C18.4206 60.2185 18.4183 60.2372 18.3946 60.2717C17.9008 60.8462 17.5023 61.4145 17.1332 62.0437C18.2412 59.8731 19.9677 58.0139 22.063 56.7712C22.5051 56.435 22.961 56.1389 23.3741 55.7423C23.3952 55.7262 23.4346 55.7129 23.4556 55.6968C23.9976 55.1854 24.4577 54.7199 24.914 54.1405C25.5543 53.322 26.0465 52.4832 26.4933 51.5626C26.5193 51.5098 26.5296 51.4352 26.5556 51.3824C26.9813 50.4778 27.2399 49.5507 27.4644 48.5999C27.2452 48.6832 27.0953 48.8137 26.8712 48.9341C26.6891 49.0225 26.5047 49.1296 26.3361 49.2573C26.1911 49.3511 26.0488 49.4256 25.9065 49.5006C24.6707 50.2568 23.5535 50.9724 22.3682 51.7733C21.3673 52.4671 20.4321 53.0944 19.4981 53.854C19.456 53.8858 19.43 53.9389 19.3875 53.971C18.5189 54.6641 17.8094 55.4356 17.1404 56.3256C16.4191 57.322 15.936 58.3696 15.5864 59.5488C15.5815 59.5859 15.5765 59.623 15.5711 59.6601C15.3611 60.3677 15.2651 61.0718 15.2219 61.802L15.2227 61.8016Z" fill="#006838"/>
</g>
<g style="mix-blend-mode:multiply">
<path d="M30.8776 68.6226C30.9445 68.7369 31.0008 68.8754 31.0677 68.9894C31.3106 69.4357 31.5741 69.8331 31.8789 70.234C32.331 70.7966 32.8038 71.3106 33.3385 71.7792C33.7921 71.1091 34.1796 70.4256 34.6049 69.6862C35.2184 68.5667 35.7665 67.5348 36.3628 66.4225C37.1025 64.9687 37.7906 63.6373 38.3352 62.1016C38.3455 62.0772 38.3314 62.0427 38.3417 62.0183C38.4064 61.8301 38.471 61.6423 38.5356 61.4541C38.5758 61.256 38.6404 61.0678 38.6806 60.8697C38.7238 60.6295 38.7988 60.4172 38.8248 60.1843C38.821 60.1254 38.8171 60.0664 38.8305 60.0003C38.8913 59.7532 38.9246 59.5379 38.9262 59.2946C38.9177 59.0758 38.9751 58.8704 38.9667 58.652C38.948 58.4577 38.9537 58.2734 38.959 58.0894C38.9491 57.6694 38.8871 57.2705 38.8355 56.8471C38.7556 56.3545 38.6378 55.9177 38.5058 55.4465C38.2821 54.75 38.0204 54.1093 37.6578 53.4698C37.5312 53.2587 37.4119 53.0651 37.2853 52.8544C37.2708 52.8196 37.2295 52.8165 37.2153 52.7821C36.8497 52.1839 36.4014 51.6802 35.9359 51.1833C36.279 52.5178 36.4175 53.8959 36.362 55.2923C36.3524 55.4174 36.3501 55.5597 36.3406 55.6847C36.2637 56.5851 36.0996 57.4197 35.856 58.307C35.7206 58.7664 35.5706 59.1913 35.3863 59.6304C35.0688 60.3862 34.6917 61.0456 34.2419 61.7746C34.204 61.8305 34.2079 61.8894 34.17 61.9452C33.7623 62.6777 33.4578 63.3673 33.2383 64.1644C33.2279 64.1888 33.2004 64.2202 33.1901 64.2447C33.1017 64.5231 33.0409 64.7702 32.977 65.059C32.9369 65.2571 32.9067 65.4311 32.8596 65.612C32.8565 65.6537 32.8634 65.671 32.8604 65.7126C32.72 66.457 32.6592 67.1485 32.6538 67.8779C32.528 65.4441 33.0937 62.9706 34.287 60.8467C34.502 60.3346 34.7487 59.85 34.9078 59.3C34.9181 59.2759 34.9457 59.2441 34.9556 59.22C35.1694 58.5063 35.335 57.8733 35.4406 57.1431C35.5859 56.1143 35.5928 55.1416 35.5194 54.1208C35.5156 54.0619 35.4873 53.9926 35.4834 53.9337C35.3997 52.9378 35.1602 52.0053 34.8791 51.0693C34.7311 51.251 34.6665 51.4392 34.5326 51.6553C34.419 51.8228 34.3127 52.0076 34.2308 52.2026C34.152 52.356 34.0663 52.4922 33.9803 52.6279C33.288 53.9008 32.6783 55.0789 32.0522 56.3652C31.5324 57.4663 31.0363 58.4772 30.6068 59.6021C30.5861 59.6507 30.5904 59.71 30.5697 59.7585C30.1639 60.7932 29.9352 61.8159 29.8009 62.9213C29.6743 64.1449 29.7799 65.2934 30.0667 66.4898C30.0809 66.5243 30.095 66.5591 30.1092 66.5939C30.2813 67.3114 30.5498 67.9693 30.8776 68.6233V68.6226Z" fill="#F9ED32"/>
</g>
<g style="mix-blend-mode:multiply">
<path d="M47.8457 66.7033C47.9608 66.7687 48.079 66.8605 48.1938 66.9259C48.6271 67.191 49.054 67.4036 49.5187 67.5979C50.1915 67.8592 50.8581 68.068 51.5554 68.2065C51.6132 67.3994 51.607 66.6138 51.6055 65.7609C51.5772 64.4845 51.5359 63.3168 51.4961 62.0554C51.4097 60.4268 51.3401 58.9294 51.0436 57.3272C51.0402 57.3008 51.0107 57.2778 51.0073 57.2518C50.9694 57.0567 50.9312 56.8613 50.8933 56.6662C50.8291 56.4746 50.7908 56.2791 50.7269 56.0875C50.6443 55.858 50.603 55.6366 50.5093 55.422C50.4764 55.3727 50.4435 55.3237 50.4221 55.2598C50.3513 55.0154 50.2722 54.8123 50.1521 54.6008C50.0354 54.4157 49.9826 54.2092 49.8656 54.024C49.752 53.8649 49.6648 53.7028 49.5776 53.5406C49.3588 53.1818 49.106 52.867 48.8493 52.5262C48.5338 52.1396 48.2133 51.8206 47.8633 51.4782C47.3213 50.9871 46.7744 50.563 46.1406 50.1904C45.9253 50.0707 45.7252 49.9632 45.5103 49.8435C45.4804 49.8206 45.443 49.8389 45.4135 49.816C44.7977 49.4809 44.1578 49.2686 43.5061 49.0713C44.4703 50.0558 45.2796 51.1795 45.9295 52.4169C45.9838 52.5301 46.053 52.6544 46.1073 52.7676C46.491 53.5857 46.7663 54.3905 46.9989 55.2809C47.1113 55.7467 47.194 56.1893 47.2536 56.6616C47.3565 57.4752 47.3596 58.2344 47.3347 59.0908C47.3301 59.1581 47.3626 59.207 47.358 59.2744C47.371 60.1124 47.4525 60.862 47.6606 61.6622C47.664 61.6886 47.6556 61.7295 47.6591 61.7559C47.7218 62.0412 47.7929 62.2856 47.8817 62.5675C47.9459 62.7595 48.0071 62.9251 48.0565 63.1053C48.0744 63.1428 48.0894 63.1543 48.1073 63.1921C48.3579 63.907 48.6508 64.5362 49.0111 65.1707C47.6854 63.1259 46.9385 60.701 46.9098 58.265C46.8398 57.7138 46.8111 57.1711 46.6742 56.615C46.6707 56.589 46.6791 56.5477 46.6757 56.5216C46.504 55.7968 46.3307 55.1654 46.0572 54.4803C45.6686 53.5165 45.1882 52.6708 44.6141 51.8236C44.5812 51.7747 44.5219 51.7288 44.4894 51.6794C43.9188 50.8586 43.2452 50.1709 42.5338 49.5008C42.4963 49.7322 42.5346 49.9273 42.5265 50.1816C42.512 50.3836 42.5124 50.5966 42.5392 50.8066C42.5476 50.9787 42.5415 51.1397 42.5349 51.3004C42.5717 52.7488 42.6329 54.0742 42.7338 55.5012C42.8341 56.7148 42.9098 57.8381 43.1006 59.0273C43.1071 59.0797 43.1404 59.129 43.1469 59.1814C43.3129 60.2803 43.6262 61.2801 44.0626 62.3048C44.5648 63.4277 45.2307 64.3698 46.0767 65.2621C46.1062 65.2851 46.136 65.308 46.1655 65.331C46.673 65.8664 47.2349 66.3017 47.8457 66.7044V66.7033Z" fill="#F2BE37"/>
</g>
<g style="mix-blend-mode:multiply">
<path d="M61.5806 56.5564C61.713 56.5557 61.861 56.576 61.9933 56.5752C62.5013 56.5878 62.9771 56.5587 63.4766 56.4949C64.1899 56.3847 64.8715 56.2321 65.5447 56.0034C65.1913 55.2755 64.7927 54.5981 64.3651 53.8603C63.7026 52.7691 63.083 51.7785 62.4175 50.706C61.5282 49.3386 60.7193 48.0768 59.6617 46.8372C59.6457 46.8162 59.6086 46.8112 59.5929 46.7902C59.4625 46.6402 59.3317 46.4903 59.2012 46.34C59.0498 46.2061 58.919 46.0562 58.7675 45.9219C58.5812 45.7643 58.4347 45.5934 58.2462 45.4545C58.1934 45.4285 58.1402 45.4021 58.0897 45.3578C57.9061 45.1814 57.7359 45.0449 57.5263 44.9221C57.3328 44.82 57.1836 44.6678 56.9901 44.5656C56.8122 44.4849 56.6558 44.3878 56.499 44.291C56.1303 44.0895 55.7539 43.9437 55.3611 43.777C54.8945 43.5999 54.4573 43.4836 53.983 43.3624C53.2682 43.2078 52.5824 43.1145 51.8469 43.1084C51.6006 43.1122 51.3734 43.1191 51.1274 43.1233C51.0903 43.1183 51.0666 43.1528 51.0295 43.1478C50.3288 43.1654 49.6683 43.3015 49.0054 43.4565C50.3326 43.8267 51.5952 44.3954 52.7771 45.142C52.8807 45.2128 53.0027 45.2862 53.1064 45.357C53.8476 45.8737 54.4883 46.4329 55.1351 47.0877C55.4651 47.435 55.7581 47.777 56.0461 48.156C56.5422 48.8089 56.9243 49.4652 57.3309 50.2191C57.3603 50.2799 57.4135 50.3059 57.443 50.3668C57.8732 51.0862 58.3185 51.6943 58.8987 52.2834C58.9147 52.3044 58.9281 52.3442 58.9442 52.3652C59.1412 52.5809 59.3248 52.7569 59.5428 52.9565C59.6942 53.0904 59.83 53.2036 59.9631 53.3348C59.9976 53.3585 60.0163 53.3608 60.0507 53.3845C60.6252 53.8783 61.1936 54.2769 61.8228 54.646C59.6522 53.5379 57.7929 51.8114 56.5502 49.7162C56.214 49.274 55.918 48.8181 55.5214 48.405C55.5053 48.384 55.4919 48.3446 55.4759 48.3235C54.9645 47.7816 54.499 47.3214 53.9195 46.8651C53.101 46.2249 52.2622 45.7326 51.3416 45.2859C51.2888 45.2599 51.2146 45.2499 51.1615 45.2235C50.2569 44.7978 49.3294 44.5393 48.3789 44.3147C48.4623 44.5339 48.5927 44.6838 48.7132 44.908C48.8015 45.09 48.9087 45.2744 49.0364 45.4431C49.1301 45.588 49.2047 45.7303 49.2797 45.8726C50.0358 47.1084 50.7514 48.2256 51.552 49.4109C52.2458 50.4119 52.8731 51.347 53.6327 52.2811C53.6644 52.3231 53.7176 52.3492 53.7497 52.3912C54.4428 53.2598 55.2142 53.9693 56.1043 54.6383C57.1006 55.3597 58.1482 55.8424 59.3274 56.1923C59.3645 56.1973 59.4016 56.2023 59.4387 56.2076C60.1463 56.4176 60.8505 56.5136 61.5806 56.5568V56.5564Z" fill="#009444"/>
</g>
<g style="mix-blend-mode:multiply">
<path d="M68.4023 40.9015C68.5167 40.8346 68.6552 40.7779 68.7691 40.711C69.2155 40.4681 69.6129 40.2046 70.0137 39.8998C70.5764 39.4477 71.0904 38.9749 71.559 38.4402C70.8889 37.9866 70.2054 37.5991 69.466 37.1738C68.3465 36.5603 67.3146 36.0122 66.2023 35.4159C64.7485 34.6762 63.4171 33.9881 61.8814 33.4435C61.8569 33.4332 61.8225 33.4473 61.798 33.437C61.6099 33.3723 61.4221 33.3077 61.2339 33.2431C61.0358 33.2029 60.8476 33.1383 60.6494 33.0981C60.4092 33.0549 60.197 32.9799 59.964 32.9539C59.9051 32.9577 59.8462 32.9616 59.7801 32.9482C59.533 32.8874 59.3176 32.8541 59.0744 32.8525C58.8556 32.861 58.6502 32.8036 58.4318 32.812C58.2375 32.8307 58.0532 32.825 57.8692 32.8197C57.4492 32.8296 57.0499 32.8916 56.6269 32.9432C56.1343 33.0231 55.6978 33.1409 55.2262 33.2729C54.5297 33.4966 53.8891 33.7583 53.2496 34.1209C53.0384 34.2475 52.8449 34.3668 52.6342 34.4934C52.5994 34.5076 52.5963 34.5492 52.5619 34.5634C51.9637 34.929 51.4599 35.3773 50.9631 35.8428C52.2976 35.4997 53.6757 35.3612 55.0721 35.4171C55.1972 35.4267 55.3395 35.4289 55.4645 35.4385C56.3649 35.5154 57.1995 35.6795 58.0868 35.9231C58.5462 36.0585 58.9711 36.2084 59.4102 36.3928C60.166 36.7103 60.8254 37.0874 61.5544 37.5372C61.6102 37.575 61.6691 37.5712 61.725 37.6091C62.4574 38.0168 63.1471 38.3213 63.9441 38.5408C63.9686 38.5511 64 38.5787 64.0245 38.589C64.3029 38.6774 64.55 38.7382 64.8388 38.802C65.0373 38.8422 65.2109 38.8724 65.3918 38.9195C65.4335 38.9225 65.4507 38.9156 65.4924 38.9187C66.2367 39.0591 66.9283 39.1199 67.6577 39.1252C65.2239 39.2511 62.7504 38.6854 60.6265 37.4921C60.1143 37.2771 59.6297 37.0304 59.0797 36.8713C59.0556 36.861 59.0239 36.8334 58.9998 36.8235C58.2861 36.6097 57.6531 36.4441 56.9229 36.3385C55.8941 36.1931 54.9214 36.1863 53.9006 36.2597C53.8417 36.2635 53.7724 36.2918 53.7135 36.2956C52.7175 36.3794 51.7847 36.6188 50.8491 36.9C51.0308 37.048 51.219 37.1126 51.4351 37.2465C51.6026 37.3597 51.7873 37.4664 51.9824 37.5483C52.1358 37.6271 52.272 37.7131 52.4081 37.7988C53.6806 38.4911 54.8591 39.1008 56.1453 39.7269C57.2465 40.2467 58.2574 40.7431 59.3823 41.1723C59.4309 41.1929 59.4901 41.1887 59.5387 41.2094C60.5733 41.6152 61.5961 41.8439 62.7015 41.9782C63.925 42.1048 65.0736 41.9992 66.2696 41.7124C66.3041 41.6982 66.3389 41.684 66.3737 41.6699C67.0912 41.4978 67.7491 41.2293 68.4031 40.9015H68.4023Z" fill="#F9ED32"/>
</g>
<g style="mix-blend-mode:multiply">
<path d="M66.4826 23.9331C66.548 23.818 66.6398 23.6998 66.7052 23.5851C66.9703 23.1517 67.1829 22.7249 67.3772 22.2601C67.6385 21.5874 67.8473 20.9207 67.9858 20.2234C67.1787 20.1657 66.3931 20.1718 65.5402 20.1733C64.2638 20.2016 63.0961 20.2429 61.8347 20.2827C60.2061 20.3691 58.7087 20.4388 57.1065 20.7352C57.0801 20.7386 57.0571 20.7681 57.0311 20.7715C56.836 20.8094 56.6406 20.8476 56.4455 20.8855C56.2539 20.9498 56.0584 20.988 55.8668 21.0519C55.6373 21.1345 55.4159 21.1758 55.2013 21.2695C55.1524 21.3024 55.103 21.3353 55.0391 21.3567C54.7947 21.4279 54.5916 21.5066 54.3801 21.6267C54.195 21.7434 53.9885 21.7962 53.8033 21.9132C53.6442 22.0268 53.4821 22.114 53.3199 22.2012C52.9611 22.42 52.6463 22.6728 52.3055 22.9295C51.9189 23.245 51.5999 23.5655 51.2575 23.9155C50.7664 24.4575 50.3423 25.0044 49.9697 25.6382C49.85 25.8535 49.7421 26.0536 49.6228 26.2685C49.5999 26.2984 49.6182 26.3359 49.5953 26.3653C49.2602 26.9811 49.0479 27.621 48.8506 28.2724C49.8351 27.3081 50.9588 26.4992 52.1962 25.849C52.3094 25.7946 52.4337 25.7254 52.5469 25.6711C53.365 25.2875 54.1698 25.0121 55.0602 24.7795C55.526 24.6671 55.9686 24.5845 56.4409 24.5248C57.2545 24.4219 58.0137 24.4189 58.8701 24.4437C58.9374 24.4483 58.9863 24.4158 59.0537 24.4204C59.8917 24.4074 60.6413 24.3259 61.4415 24.1178C61.4679 24.1144 61.5088 24.1228 61.5352 24.1194C61.8205 24.0567 62.0649 23.9855 62.3468 23.8968C62.5388 23.8325 62.7044 23.7713 62.8846 23.722C62.9225 23.7036 62.9335 23.6891 62.9714 23.6711C63.6863 23.4206 64.3158 23.1276 64.95 22.7673C62.9052 24.093 60.4803 24.84 58.0443 24.8687C57.4931 24.9387 56.9504 24.9673 56.3943 25.1043C56.3683 25.1077 56.3273 25.0993 56.3009 25.1027C55.5761 25.2745 54.9447 25.4477 54.2596 25.7212C53.2958 26.1098 52.4501 26.5902 51.6029 27.1643C51.554 27.1972 51.5081 27.2565 51.4587 27.2894C50.6379 27.86 49.9498 28.5336 49.2801 29.245C49.5115 29.2825 49.7066 29.2443 49.9609 29.2523C50.1629 29.2668 50.3759 29.2664 50.5859 29.2397C50.758 29.2312 50.919 29.2374 51.0797 29.2439C52.5281 29.2072 53.8534 29.1459 55.2805 29.045C56.4941 28.9448 57.6174 28.869 58.8066 28.6782C58.859 28.6717 58.9083 28.6384 58.9607 28.6319C60.0596 28.4659 61.0598 28.1526 62.0841 27.7162C63.207 27.214 64.1491 26.5481 65.0414 25.7021C65.0644 25.6726 65.0873 25.6428 65.1103 25.6133C65.6457 25.1058 66.081 24.5439 66.4837 23.9331H66.4826Z" fill="#F2BE37"/>
</g>
<g style="mix-blend-mode:multiply">
<path d="M56.3356 10.1984C56.3349 10.0661 56.3551 9.91805 56.3544 9.78572C56.3674 9.27778 56.3379 8.80197 56.274 8.30245C56.1639 7.58912 56.0117 6.90754 55.7826 6.23438C55.0547 6.58779 54.3773 6.98633 53.6395 7.41395C52.5487 8.0764 51.5577 8.69603 50.4852 9.36154C49.1178 10.2508 47.856 11.0598 46.6164 12.1173C46.5953 12.1334 46.5904 12.1705 46.5693 12.1862C46.4194 12.3166 46.2695 12.4474 46.1192 12.5778C45.9853 12.7293 45.8354 12.8601 45.7011 13.0116C45.5435 13.1978 45.3725 13.3443 45.2337 13.5329C45.2077 13.5857 45.1813 13.6388 45.1369 13.6893C44.9606 13.8729 44.8241 14.0431 44.7013 14.2527C44.5992 14.4463 44.4469 14.5954 44.3448 14.789C44.2637 14.9668 44.167 15.1232 44.0702 15.2801C43.8686 15.6488 43.7229 16.0251 43.5562 16.4179C43.3791 16.8846 43.2628 17.3218 43.1415 17.7956C42.987 18.5105 42.8937 19.1963 42.8876 19.9318C42.8914 20.1781 42.8983 20.4053 42.9025 20.6512C42.8975 20.6884 42.9319 20.7121 42.927 20.7492C42.9446 21.4499 43.0807 22.1104 43.2356 22.7733C43.6059 21.446 44.1746 20.1835 44.9212 19.0016C44.992 18.898 45.0654 18.7759 45.1362 18.6723C45.6529 17.931 46.2121 17.2904 46.8669 16.6436C47.2142 16.3135 47.5561 16.0205 47.9352 15.7325C48.5881 15.2365 49.2444 14.8544 49.9983 14.4478C50.0591 14.4183 50.0851 14.3652 50.1459 14.3357C50.8654 13.9054 51.4735 13.4602 52.0625 12.88C52.0836 12.8639 52.1234 12.8505 52.1444 12.8345C52.3601 12.6375 52.5364 12.4539 52.7357 12.2359C52.87 12.0844 52.9828 11.9486 53.114 11.8155C53.1377 11.7811 53.14 11.7624 53.1637 11.728C53.6575 11.1535 54.056 10.5851 54.4251 9.95592C53.3171 12.1265 51.5906 13.9857 49.4953 15.2284C49.0532 15.5642 48.5973 15.8607 48.1842 16.2573C48.1631 16.2734 48.1237 16.2868 48.1027 16.3028C47.5607 16.8142 47.1006 17.2797 46.6439 17.8591C46.0036 18.6776 45.5114 19.5164 45.0647 20.4371C45.0386 20.4898 45.0287 20.564 45.0023 20.6172C44.5766 21.5218 44.3177 22.4493 44.0935 23.4001C44.3127 23.3168 44.4626 23.1863 44.6868 23.0659C44.8688 22.9775 45.0532 22.8708 45.2218 22.7427C45.3668 22.649 45.5091 22.5744 45.6514 22.4994C46.8872 21.7432 48.0044 21.0276 49.1897 20.2271C50.1907 19.5333 51.1258 18.906 52.0599 18.1464C52.1019 18.1143 52.1279 18.0611 52.17 18.0293C53.0386 17.3363 53.7481 16.5648 54.4171 15.6748C55.1385 14.6784 55.6211 13.6308 55.9711 12.4516C55.9761 12.4145 55.9814 12.3774 55.9864 12.3403C56.1964 11.6327 56.2924 10.9286 56.3356 10.1984Z" fill="#009444"/>
</g>
<g style="mix-blend-mode:multiply">
<path d="M32.0641 3.2038C31.97 3.11086 31.8794 2.99152 31.7853 2.89858C31.4353 2.53063 31.0777 2.2147 30.6795 1.9068C30.097 1.48034 29.5076 1.10589 28.8696 0.79187C28.605 1.55645 28.4076 2.31721 28.1884 3.14146C27.8855 4.38146 27.6231 5.52011 27.3351 6.74864C26.997 8.34435 26.6769 9.80849 26.5483 11.4329C26.5449 11.4593 26.5675 11.4887 26.5636 11.5151C26.5499 11.7136 26.5361 11.9118 26.5223 12.1103C26.535 12.3122 26.5212 12.5103 26.5334 12.7123C26.5537 12.9552 26.5365 13.1797 26.5713 13.4115C26.5904 13.4673 26.6092 13.5235 26.6134 13.5908C26.6187 13.8452 26.6424 14.0621 26.7036 14.2973C26.7687 14.5065 26.766 14.7196 26.831 14.9288C26.8995 15.1116 26.9415 15.291 26.984 15.4704C27.1026 15.8735 27.2655 16.243 27.425 16.6385C27.6296 17.0936 27.8564 17.4849 28.1062 17.906C28.5028 18.5207 28.9213 19.0718 29.4368 19.5962C29.6136 19.7672 29.7792 19.9232 29.9559 20.0942C29.9784 20.124 30.0198 20.116 30.0423 20.1462C30.5503 20.6293 31.1136 20.9999 31.692 21.359C31.015 20.1588 30.5246 18.8637 30.2171 17.5002C30.1938 17.377 30.1594 17.2386 30.136 17.1154C29.9773 16.2261 29.9195 15.3774 29.9253 14.4572C29.9371 13.9783 29.9719 13.5293 30.0366 13.0577C30.1475 12.2453 30.3414 11.5109 30.587 10.6901C30.6092 10.6262 30.59 10.5704 30.6122 10.5065C30.8165 9.69374 30.9316 8.94867 30.9381 8.12175C30.9415 8.09536 30.9603 8.05787 30.9637 8.03186C30.9767 7.74003 30.9717 7.48568 30.9587 7.1904C30.9465 6.98845 30.9304 6.8129 30.9293 6.62586C30.9216 6.58494 30.9102 6.57002 30.9025 6.52871C30.8455 5.77331 30.7254 5.08943 30.5415 4.38376C31.2927 6.70198 31.3867 9.23744 30.7839 11.5977C30.7086 12.1481 30.5961 12.6798 30.5847 13.2524C30.5812 13.2784 30.5625 13.3158 30.5591 13.3422C30.5372 14.0869 30.5415 14.7414 30.6283 15.4738C30.7545 16.5054 30.9993 17.4466 31.3343 18.4132C31.3535 18.469 31.3986 18.5287 31.4177 18.5849C31.7562 19.5254 32.229 20.3642 32.7426 21.1953C32.8386 20.9815 32.8524 20.783 32.9258 20.5398C32.992 20.3485 33.0467 20.1424 33.0758 19.9328C33.1121 19.7641 33.1599 19.6103 33.2074 19.457C33.5466 18.0483 33.8304 16.7524 34.1024 15.348C34.3196 14.1497 34.5372 13.045 34.6608 11.8471C34.668 11.7947 34.6489 11.7389 34.6562 11.6861C34.7805 10.5819 34.7365 9.53502 34.5801 8.43232C34.3858 7.21794 33.9865 6.13552 33.3997 5.05425C33.3772 5.02441 33.3546 4.99458 33.332 4.96474C32.9802 4.31605 32.5502 3.74998 32.0645 3.20304L32.0641 3.2038Z" fill="#F5D235"/>
</g>
<g style="mix-blend-mode:multiply">
<path d="M16.1709 9.45018C16.0428 9.41652 15.9051 9.35876 15.777 9.32549C15.2897 9.18168 14.8223 9.08682 14.3235 9.0195C13.606 8.94109 12.9084 8.91203 12.1989 8.95907C12.3518 9.75349 12.5614 10.5108 12.7837 11.3347C13.1413 12.5601 13.4836 13.6774 13.8485 14.8852C14.3534 16.4362 14.8085 17.8644 15.5092 19.3354C15.5192 19.3599 15.5536 19.3744 15.5635 19.3989C15.6507 19.5775 15.738 19.7561 15.8252 19.9348C15.9368 20.1034 16.0241 20.2821 16.1357 20.4507C16.275 20.6511 16.3721 20.8543 16.5182 21.0375C16.5626 21.0765 16.607 21.1155 16.6444 21.1717C16.776 21.3893 16.9049 21.5653 17.0759 21.7382C17.2365 21.8869 17.3409 22.0728 17.5016 22.2212C17.6523 22.3452 17.7785 22.4794 17.9047 22.6137C18.2088 22.9036 18.5347 23.1419 18.8709 23.4046C19.2759 23.6965 19.6679 23.9218 20.0944 24.1619C20.745 24.4962 21.3834 24.764 22.0917 24.9602C22.3304 25.0199 22.5519 25.0723 22.7905 25.1319C22.825 25.1465 22.8567 25.1189 22.8911 25.1335C23.5727 25.2979 24.2459 25.3373 24.9263 25.3591C23.7398 24.658 22.6678 23.7818 21.7196 22.7548C21.6377 22.6596 21.5391 22.5571 21.4572 22.4622C20.8751 21.7714 20.4008 21.065 19.9456 20.2652C19.7165 19.8445 19.5222 19.4383 19.3421 18.9977C19.0319 18.2385 18.8326 17.5056 18.6349 16.6722C18.6219 16.606 18.5775 16.567 18.5649 16.5008C18.3354 15.6946 18.0627 14.9916 17.6546 14.2729C17.6446 14.2484 17.6419 14.2067 17.6316 14.1822C17.497 13.9229 17.3654 13.7053 17.2063 13.4559C17.0946 13.2872 16.9929 13.143 16.8984 12.9816C16.8713 12.9499 16.854 12.9426 16.8265 12.9109C16.3996 12.2851 15.9537 11.7531 15.4415 11.2337C17.2514 12.8657 18.6004 15.0145 19.2583 17.3599C19.4683 17.874 19.6366 18.3911 19.9131 18.8925C19.9231 18.917 19.9257 18.9587 19.9361 18.9831C20.2895 19.6387 20.6203 20.2036 21.0617 20.7946C21.6867 21.6249 22.3694 22.3176 23.1432 22.9873C23.1875 23.0264 23.2568 23.0554 23.3011 23.0941C24.0646 23.7393 24.8934 24.2293 25.7536 24.6921C25.7299 24.4588 25.6427 24.2801 25.5842 24.0327C25.5459 23.8338 25.4905 23.628 25.4105 23.4322C25.3577 23.2681 25.3222 23.1109 25.2866 22.9541C24.8762 21.5645 24.4738 20.3004 24.0072 18.948C23.596 17.8017 23.2323 16.7361 22.7404 15.6368C22.7205 15.5879 22.6758 15.5488 22.6559 15.4999C22.2111 14.4817 21.65 13.5967 20.963 12.72C20.1874 11.7653 19.3004 11.0279 18.252 10.3846C18.2176 10.37 18.1832 10.3555 18.1484 10.341C17.5192 9.95506 16.864 9.68005 16.1698 9.44903L16.1709 9.45018Z" fill="#91A93E"/>
</g>
<g style="mix-blend-mode:multiply">
<path d="M5.53032 22.806C5.40295 22.8412 5.25455 22.8599 5.1268 22.8947C4.63301 23.0137 4.18092 23.1655 3.71506 23.3564C3.05452 23.6474 2.43566 23.971 1.84473 24.3661C2.37446 24.9777 2.9348 25.5289 3.53873 26.1309C4.46128 27.0133 5.31613 27.8096 6.23599 28.6736C7.44884 29.7645 8.55689 30.7738 9.8994 31.6971C9.92044 31.7136 9.95754 31.7086 9.9782 31.7247C10.143 31.8356 10.3079 31.9469 10.4727 32.0578C10.6537 32.1481 10.8185 32.259 10.9998 32.3493C11.2205 32.4533 11.406 32.5807 11.6244 32.666C11.6821 32.6774 11.7403 32.6889 11.8007 32.7191C12.0237 32.8419 12.2234 32.9295 12.4578 32.9941C12.6712 33.0427 12.8548 33.1513 13.0683 33.1995C13.261 33.2317 13.4374 33.2848 13.6137 33.338C14.0222 33.437 14.4234 33.4806 14.8457 33.5399C15.3421 33.59 15.7946 33.5893 16.2842 33.5839C17.0147 33.548 17.7013 33.4611 18.4131 33.2764C18.6494 33.2087 18.8674 33.1433 19.1042 33.076C19.1413 33.071 19.1551 33.0316 19.1922 33.027C19.8646 32.8285 20.467 32.526 21.0675 32.2051C19.6894 32.1909 18.3228 31.9683 16.9883 31.5529C16.8697 31.5112 16.7332 31.4722 16.6146 31.4305C15.7651 31.1234 15.0013 30.749 14.2073 30.2839C13.7988 30.0341 13.427 29.7794 13.0507 29.4879C12.4027 28.9857 11.8634 28.4506 11.2756 27.8276C11.2312 27.7767 11.1735 27.7652 11.1291 27.714C10.5274 27.1303 9.93957 26.6583 9.22662 26.2395C9.20558 26.2234 9.18263 26.1886 9.1616 26.1726C8.91528 26.0154 8.69267 25.8926 8.43029 25.7561C8.24938 25.6658 8.08912 25.592 7.92657 25.4994C7.88717 25.4856 7.86843 25.4879 7.82903 25.4742C7.1463 25.146 6.49417 24.9081 5.79079 24.7146C8.17403 25.2233 10.4169 26.4093 12.1595 28.1118C12.5986 28.4522 13.0029 28.8155 13.4928 29.1119C13.5139 29.128 13.5368 29.1628 13.5578 29.1789C14.192 29.5698 14.7607 29.8937 15.4385 30.1848C16.3951 30.5914 17.3325 30.8499 18.3373 31.0431C18.3951 31.0546 18.4697 31.045 18.5274 31.0569C19.5112 31.234 20.4739 31.2439 21.4503 31.2144C21.3134 31.0243 21.1482 30.913 20.9742 30.7279C20.8418 30.5749 20.6907 30.4246 20.5232 30.295C20.3955 30.1791 20.2861 30.0609 20.1771 29.9431C19.1268 28.9452 18.1465 28.0513 17.066 27.1135C16.1369 26.3263 15.289 25.5855 14.3132 24.8794C14.2716 24.8469 14.2134 24.8354 14.1717 24.8029C13.2775 24.1431 12.3488 23.6578 11.3157 23.242C10.1668 22.8033 9.02964 22.6078 7.80034 22.575C7.76324 22.5795 7.72614 22.5845 7.68904 22.5891C6.95123 22.5696 6.24632 22.6587 5.52955 22.806H5.53032Z" fill="#006838"/>
</g>
<g style="mix-blend-mode:multiply">
<path d="M2.99299 39.693C2.90004 39.7871 2.7807 39.8774 2.68776 39.9719C2.31981 40.3218 2.00389 40.6791 1.69599 41.0776C1.26952 41.6601 0.895072 42.2495 0.581055 42.8875C1.34564 43.1522 2.10639 43.3496 2.93064 43.5687C4.17065 43.8716 5.30929 44.134 6.5382 44.422C8.13392 44.7602 9.59806 45.0803 11.2225 45.2088C11.2488 45.2122 11.2783 45.1897 11.3047 45.1931C11.5028 45.2069 11.7013 45.2207 11.8998 45.2344C12.1018 45.2218 12.2999 45.2356 12.5019 45.2233C12.7447 45.2031 12.9692 45.2203 13.201 45.1855C13.2569 45.1663 13.3127 45.1476 13.3804 45.1434C13.6348 45.138 13.8516 45.1143 14.0869 45.0531C14.2957 44.9885 14.5091 44.9908 14.7183 44.9258C14.9012 44.8573 15.0805 44.8152 15.2599 44.7728C15.6631 44.6542 16.0325 44.4913 16.428 44.3318C16.8832 44.1272 17.2745 43.9003 17.6956 43.6506C18.3102 43.2543 18.8614 42.8355 19.3858 42.3199C19.5567 42.1432 19.7128 41.9776 19.8837 41.8009C19.9136 41.7779 19.9059 41.737 19.9358 41.7145C20.4188 41.2065 20.7895 40.6431 21.149 40.0648C19.9488 40.7414 18.6537 41.2321 17.2901 41.5397C17.167 41.563 17.0285 41.5974 16.9054 41.6207C16.0161 41.7795 15.1674 41.8372 14.2471 41.8315C13.7683 41.8196 13.3192 41.7848 12.8476 41.7206C12.0352 41.6097 11.3009 41.4157 10.4801 41.1702C10.4162 41.148 10.3603 41.1671 10.2965 41.1453C9.4837 40.9407 8.73862 40.8256 7.9117 40.8194C7.88531 40.816 7.84782 40.7973 7.82182 40.7938C7.52998 40.7808 7.27563 40.7858 6.98036 40.7988C6.77841 40.811 6.60285 40.8275 6.41581 40.8282C6.37489 40.8359 6.35997 40.8474 6.31866 40.855C5.56326 40.912 4.87938 41.0321 4.17371 41.2161C6.49193 40.4649 9.0274 40.3708 11.3877 40.9736C11.9381 41.0489 12.4697 41.1614 13.0423 41.1729C13.0683 41.1763 13.1062 41.195 13.1322 41.1985C13.8769 41.2203 14.5313 41.2161 15.2641 41.1293C16.2957 41.003 17.237 40.7582 18.2035 40.4228C18.2594 40.4037 18.319 40.3586 18.3749 40.3394C19.3154 40.0009 20.1542 39.5282 20.9853 39.0145C20.7715 38.9185 20.573 38.9047 20.3297 38.8313C20.1385 38.7651 19.9323 38.7104 19.7227 38.6818C19.5541 38.6454 19.4007 38.5976 19.2469 38.5502C17.8382 38.2109 16.5424 37.9271 15.1379 37.6552C13.9396 37.4379 12.835 37.2203 11.6371 37.0968C11.5847 37.0895 11.5288 37.1086 11.4764 37.1013C10.3722 36.9774 9.32497 37.021 8.22266 37.1775C7.00828 37.3718 5.92585 37.7711 4.84458 38.3578C4.81474 38.3804 4.78491 38.4029 4.75508 38.4259C4.10639 38.7778 3.54032 39.2077 2.99337 39.6934L2.99299 39.693Z" fill="#F5D235"/>
</g>
<g style="mix-blend-mode:multiply">
<path d="M9.23926 55.586C9.2056 55.7141 9.14784 55.8518 9.11457 55.9799C8.97075 56.4672 8.8759 56.9346 8.8082 57.4334C8.72979 58.1509 8.70072 58.8485 8.74777 59.558C9.54218 59.405 10.2995 59.1954 11.123 58.9732C12.3484 58.6156 13.4657 58.2733 14.6736 57.9084C16.2245 57.4035 17.6527 56.9487 19.1237 56.2477C19.1482 56.2377 19.1627 56.2033 19.1872 56.1933C19.3658 56.1061 19.5445 56.0189 19.7231 55.9317C19.8917 55.8201 20.0704 55.7328 20.239 55.6212C20.4395 55.4819 20.6426 55.3848 20.8258 55.2387C20.8648 55.1943 20.9038 55.1499 20.96 55.1125C21.1777 54.9805 21.3536 54.8516 21.5265 54.681C21.6753 54.5204 21.8611 54.416 22.0096 54.2553C22.1339 54.1046 22.2677 53.9784 22.402 53.8522C22.6919 53.5481 22.9302 53.2222 23.1929 52.8864C23.4848 52.4814 23.7101 52.0893 23.9503 51.6629C24.2845 51.0123 24.5523 50.3743 24.7485 49.6655C24.8082 49.4269 24.8606 49.2054 24.9202 48.9667C24.9348 48.9319 24.9072 48.9006 24.9218 48.8661C25.0862 48.1846 25.1252 47.5114 25.1474 46.831C24.4463 48.0174 23.5701 49.0895 22.5431 50.0377C22.4479 50.1195 22.3454 50.2182 22.2505 50.3001C21.5598 50.8822 20.8533 51.3565 20.0535 51.8116C19.6328 52.0407 19.2266 52.235 18.786 52.4152C18.0272 52.7254 17.2939 52.9247 16.4605 53.122C16.3943 53.135 16.3553 53.1794 16.2892 53.192C15.4829 53.4215 14.7799 53.6942 14.0612 54.1023C14.0367 54.1123 13.995 54.1149 13.9706 54.1253C13.7112 54.2599 13.4936 54.3915 13.2442 54.5506C13.0755 54.6623 12.9314 54.764 12.7699 54.8585C12.7382 54.8856 12.7309 54.9029 12.6992 54.9304C12.0734 55.3572 11.5414 55.8036 11.022 56.3154C12.6541 54.5058 14.8028 53.1565 17.1482 52.4986C17.6623 52.2886 18.1794 52.1203 18.6808 51.8438C18.7053 51.8338 18.747 51.8311 18.7715 51.8212C19.427 51.4674 19.992 51.1369 20.5833 50.6956C21.4136 50.0706 22.1063 49.3879 22.776 48.6141C22.8151 48.5697 22.8441 48.5005 22.8828 48.4561C23.528 47.6927 24.018 46.8639 24.4808 46.0037C24.2478 46.0274 24.0688 46.1146 23.8214 46.1731C23.6225 46.2113 23.4167 46.2668 23.2209 46.3467C23.0568 46.3995 22.9 46.4351 22.7428 46.4707C21.3532 46.8811 20.0891 47.2834 18.7367 47.7501C17.5904 48.1612 16.5248 48.525 15.4255 49.0169C15.3766 49.0367 15.3375 49.0815 15.2886 49.1014C14.2704 49.5458 13.3854 50.1073 12.5087 50.7942C11.554 51.5699 10.8166 52.4569 10.1733 53.5053C10.1587 53.5397 10.1442 53.5741 10.1297 53.6089C9.74375 54.2381 9.46836 54.8933 9.23773 55.5875L9.23926 55.586Z" fill="#91A93E"/>
</g>
<g style="mix-blend-mode:multiply">
<path d="M22.5949 66.2269C22.6297 66.3547 22.6489 66.5027 22.6837 66.6304C22.8026 67.1242 22.9545 67.5763 23.1453 68.0426C23.4364 68.7031 23.76 69.3219 24.1555 69.9129C24.767 69.3831 25.3182 68.8232 25.9202 68.2189C26.8026 67.2963 27.5989 66.4415 28.463 65.5212C29.5534 64.3084 30.5632 63.2003 31.4865 61.8578C31.5029 61.8368 31.4979 61.7997 31.514 61.779C31.6253 61.6142 31.7362 61.4493 31.8472 61.2841C31.9374 61.1032 32.0483 60.938 32.1386 60.757C32.2426 60.5364 32.37 60.3508 32.4553 60.1324C32.4668 60.0747 32.4782 60.0166 32.5085 59.9561C32.6312 59.7331 32.7188 59.5335 32.7835 59.299C32.832 59.0856 32.9407 58.902 32.9889 58.6886C33.021 58.4958 33.0742 58.3195 33.1273 58.1432C33.2264 57.7347 33.27 57.3334 33.3297 56.9112C33.3798 56.4147 33.379 55.9623 33.3736 55.4727C33.3377 54.7421 33.2509 54.0556 33.0661 53.3438C32.9984 53.107 32.933 52.8894 32.8657 52.6526C32.8607 52.6155 32.8213 52.6018 32.8167 52.5647C32.6182 51.8923 32.3157 51.2899 31.9948 50.6894C31.9806 52.0674 31.758 53.434 31.3427 54.7685C31.301 54.8867 31.262 55.0236 31.2203 55.1422C30.9131 55.9917 30.5387 56.7555 30.0736 57.5499C29.8238 57.9584 29.5691 58.3302 29.2776 58.7066C28.7754 59.3545 28.2404 59.8938 27.6173 60.4817C27.5664 60.526 27.5549 60.5838 27.5037 60.6281C26.92 61.2298 26.448 61.8177 26.0292 62.5306C26.0132 62.5516 25.9784 62.5746 25.9619 62.5956C25.8047 62.842 25.6819 63.0646 25.5454 63.3269C25.4551 63.5082 25.3813 63.6681 25.2887 63.8307C25.275 63.8701 25.2773 63.8888 25.2635 63.9282C24.935 64.6109 24.6974 65.2631 24.5035 65.9664C25.0122 63.5832 26.1983 61.3403 27.9007 59.5977C28.2411 59.1587 28.6045 58.7544 28.9009 58.2644C28.917 58.2434 28.9518 58.2204 28.9678 58.1994C29.3587 57.5652 29.6827 56.9965 29.9738 56.3187C30.3803 55.3625 30.6389 54.4247 30.832 53.4199C30.8435 53.3621 30.834 53.2876 30.8454 53.2298C31.0225 52.2461 31.0325 51.2834 31.003 50.3069C30.8129 50.4438 30.702 50.609 30.5165 50.7831C30.3635 50.9154 30.2132 51.0665 30.0835 51.234C29.968 51.3618 29.8495 51.4712 29.7316 51.5802C28.7338 52.6305 27.8399 53.6108 26.902 54.6913C26.1149 55.6203 25.374 56.4683 24.668 57.444C24.6355 57.4857 24.624 57.5438 24.5919 57.5855C23.9321 58.4798 23.4467 59.4084 23.0306 60.4415C22.5919 61.5905 22.3964 62.7276 22.3635 63.9573C22.3681 63.9944 22.3731 64.0315 22.3777 64.0686C22.3582 64.8064 22.4473 65.5113 22.5945 66.2277L22.5949 66.2269Z" fill="#39B54A"/>
</g>
<g style="mix-blend-mode:multiply">
<path d="M39.4821 68.764C39.5761 68.8569 39.6664 68.9763 39.7609 69.0692C40.1109 69.4376 40.4681 69.7531 40.8666 70.0614C41.4492 70.4878 42.0386 70.8619 42.6765 71.1763C42.9412 70.4117 43.1386 69.651 43.3577 68.8267C43.6607 67.5867 43.923 66.4481 44.2111 65.2195C44.5492 63.6238 44.8693 62.1593 44.9978 60.5353C45.0013 60.5089 44.9787 60.4795 44.9821 60.4531C44.9959 60.2546 45.0097 60.0564 45.0234 59.8579C45.0108 59.656 45.0246 59.4578 45.0124 59.2559C44.9921 59.0126 45.0093 58.7881 44.9741 58.5567C44.9554 58.5009 44.9362 58.4447 44.932 58.3773C44.9267 58.123 44.903 57.9061 44.8418 57.6709C44.7771 57.4621 44.7794 57.2486 44.7144 57.0398C44.6459 56.857 44.6039 56.6776 44.5614 56.4982C44.4428 56.0951 44.2799 55.7256 44.1204 55.3301C43.9158 54.8749 43.689 54.4837 43.4392 54.0626C43.043 53.4479 42.6241 52.8968 42.1086 52.3724C41.9319 52.2014 41.7662 52.0454 41.5895 51.874C41.5666 51.8442 41.5257 51.8522 41.5031 51.8224C40.9952 51.3393 40.4318 50.9687 39.8534 50.6091C40.5301 51.8094 41.0208 53.1044 41.3283 54.468C41.3516 54.5912 41.386 54.7296 41.4094 54.8528C41.5681 55.7424 41.6259 56.5908 41.6201 57.511C41.6083 57.9899 41.5735 58.4389 41.5088 58.9109C41.3979 59.7233 41.204 60.4576 40.9584 61.2781C40.9362 61.3419 40.9554 61.3978 40.9332 61.4617C40.7286 62.2744 40.6134 63.0195 40.6073 63.8464C40.6039 63.8728 40.5851 63.9103 40.5817 63.9363C40.5687 64.2281 40.5737 64.4825 40.5867 64.7778C40.5993 64.9797 40.6153 65.1557 40.6165 65.3427C40.6241 65.3836 40.6356 65.3985 40.6433 65.4399C40.7003 66.1953 40.8204 66.8787 41.0043 67.5848C40.2531 65.2666 40.1591 62.7311 40.7618 60.3708C40.8368 59.8204 40.9496 59.2884 40.9611 58.7162C40.9646 58.6902 40.9833 58.6527 40.9867 58.6263C41.0085 57.8816 41.0043 57.2272 40.9175 56.4944C40.7917 55.4628 40.5465 54.5215 40.2114 53.5546C40.1923 53.4988 40.1472 53.4391 40.1281 53.3833C39.7896 52.4427 39.3168 51.604 38.8032 50.7728C38.7072 50.9866 38.6934 51.1851 38.6199 51.4284C38.5538 51.6196 38.4987 51.8258 38.47 52.0354C38.4337 52.2041 38.3859 52.3575 38.3384 52.5112C37.9992 53.9199 37.7154 55.2157 37.4434 56.6202C37.2262 57.8185 37.0085 58.9231 36.885 60.1211C36.8777 60.1735 36.8969 60.2293 36.8896 60.2817C36.7653 61.3859 36.8093 62.4332 36.9657 63.5355C37.16 64.7499 37.5593 65.8323 38.146 66.9136C38.1686 66.9434 38.1912 66.9732 38.2137 67.0031C38.5656 67.6517 38.9955 68.2178 39.4813 68.7644L39.4821 68.764Z" fill="#F5D235"/>
</g>
<g style="mix-blend-mode:multiply">
<path d="M55.375 62.5181C55.5031 62.5517 55.6408 62.6095 55.7689 62.6428C56.2562 62.7866 56.7236 62.8814 57.2223 62.9491C57.9399 63.0272 58.6375 63.0566 59.347 63.0096C59.194 62.2152 58.9844 61.4578 58.7622 60.6344C58.4046 59.4089 58.0623 58.2917 57.6974 57.0834C57.1925 55.5324 56.7374 54.1042 56.0366 52.6332C56.0267 52.6087 55.9923 52.5942 55.9823 52.5697C55.8951 52.3911 55.8079 52.2125 55.7207 52.0339C55.609 51.8652 55.5218 51.6866 55.4101 51.5179C55.2709 51.3175 55.1738 51.1144 55.0277 50.9312C54.9833 50.8922 54.9389 50.8532 54.9014 50.7969C54.7695 50.5793 54.641 50.4034 54.47 50.2301C54.3094 50.0817 54.205 49.8954 54.0443 49.747C53.8936 49.6227 53.7674 49.4885 53.6412 49.3546C53.3371 49.0647 53.0112 48.826 52.6754 48.5632C52.2704 48.2714 51.8783 48.0461 51.4518 47.8059C50.8012 47.4716 50.1633 47.2039 49.4545 47.0077C49.2159 46.948 48.9944 46.8956 48.7557 46.836C48.7209 46.8214 48.6896 46.849 48.6551 46.8344C47.9739 46.67 47.3004 46.6309 46.62 46.6088C47.806 47.3099 48.8785 48.1861 49.8267 49.2131C49.9085 49.3083 50.0072 49.4104 50.0891 49.5057C50.6712 50.1964 51.1455 50.9029 51.6006 51.7027C51.8297 52.1234 52.024 52.5296 52.2042 52.9706C52.5144 53.7294 52.7137 54.4623 52.911 55.2961C52.924 55.3622 52.9684 55.4012 52.981 55.4674C53.2105 56.2737 53.4832 56.9767 53.8913 57.6954C53.9013 57.7198 53.9039 57.7615 53.9143 57.786C54.0489 58.0453 54.1805 58.263 54.3392 58.5124C54.4509 58.681 54.5526 58.8252 54.6471 58.9866C54.6743 59.0184 54.6915 59.0256 54.7186 59.057C55.1459 59.6827 55.5918 60.2148 56.104 60.7342C54.2941 59.1021 52.9451 56.9534 52.2868 54.6076C52.0768 54.0935 51.9085 53.5764 51.632 53.075C51.6221 53.0509 51.6194 53.0088 51.6094 52.9843C51.256 52.3288 50.9252 51.7638 50.4838 51.1725C49.8588 50.3422 49.1761 49.6495 48.4023 48.9798C48.358 48.9408 48.2887 48.9121 48.2444 48.8731C47.4809 48.2278 46.6521 47.7378 45.7915 47.275C45.8152 47.5084 45.9024 47.687 45.9609 47.9344C45.9992 48.1333 46.0547 48.3391 46.1346 48.5349C46.1874 48.699 46.2229 48.8562 46.2585 49.013C46.6689 50.4026 47.0713 51.6667 47.5379 53.0191C47.9491 54.1654 48.3128 55.231 48.8047 56.3299C48.8246 56.3789 48.8693 56.4179 48.8892 56.4668C49.334 57.485 49.8951 58.3701 50.5821 59.2467C51.3578 60.2014 52.2447 60.9388 53.2931 61.5822C53.3275 61.5967 53.362 61.6112 53.3968 61.6257C54.026 62.0117 54.6811 62.2867 55.3753 62.5173L55.375 62.5181Z" fill="#91A93E"/>
</g>
<g style="mix-blend-mode:multiply">
<path d="M66.0159 49.1621C66.1436 49.1273 66.2916 49.1082 66.4194 49.0734C66.9132 48.9544 67.3653 48.8026 67.8315 48.6117C68.4921 48.3206 69.1109 47.9971 69.7018 47.6016C69.1721 46.99 68.6118 46.4388 68.0078 45.8368C67.0853 44.9544 66.2304 44.1577 65.3102 43.2941C64.0973 42.2032 62.9893 41.1939 61.6468 40.2706C61.6257 40.2541 61.5886 40.2591 61.568 40.243C61.4031 40.1317 61.2383 40.0208 61.0731 39.9099C60.8921 39.8196 60.7269 39.7087 60.546 39.6184C60.3253 39.5144 60.1398 39.387 59.9214 39.3017C59.8637 39.2903 59.8055 39.2788 59.7451 39.2486C59.5221 39.1258 59.3224 39.0382 59.088 38.9736C58.8746 38.925 58.691 38.8164 58.4775 38.7682C58.2848 38.736 58.1084 38.6829 57.9321 38.6301C57.5236 38.531 57.1224 38.4874 56.7001 38.4278C56.2037 38.3777 55.7512 38.3784 55.2616 38.3838C54.5311 38.4197 53.8445 38.5066 53.1327 38.6913C52.896 38.759 52.6784 38.8244 52.4416 38.8917C52.4045 38.8967 52.3907 38.9361 52.3536 38.9407C51.6812 39.1392 51.0788 39.4417 50.4783 39.7626C51.8564 39.7768 53.223 39.9994 54.5575 40.4148C54.6761 40.4564 54.8126 40.4955 54.9312 40.5371C55.7807 40.8443 56.5445 41.2187 57.3385 41.6838C57.7474 41.9336 58.1188 42.1883 58.4951 42.4798C59.1431 42.982 59.682 43.5171 60.2702 44.1401C60.3146 44.191 60.3724 44.2025 60.4167 44.2537C61.0184 44.8374 61.6062 45.3098 62.3192 45.7282C62.3402 45.7446 62.3632 45.7791 62.3842 45.7955C62.6305 45.9527 62.8531 46.0755 63.1155 46.212C63.2968 46.3023 63.4567 46.3761 63.6196 46.4687C63.659 46.4824 63.6778 46.4802 63.7172 46.4939C64.3999 46.8225 65.052 47.06 65.7554 47.2539C63.3722 46.7452 61.1293 45.5591 59.3867 43.8567C58.9476 43.5163 58.5433 43.1529 58.0534 42.8569C58.0323 42.8408 58.0094 42.806 57.9883 42.79C57.3542 42.3987 56.7854 42.0751 56.1077 41.784C55.1515 41.3775 54.2136 41.1189 53.2089 40.9258C53.1511 40.9143 53.0769 40.9238 53.0188 40.9124C52.035 40.7353 51.0719 40.7253 50.0955 40.7548C50.2324 40.9449 50.3976 41.0562 50.5716 41.2413C50.704 41.3943 50.8551 41.5446 51.0222 41.6743C51.15 41.7898 51.2594 41.9083 51.3684 42.0262C52.4187 43.0244 53.3989 43.9179 54.4791 44.8557C55.4081 45.6429 56.2561 46.3838 57.2318 47.0898C57.2735 47.1223 57.3316 47.1338 57.3733 47.1659C58.2676 47.8257 59.1962 48.3111 60.2293 48.7272C61.3783 49.1659 62.5154 49.3614 63.7447 49.3943C63.7818 49.3897 63.8189 49.3847 63.856 49.3801C64.5938 49.3996 65.2987 49.3105 66.0151 49.1633L66.0159 49.1621Z" fill="#006838"/>
</g>
<g style="mix-blend-mode:multiply">
<path d="M68.5533 32.2752C68.6463 32.1811 68.7656 32.0904 68.8585 31.9963C69.2269 31.6464 69.5424 31.2888 69.8507 30.8906C70.2772 30.3081 70.6516 29.7187 70.9656 29.0807C70.2011 28.816 69.4403 28.6187 68.6161 28.3995C67.376 28.0966 66.2374 27.8342 65.0085 27.5462C63.4128 27.2081 61.9482 26.8879 60.3242 26.7594C60.2978 26.756 60.2684 26.7785 60.242 26.7747C60.0435 26.7609 59.8454 26.7472 59.6469 26.7334C59.4449 26.7456 59.2468 26.7323 59.0448 26.7445C58.8016 26.7648 58.5771 26.7476 58.3457 26.7827C58.2898 26.8015 58.2336 26.8206 58.1663 26.8248C57.9119 26.8302 57.6951 26.8539 57.4598 26.9151C57.251 26.9797 57.0376 26.9774 56.8287 27.0424C56.6459 27.1109 56.4665 27.153 56.2871 27.1954C55.884 27.314 55.5145 27.4769 55.119 27.6364C54.6639 27.8411 54.2726 28.0679 53.8515 28.3176C53.2369 28.7139 52.6857 29.1327 52.1617 29.6483C51.9903 29.825 51.8347 29.9906 51.6633 30.1673C51.6335 30.1903 51.6411 30.2312 51.6113 30.2538C51.1282 30.7617 50.7576 31.3251 50.3981 31.9034C51.5983 31.2268 52.8934 30.7361 54.2569 30.4286C54.3801 30.4052 54.5185 30.3708 54.6417 30.3475C55.5314 30.1887 56.3797 30.131 57.2999 30.1367C57.7788 30.1486 58.2279 30.1834 58.6995 30.248C59.5118 30.3589 60.2462 30.5529 61.0666 30.7984C61.1305 30.8206 61.1863 30.8015 61.2502 30.8237C62.063 31.0283 62.8081 31.1434 63.635 31.1495C63.6614 31.153 63.6989 31.1717 63.7249 31.1752C64.0167 31.1882 64.2711 31.1832 64.5663 31.1702C64.7683 31.1579 64.9442 31.1415 65.1313 31.1407C65.1722 31.1331 65.1871 31.1216 65.2284 31.114C65.9838 31.057 66.6677 30.9369 67.3734 30.7529C65.0551 31.5041 62.5197 31.5982 60.159 30.9954C59.6086 30.9204 59.077 30.8076 58.5044 30.7961C58.4784 30.7927 58.4409 30.7739 58.4145 30.7705C57.6698 30.7487 57.0154 30.7529 56.2826 30.8397C55.251 30.9656 54.3097 31.2107 53.3428 31.5458C53.287 31.5649 53.2273 31.61 53.1714 31.6292C52.2309 31.9677 51.3921 32.4404 50.561 32.9541C50.7748 33.0501 50.9733 33.0638 51.2166 33.1373C51.4078 33.2035 51.6136 33.2585 51.8236 33.2872C51.9923 33.3236 52.1456 33.3714 52.2994 33.4188C53.7077 33.7581 55.0039 34.0419 56.4084 34.3138C57.6067 34.531 58.7113 34.7487 59.9092 34.8722C59.9616 34.8795 60.0175 34.8604 60.0699 34.8676C61.1741 34.9919 62.2213 34.948 63.3236 34.7915C64.538 34.5972 65.6205 34.1979 66.7017 33.6112C66.7316 33.5886 66.7614 33.5661 66.7912 33.5435C67.4399 33.1916 68.006 32.7617 68.5526 32.2759L68.5533 32.2752Z" fill="#F5D235"/>
</g>
<g style="mix-blend-mode:multiply">
<path d="M62.3069 16.3817C62.3406 16.2536 62.3983 16.1159 62.4316 15.9878C62.5754 15.5005 62.6702 15.0331 62.7379 14.5344C62.816 13.8168 62.8454 13.1188 62.7984 12.4097C62.004 12.5627 61.2467 12.7723 60.4232 12.9945C59.1977 13.3521 58.0805 13.6944 56.8722 14.0593C55.3212 14.5642 53.8931 15.0193 52.422 15.72C52.3976 15.73 52.383 15.7644 52.3585 15.7744C52.1799 15.8616 52.0013 15.9488 51.8223 16.0364C51.6536 16.148 51.475 16.2353 51.3063 16.3469C51.1059 16.4862 50.9028 16.5833 50.7196 16.7298C50.6806 16.7742 50.6416 16.8185 50.5854 16.856C50.3677 16.988 50.1918 17.1165 50.0189 17.2875C49.8701 17.4481 49.6842 17.5525 49.5358 17.7132C49.4115 17.8639 49.2777 17.9901 49.1434 18.1167C48.8535 18.4207 48.6148 18.7466 48.3524 19.0824C48.0606 19.4875 47.8353 19.8795 47.5951 20.306C47.2608 20.9566 46.9931 21.5946 46.7969 22.3033C46.7372 22.542 46.6848 22.7634 46.6252 23.0021C46.6106 23.0369 46.6382 23.0683 46.6236 23.1027C46.4592 23.7839 46.4198 24.4575 46.3979 25.1379C47.099 23.9518 47.9753 22.8793 49.0023 21.9312C49.0975 21.8493 49.2 21.7506 49.2949 21.6688C49.9856 21.0866 50.6921 20.6124 51.4918 20.1572C51.9126 19.9281 52.3188 19.7338 52.7598 19.5537C53.5186 19.2435 54.2514 19.0442 55.0853 18.8468C55.1514 18.8338 55.1904 18.7895 55.2566 18.7768C56.0629 18.5473 56.7659 18.2746 57.4846 17.8665C57.509 17.8566 57.5507 17.8539 57.5752 17.8436C57.8345 17.709 58.0522 17.5774 58.3015 17.4183C58.4702 17.3066 58.6144 17.2048 58.7758 17.1104C58.8076 17.0832 58.8148 17.066 58.8462 17.0385C59.4719 16.6116 60.004 16.1656 60.5234 15.6531C58.8913 17.463 56.7425 18.812 54.3968 19.4703C53.8827 19.6803 53.3656 19.8485 52.8642 20.1251C52.8401 20.135 52.798 20.1377 52.7735 20.1477C52.118 20.5011 51.553 20.8319 50.9617 21.2733C50.1314 21.8983 49.4387 22.581 48.769 23.3548C48.7299 23.3991 48.7013 23.4684 48.6622 23.5127C48.017 24.2762 47.527 25.105 47.0642 25.9656C47.2976 25.9419 47.4762 25.8547 47.7236 25.7961C47.9221 25.7579 48.1283 25.7024 48.3241 25.6225C48.4882 25.5697 48.6454 25.5341 48.8022 25.4986C50.1918 25.0882 51.4559 24.6862 52.8083 24.2192C53.9546 23.808 55.0202 23.4443 56.1195 22.9524C56.1684 22.9325 56.2075 22.8878 56.2564 22.8679C57.275 22.423 58.1596 21.8619 59.0363 21.175C59.991 20.3993 60.7284 19.5124 61.3717 18.464C61.3863 18.4295 61.4008 18.3947 61.4153 18.3603C61.8012 17.7311 62.0763 17.0759 62.3069 16.3817Z" fill="#91A93E"/>
</g>
<g style="mix-blend-mode:multiply">
<path d="M48.9512 5.74127C48.9164 5.61352 48.8973 5.46512 48.8625 5.33775C48.7435 4.84397 48.5917 4.39188 48.4008 3.92563C48.1097 3.26509 47.7862 2.64623 47.3907 2.0553C46.7791 2.58503 46.2279 3.14537 45.6259 3.74931C44.7435 4.67186 43.9472 5.5267 43.0832 6.44657C41.9923 7.65941 40.983 8.76746 40.0597 10.11C40.0436 10.131 40.0482 10.1681 40.0321 10.1888C39.9208 10.3536 39.8099 10.5185 39.6986 10.6837C39.6083 10.8646 39.4974 11.0298 39.4071 11.2108C39.3031 11.4314 39.1757 11.6173 39.0905 11.8353C39.079 11.8931 39.0675 11.9512 39.0373 12.0117C38.9145 12.2347 38.8269 12.4343 38.7623 12.6688C38.7137 12.8822 38.6051 13.0658 38.5569 13.2792C38.5248 13.472 38.4716 13.6483 38.4184 13.8246C38.3194 14.2331 38.2758 14.6343 38.2161 15.0566C38.166 15.5531 38.1668 16.0055 38.1721 16.4947C38.2081 17.2253 38.2949 17.9118 38.4796 18.6236C38.5473 18.8604 38.6127 19.078 38.68 19.3148C38.685 19.3519 38.7244 19.3656 38.729 19.4027C38.9275 20.0751 39.2301 20.6776 39.551 21.2781C39.5651 19.9 39.7877 18.5334 40.2031 17.1989C40.2444 17.0803 40.2838 16.9438 40.3255 16.8252C40.6326 15.9753 41.0071 15.2119 41.4722 14.4175C41.7219 14.0086 41.9766 13.6372 42.2681 13.2609C42.7703 12.6129 43.3054 12.074 43.9285 11.4858C43.9793 11.4414 43.9908 11.3836 44.0421 11.3393C44.6257 10.7376 45.0977 10.1498 45.5165 9.43719C45.533 9.41615 45.5678 9.39282 45.5838 9.37217C45.741 9.12585 45.8638 8.90324 46.0004 8.64086C46.0906 8.45957 46.1644 8.29931 46.257 8.13714C46.2708 8.09774 46.2685 8.079 46.2823 8.0396C46.6104 7.35687 46.8483 6.70474 47.0419 6.00136C46.5335 8.3846 45.3471 10.6275 43.6447 12.3701C43.3042 12.8091 42.9409 13.2134 42.6448 13.7034C42.6288 13.724 42.594 13.7474 42.5779 13.7684C42.187 14.4026 41.8631 14.9713 41.572 15.6491C41.1654 16.6053 40.9069 17.5431 40.7137 18.5479C40.7022 18.6057 40.7118 18.6802 40.7003 18.738C40.5232 19.7217 40.5133 20.6848 40.5427 21.6613C40.7328 21.5244 40.8437 21.3591 41.0292 21.1851C41.1822 21.0528 41.3326 20.9017 41.4622 20.7345C41.5781 20.6068 41.6963 20.4974 41.8141 20.3884C42.8124 19.3381 43.7059 18.3578 44.6437 17.2777C45.4308 16.3486 46.1717 15.5007 46.8778 14.525C46.9103 14.4833 46.9218 14.4251 46.9539 14.3834C47.6137 13.4892 48.0994 12.5605 48.5152 11.5275C48.9539 10.3785 49.1493 9.24136 49.1822 8.01206C49.1776 7.97496 49.1727 7.93786 49.1681 7.90076C49.1876 7.16295 49.0985 6.45804 48.9512 5.74165V5.74127Z" fill="#006838"/>
</g>
<path d="M90.861 15.9221C92.3585 16.7781 93.1073 18.0701 93.1073 19.7981C93.1073 21.2354 92.5945 22.4144 91.569 23.3349C90.5436 24.2555 89.282 24.7158 87.7845 24.7158H80.5328V7.7583H87.2717C88.7205 7.7583 89.9494 8.2105 90.9586 9.1149C91.9679 10.0193 92.4725 11.1579 92.4725 12.5306C92.4725 13.9357 91.9353 15.0662 90.861 15.9221ZM87.2717 10.8833H83.9023V14.614H87.2717C87.7926 14.614 88.224 14.4363 88.5658 14.081C88.9239 13.7257 89.103 13.2816 89.103 12.7486C89.103 12.2157 88.9321 11.7716 88.5902 11.4163C88.2484 11.061 87.8089 10.8833 87.2717 10.8833ZM83.9023 21.5907H87.7845C88.3542 21.5907 88.8263 21.405 89.2006 21.0336C89.575 20.646 89.7622 20.1615 89.7622 19.5801C89.7622 19.0148 89.575 18.5465 89.2006 18.175C88.8263 17.7874 88.3542 17.5936 87.7845 17.5936H83.9023V21.5907Z" fill="#0D1017"/>
<path d="M105.762 23.2138C104.525 24.4412 102.995 25.0549 101.172 25.0549C99.3485 25.0549 97.8184 24.4412 96.5813 23.2138C95.3442 21.9864 94.7256 20.4683 94.7256 18.6595C94.7256 16.8669 95.3442 15.3569 96.5813 14.1295C97.8347 12.8859 99.3648 12.2641 101.172 12.2641C102.978 12.2641 104.509 12.8859 105.762 14.1295C107.015 15.373 107.642 16.883 107.642 18.6595C107.642 20.4522 107.015 21.9703 105.762 23.2138ZM98.8032 21.0578C99.438 21.6876 100.227 22.0026 101.172 22.0026C102.116 22.0026 102.905 21.6876 103.54 21.0578C104.175 20.4279 104.492 19.6285 104.492 18.6595C104.492 17.6905 104.175 16.8911 103.54 16.2613C102.905 15.6314 102.116 15.3165 101.172 15.3165C100.227 15.3165 99.438 15.6314 98.8032 16.2613C98.1846 16.9073 97.8754 17.7067 97.8754 18.6595C97.8754 19.6124 98.1846 20.4118 98.8032 21.0578Z" fill="#0D1017"/>
<path d="M111.291 14.4928H107.873L109.704 7.7583H112.268L111.291 14.4928Z" fill="#0D1017"/>
<path d="M115.863 16.0432C115.863 16.56 116.604 17.0042 118.085 17.3756C118.606 17.4887 119.078 17.6259 119.501 17.7874C119.924 17.9328 120.348 18.1508 120.771 18.4415C121.21 18.716 121.552 19.0875 121.796 19.5558C122.04 20.0242 122.163 20.5652 122.163 21.1789C122.163 22.4225 121.69 23.3834 120.746 24.0617C119.802 24.7238 118.638 25.0549 117.255 25.0549C114.748 25.0549 113.039 24.094 112.127 22.1721L114.862 20.646C115.236 21.6957 116.034 22.2206 117.255 22.2206C118.378 22.2206 118.94 21.8734 118.94 21.1789C118.94 20.6621 118.199 20.218 116.718 19.8465C116.164 19.7012 115.692 19.5558 115.302 19.4105C114.911 19.2651 114.488 19.0552 114.032 18.7806C113.576 18.49 113.226 18.1266 112.982 17.6905C112.754 17.2383 112.64 16.7135 112.64 16.1159C112.64 14.9208 113.08 13.9841 113.959 13.3058C114.854 12.6114 115.961 12.2641 117.279 12.2641C118.272 12.2641 119.176 12.4902 119.989 12.9424C120.803 13.3785 121.446 14.0083 121.918 14.832L119.233 16.2855C118.842 15.4618 118.191 15.05 117.279 15.05C116.872 15.05 116.53 15.1469 116.254 15.3407C115.993 15.5184 115.863 15.7525 115.863 16.0432Z" fill="#0D1017"/>
<path d="M130.814 12.6033V15.6072H128.055V20.646C128.055 21.0659 128.16 21.3727 128.372 21.5665C128.584 21.7603 128.893 21.8734 129.3 21.9057C129.707 21.9218 130.211 21.9137 130.814 21.8814V24.7158C128.681 24.958 127.159 24.7642 126.248 24.1344C125.352 23.4884 124.905 22.3256 124.905 20.646V15.6072H122.781V12.6033H124.905V10.1566L128.055 9.2118V12.6033H130.814Z" fill="#0D1017"/>
<path d="M143.054 23.2138C141.817 24.4412 140.287 25.0549 138.464 25.0549C136.641 25.0549 135.111 24.4412 133.874 23.2138C132.637 21.9864 132.018 20.4683 132.018 18.6595C132.018 16.8669 132.637 15.3569 133.874 14.1295C135.127 12.8859 136.657 12.2641 138.464 12.2641C140.271 12.2641 141.801 12.8859 143.054 14.1295C144.308 15.373 144.934 16.883 144.934 18.6595C144.934 20.4522 144.308 21.9703 143.054 23.2138ZM136.096 21.0578C136.73 21.6876 137.52 22.0026 138.464 22.0026C139.408 22.0026 140.198 21.6876 140.832 21.0578C141.467 20.4279 141.785 19.6285 141.785 18.6595C141.785 17.6905 141.467 16.8911 140.832 16.2613C140.198 15.6314 139.408 15.3165 138.464 15.3165C137.52 15.3165 136.73 15.6314 136.096 16.2613C135.477 16.9073 135.168 17.7067 135.168 18.6595C135.168 19.6124 135.477 20.4118 136.096 21.0578Z" fill="#0D1017"/>
<path d="M153.938 12.2641C155.289 12.2641 156.388 12.7083 157.234 13.5965C158.113 14.5009 158.553 15.7283 158.553 17.2787V24.7158H155.403V17.6663C155.403 16.875 155.183 16.2613 154.744 15.8252C154.32 15.3892 153.734 15.1711 152.986 15.1711C152.156 15.1711 151.496 15.4295 151.008 15.9463C150.536 16.447 150.3 17.1899 150.3 18.175V24.7158H147.15V12.6033H150.3V13.9599C151.049 12.8294 152.261 12.2641 153.938 12.2641Z" fill="#0D1017"/>
<path d="M90.7389 27.4411V30.6388H83.9023V34.6601H90.5436V37.8578H83.9023V44.3985H80.5328V27.4411H90.7389Z" fill="#0D1017"/>
<path d="M103.449 42.8966C102.212 44.124 100.682 44.7377 98.8587 44.7377C97.0356 44.7377 95.5055 44.124 94.2684 42.8966C93.0313 41.6692 92.4128 40.1511 92.4128 38.3423C92.4128 36.5496 93.0313 35.0396 94.2684 33.8122C95.5218 32.5687 97.0519 31.9469 98.8587 31.9469C100.666 31.9469 102.196 32.5687 103.449 33.8122C104.702 35.0558 105.329 36.5658 105.329 38.3423C105.329 40.1349 104.702 41.653 103.449 42.8966ZM96.4903 40.7406C97.1251 41.3704 97.9146 41.6853 98.8587 41.6853C99.8028 41.6853 100.592 41.3704 101.227 40.7406C101.862 40.1107 102.179 39.3113 102.179 38.3423C102.179 37.3733 101.862 36.5739 101.227 35.944C100.592 35.3142 99.8028 34.9992 98.8587 34.9992C97.9146 34.9992 97.1251 35.3142 96.4903 35.944C95.8718 36.59 95.5625 37.3894 95.5625 38.3423C95.5625 39.2951 95.8718 40.0946 96.4903 40.7406Z" fill="#0D1017"/>
<path d="M117.946 42.8966C116.709 44.124 115.179 44.7377 113.356 44.7377C111.533 44.7377 110.003 44.124 108.766 42.8966C107.529 41.6692 106.91 40.1511 106.91 38.3423C106.91 36.5496 107.529 35.0396 108.766 33.8122C110.019 32.5687 111.549 31.9469 113.356 31.9469C115.163 31.9469 116.693 32.5687 117.946 33.8122C119.2 35.0558 119.826 36.5658 119.826 38.3423C119.826 40.1349 119.2 41.653 117.946 42.8966ZM110.988 40.7406C111.622 41.3704 112.412 41.6853 113.356 41.6853C114.3 41.6853 115.09 41.3704 115.724 40.7406C116.359 40.1107 116.677 39.3113 116.677 38.3423C116.677 37.3733 116.359 36.5739 115.724 35.944C115.09 35.3142 114.3 34.9992 113.356 34.9992C112.412 34.9992 111.622 35.3142 110.988 35.944C110.369 36.59 110.06 37.3894 110.06 38.3423C110.06 39.2951 110.369 40.0946 110.988 40.7406Z" fill="#0D1017"/>
<path d="M131.296 33.7153V27.4411H134.446V44.3985H131.296V42.9692C130.368 44.1482 129.05 44.7377 127.341 44.7377C125.697 44.7377 124.288 44.124 123.116 42.8966C121.961 41.653 121.383 40.1349 121.383 38.3423C121.383 36.5658 121.961 35.0558 123.116 33.8122C124.288 32.5687 125.697 31.9469 127.341 31.9469C129.05 31.9469 130.368 32.5364 131.296 33.7153ZM125.485 40.8132C126.152 41.4431 126.966 41.758 127.927 41.758C128.903 41.758 129.709 41.4431 130.344 40.8132C130.979 40.1672 131.296 39.3436 131.296 38.3423C131.296 37.341 130.979 36.5254 130.344 35.8956C129.709 35.2496 128.903 34.9266 127.927 34.9266C126.95 34.9266 126.136 35.2496 125.485 35.8956C124.85 36.5254 124.533 37.341 124.533 38.3423C124.533 39.3436 124.85 40.1672 125.485 40.8132Z" fill="#0D1017"/>
<path d="M88.6391 64.4204C86.0835 64.4204 83.9592 63.5726 82.2664 61.8768C80.5898 60.1972 79.7515 58.1058 79.7515 55.6026C79.7515 53.0832 80.5898 50.9917 82.2664 49.3283C83.9592 47.6326 86.0835 46.7847 88.6391 46.7847C90.1854 46.7847 91.6097 47.1481 92.912 47.8748C94.2304 48.5854 95.2559 49.5544 95.9884 50.7818L93.0829 52.4533C92.6597 51.6943 92.0574 51.1048 91.2761 50.6849C90.4947 50.2488 89.6157 50.0308 88.6391 50.0308C86.9787 50.0308 85.6358 50.5476 84.6103 51.5812C83.6011 52.631 83.0965 53.9714 83.0965 55.6026C83.0965 57.2176 83.6011 58.5499 84.6103 59.5997C85.6358 60.6333 86.9787 61.1501 88.6391 61.1501C89.6157 61.1501 90.4947 60.9401 91.2761 60.5202C92.0737 60.0842 92.6759 59.4947 93.0829 58.7518L95.9884 60.4233C95.2559 61.6507 94.2304 62.6278 92.912 63.3545C91.6097 64.0651 90.1854 64.4204 88.6391 64.4204Z" fill="#0D1017"/>
<path d="M108.385 62.5793C107.148 63.8067 105.618 64.4204 103.794 64.4204C101.971 64.4204 100.441 63.8067 99.2042 62.5793C97.9671 61.3519 97.3485 59.8338 97.3485 58.0251C97.3485 56.2324 97.9671 54.7224 99.2042 53.495C100.458 52.2514 101.988 51.6297 103.794 51.6297C105.601 51.6297 107.131 52.2514 108.385 53.495C109.638 54.7385 110.265 56.2486 110.265 58.0251C110.265 59.8177 109.638 61.3358 108.385 62.5793ZM101.426 60.4233C102.061 61.0532 102.85 61.3681 103.794 61.3681C104.739 61.3681 105.528 61.0532 106.163 60.4233C106.798 59.7935 107.115 58.994 107.115 58.0251C107.115 57.0561 106.798 56.2566 106.163 55.6268C105.528 54.9969 104.739 54.682 103.794 54.682C102.85 54.682 102.061 54.9969 101.426 55.6268C100.808 56.2728 100.498 57.0722 100.498 58.0251C100.498 58.9779 100.808 59.7773 101.426 60.4233Z" fill="#0D1017"/>
<path d="M125.983 51.6297C127.383 51.6297 128.498 52.0819 129.328 52.9863C130.174 53.8907 130.598 55.1019 130.598 56.62V64.0813H127.448V56.838C127.448 56.1113 127.269 55.546 126.911 55.1423C126.553 54.7385 126.048 54.5367 125.397 54.5367C124.681 54.5367 124.119 54.7708 123.712 55.2392C123.322 55.7075 123.126 56.3858 123.126 57.2741V64.0813H119.976V56.838C119.976 56.1113 119.797 55.546 119.439 55.1423C119.081 54.7385 118.577 54.5367 117.926 54.5367C117.226 54.5367 116.664 54.7789 116.241 55.2634C115.834 55.7318 115.63 56.402 115.63 57.2741V64.0813H112.481V51.9688H115.63V53.2527C116.363 52.1707 117.494 51.6297 119.024 51.6297C120.538 51.6297 121.645 52.2111 122.345 53.3739C123.143 52.2111 124.355 51.6297 125.983 51.6297Z" fill="#0D1017"/>
<path d="M140.378 51.6297C142.022 51.6297 143.422 52.2514 144.578 53.495C145.75 54.7385 146.336 56.2486 146.336 58.0251C146.336 59.8338 145.75 61.3519 144.578 62.5793C143.438 63.8067 142.038 64.4204 140.378 64.4204C138.669 64.4204 137.35 63.831 136.423 62.652V68.9263H133.273V51.9688H136.423V53.3981C137.35 52.2191 138.669 51.6297 140.378 51.6297ZM137.375 60.496C138.01 61.1258 138.815 61.4408 139.792 61.4408C140.769 61.4408 141.574 61.1258 142.209 60.496C142.86 59.85 143.186 59.0263 143.186 58.0251C143.186 57.0238 142.86 56.2082 142.209 55.5783C141.574 54.9323 140.769 54.6093 139.792 54.6093C138.815 54.6093 138.01 54.9323 137.375 55.5783C136.74 56.2082 136.423 57.0238 136.423 58.0251C136.423 59.0263 136.74 59.85 137.375 60.496Z" fill="#0D1017"/>
<path d="M157.835 53.3981V51.9688H160.985V64.0813H157.835V62.652C156.891 63.831 155.564 64.4204 153.855 64.4204C152.228 64.4204 150.828 63.8067 149.656 62.5793C148.5 61.3358 147.922 59.8177 147.922 58.0251C147.922 56.2486 148.5 54.7385 149.656 53.495C150.828 52.2514 152.228 51.6297 153.855 51.6297C155.564 51.6297 156.891 52.2191 157.835 53.3981ZM152.024 60.496C152.659 61.1258 153.465 61.4408 154.441 61.4408C155.418 61.4408 156.224 61.1258 156.859 60.496C157.51 59.85 157.835 59.0263 157.835 58.0251C157.835 57.0238 157.51 56.2082 156.859 55.5783C156.224 54.9323 155.418 54.6093 154.441 54.6093C153.465 54.6093 152.659 54.9323 152.024 55.5783C151.389 56.2082 151.072 57.0238 151.072 58.0251C151.072 59.0263 151.389 59.85 152.024 60.496Z" fill="#0D1017"/>
<path d="M170.629 51.6297C171.98 51.6297 173.079 52.0738 173.925 52.962C174.804 53.8664 175.244 55.0938 175.244 56.6442V64.0813H172.094V57.0318C172.094 56.2405 171.874 55.6268 171.435 55.1907C171.011 54.7547 170.425 54.5367 169.677 54.5367C168.846 54.5367 168.187 54.7951 167.699 55.3119C167.227 55.8125 166.991 56.5554 166.991 57.5406V64.0813H163.841V51.9688H166.991V53.3254C167.74 52.1949 168.952 51.6297 170.629 51.6297Z" fill="#0D1017"/>
<path d="M182.92 60.1084L185.631 51.9688H189L184.556 64.0813C183.921 65.8255 183.075 67.0852 182.017 67.8604C180.975 68.6517 179.673 69.007 178.11 68.9263V66.0193C178.94 66.0354 179.608 65.8578 180.112 65.4863C180.617 65.1149 181.016 64.5173 181.309 63.6937L176.303 51.9688H179.746L182.92 60.1084Z" fill="#0D1017"/>
</svg>
