<svg width="191" height="74" viewBox="0 0 191 74" fill="none" xmlns="http://www.w3.org/2000/svg">
<path d="M37.2864 51.2622C45.3096 51.2622 51.8137 44.7581 51.8137 36.7349C51.8137 28.7116 45.3096 22.2075 37.2864 22.2075C29.2632 22.2075 22.759 28.7116 22.759 36.7349C22.759 44.7581 29.2632 51.2622 37.2864 51.2622Z" fill="#FFC907"/>
<path d="M37.2865 47.9387C43.4741 47.9387 48.4902 42.9226 48.4902 36.735C48.4902 30.5473 43.4741 25.5312 37.2865 25.5312C31.0988 25.5312 26.0828 30.5473 26.0828 36.735C26.0828 42.9226 31.0988 47.9387 37.2865 47.9387Z" fill="#F99B1C"/>
<path d="M37.2867 44.895C41.7935 44.895 45.4469 41.2416 45.4469 36.7349C45.4469 32.2281 41.7935 28.5747 37.2867 28.5747C32.78 28.5747 29.1266 32.2281 29.1266 36.7349C29.1266 41.2416 32.78 44.895 37.2867 44.895Z" fill="#F47521"/>
<path d="M42.0685 3.26389C41.9993 3.14603 41.9408 3.00245 41.872 2.88458C41.6208 2.423 41.3483 2.01205 41.033 1.59793C40.5655 1.01611 40.0767 0.484522 39.5237 0C39.0546 0.692965 38.6539 1.39977 38.2141 2.16433C37.5797 3.32164 37.0129 4.38917 36.3963 5.53937C35.6313 7.04277 34.9198 8.41961 34.3565 10.0077C34.3458 10.033 34.3605 10.0686 34.3498 10.0939C34.283 10.2885 34.2161 10.4827 34.1493 10.6773C34.1077 10.8822 34.0409 11.0768 33.9994 11.2817C33.9547 11.5296 33.8772 11.7496 33.8503 11.9904C33.8542 12.0513 33.8582 12.1123 33.8443 12.1807C33.7814 12.4362 33.747 12.6589 33.7454 12.9104C33.7541 13.1367 33.6948 13.3491 33.7035 13.5753C33.7229 13.7762 33.717 13.9669 33.7114 14.1571C33.7217 14.5914 33.7858 15.004 33.8392 15.4418C33.9218 15.9513 34.0437 16.4029 34.1801 16.8902C34.4115 17.6105 34.6824 18.273 35.057 18.9347C35.1879 19.1531 35.3113 19.3532 35.4423 19.5711C35.4569 19.6067 35.5 19.6103 35.5146 19.6459C35.8928 20.2645 36.3563 20.7854 36.8377 21.2992C36.4829 19.9188 36.3397 18.4941 36.3971 17.05C36.407 16.9207 36.4093 16.7736 36.4192 16.6442C36.4987 15.7135 36.6684 14.8501 36.9203 13.9325C37.0604 13.4575 37.2154 13.018 37.4061 12.564C37.7343 11.7824 38.1243 11.1005 38.5895 10.3466C38.6286 10.2889 38.6243 10.228 38.6638 10.1702C39.0855 9.41278 39.3999 8.69964 39.6273 7.87536C39.638 7.85005 39.6665 7.81762 39.6768 7.7923C39.7681 7.50436 39.831 7.24884 39.8971 6.95022C39.9386 6.74534 39.9699 6.56537 40.0185 6.37829C40.0217 6.33518 40.0146 6.31738 40.0177 6.27426C40.1629 5.50457 40.2258 4.78945 40.2313 4.03517C40.361 6.55192 39.7765 9.10981 38.5424 11.3062C38.3201 11.8358 38.065 12.3369 37.9005 12.9057C37.8898 12.931 37.8613 12.9634 37.851 12.9887C37.6299 13.7268 37.4591 14.3814 37.3495 15.1365C37.1992 16.2008 37.1921 17.2063 37.268 18.2619C37.272 18.3228 37.3012 18.3944 37.3052 18.4557C37.3918 19.4857 37.6394 20.45 37.9301 21.4179C38.0832 21.23 38.15 21.0354 38.2885 20.8119C38.406 20.6387 38.5159 20.4476 38.6005 20.2459C38.682 20.0873 38.7706 19.9465 38.8596 19.8057C39.5755 18.4898 40.206 17.2711 40.8535 15.941C41.391 14.8022 41.904 13.7569 42.3482 12.5936C42.3695 12.543 42.3652 12.4821 42.3865 12.4318C42.8062 11.3619 43.0427 10.3047 43.1816 9.16122C43.3125 7.89593 43.2033 6.70816 42.9067 5.47134C42.892 5.43535 42.8774 5.39975 42.8628 5.36376C42.6848 4.62175 42.4071 3.94104 42.0681 3.26508L42.0685 3.26389Z" fill="#F9ED32"/>
<path d="M24.5215 5.24925C24.4028 5.18162 24.2802 5.08669 24.1615 5.01905C23.7134 4.74495 23.272 4.52504 22.7914 4.32411C22.0957 4.05397 21.4063 3.83801 20.6852 3.69482C20.6255 4.52939 20.6318 5.34181 20.6334 6.22423C20.6627 7.54371 20.7054 8.75166 20.7466 10.0561C20.8359 11.7403 20.9079 13.2888 21.2145 14.9456C21.218 14.9729 21.2485 14.9967 21.252 15.0235C21.2912 15.2253 21.3308 15.427 21.3699 15.6291C21.4364 15.8273 21.4759 16.0294 21.5424 16.2275C21.6278 16.4648 21.6705 16.6939 21.7674 16.9158C21.8014 16.9668 21.8354 17.0174 21.8576 17.0835C21.9308 17.3362 22.0126 17.5462 22.1368 17.765C22.2575 17.9564 22.3121 18.17 22.4331 18.3614C22.5506 18.5256 22.6407 18.6937 22.7309 18.8614C22.9572 19.2324 23.2186 19.5579 23.484 19.9099C23.8103 20.3098 24.1418 20.64 24.5037 20.9936C25.0641 21.5015 25.6297 21.9401 26.2851 22.3258C26.5074 22.4492 26.7147 22.5607 26.937 22.6845C26.9678 22.7083 27.0066 22.6893 27.037 22.713C27.6738 23.0595 28.3356 23.279 29.0095 23.4831C28.0124 22.465 27.1755 21.303 26.5035 20.0234C26.4473 19.9063 26.3757 19.7778 26.3195 19.6607C25.9228 18.8147 25.6384 17.9825 25.3976 17.0617C25.2813 16.5803 25.1958 16.1223 25.1338 15.6338C25.0274 14.7926 25.0242 14.0074 25.0499 13.1218C25.0546 13.0522 25.0206 13.0016 25.0258 12.932C25.0123 12.0654 24.9281 11.2902 24.7129 10.4627C24.7094 10.4354 24.718 10.3931 24.7145 10.3662C24.6496 10.0711 24.5761 9.8184 24.4843 9.52689C24.4178 9.32873 24.3546 9.15747 24.3035 8.97078C24.2849 8.93201 24.2695 8.92015 24.2509 8.88099C23.9919 8.14175 23.6889 7.49071 23.3163 6.83492C24.6872 8.94942 25.4597 11.4571 25.4893 13.9762C25.5617 14.5461 25.5914 15.1074 25.733 15.6825C25.7365 15.7094 25.7282 15.7521 25.7314 15.779C25.909 16.5285 26.0882 17.1812 26.371 17.8899C26.7728 18.8867 27.2696 19.7612 27.8633 20.6373C27.8973 20.6883 27.9586 20.7354 27.9926 20.7864C28.5828 21.6352 29.2793 22.3464 30.015 23.0393C30.0537 22.8 30.0142 22.5983 30.0225 22.3353C30.0375 22.1264 30.0371 21.9061 30.0094 21.689C30.0007 21.511 30.007 21.3445 30.0138 21.1784C29.9758 19.6805 29.9125 18.31 29.8081 16.8343C29.7045 15.5793 29.6262 14.4176 29.4288 13.1879C29.4221 13.1337 29.388 13.0827 29.3809 13.0285C29.2093 11.8921 28.8853 10.8582 28.434 9.79862C27.9147 8.63735 27.2261 7.66316 26.3512 6.74039C26.3207 6.71666 26.2899 6.69293 26.2594 6.6692C25.7342 6.11546 25.1535 5.66495 24.5219 5.24886L24.5215 5.24925Z" fill="#F2BE37"/>
<path d="M10.3175 15.7421C10.1807 15.7429 10.0276 15.7219 9.89074 15.7227C9.36548 15.7097 8.87344 15.7397 8.35688 15.8058C7.61922 15.9197 6.91439 16.0771 6.21826 16.314C6.58373 17.0667 6.99587 17.7672 7.43807 18.5302C8.12312 19.6586 8.76428 20.683 9.4521 21.7921C10.3717 23.2061 11.2082 24.511 12.3019 25.7929C12.3185 25.8146 12.3569 25.8198 12.3735 25.8415C12.5083 25.9966 12.6432 26.1516 12.7785 26.3067C12.9351 26.4451 13.0704 26.6001 13.227 26.739C13.4196 26.9019 13.5711 27.0787 13.7661 27.2227C13.8207 27.2496 13.8757 27.2769 13.9279 27.3228C14.1177 27.5051 14.2938 27.6459 14.5105 27.7733C14.7107 27.8789 14.8649 28.0363 15.0654 28.1419C15.2494 28.2254 15.4111 28.3258 15.5733 28.4259C15.9546 28.6339 16.3442 28.785 16.75 28.9575C17.2325 29.1406 17.6846 29.2609 18.1751 29.3862C18.9143 29.546 19.6235 29.6425 20.3841 29.6489C20.6384 29.6445 20.8738 29.6378 21.1281 29.6334C21.1665 29.6386 21.191 29.603 21.2294 29.6081C21.954 29.5899 22.637 29.4491 23.3225 29.2889C21.95 28.9061 20.6444 28.3179 19.4222 27.5458C19.315 27.4727 19.1888 27.3967 19.0816 27.3236C18.3151 26.7892 17.6526 26.2109 16.9837 25.5338C16.6424 25.175 16.3394 24.8211 16.0416 24.4291C15.5286 23.7539 15.1335 23.0752 14.713 22.2956C14.6826 22.2327 14.6276 22.2058 14.5971 22.1433C14.1522 21.3993 13.6918 20.7704 13.0918 20.1613C13.0751 20.1396 13.0613 20.0984 13.0447 20.0767C12.841 19.8536 12.6511 19.6717 12.4257 19.4652C12.2691 19.3268 12.1286 19.2097 11.991 19.074C11.9554 19.0495 11.936 19.0471 11.9004 19.0226C11.3063 18.512 10.7186 18.0998 10.0679 17.7182C12.3126 18.864 14.2352 20.6494 15.5203 22.8161C15.8676 23.2733 16.1741 23.7448 16.5843 24.172C16.6009 24.1937 16.6147 24.2345 16.6313 24.2562C17.1602 24.8167 17.6415 25.2921 18.2407 25.7644C19.0872 26.4265 19.9546 26.9355 20.9066 27.3975C20.9612 27.4244 21.0383 27.4351 21.0929 27.462C22.0283 27.9022 22.9871 28.1696 23.9704 28.4018C23.8841 28.1751 23.7493 28.0201 23.6247 27.7883C23.5333 27.6 23.4226 27.4094 23.2904 27.235C23.1939 27.0851 23.1164 26.9379 23.0389 26.7908C22.2569 25.5128 21.5169 24.3575 20.6887 23.1317C19.9712 22.0967 19.3225 21.13 18.537 20.1637C18.5038 20.1202 18.4492 20.0933 18.416 20.0494C17.6993 19.1511 16.9015 18.4174 15.9811 17.7257C14.9507 16.9797 13.8674 16.4801 12.648 16.1186C12.6096 16.1135 12.5712 16.1084 12.5329 16.1028C11.8011 15.8857 11.073 15.7864 10.3179 15.7417L10.3175 15.7421Z" fill="#009444"/>
<path d="M3.26389 31.9308C3.14563 32 3.00245 32.0585 2.88458 32.1274C2.423 32.3785 2.01205 32.651 1.59793 32.9663C1.01611 33.4338 0.484522 33.9226 0 34.4756C0.692965 34.9447 1.39977 35.3454 2.16433 35.7852C3.32164 36.4196 4.38917 36.9864 5.53937 37.603C7.04277 38.368 8.41961 39.0796 10.0077 39.6428C10.033 39.6535 10.0686 39.6388 10.0939 39.6495C10.2881 39.7163 10.4827 39.7832 10.6773 39.85C10.8822 39.8916 11.0768 39.9584 11.2817 39.9999C11.53 40.0446 11.7496 40.1222 11.9904 40.1491C12.0513 40.1451 12.1123 40.1411 12.1807 40.155C12.4362 40.2179 12.6589 40.2523 12.9104 40.2539C13.1367 40.2452 13.3491 40.3045 13.5753 40.2958C13.7762 40.2764 13.9669 40.2823 14.1571 40.2879C14.5914 40.2776 15.0044 40.2135 15.4418 40.1601C15.9513 40.0775 16.4029 39.9556 16.8902 39.8192C17.6105 39.5878 18.273 39.3173 18.9347 38.9423C19.1531 38.8114 19.3532 38.688 19.5711 38.5571C19.6071 38.5424 19.6103 38.4993 19.6459 38.4847C20.2645 38.1066 20.7854 37.643 21.2992 37.1616C19.9192 37.5164 18.4941 37.6596 17.05 37.6022C16.9207 37.5924 16.7736 37.59 16.6442 37.5801C15.7131 37.5006 14.8501 37.3309 13.9325 37.079C13.4575 36.9389 13.018 36.7839 12.564 36.5933C11.7824 36.265 11.1005 35.875 10.3466 35.4098C10.2889 35.3707 10.228 35.375 10.1702 35.3359C9.41278 34.9142 8.69964 34.5998 7.87536 34.3724C7.85005 34.3617 7.81762 34.3332 7.7923 34.3225C7.50436 34.2312 7.24884 34.1683 6.95022 34.1022C6.74534 34.0607 6.56537 34.0294 6.37829 33.9808C6.33518 33.9776 6.31738 33.9847 6.27426 33.9816C5.50457 33.8364 4.78945 33.7731 4.03517 33.768C6.55192 33.6383 9.10981 34.2229 11.3062 35.4565C11.8358 35.6788 12.3369 35.9339 12.9057 36.0985C12.931 36.1091 12.9634 36.1376 12.9887 36.1479C13.7268 36.369 14.3814 36.5403 15.1365 36.6494C16.2008 36.7997 17.2063 36.8068 18.2619 36.7309C18.3228 36.7269 18.3944 36.6977 18.4557 36.6937C19.4857 36.6071 20.45 36.3595 21.4179 36.0688C21.23 35.9157 21.0354 35.8489 20.8119 35.7104C20.6387 35.593 20.4476 35.483 20.2459 35.3984C20.0873 35.3169 19.9465 35.2283 19.8061 35.1393C18.4898 34.4234 17.2711 33.7929 15.9414 33.1454C14.8026 32.6079 13.7573 32.0949 12.594 31.6507C12.5438 31.6294 12.4825 31.6337 12.4322 31.6124C11.3623 31.1927 10.3047 30.9562 9.16162 30.8174C7.89633 30.6864 6.70855 30.7956 5.47174 31.0922C5.43574 31.1069 5.40015 31.1215 5.36415 31.1362C4.62214 31.3141 3.94144 31.5918 3.26548 31.9308H3.26389Z" fill="#F9ED32"/>
<path d="M5.24889 49.4777C5.18125 49.5968 5.08632 49.719 5.01869 49.8376C4.74458 50.2858 4.52467 50.7272 4.32374 51.2077C4.0536 51.9035 3.83764 52.5929 3.69446 53.3139C4.52902 53.3737 5.34144 53.3673 6.22347 53.3657C7.54335 53.3365 8.75089 53.2938 10.0553 53.2526C11.7395 53.1632 13.288 53.0913 14.9449 52.7847C14.9722 52.7812 14.9959 52.7507 15.0228 52.7471C15.2245 52.708 15.4262 52.6684 15.6283 52.6293C15.8265 52.5628 16.0286 52.5233 16.2268 52.4568C16.4641 52.3714 16.6931 52.3287 16.915 52.2318C16.9656 52.1978 17.0166 52.1637 17.0827 52.1416C17.3354 52.0684 17.5455 51.9865 17.7642 51.8623C17.9556 51.7417 18.1692 51.6871 18.3606 51.5661C18.5248 51.4486 18.6929 51.3584 18.8606 51.2683C19.2316 51.042 19.5571 50.7806 19.9095 50.5152C20.3094 50.1889 20.6397 49.8574 20.9933 49.4955C21.5011 48.935 21.9398 48.3694 22.3254 47.714C22.4488 47.4917 22.5604 47.2845 22.6842 47.0622C22.7079 47.0314 22.6889 46.9926 22.7126 46.9621C23.0591 46.3253 23.2786 45.6636 23.4827 44.9896C22.4646 45.9868 21.3026 46.8237 20.0231 47.4957C19.906 47.5519 19.7774 47.6235 19.6604 47.6796C18.8143 48.0763 17.9821 48.3607 17.0613 48.6016C16.58 48.7179 16.122 48.8033 15.6335 48.8654C14.7922 48.9718 14.0071 48.975 13.1215 48.9493C13.0519 48.9445 13.0012 48.9785 12.9316 48.9734C12.065 48.9868 11.2898 49.0711 10.4623 49.2863C10.4351 49.2898 10.3927 49.2811 10.3654 49.2847C10.0704 49.3496 9.81763 49.4231 9.52613 49.5149C9.32797 49.5813 9.1567 49.6446 8.97001 49.6956C8.93125 49.7142 8.91939 49.7297 8.88023 49.7482C8.14099 50.0073 7.48995 50.3103 6.83416 50.6829C8.94866 49.312 11.4563 48.5395 13.9754 48.5098C14.5454 48.4375 15.1066 48.4078 15.6817 48.2662C15.7086 48.2626 15.7513 48.2713 15.7782 48.2678C16.5278 48.0902 17.1808 47.911 17.8892 47.6282C18.8859 47.2264 19.7604 46.7296 20.6365 46.1359C20.6875 46.1019 20.7346 46.0406 20.7856 46.0065C21.6344 45.4164 22.3456 44.7199 23.0386 43.9842C22.7993 43.9455 22.5975 43.985 22.3345 43.9767C22.1257 43.9617 21.9054 43.9621 21.6882 43.9897C21.5102 43.9984 21.3437 43.9921 21.1776 43.9854C19.6797 44.0234 18.3092 44.0867 16.8335 44.1911C15.5785 44.2947 14.4168 44.373 13.1871 44.5704C13.1329 44.5771 13.0819 44.6111 13.0277 44.6182C11.8914 44.7899 10.8575 45.1138 9.79786 45.5651C8.63659 46.0845 7.6624 46.7731 6.73963 47.648C6.7159 47.6784 6.69217 47.7093 6.66844 47.7398C6.1147 48.2646 5.66419 48.8456 5.24809 49.4773L5.24889 49.4777Z" fill="#F2BE37"/>
<path d="M15.742 63.6818C15.7428 63.8187 15.7218 63.9718 15.7226 64.1086C15.7092 64.6339 15.7396 65.1259 15.8057 65.6425C15.9196 66.3801 16.077 67.085 16.3139 67.7811C17.0666 67.4156 17.7671 67.0035 18.5301 66.5613C19.6585 65.8762 20.6829 65.2351 21.792 64.5473C23.206 63.6277 24.5108 62.7911 25.7927 61.6975C25.8145 61.6809 25.8196 61.6425 25.8414 61.6259C25.9964 61.491 26.1515 61.3557 26.3069 61.2209C26.4454 61.0642 26.6004 60.929 26.7389 60.7723C26.9018 60.5797 27.0786 60.4282 27.2226 60.2332C27.2495 60.1786 27.2768 60.1237 27.3227 60.0715C27.505 59.8816 27.6458 59.7056 27.7732 59.4888C27.8788 59.2887 28.0362 59.1345 28.1418 58.9343C28.2256 58.7504 28.3257 58.5886 28.4258 58.4265C28.6342 58.0452 28.7849 57.656 28.9574 57.2498C29.1405 56.7672 29.2607 56.3151 29.3861 55.8247C29.5459 55.0854 29.6424 54.3763 29.6488 53.616C29.6444 53.3617 29.6377 53.1264 29.6333 52.8721C29.6385 52.8337 29.6029 52.8092 29.608 52.7708C29.5898 52.0462 29.449 51.3631 29.2888 50.6777C28.906 52.0501 28.3178 53.3558 27.5457 54.578C27.4726 54.6852 27.3966 54.8113 27.3234 54.9185C26.7891 55.6851 26.2108 56.3476 25.5337 57.0164C25.1749 57.3577 24.8209 57.6607 24.429 57.9585C23.7538 58.4715 23.0751 58.8667 22.2955 59.2871C22.2326 59.3176 22.2057 59.3726 22.1428 59.403C21.3988 59.848 20.7699 60.3084 20.1608 60.9084C20.1391 60.925 20.0979 60.9388 20.0762 60.9555C19.8531 61.1592 19.6712 61.349 19.4647 61.5745C19.3263 61.7311 19.2092 61.8715 19.0735 62.0092C19.049 62.0448 19.0466 62.0641 19.0221 62.0997C18.5115 62.6938 18.0993 63.2816 17.7176 63.9322C18.8635 61.6876 20.6489 59.7649 22.8156 58.4799C23.2728 58.1322 23.7443 57.826 24.1715 57.4159C24.1932 57.3993 24.234 57.3854 24.2557 57.3688C24.8162 56.84 25.292 56.3586 25.7639 55.7594C26.426 54.913 26.935 54.0456 27.397 53.0935C27.4239 53.039 27.4346 52.9618 27.4615 52.9073C27.9017 51.9718 28.1691 51.0131 28.4013 50.0298C28.1746 50.116 28.0196 50.2509 27.7878 50.3755C27.5995 50.4668 27.4089 50.5776 27.2345 50.7097C27.0845 50.8066 26.9374 50.8837 26.7903 50.9613C25.5123 51.7432 24.357 52.4832 23.1312 53.3115C22.0961 54.029 21.1291 54.6776 20.1632 55.4632C20.1197 55.496 20.0928 55.551 20.0489 55.5842C19.1506 56.3009 18.4169 57.0987 17.7252 58.0191C16.9792 59.0494 16.4796 60.1328 16.1181 61.3522C16.113 61.3905 16.1078 61.4289 16.1023 61.4673C15.8852 62.199 15.7859 62.9272 15.7412 63.6822L15.742 63.6818Z" fill="#006838"/>
<path d="M31.9309 70.7355C32.0001 70.8537 32.0583 70.9969 32.1275 71.1148C32.3786 71.5764 32.6512 71.9873 32.9664 72.4018C33.4339 72.9837 33.9228 73.5152 34.4757 73.9998C34.9448 73.3068 35.3455 72.6 35.7853 71.8354C36.4197 70.6777 36.9865 69.6106 37.6032 68.4604C38.3681 66.957 39.0797 65.5802 39.6429 63.9921C39.6536 63.9668 39.6389 63.9312 39.6496 63.9059C39.7165 63.7113 39.7833 63.5171 39.8502 63.3225C39.8917 63.1176 39.9585 62.923 40.0001 62.7181C40.0448 62.4697 40.1223 62.2502 40.1492 62.0093C40.1452 61.9484 40.1413 61.8875 40.1551 61.8191C40.218 61.5636 40.2524 61.3409 40.254 61.0893C40.2453 60.8631 40.3046 60.6507 40.2959 60.4248C40.2765 60.2239 40.2825 60.0333 40.288 59.843C40.2777 59.4087 40.2136 58.9962 40.1602 58.5583C40.0776 58.0489 39.9558 57.5972 39.8193 57.1099C39.5879 56.3897 39.3174 55.7272 38.9424 55.0658C38.8115 54.8475 38.6881 54.6474 38.5572 54.4294C38.5421 54.3934 38.4994 54.3903 38.4848 54.3547C38.1067 53.7361 37.6431 53.2152 37.1618 52.7014C37.5165 54.0814 37.6597 55.5064 37.6024 56.9505C37.5925 57.0799 37.5901 57.227 37.5802 57.3563C37.5007 58.2874 37.331 59.1505 37.0791 60.0681C36.9391 60.5431 36.784 60.9825 36.5934 61.4366C36.2651 62.2182 35.8751 62.9001 35.41 63.6539C35.3708 63.7117 35.3748 63.7726 35.3356 63.8303C34.914 64.5878 34.5991 65.3009 34.3721 66.1252C34.3614 66.1505 34.3329 66.1829 34.3223 66.2083C34.2309 66.4962 34.168 66.7517 34.1019 67.0503C34.0604 67.2552 34.0292 67.4352 33.9805 67.6223C33.9774 67.6654 33.9845 67.6832 33.9813 67.7263C33.8361 68.496 33.7733 69.2111 33.7677 69.9654C33.6376 67.4486 34.2226 64.8907 35.4566 62.6944C35.6789 62.1648 35.934 61.6636 36.0986 61.0949C36.1093 61.0699 36.1377 61.0371 36.148 61.0122C36.3691 60.2742 36.5404 59.6196 36.6495 58.8645C36.7998 57.8005 36.807 56.7947 36.731 55.739C36.7271 55.6781 36.6978 55.6065 36.6938 55.5456C36.6072 54.5156 36.3596 53.5514 36.0689 52.5835C35.9158 52.7714 35.849 52.966 35.7106 53.1894C35.5931 53.3627 35.4831 53.5537 35.3985 53.7554C35.317 53.914 35.2284 54.0549 35.1394 54.1953C34.4235 55.5116 33.793 56.7298 33.1456 58.06C32.608 59.1987 32.095 60.2441 31.6509 61.4073C31.6295 61.4576 31.6339 61.5189 31.6125 61.5691C31.1928 62.639 30.9563 63.6967 30.8175 64.8397C30.6866 66.105 30.7957 67.2928 31.0924 68.53C31.107 68.5656 31.1216 68.6016 31.1363 68.6376C31.3143 69.3796 31.5919 70.0599 31.9309 70.7363V70.7355Z" fill="#F9ED32"/>
<path d="M49.4779 68.7501C49.597 68.8177 49.7192 68.9126 49.8378 68.9803C50.286 69.2544 50.7274 69.4743 51.208 69.6752C51.9037 69.9453 52.5931 70.1613 53.3141 70.3045C53.3739 69.4699 53.3675 68.6575 53.366 67.7755C53.3367 66.4556 53.294 65.248 53.2528 63.9436C53.1634 62.2594 53.0915 60.7109 52.7849 59.0541C52.7814 59.0268 52.7509 59.003 52.7473 58.9762C52.7082 58.7744 52.6686 58.5723 52.6295 58.3706C52.563 58.1724 52.5235 57.9703 52.4574 57.7722C52.372 57.5349 52.3293 57.3058 52.2324 57.084C52.1984 57.0329 52.1643 56.9823 52.1422 56.9162C52.069 56.6635 51.9871 56.4535 51.863 56.2348C51.7423 56.0433 51.6877 55.8297 51.5667 55.6383C51.4492 55.4738 51.359 55.3061 51.2689 55.1384C51.0426 54.7673 50.7812 54.4418 50.5158 54.0894C50.1895 53.6895 49.858 53.3597 49.4961 53.0057C48.9356 52.4978 48.37 52.0592 47.7146 51.6739C47.492 51.5501 47.2851 51.439 47.0628 51.3152C47.032 51.2914 46.9932 51.3104 46.9627 51.2867C46.3259 50.9402 45.6642 50.7207 44.9903 50.5166C45.9874 51.5347 46.8243 52.6968 47.4963 53.9763C47.5525 54.0934 47.6241 54.2219 47.6802 54.339C48.077 55.185 48.3617 56.0172 48.6022 56.938C48.7185 57.4198 48.8039 57.8774 48.8656 58.3659C48.972 59.2071 48.9752 59.9923 48.9495 60.8779C48.9447 60.9475 48.9784 60.9981 48.9736 61.0677C48.9871 61.9343 49.0713 62.7095 49.2865 63.537C49.29 63.5643 49.2813 63.6066 49.2849 63.6339C49.3498 63.929 49.4233 64.1817 49.5151 64.4732C49.5815 64.6718 49.6448 64.843 49.6959 65.0293C49.7144 65.0681 49.7299 65.0799 49.7485 65.1191C50.0075 65.8583 50.3105 66.509 50.6831 67.1652C49.3122 65.0507 48.5397 62.543 48.5101 60.0239C48.4377 59.454 48.408 58.8927 48.2664 58.3176C48.2629 58.2907 48.2716 58.248 48.268 58.2211C48.0904 57.4716 47.9112 56.8185 47.6284 56.1102C47.2266 55.1134 46.7298 54.2389 46.1361 53.3628C46.1021 53.3122 46.0408 53.2647 46.0072 53.2137C45.417 52.3649 44.7205 51.6537 43.9848 50.9608C43.9461 51.2001 43.9856 51.4018 43.9773 51.6648C43.9623 51.8737 43.9627 52.094 43.9904 52.3111C43.9991 52.4891 43.9927 52.6556 43.986 52.8217C44.024 54.3196 44.0873 55.6901 44.1917 57.1658C44.2953 58.4208 44.3736 59.5825 44.571 60.8122C44.5777 60.8664 44.6121 60.9174 44.6188 60.9716C44.7905 62.108 45.1145 63.1419 45.5657 64.2015C46.0851 65.3628 46.7737 66.3369 47.6486 67.2597C47.6791 67.2834 47.7099 67.3072 47.7404 67.3309C48.2652 67.8846 48.8463 68.3348 49.4779 68.7512V68.7501Z" fill="#F2BE37"/>
<path d="M63.6814 58.2574C63.8182 58.2566 63.9713 58.2775 64.1081 58.2767C64.6334 58.2898 65.1254 58.2597 65.642 58.1937C66.3796 58.0798 67.0845 57.9219 67.7806 57.6854C67.4151 56.9327 67.003 56.2322 66.5608 55.4693C65.8757 54.3408 65.235 53.3164 64.5468 52.2074C63.6272 50.7933 62.7906 49.4885 61.697 48.2066C61.6804 48.1848 61.642 48.1797 61.6258 48.1579C61.4909 48.0029 61.3557 47.8478 61.2208 47.6924C61.0641 47.554 60.9289 47.3989 60.7722 47.2601C60.5796 47.0971 60.4281 46.9203 60.2331 46.7767C60.1786 46.7499 60.1236 46.7226 60.0714 46.6767C59.8815 46.4943 59.7055 46.3531 59.4888 46.2262C59.2886 46.1206 59.1344 45.9631 58.9342 45.8575C58.7503 45.7741 58.5885 45.6736 58.4264 45.5736C58.0451 45.3651 57.6559 45.2144 57.2497 45.042C56.7671 44.8588 56.315 44.7386 55.8246 44.6132C55.0853 44.4534 54.3762 44.3569 53.6156 44.3506C53.3608 44.3545 53.1259 44.3617 52.8716 44.366C52.8332 44.3609 52.8087 44.3965 52.7703 44.3913C52.0457 44.4095 51.3626 44.5503 50.6772 44.7105C52.0497 45.0934 53.3553 45.6815 54.5775 46.4536C54.6847 46.5268 54.8108 46.6027 54.918 46.6759C55.6846 47.2102 56.3471 47.7885 57.0159 48.4657C57.3573 48.8248 57.6602 49.1784 57.9581 49.5704C58.4711 50.2455 58.8662 50.9243 59.2866 51.7038C59.3171 51.7667 59.3721 51.7936 59.4025 51.8565C59.8475 52.6005 60.3079 53.2294 60.9079 53.8385C60.9245 53.8603 60.9384 53.9014 60.955 53.9232C61.1587 54.1462 61.3485 54.3282 61.574 54.5346C61.7306 54.6731 61.871 54.7902 62.0087 54.9258C62.0443 54.9503 62.0636 54.9527 62.0992 54.9772C62.6933 55.4879 63.2811 55.9 63.9317 56.2817C61.6871 55.1358 59.7644 53.3504 58.4794 51.1837C58.1317 50.7265 57.8256 50.255 57.4154 49.8279C57.3988 49.8061 57.3849 49.7654 57.3683 49.7436C56.8395 49.1831 56.3581 48.7073 55.7589 48.2355C54.9125 47.5733 54.0451 47.0643 53.0931 46.6023C53.0385 46.5754 52.9617 46.5651 52.9068 46.5378C51.9713 46.0976 51.0122 45.8302 50.0293 45.5981C50.1155 45.8247 50.2504 45.9798 50.375 46.2115C50.4664 46.3998 50.5771 46.5905 50.7092 46.7649C50.8061 46.9148 50.8832 47.0619 50.9608 47.2091C51.7427 48.487 52.4828 49.6423 53.3106 50.8681C54.0281 51.9032 54.6768 52.8703 55.4623 53.8361C55.4951 53.8796 55.5501 53.9065 55.5833 53.9501C56.3 54.8483 57.0978 55.582 58.0182 56.2738C59.0485 57.0197 60.1319 57.5189 61.3513 57.8808C61.3897 57.886 61.428 57.8911 61.4664 57.8966C62.1981 58.1138 62.9263 58.2131 63.6814 58.2577V58.2574Z" fill="#009444"/>
<path d="M70.7355 42.0684C70.8537 41.9992 70.9969 41.9407 71.1148 41.8715C71.5764 41.6203 71.9873 41.3478 72.4018 41.0326C72.9837 40.565 73.5152 40.0762 73.9998 39.5232C73.3068 39.0541 72.6 38.6535 71.8354 38.2136C70.6777 37.5792 69.6106 37.0124 68.4604 36.3958C66.957 35.6308 65.5802 34.9193 63.9921 34.356C63.9668 34.3454 63.9312 34.36 63.9059 34.3493C63.7113 34.2825 63.5171 34.2156 63.3225 34.1488C63.1176 34.1073 62.923 34.0404 62.7181 33.9989C62.4697 33.9542 62.2502 33.8767 62.0093 33.8498C61.9484 33.8537 61.8875 33.8577 61.8191 33.8438C61.5636 33.7809 61.3409 33.7465 61.0893 33.745C60.8631 33.7537 60.6507 33.6943 60.4248 33.703C60.2239 33.7224 60.0333 33.7165 59.843 33.7109C59.4087 33.7212 58.9958 33.7853 58.5583 33.8387C58.0489 33.9214 57.5976 34.0432 57.1099 34.1796C56.3897 34.411 55.7272 34.6816 55.0658 35.0565C54.8475 35.1874 54.6474 35.3109 54.4294 35.4418C54.3934 35.4564 54.3903 35.4995 54.3547 35.5141C53.7361 35.8923 53.2152 36.3558 52.7014 36.8372C54.0814 36.4824 55.5064 36.3392 56.9505 36.397C57.0799 36.4069 57.227 36.4092 57.3563 36.4191C58.2874 36.4986 59.1505 36.6683 60.0681 36.9203C60.5431 37.0603 60.9825 37.2153 61.4366 37.406C62.2182 37.7343 62.9001 38.1242 63.6539 38.5894C63.7117 38.6285 63.7726 38.6246 63.8303 38.6637C64.5878 39.0854 65.3009 39.4002 66.1252 39.6272C66.1505 39.6379 66.1829 39.6664 66.2083 39.6771C66.4962 39.7685 66.7517 39.8313 67.0503 39.8974C67.2556 39.9389 67.4352 39.9702 67.6223 40.0188C67.6654 40.022 67.6832 40.0149 67.7263 40.018C68.496 40.1632 69.2111 40.2261 69.9654 40.2316C67.4486 40.3617 64.8907 39.7768 62.6944 38.5427C62.1648 38.3204 61.6636 38.0653 61.0949 37.9008C61.0699 37.8901 61.0371 37.8616 61.0122 37.8513C60.2742 37.6302 59.6196 37.459 58.8645 37.3498C57.8005 37.1995 56.7947 37.1924 55.739 37.2683C55.6781 37.2723 55.6065 37.3015 55.5456 37.3055C54.5156 37.3921 53.551 37.6397 52.5835 37.9304C52.7714 38.0835 52.966 38.1503 53.1894 38.2888C53.3627 38.4059 53.5537 38.5162 53.7554 38.6009C53.914 38.6823 54.0549 38.7713 54.1957 38.8599C55.5116 39.5758 56.7302 40.2063 58.0604 40.8538C59.1991 41.3913 60.2445 41.9047 61.4077 42.3485C61.458 42.3698 61.5193 42.3655 61.5695 42.3868C62.6394 42.8065 63.697 43.043 64.8401 43.1819C66.1054 43.3128 67.2932 43.2036 68.53 42.907C68.5656 42.8923 68.6016 42.8777 68.6376 42.8631C69.3796 42.6851 70.0599 42.4074 70.7363 42.0684H70.7355Z" fill="#F9ED32"/>
<path d="M68.7503 24.5218C68.8179 24.4028 68.9129 24.2806 68.9805 24.1619C69.2546 23.7138 69.4745 23.2724 69.6754 22.7918C69.9456 22.0961 70.1615 21.4067 70.3047 20.6856C69.4702 20.6259 68.6577 20.6322 67.7757 20.6338C66.4558 20.6631 65.2483 20.7058 63.9438 20.7469C62.2597 20.8363 60.7112 20.9083 59.0543 21.2148C59.027 21.2184 59.0033 21.2488 58.9764 21.2524C58.7747 21.2916 58.5726 21.3311 58.3709 21.3703C58.1727 21.4367 57.9706 21.4763 57.7724 21.5423C57.5351 21.6278 57.3061 21.6705 57.0842 21.7674C57.0336 21.8014 56.9825 21.8354 56.9165 21.8576C56.6638 21.9311 56.4537 22.0126 56.235 22.1368C56.0436 22.2574 55.83 22.312 55.6385 22.4331C55.474 22.5505 55.3063 22.6407 55.1386 22.7309C54.7676 22.9571 54.4421 23.2186 54.0897 23.484C53.6898 23.8103 53.3599 24.1417 53.0059 24.5036C52.498 25.0641 52.0594 25.6297 51.6742 26.2851C51.5504 26.5078 51.4388 26.7146 51.3154 26.9369C51.2917 26.9678 51.3107 27.0065 51.2869 27.037C50.9405 27.6738 50.7209 28.3355 50.5168 29.0091C51.5349 28.012 52.697 27.1754 53.9765 26.503C54.0936 26.4469 54.2221 26.3753 54.3392 26.3191C55.1853 25.9224 56.0175 25.6376 56.9382 25.3971C57.42 25.2809 57.8776 25.1954 58.3661 25.1337C59.2074 25.0273 59.9925 25.0242 60.8781 25.0499C60.9477 25.0546 60.9983 25.021 61.068 25.0257C61.9346 25.0123 62.7098 24.928 63.5372 24.7129C63.5645 24.7093 63.6068 24.718 63.6341 24.7145C63.9292 24.6496 64.182 24.576 64.4735 24.4843C64.672 24.4178 64.8433 24.3545 65.0296 24.3035C65.0687 24.2845 65.0802 24.2695 65.1193 24.2509C65.8586 23.9918 66.5096 23.6889 67.1654 23.3163C65.0509 24.6872 62.5433 25.4596 60.0242 25.4893C59.4542 25.5617 58.8929 25.5913 58.3178 25.7329C58.291 25.7365 58.2486 25.7278 58.2213 25.7314C57.4718 25.909 56.8188 26.0881 56.1104 26.3709C55.1137 26.7728 54.2392 27.2696 53.3631 27.8633C53.3124 27.8973 53.265 27.9586 53.214 27.9926C52.3651 28.5827 51.6536 29.2792 50.961 30.0149C51.2003 30.0537 51.402 30.0141 51.6651 30.0225C51.8739 30.0375 52.0942 30.0371 52.3114 30.0094C52.4893 30.0007 52.6559 30.007 52.822 30.0138C54.3199 29.9758 55.6904 29.9125 57.1661 29.8081C58.4211 29.7044 59.5827 29.6261 60.8124 29.4288C60.8666 29.422 60.9177 29.3876 60.9718 29.3809C62.1082 29.2092 63.1425 28.8853 64.2017 28.434C65.363 27.9147 66.3372 27.2261 67.26 26.3512C67.2837 26.3207 67.3074 26.2898 67.3311 26.2594C67.8849 25.7345 68.335 25.1535 68.7515 24.5218H68.7503Z" fill="#F2BE37"/>
<path d="M58.2576 10.3185C58.2568 10.1816 58.2778 10.0286 58.277 9.89172C58.2904 9.36646 58.26 8.87442 58.1939 8.35786C58.08 7.6202 57.9226 6.91537 57.6857 6.21924C56.933 6.58471 56.2325 6.99685 55.4695 7.43905C54.3415 8.1241 53.3167 8.76486 52.2076 9.45308C50.7936 10.3727 49.4887 11.2092 48.2068 12.3029C48.1851 12.3195 48.1799 12.3578 48.1582 12.3741C48.0031 12.5089 47.8481 12.6442 47.6926 12.7791C47.5542 12.9357 47.3992 13.071 47.2603 13.2276C47.0974 13.4202 46.9206 13.5717 46.777 13.7667C46.7501 13.8213 46.7228 13.8763 46.6769 13.9285C46.4946 14.1183 46.3534 14.2943 46.2264 14.5111C46.1208 14.7112 45.9634 14.8655 45.8578 15.0656C45.7739 15.2495 45.6739 15.4113 45.5738 15.5735C45.3654 15.9548 45.2147 16.344 45.0422 16.7502C44.8591 17.2327 44.7388 17.6848 44.6135 18.1749C44.4537 18.9141 44.3572 19.6233 44.3508 20.3839C44.3548 20.6386 44.3619 20.8736 44.3663 21.1279C44.3611 21.1663 44.3967 21.1908 44.3916 21.2291C44.4098 21.9537 44.5506 22.6368 44.7108 23.3223C45.0936 21.9498 45.6818 20.6442 46.4539 19.422C46.527 19.3148 46.603 19.1886 46.6761 19.0814C47.2105 18.3149 47.7888 17.6524 48.4659 16.9835C48.825 16.6422 49.1786 16.3392 49.5706 16.0414C50.2458 15.5284 50.9245 15.1333 51.7041 14.7128C51.767 14.6824 51.7939 14.6274 51.8568 14.5969C52.6008 14.152 53.2296 13.6916 53.8388 13.0915C53.8605 13.0749 53.9017 13.0611 53.9234 13.0445C54.1465 12.8408 54.3288 12.6509 54.5349 12.4255C54.6737 12.2688 54.7904 12.1284 54.9261 11.9908C54.9506 11.9552 54.953 11.9358 54.9775 11.9002C55.4881 11.3061 55.9003 10.7184 56.2819 10.0677C55.1361 12.3123 53.3507 14.235 51.184 15.5201C50.7267 15.8674 50.2553 16.1739 49.8281 16.5841C49.8064 16.6007 49.7656 16.6145 49.7439 16.6311C49.1834 17.1599 48.7076 17.6413 48.2353 18.2405C47.5732 19.087 47.0642 19.9544 46.6022 20.9064C46.5753 20.961 46.565 21.0377 46.5377 21.0927C46.0975 22.0281 45.8297 22.9873 45.5979 23.9705C45.8246 23.8843 45.9796 23.7494 46.2114 23.6249C46.3997 23.5335 46.5903 23.4231 46.7647 23.2906C46.9146 23.1937 47.0618 23.1166 47.2089 23.0391C48.4869 22.2571 49.6422 21.5171 50.8679 20.6892C51.903 19.9718 52.8701 19.3231 53.836 18.5376C53.8795 18.5043 53.9064 18.4494 53.9499 18.4165C54.8481 17.6998 55.5819 16.9021 56.2736 15.9817C57.0196 14.9513 57.5187 13.868 57.8807 12.6485C57.8858 12.6102 57.8913 12.5718 57.8965 12.5335C58.1136 11.8017 58.2129 11.0736 58.2576 10.3185Z" fill="#009444"/>
<path d="M33.1579 3.08551C33.0606 2.9894 32.9669 2.86599 32.8696 2.76988C32.5077 2.38938 32.1379 2.06267 31.7261 1.74427C31.1237 1.30326 30.5142 0.916037 29.8545 0.591309C29.5808 1.38197 29.3767 2.16868 29.15 3.02104C28.8368 4.30334 28.5655 5.48083 28.2676 6.75127C27.918 8.40141 27.5869 9.91549 27.454 11.5953C27.4505 11.6226 27.4738 11.653 27.4698 11.6803C27.4556 11.8856 27.4414 12.0905 27.4271 12.2958C27.4402 12.5046 27.4259 12.7095 27.4386 12.9183C27.4596 13.1695 27.4418 13.4017 27.4778 13.6414C27.4975 13.6991 27.5169 13.7573 27.5213 13.8269C27.5268 14.0899 27.5513 14.3142 27.6146 14.5574C27.6818 14.7738 27.6791 14.9941 27.7463 15.2104C27.8171 15.3995 27.8606 15.585 27.9045 15.7705C28.0271 16.1874 28.1956 16.5695 28.3606 16.9784C28.5722 17.4491 28.8067 17.8537 29.065 18.2892C29.4752 18.9248 29.9079 19.4948 30.441 20.0371C30.6238 20.2139 30.795 20.3752 30.9778 20.552C31.0011 20.5829 31.0438 20.5746 31.0672 20.6058C31.5924 21.1054 32.175 21.4886 32.7731 21.86C32.073 20.6189 31.5659 19.2796 31.2479 17.8696C31.2238 17.7422 31.1882 17.599 31.1641 17.4717C30.9999 16.5521 30.9402 15.6744 30.9461 14.7227C30.9584 14.2275 30.9944 13.7632 31.0612 13.2755C31.1759 12.4354 31.3765 11.676 31.6304 10.8272C31.6533 10.7611 31.6336 10.7034 31.6565 10.6373C31.8677 9.79683 31.9868 9.02635 31.9935 8.17121C31.9971 8.14392 32.0164 8.10516 32.02 8.07826C32.0335 7.77648 32.0283 7.51345 32.0149 7.2081C32.0022 6.99926 31.9856 6.81772 31.9844 6.6243C31.9765 6.58198 31.9646 6.56655 31.9567 6.52384C31.8978 5.74267 31.7736 5.03547 31.5833 4.30572C32.3602 6.70301 32.4574 9.32497 31.8341 11.7658C31.7562 12.3349 31.6399 12.8847 31.628 13.4768C31.6245 13.5037 31.6051 13.5425 31.6015 13.5698C31.579 14.3399 31.5833 15.0166 31.6731 15.7741C31.8036 16.8408 32.0568 17.8142 32.4033 18.8137C32.423 18.8714 32.4697 18.9331 32.4895 18.9913C32.8395 19.9639 33.3284 20.8313 33.8596 21.6908C33.9589 21.4697 33.9731 21.2644 34.0491 21.0128C34.1175 20.8151 34.174 20.6019 34.2041 20.3851C34.2417 20.2107 34.2911 20.0517 34.3402 19.8931C34.691 18.4364 34.9845 17.0963 35.2657 15.6439C35.4904 14.4047 35.7154 13.2625 35.8432 12.0237C35.8507 11.9695 35.8309 11.9117 35.8384 11.8571C35.967 10.7152 35.9215 9.63269 35.7597 8.49238C35.5588 7.23658 35.1459 6.11724 34.5391 4.99908C34.5158 4.96823 34.4924 4.93737 34.4691 4.90652C34.1052 4.23571 33.6606 3.65033 33.1583 3.08472L33.1579 3.08551Z" fill="#F5D235"/>
<path d="M16.7225 9.54449C16.59 9.50968 16.4477 9.44995 16.3152 9.41554C15.8113 9.26682 15.3279 9.16873 14.8122 9.09912C14.0701 9.01804 13.3487 8.98798 12.615 9.03663C12.7732 9.85814 12.99 10.6413 13.2198 11.4933C13.5896 12.7605 13.9436 13.9159 14.3209 15.1649C14.843 16.7688 15.3137 18.2457 16.0383 19.7669C16.0486 19.7922 16.0842 19.8073 16.0945 19.8326C16.1846 20.0173 16.2748 20.202 16.365 20.3867C16.4805 20.5611 16.5707 20.7458 16.6862 20.9203C16.8301 21.1275 16.9306 21.3376 17.0817 21.527C17.1276 21.5674 17.1735 21.6077 17.2122 21.6658C17.3483 21.8909 17.4816 22.0728 17.6584 22.2516C17.8245 22.4055 17.9325 22.5977 18.0986 22.7512C18.2544 22.8793 18.385 23.0182 18.5155 23.157C18.8299 23.4568 19.1669 23.7032 19.5146 23.9749C19.9334 24.2767 20.3389 24.5097 20.7799 24.7581C21.4527 25.1038 22.1128 25.3806 22.8453 25.5836C23.0921 25.6453 23.3211 25.6994 23.568 25.7611C23.6036 25.7762 23.6364 25.7477 23.672 25.7627C24.3768 25.9328 25.0729 25.9735 25.7766 25.9961C24.5497 25.2711 23.441 24.3649 22.4605 23.3029C22.3758 23.2044 22.2738 23.0985 22.1891 23.0004C21.5872 22.286 21.0967 21.5555 20.626 20.7284C20.3891 20.2934 20.1882 19.8733 20.0019 19.4177C19.6811 18.6325 19.475 17.8747 19.2705 17.0129C19.2571 16.9444 19.2112 16.9041 19.1982 16.8357C18.9608 16.0019 18.6788 15.2749 18.2568 14.5317C18.2465 14.5064 18.2438 14.4633 18.2331 14.438C18.0938 14.1698 17.9578 13.9447 17.7932 13.6869C17.6777 13.5124 17.5725 13.3633 17.4749 13.1964C17.4468 13.1636 17.429 13.1561 17.4005 13.1232C16.9591 12.4761 16.4979 11.926 15.9683 11.3888C17.8399 13.0766 19.2349 15.2986 19.9153 17.724C20.1324 18.2556 20.3064 18.7904 20.5924 19.3089C20.6027 19.3342 20.6055 19.3773 20.6161 19.4026C20.9816 20.0806 21.3237 20.6648 21.7802 21.2759C22.4265 22.1345 23.1325 22.8508 23.9326 23.5434C23.9785 23.5838 24.0501 23.6138 24.096 23.6538C24.8855 24.321 25.7426 24.8277 26.6321 25.3063C26.6076 25.065 26.5174 24.8803 26.4569 24.6244C26.4173 24.4187 26.36 24.2059 26.2773 24.0034C26.2227 23.8337 26.186 23.6712 26.1492 23.509C25.7248 22.0721 25.3087 20.7648 24.8261 19.3662C24.4009 18.1808 24.0248 17.0789 23.5161 15.9422C23.4956 15.8915 23.4493 15.8512 23.4287 15.8006C22.9687 14.7477 22.3885 13.8324 21.6781 12.9259C20.876 11.9386 19.9588 11.176 18.8746 10.5108C18.839 10.4957 18.8034 10.4807 18.7674 10.4657C18.1168 10.0666 17.4393 9.7822 16.7214 9.5433L16.7225 9.54449Z" fill="#91A93E"/>
<path d="M5.71927 23.3566C5.58756 23.393 5.43409 23.4123 5.30198 23.4483C4.79136 23.5713 4.32385 23.7284 3.84209 23.9257C3.15902 24.2267 2.51905 24.5614 1.90796 24.9699C2.45577 25.6024 3.03521 26.1723 3.65975 26.7949C4.61376 27.7074 5.49777 28.5309 6.44902 29.4244C7.70324 30.5524 8.84908 31.5962 10.2374 32.551C10.2591 32.568 10.2975 32.5629 10.3189 32.5795C10.4893 32.6942 10.6598 32.8093 10.8303 32.924C11.0174 33.0173 11.1878 33.1321 11.3753 33.2254C11.6035 33.333 11.7954 33.4647 12.0212 33.5529C12.0809 33.5648 12.1411 33.5766 12.2036 33.6079C12.4341 33.7348 12.6406 33.8254 12.8831 33.8923C13.1038 33.9425 13.2936 34.0548 13.5143 34.1047C13.7137 34.1379 13.896 34.1929 14.0784 34.2478C14.5008 34.3503 14.9157 34.3954 15.3524 34.4567C15.8657 34.5085 16.3337 34.5077 16.8399 34.5022C17.5954 34.465 18.3054 34.3752 19.0414 34.1842C19.2859 34.1142 19.5113 34.0465 19.7562 33.9769C19.7945 33.9718 19.8088 33.931 19.8471 33.9263C20.5425 33.721 21.1654 33.4081 21.7864 33.0763C20.3613 33.0617 18.9481 32.8315 17.5681 32.4019C17.4455 32.3588 17.3043 32.3185 17.1817 32.2753C16.3032 31.9577 15.5133 31.5705 14.6922 31.0895C14.2698 30.8313 13.8853 30.5678 13.4961 30.2665C12.8261 29.7471 12.2684 29.1938 11.6605 28.5495C11.6146 28.4969 11.5549 28.485 11.509 28.432C10.8868 27.8284 10.2789 27.3403 9.54165 26.9072C9.5199 26.8906 9.49616 26.8546 9.47441 26.838C9.21969 26.6754 8.98949 26.5485 8.71816 26.4073C8.53108 26.3139 8.36535 26.2376 8.19725 26.1419C8.15651 26.1276 8.13713 26.13 8.09639 26.1158C7.39037 25.7764 6.716 25.5304 5.98862 25.3303C8.45316 25.8563 10.7725 27.0828 12.5746 28.8433C13.0286 29.1954 13.4467 29.5711 13.9534 29.8776C13.9751 29.8943 13.9989 29.9303 14.0206 29.9469C14.6764 30.3511 15.2645 30.6861 15.9654 30.9871C16.9546 31.4076 17.9241 31.6749 18.9631 31.8747C19.0229 31.8865 19.1 31.8766 19.1597 31.8889C20.177 32.072 21.1726 32.0823 22.1823 32.0519C22.0407 31.8553 21.8699 31.7402 21.6899 31.5488C21.553 31.3905 21.3968 31.2351 21.2236 31.101C21.0915 30.9812 20.9784 30.859 20.8656 30.7371C19.7795 29.7052 18.7658 28.7809 17.6484 27.811C16.6877 26.997 15.8108 26.2309 14.8018 25.5007C14.7587 25.4671 14.6985 25.4552 14.6554 25.4216C13.7307 24.7393 12.7703 24.2374 11.702 23.8075C10.5139 23.3538 9.33795 23.1517 8.06673 23.1177C8.02836 23.1224 7.98999 23.1276 7.95163 23.1323C7.18865 23.1121 6.4597 23.2043 5.71848 23.3566H5.71927Z" fill="#006838"/>
<path d="M3.09491 40.8193C2.9988 40.9166 2.87539 41.0099 2.77928 41.1076C2.39878 41.4695 2.07207 41.839 1.75367 42.2511C1.31266 42.8535 0.925437 43.463 0.600708 44.1227C1.39137 44.3965 2.17808 44.6005 3.03044 44.8272C4.31274 45.1404 5.49023 45.4118 6.76106 45.7096C8.4112 46.0592 9.92528 46.3903 11.6051 46.5232C11.6324 46.5268 11.6628 46.5034 11.6901 46.507C11.895 46.5212 12.1003 46.5355 12.3056 46.5497C12.5144 46.5367 12.7193 46.5509 12.9281 46.5382C13.1793 46.5173 13.4115 46.5351 13.6512 46.4991C13.7089 46.4793 13.7667 46.4599 13.8367 46.4556C14.0997 46.45 14.324 46.4255 14.5672 46.3622C14.7832 46.2954 15.0039 46.2978 15.2202 46.2305C15.4093 46.1597 15.5948 46.1162 15.7803 46.0723C16.1972 45.9497 16.5793 45.7812 16.9882 45.6163C17.4589 45.4047 17.8635 45.1701 18.299 44.9118C18.9346 44.5021 19.5046 44.069 20.0469 43.5358C20.2236 43.353 20.385 43.1818 20.5618 42.999C20.5927 42.9753 20.5848 42.933 20.6156 42.9097C21.1152 42.3844 21.4984 41.8018 21.8702 41.2037C20.6291 41.9034 19.2898 42.4109 17.8798 42.7289C17.7524 42.753 17.6092 42.7886 17.4819 42.8128C16.5623 42.9769 15.6846 43.0366 14.7329 43.0307C14.2377 43.0184 13.7734 42.9824 13.2857 42.916C12.4456 42.8013 11.6862 42.6008 10.8374 42.3468C10.7713 42.3239 10.7136 42.3437 10.6475 42.3211C9.80702 42.1095 9.03654 41.9905 8.1814 41.9841C8.15411 41.9806 8.11535 41.9612 8.08846 41.9576C7.78667 41.9442 7.52364 41.9493 7.21829 41.9628C7.00945 41.9754 6.82791 41.9924 6.63449 41.9932C6.59217 42.0011 6.57674 42.013 6.53403 42.0209C5.75286 42.0798 5.04566 42.204 4.31591 42.3943C6.7132 41.6175 9.33516 41.5202 11.776 42.1435C12.3451 42.2214 12.8949 42.3377 13.487 42.3496C13.5139 42.3532 13.5531 42.3725 13.58 42.3761C14.3501 42.3986 15.0268 42.3943 15.7846 42.3045C16.8514 42.174 17.8248 41.9208 18.8243 41.574C18.882 41.5542 18.9437 41.5075 19.0015 41.4877C19.9741 41.1377 20.8415 40.6488 21.701 40.1176C21.4799 40.0184 21.2746 40.0041 21.023 39.9282C20.8253 39.8597 20.6121 39.8032 20.3953 39.7735C20.2209 39.7359 20.0623 39.6865 19.9033 39.6375C18.4465 39.2866 17.1065 38.9931 15.6541 38.7119C14.4149 38.4873 13.2726 38.2622 12.0338 38.1344C11.9797 38.1269 11.9219 38.1467 11.8677 38.1392C10.7258 38.011 9.64288 38.0561 8.50297 38.2179C7.24717 38.4188 6.12782 38.8318 5.00966 39.4385C4.97881 39.4618 4.94796 39.4852 4.91711 39.5089C4.24629 39.8728 3.66091 40.3174 3.09531 40.8197L3.09491 40.8193Z" fill="#F5D235"/>
<path d="M9.55453 57.2539C9.51972 57.3864 9.45999 57.5288 9.42558 57.6613C9.27686 58.1652 9.17877 58.6485 9.10876 59.1643C9.02768 59.9063 8.99762 60.6277 9.04627 61.3615C9.86778 61.2032 10.6509 60.9865 11.5025 60.7567C12.7698 60.3869 13.9251 60.0329 15.1742 59.6555C16.7781 59.1334 18.255 58.6632 19.7762 57.9382C19.8015 57.9279 19.8165 57.8923 19.8418 57.882C20.0265 57.7918 20.2112 57.7016 20.396 57.6115C20.5704 57.496 20.7551 57.4058 20.9295 57.2903C21.1368 57.1463 21.3468 57.0458 21.5363 56.8948C21.5766 56.8489 21.617 56.803 21.6751 56.7642C21.9001 56.6278 22.0821 56.4945 22.2609 56.3181C22.4147 56.1519 22.607 56.044 22.7604 55.8779C22.889 55.722 23.0274 55.5915 23.1662 55.461C23.466 55.1465 23.7125 54.8095 23.9842 54.4623C24.286 54.0434 24.5189 53.638 24.7673 53.197C25.113 52.5242 25.3899 51.8644 25.5928 51.1315C25.6545 50.8847 25.7087 50.6557 25.7704 50.4089C25.7854 50.3729 25.7569 50.3405 25.772 50.3049C25.942 49.6 25.9824 48.9039 26.0053 48.2002C25.2803 49.4272 24.3742 50.5358 23.3122 51.5164C23.2137 51.601 23.1077 51.703 23.0096 51.7877C22.2953 52.3897 21.5647 52.8801 20.7377 53.3508C20.3026 53.5877 19.8826 53.7887 19.4269 53.975C18.6422 54.2957 17.884 54.5018 17.0221 54.7059C16.9537 54.7193 16.9133 54.7652 16.8449 54.7783C16.0111 55.0156 15.2841 55.2976 14.541 55.7196C14.5156 55.7299 14.4725 55.7327 14.4472 55.7434C14.179 55.8826 13.954 56.0187 13.6961 56.1832C13.5217 56.2987 13.3726 56.4039 13.2056 56.5016C13.1728 56.5297 13.1653 56.5475 13.1325 56.576C12.4854 57.0174 11.9352 57.4789 11.3981 58.0082C13.0858 56.1369 15.3079 54.7415 17.7333 54.0612C18.2648 53.844 18.7996 53.67 19.3181 53.384C19.3435 53.3738 19.3866 53.371 19.4119 53.3607C20.0898 52.9948 20.674 52.6531 21.2855 52.1967C22.1442 51.5504 22.8605 50.8444 23.5531 50.0442C23.5934 49.9983 23.6235 49.9267 23.6634 49.8808C24.3307 49.0914 24.8373 48.2343 25.3159 47.3447C25.0751 47.3692 24.8899 47.4594 24.634 47.5199C24.4284 47.5595 24.2156 47.6168 24.0131 47.6995C23.8434 47.7541 23.6812 47.7909 23.5186 47.8277C22.0817 48.2521 20.7745 48.6682 19.3759 49.1507C18.1905 49.5759 17.0885 49.952 15.9518 50.4607C15.9012 50.4813 15.8608 50.5275 15.8102 50.5481C14.7573 51.0077 13.8421 51.5883 12.9355 52.2987C11.9483 53.1008 11.1857 54.0181 10.5204 55.1022C10.5054 55.1378 10.4903 55.1734 10.4753 55.2094C10.0762 55.86 9.79144 56.5376 9.55294 57.2555L9.55453 57.2539Z" fill="#91A93E"/>
<path d="M23.3656 68.2575C23.4016 68.3896 23.4214 68.5427 23.4574 68.6748C23.5804 69.1854 23.7374 69.6529 23.9348 70.1351C24.2358 70.8182 24.5704 71.4581 24.9794 72.0692C25.6118 71.5214 26.1818 70.9424 26.8044 70.3174C27.7168 69.3634 28.5403 68.4794 29.4338 67.5278C30.5615 66.2735 31.6057 65.1277 32.5605 63.7394C32.5775 63.7176 32.5723 63.6793 32.589 63.6579C32.7041 63.4874 32.8188 63.317 32.9335 63.1461C33.0268 62.959 33.1415 62.7881 33.2349 62.6011C33.3424 62.3728 33.4742 62.181 33.5624 61.9552C33.5742 61.8954 33.5861 61.8353 33.6173 61.7728C33.7443 61.5422 33.8349 61.3358 33.9017 61.0933C33.9519 60.8726 34.0643 60.6827 34.1141 60.462C34.1473 60.2627 34.2023 60.0804 34.2573 59.898C34.3597 59.4756 34.4048 59.0607 34.4665 58.624C34.5183 58.1106 34.5176 57.6427 34.512 57.1364C34.4748 56.381 34.3851 55.671 34.194 54.9349C34.124 54.6901 34.0564 54.465 33.9868 54.2202C33.9816 54.1818 33.9409 54.1676 33.9361 54.1292C33.7309 53.4339 33.418 52.8109 33.0861 52.19C33.0715 53.6151 32.8413 55.0283 32.4118 56.4083C32.3687 56.5305 32.3283 56.6721 32.2852 56.7947C31.9676 57.6732 31.5804 58.463 31.0994 59.2845C30.8411 59.707 30.5777 60.0914 30.2763 60.4806C29.757 61.1506 29.2036 61.7084 28.5593 62.3163C28.5067 62.3622 28.4948 62.4219 28.4418 62.4678C27.8383 63.0899 27.3502 63.6979 26.9171 64.4351C26.9005 64.4569 26.8645 64.4806 26.8475 64.5024C26.6849 64.7571 26.5579 64.9873 26.4167 65.2586C26.3234 65.4461 26.2471 65.6114 26.1513 65.7795C26.1371 65.8203 26.1395 65.8396 26.1252 65.8804C25.7855 66.5864 25.5399 67.2608 25.3393 67.9881C25.8654 65.5236 27.0919 63.2042 28.8524 61.4022C29.2044 60.9481 29.5802 60.5301 29.8867 60.0234C29.9033 60.0016 29.9393 59.9779 29.9559 59.9562C30.3602 59.3004 30.6952 58.7122 30.9962 58.0113C31.4166 57.0225 31.684 56.0527 31.8837 55.0136C31.8956 54.9539 31.8857 54.8768 31.8976 54.8171C32.0807 53.7998 32.091 52.8042 32.0605 51.7944C31.864 51.936 31.7493 52.1069 31.5574 52.2869C31.3992 52.4237 31.2438 52.58 31.1097 52.7532C30.9902 52.8853 30.8676 52.9984 30.7458 53.1111C29.7139 54.1973 28.7895 55.211 27.8197 56.3284C27.0057 57.2891 26.2395 58.166 25.5094 59.175C25.4758 59.2181 25.4639 59.2782 25.4307 59.3213C24.7484 60.2461 24.2465 61.2064 23.8161 62.2747C23.3625 63.4629 23.1604 64.6388 23.1263 65.9104C23.1311 65.9488 23.1362 65.9872 23.141 66.0255C23.1208 66.7885 23.213 67.5175 23.3652 68.2583L23.3656 68.2575Z" fill="#39B54A"/>
<path d="M40.8289 70.8811C40.9262 70.9772 41.0196 71.1006 41.1173 71.1967C41.4792 71.5776 41.8486 71.9039 42.2607 72.2227C42.8631 72.6637 43.4726 73.0506 44.1324 73.3757C44.4061 72.585 44.6102 71.7983 44.8368 70.9459C45.1501 69.6636 45.4214 68.4862 45.7192 67.2157C46.0689 65.5656 46.3999 64.0511 46.5328 62.3717C46.5364 62.3444 46.5131 62.3139 46.5166 62.2866C46.5309 62.0814 46.5451 61.8765 46.5593 61.6712C46.5463 61.4624 46.5605 61.2575 46.5479 61.0486C46.5269 60.7971 46.5447 60.5649 46.5083 60.3256C46.4889 60.2679 46.4692 60.2097 46.4648 60.1401C46.4593 59.8771 46.4347 59.6528 46.3715 59.4096C46.3046 59.1936 46.307 58.9729 46.2398 58.757C46.169 58.5679 46.1254 58.3824 46.0815 58.1969C45.9589 57.78 45.7904 57.3979 45.6255 56.9889C45.4139 56.5183 45.1793 56.1136 44.9211 55.6782C44.5113 55.0425 44.0782 54.4726 43.545 53.9303C43.3623 53.7535 43.191 53.5921 43.0083 53.4149C42.9845 53.3841 42.9422 53.3924 42.9189 53.3615C42.3936 52.862 41.811 52.4787 41.213 52.1069C41.9127 53.3481 42.4201 54.6874 42.7381 56.0974C42.7623 56.2248 42.7979 56.368 42.822 56.4953C42.9861 57.4153 43.0459 58.2926 43.0399 59.2442C43.0277 59.7394 42.9917 60.2038 42.9248 60.6919C42.8101 61.532 42.6096 62.2914 42.3557 63.1398C42.3327 63.2058 42.3525 63.2636 42.3296 63.3297C42.118 64.1701 41.9989 64.9406 41.9926 65.7958C41.989 65.8231 41.9696 65.8618 41.9661 65.8887C41.9526 66.1905 41.9578 66.4535 41.9712 66.7589C41.9843 66.9677 42.0009 67.1497 42.0021 67.3431C42.01 67.3854 42.0218 67.4008 42.0297 67.4435C42.0887 68.2247 42.2129 68.9315 42.4031 69.6617C41.6263 67.2644 41.529 64.6424 42.1524 62.2016C42.2299 61.6324 42.3466 61.0823 42.3584 60.4905C42.362 60.4637 42.3814 60.4249 42.3849 60.3976C42.4075 59.6275 42.4031 58.9508 42.3133 58.1929C42.1832 57.1262 41.9297 56.1528 41.5832 55.1529C41.5634 55.0951 41.5167 55.0334 41.497 54.9757C41.1469 54.0031 40.6581 53.1357 40.1269 52.2762C40.0276 52.4973 40.0133 52.7026 39.9374 52.9542C39.869 53.1519 39.812 53.3651 39.7824 53.5819C39.7448 53.7563 39.6953 53.9149 39.6463 54.0739C39.2955 55.5306 39.002 56.8707 38.7208 58.3231C38.4961 59.5623 38.271 60.7045 38.1433 61.9433C38.1358 61.9975 38.1556 62.0553 38.148 62.1095C38.0195 63.2513 38.065 64.3343 38.2267 65.4742C38.4277 66.73 38.8406 67.8494 39.4473 68.9675C39.4707 68.9984 39.494 69.0292 39.5173 69.0601C39.8812 69.7309 40.3258 70.3163 40.8281 70.8815L40.8289 70.8811Z" fill="#F5D235"/>
<path d="M57.2639 64.4227C57.3964 64.4575 57.5388 64.5172 57.6713 64.5516C58.1752 64.7004 58.6585 64.7985 59.1743 64.8685C59.9163 64.9491 60.6377 64.9796 61.3714 64.9309C61.2132 64.1094 60.9965 63.3263 60.7667 62.4747C60.3968 61.2074 60.0429 60.0521 59.6655 58.8026C59.1434 57.1988 58.6727 55.7219 57.9481 54.2007C57.9378 54.1753 57.9023 54.1603 57.892 54.135C57.8018 53.9503 57.7116 53.7656 57.6214 53.5809C57.5059 53.4064 57.4158 53.2217 57.3003 53.0473C57.1563 52.84 57.0558 52.63 56.9047 52.4406C56.8589 52.4002 56.813 52.3599 56.7742 52.3017C56.6377 52.0767 56.5048 51.8947 56.328 51.7156C56.1619 51.5621 56.054 51.3695 55.8878 51.216C55.732 51.0875 55.6015 50.9486 55.4709 50.8102C55.1565 50.5104 54.8195 50.2636 54.4722 49.9918C54.0534 49.6901 53.648 49.4571 53.2069 49.2087C52.5341 48.863 51.8744 48.5861 51.1415 48.3832C50.8947 48.3215 50.6657 48.2673 50.4189 48.2056C50.3829 48.1906 50.3504 48.2191 50.3148 48.2041C49.6104 48.034 48.9139 47.9936 48.2102 47.9707C49.4368 48.6957 50.5458 49.6019 51.5263 50.6638C51.611 50.7623 51.713 50.8679 51.7977 50.9664C52.3997 51.6808 52.8901 52.4113 53.3608 53.2383C53.5977 53.6734 53.7986 54.0935 53.9849 54.5495C54.3057 55.3342 54.5118 56.0921 54.7159 56.9543C54.7293 57.0228 54.7752 57.0631 54.7883 57.1315C55.0256 57.9653 55.3076 58.6923 55.7296 59.4355C55.7399 59.4608 55.7427 59.5039 55.7533 59.5292C55.8926 59.7974 56.0286 60.0224 56.1928 60.2803C56.3083 60.4548 56.4135 60.6039 56.5112 60.7708C56.5393 60.8036 56.5571 60.8111 56.5851 60.8436C57.0269 61.4906 57.4881 62.0408 58.0177 62.5779C56.1461 60.8902 54.7511 58.6682 54.0704 56.2424C53.8532 55.7108 53.6792 55.176 53.3932 54.6575C53.3829 54.6326 53.3802 54.5891 53.3699 54.5638C53.0044 53.8858 52.6623 53.3016 52.2059 52.6901C51.5596 51.8314 50.8535 51.1152 50.0534 50.4226C50.0075 50.3822 49.9359 50.3526 49.89 50.3122C49.1006 49.645 48.2435 49.1383 47.3535 48.6597C47.378 48.901 47.4682 49.0857 47.5287 49.3416C47.5683 49.5473 47.6256 49.7601 47.7083 49.9626C47.7629 50.1323 47.7997 50.2948 47.8365 50.457C48.2609 51.8939 48.6769 53.2012 49.1595 54.5998C49.5847 55.7851 49.9608 56.8871 50.4695 58.0234C50.4901 58.0741 50.5363 58.1144 50.5569 58.165C51.0169 59.2179 51.5971 60.1332 52.3075 61.0397C53.1096 62.027 54.0269 62.7896 55.111 63.4548C55.1466 63.4699 55.1822 63.4849 55.2182 63.4999C55.8688 63.899 56.5464 64.1834 57.2643 64.4219L57.2639 64.4227Z" fill="#91A93E"/>
<path d="M68.2678 50.6114C68.3999 50.5754 68.553 50.5556 68.6851 50.5196C69.1957 50.3966 69.6632 50.2396 70.1454 50.0422C70.8284 49.7412 71.4684 49.4066 72.0795 48.9976C71.5317 48.3652 70.9522 47.7952 70.3277 47.1727C69.3737 46.2602 68.4897 45.4363 67.538 44.5432C66.2838 43.4151 65.138 42.3713 63.7497 41.4165C63.7279 41.3995 63.6895 41.4047 63.6682 41.3881C63.4977 41.273 63.3272 41.1583 63.1564 41.0436C62.9693 40.9502 62.7984 40.8355 62.6113 40.7422C62.3831 40.6346 62.1913 40.5029 61.9654 40.4147C61.9057 40.4028 61.8456 40.3909 61.7831 40.3597C61.5525 40.2327 61.346 40.1422 61.1036 40.0753C60.8829 40.0251 60.693 39.9127 60.4723 39.8629C60.273 39.8297 60.0906 39.7747 59.9083 39.7201C59.4859 39.6177 59.071 39.5726 58.6343 39.5109C58.1209 39.4591 57.653 39.4599 57.1467 39.4654C56.3913 39.5026 55.6813 39.5924 54.9452 39.7834C54.7004 39.8534 54.4753 39.9211 54.2305 39.9907C54.1921 39.9958 54.1779 40.0365 54.1395 40.0413C53.4442 40.2466 52.8212 40.5594 52.2002 40.8913C53.6253 40.9059 55.0386 41.1361 56.4186 41.5657C56.5412 41.6088 56.6824 41.6491 56.805 41.6922C57.6835 42.0098 58.4733 42.3971 59.2944 42.878C59.7173 43.1363 60.1013 43.3997 60.4905 43.7011C61.1605 44.2204 61.7178 44.7738 62.3262 45.4181C62.372 45.4707 62.4318 45.4826 62.4776 45.5356C63.0998 46.1392 63.7077 46.6276 64.445 47.0603C64.4668 47.0773 64.4905 47.1129 64.5123 47.13C64.767 47.2925 64.9972 47.4195 65.2685 47.5607C65.456 47.654 65.6213 47.7304 65.7898 47.8261C65.8305 47.8403 65.8499 47.838 65.8907 47.8522C66.5967 48.1919 67.2711 48.4376 67.9984 48.6381C65.5339 48.112 63.2145 46.8855 61.4125 45.125C60.9584 44.773 60.5404 44.3972 60.0337 44.0911C60.0119 44.0745 59.9882 44.0385 59.9664 44.0219C59.3107 43.6173 58.7225 43.2826 58.0216 42.9817C57.0328 42.5612 56.063 42.2938 55.0239 42.0941C54.9642 42.0822 54.8875 42.0921 54.8273 42.0802C53.81 41.8971 52.8141 41.8868 51.8043 41.9173C51.9459 42.1139 52.1168 42.229 52.2968 42.4204C52.4336 42.5786 52.5898 42.7341 52.7627 42.8681C52.8948 42.9876 53.0079 43.1102 53.1206 43.232C54.2068 44.2644 55.2205 45.1883 56.3375 46.1581C57.2982 46.9721 58.1751 47.7383 59.1841 48.4684C59.2272 48.502 59.2873 48.5139 59.3304 48.5471C60.2552 49.2294 61.2155 49.7313 62.2838 50.1617C63.472 50.6153 64.6479 50.8175 65.9191 50.8515C65.9575 50.8467 65.9959 50.8416 66.0342 50.8368C66.7972 50.857 67.5262 50.7649 68.267 50.6126L68.2678 50.6114Z" fill="#006838"/>
<path d="M70.8917 33.1478C70.9878 33.0505 71.1112 32.9568 71.2074 32.8595C71.5883 32.4976 71.9146 32.1277 72.2334 31.716C72.6744 31.1136 73.0616 30.5041 73.3863 29.8444C72.5957 29.5706 71.809 29.3666 70.9566 29.1399C69.6743 28.8267 68.4968 28.5553 67.226 28.2575C65.5758 27.9078 64.0613 27.5768 62.3819 27.4439C62.3546 27.4403 62.3242 27.4637 62.2969 27.4597C62.0916 27.4455 61.8867 27.4312 61.6815 27.417C61.4726 27.4296 61.2677 27.4158 61.0589 27.4285C60.8073 27.4494 60.5752 27.4316 60.3359 27.468C60.2781 27.4874 60.22 27.5072 60.1504 27.5115C59.8873 27.5171 59.6631 27.5416 59.4198 27.6049C59.2039 27.6717 58.9832 27.6693 58.7672 27.7366C58.5781 27.8074 58.3926 27.8509 58.2071 27.8948C57.7902 28.0174 57.4082 28.1859 56.9992 28.3508C56.5285 28.5624 56.1239 28.797 55.6884 29.0553C55.0528 29.465 54.4828 29.8981 53.941 30.4313C53.7638 30.614 53.6028 30.7853 53.4256 30.968C53.3947 30.9918 53.4027 31.0341 53.3718 31.0574C52.8722 31.5827 52.489 32.1653 52.1172 32.7633C53.3584 32.0637 54.6976 31.5562 56.1077 31.2382C56.235 31.2141 56.3782 31.1785 56.5056 31.1543C57.4256 30.9902 58.3029 30.9305 59.2545 30.9364C59.7497 30.9487 60.214 30.9847 60.7017 31.0515C61.5418 31.1662 62.3012 31.3667 63.1497 31.6207C63.2157 31.6436 63.2735 31.6238 63.3395 31.6468C64.18 31.8584 64.9505 31.9774 65.8056 31.9838C65.8329 31.9873 65.8717 32.0067 65.8986 32.0103C66.2004 32.0237 66.4634 32.0186 66.7687 32.0051C66.9776 31.9925 67.1595 31.9755 67.3529 31.9747C67.3953 31.9668 67.4107 31.9549 67.4534 31.947C68.2346 31.888 68.9418 31.7639 69.6715 31.5736C67.2742 32.3504 64.6523 32.4477 62.2111 31.8244C61.6419 31.7468 61.0921 31.6302 60.5 31.6183C60.4731 31.6147 60.4344 31.5954 60.4071 31.5918C59.637 31.5692 58.9602 31.5736 58.2024 31.6634C57.1357 31.7935 56.1623 32.047 55.1624 32.3935C55.1046 32.4133 55.0429 32.46 54.9852 32.4798C54.0126 32.8298 53.1452 33.3187 52.2857 33.8499C52.5068 33.9491 52.7121 33.9634 52.9636 34.0393C53.1614 34.1077 53.3742 34.1647 53.5913 34.1944C53.7657 34.2319 53.9244 34.2814 54.0834 34.3304C55.5397 34.6813 56.8801 34.9747 58.3325 35.256C59.5717 35.4806 60.714 35.7057 61.9528 35.8334C62.007 35.841 62.0647 35.8212 62.1189 35.8287C63.2608 35.9572 64.3438 35.9117 65.4837 35.75C66.7395 35.549 67.8588 35.1361 68.977 34.5294C69.0078 34.506 69.0387 34.4827 69.0695 34.4594C69.7403 34.0955 70.3257 33.6509 70.8909 33.1486L70.8917 33.1478Z" fill="#F5D235"/>
<path d="M64.4326 16.7125C64.4674 16.58 64.5271 16.4377 64.5615 16.3051C64.7102 15.8012 64.8083 15.3179 64.8783 14.8021C64.959 14.0601 64.9895 13.3383 64.9408 12.605C64.1193 12.7632 63.3362 12.9799 62.4846 13.2097C61.2173 13.5796 60.062 13.9336 58.8125 14.3109C57.2086 14.833 55.7317 15.3037 54.2105 16.0283C54.1852 16.0386 54.1702 16.0742 54.1449 16.0844C53.9602 16.1746 53.7754 16.2648 53.5903 16.3554C53.4159 16.4709 53.2312 16.5611 53.0568 16.6766C52.8495 16.8205 52.6395 16.921 52.45 17.0725C52.4097 17.1184 52.3694 17.1642 52.3112 17.203C52.0862 17.3395 51.9042 17.4724 51.7254 17.6492C51.5716 17.8153 51.3793 17.9233 51.2259 18.0894C51.0973 18.2452 50.9589 18.3757 50.8201 18.5067C50.5202 18.8211 50.2734 19.1581 50.0021 19.5054C49.7003 19.9242 49.4674 20.3296 49.219 20.7707C48.8733 21.4435 48.5964 22.1032 48.3935 22.8361C48.3318 23.0829 48.2776 23.3119 48.2159 23.5587C48.2009 23.5947 48.2294 23.6272 48.2143 23.6628C48.0442 24.3672 48.0035 25.0637 47.981 25.7674C48.706 24.5408 49.6121 23.4318 50.6741 22.4513C50.7726 22.3666 50.8786 22.2646 50.9767 22.1799C51.691 21.5779 52.4216 21.0875 53.2486 20.6168C53.6837 20.3799 54.1037 20.179 54.5598 19.9927C55.3445 19.6719 56.1023 19.4658 56.9646 19.2617C57.033 19.2483 57.0734 19.2024 57.1418 19.1893C57.9756 18.952 58.7025 18.67 59.4457 18.248C59.4711 18.2377 59.5142 18.2349 59.5395 18.2243C59.8077 18.085 60.0327 17.949 60.2906 17.7844C60.465 17.6689 60.6141 17.5637 60.781 17.466C60.8139 17.4379 60.8214 17.4201 60.8538 17.3917C61.5009 16.9503 62.0511 16.4891 62.5882 15.9591C60.9005 17.8307 58.6784 19.2257 56.2526 19.9064C55.7211 20.1236 55.1863 20.2976 54.6678 20.5836C54.6428 20.5939 54.5993 20.5966 54.574 20.6069C53.8961 20.9724 53.3119 21.3145 52.7004 21.771C51.8417 22.4172 51.1254 23.1233 50.4328 23.9234C50.3925 23.9693 50.3628 24.0409 50.3225 24.0868C49.6552 24.8762 49.1486 25.7334 48.67 26.6233C48.9112 26.5988 49.096 26.5086 49.3519 26.4481C49.5571 26.4085 49.7703 26.3512 49.9728 26.2685C50.1425 26.2139 50.3051 26.1771 50.4673 26.1403C51.9042 25.7159 53.2114 25.3002 54.61 24.8173C55.7954 24.3921 56.8974 24.016 58.0341 23.5073C58.0847 23.4868 58.1251 23.4405 58.1757 23.4199C59.229 22.9599 60.1439 22.3797 61.0504 21.6693C62.0376 20.8672 62.8002 19.9499 63.4655 18.8658C63.4805 18.8302 63.4956 18.7942 63.5106 18.7586C63.9097 18.108 64.1941 17.4304 64.4326 16.7125Z" fill="#91A93E"/>
<path d="M50.6207 5.70868C50.5847 5.57657 50.565 5.4231 50.529 5.29139C50.406 4.78077 50.2489 4.31326 50.0516 3.83111C49.7506 3.14803 49.416 2.50806 49.007 1.89697C48.3745 2.44478 47.8046 3.02423 47.182 3.64877C46.2695 4.60278 45.446 5.48678 44.5525 6.43803C43.4245 7.69225 42.3807 8.8381 41.4259 10.2264C41.4093 10.2482 41.414 10.2865 41.3974 10.3079C41.2823 10.4784 41.1676 10.6488 41.0525 10.8197C40.9592 11.0068 40.8445 11.1776 40.7511 11.3647C40.6435 11.593 40.5118 11.7852 40.4236 12.0106C40.4118 12.0704 40.3999 12.1305 40.3686 12.193C40.2417 12.4236 40.1511 12.63 40.0843 12.8725C40.034 13.0932 39.9217 13.283 39.8719 13.5037C39.8386 13.7031 39.7836 13.8854 39.7287 14.0678C39.6262 14.4902 39.5811 14.9051 39.5194 15.3418C39.4676 15.8552 39.4684 16.3231 39.474 16.829C39.5111 17.5844 39.6009 18.2944 39.792 19.0305C39.862 19.2753 39.9296 19.5004 39.9992 19.7452C40.0044 19.7835 40.0451 19.7978 40.0498 19.8362C40.2551 20.5315 40.568 21.1544 40.8998 21.7754C40.9145 20.3503 41.1447 18.9371 41.5742 17.5571C41.6169 17.4345 41.6577 17.2933 41.7008 17.1707C42.0184 16.2918 42.4056 15.5023 42.8866 14.6808C43.1449 14.258 43.4083 13.874 43.7097 13.4848C44.229 12.8147 44.7823 12.2574 45.4267 11.6491C45.4793 11.6032 45.4911 11.5435 45.5441 11.4976C46.1477 10.8755 46.6358 10.2675 47.0689 9.53067C47.0859 9.50891 47.1219 9.48478 47.1385 9.46342C47.3011 9.2087 47.428 8.97851 47.5692 8.70717C47.6626 8.51969 47.7389 8.35397 47.8346 8.18627C47.8489 8.14553 47.8465 8.12614 47.8607 8.08541C48.2001 7.37939 48.4461 6.70501 48.6462 5.97763C48.1206 8.44217 46.8937 10.7615 45.1332 12.5636C44.7811 13.0176 44.4054 13.4357 44.0993 13.9424C44.0826 13.9637 44.0467 13.9879 44.03 14.0096C43.6258 14.6654 43.2908 15.2536 42.9898 15.9544C42.5694 16.9433 42.302 17.9131 42.1022 18.9521C42.0904 19.0119 42.1003 19.089 42.0884 19.1487C41.9053 20.166 41.895 21.162 41.9254 22.1717C42.122 22.0301 42.2367 21.8593 42.4285 21.6793C42.5868 21.5425 42.7422 21.3862 42.8763 21.2134C42.9961 21.0813 43.1183 20.9682 43.2402 20.8554C44.2725 19.7693 45.1965 18.7556 46.1663 17.6386C46.9803 16.6779 47.7464 15.801 48.4766 14.792C48.5102 14.7489 48.5221 14.6887 48.5553 14.6456C49.2376 13.7209 49.7399 12.7606 50.1698 11.6922C50.6235 10.5041 50.8256 9.32816 50.8596 8.05693C50.8549 8.01856 50.8497 7.98019 50.845 7.94183C50.8652 7.17885 50.773 6.4499 50.6207 5.70907V5.70868Z" fill="#006838"/>
<path d="M97.2354 19.0331C97.2354 19.4563 97.166 19.8517 97.0273 20.2194C96.8885 20.5871 96.6977 20.9236 96.4549 21.2288C96.2121 21.5271 95.9277 21.7942 95.6016 22.0301C95.2825 22.266 94.9356 22.4637 94.561 22.6232C94.1933 22.7828 93.8118 22.9042 93.4163 22.9875C93.0209 23.0638 92.6324 23.1019 92.2508 23.1019H83.4368V8.11702H91.4912C91.845 8.11702 92.2161 8.14477 92.6046 8.20027C92.9931 8.24883 93.3712 8.32861 93.7389 8.43961C94.1135 8.55061 94.4674 8.6963 94.8004 8.87667C95.1403 9.05705 95.4351 9.27904 95.6849 9.54267C95.9416 9.79935 96.1427 10.0977 96.2884 10.4376C96.4411 10.7775 96.5174 11.166 96.5174 11.6031C96.5174 12.0193 96.4341 12.3974 96.2676 12.7374C96.1011 13.0773 95.8757 13.3825 95.5912 13.6531C95.3137 13.9167 94.9911 14.1526 94.6234 14.3607C94.2627 14.5619 93.8811 14.7388 93.4788 14.8914C93.9852 15.0302 94.4639 15.214 94.9148 15.443C95.3727 15.6719 95.7716 15.9529 96.1115 16.2859C96.4584 16.6189 96.7324 17.0143 96.9336 17.4722C97.1348 17.9231 97.2354 18.4434 97.2354 19.0331ZM92.3237 11.9673C92.3237 11.1209 92.0982 10.5035 91.6473 10.115C91.2033 9.72651 90.5685 9.53226 89.7429 9.53226H87.5681V14.3919H89.3891C89.7638 14.3919 90.128 14.3469 90.4818 14.2567C90.8356 14.1595 91.1478 14.0139 91.4183 13.8196C91.6958 13.6184 91.9144 13.3652 92.0739 13.06C92.2404 12.7547 92.3237 12.3905 92.3237 11.9673ZM93.0521 18.7729C93.0521 18.3636 93.0001 17.9821 92.896 17.6283C92.792 17.2675 92.6324 16.9588 92.4173 16.7021C92.2023 16.4385 91.9317 16.2338 91.6057 16.0882C91.2865 15.9355 90.9084 15.8592 90.4714 15.8592H87.5681V21.6451H90.1072C90.5303 21.6451 90.9223 21.5757 91.2831 21.4369C91.6438 21.2982 91.956 21.1039 92.2196 20.8542C92.4832 20.6044 92.6879 20.3027 92.8336 19.9488C92.9793 19.595 93.0521 19.2031 93.0521 18.7729Z" fill="white"/>
<path d="M112.033 17.0663C112.033 17.6907 111.95 18.2769 111.783 18.825C111.617 19.373 111.384 19.8795 111.086 20.3443C110.795 20.8091 110.441 21.2288 110.025 21.6034C109.608 21.9711 109.15 22.2833 108.651 22.54C108.158 22.7967 107.628 22.9944 107.059 23.1331C106.497 23.2719 105.918 23.3413 105.321 23.3413C104.724 23.3413 104.145 23.2719 103.583 23.1331C103.021 22.9944 102.491 22.7967 101.991 22.54C101.498 22.2833 101.044 21.9711 100.628 21.6034C100.212 21.2288 99.8543 20.8091 99.556 20.3443C99.2646 19.8795 99.0357 19.373 98.8692 18.825C98.7027 18.27 98.6194 17.6838 98.6194 17.0663C98.6194 16.4489 98.7027 15.8662 98.8692 15.3181C99.0357 14.7631 99.2646 14.2532 99.556 13.7884C99.8543 13.3236 100.212 12.9073 100.628 12.5396C101.044 12.165 101.498 11.8494 101.991 11.5927C102.491 11.336 103.021 11.1383 103.583 10.9995C104.145 10.8608 104.724 10.7914 105.321 10.7914C105.918 10.7914 106.497 10.8608 107.059 10.9995C107.628 11.1383 108.158 11.336 108.651 11.5927C109.15 11.8494 109.608 12.165 110.025 12.5396C110.441 12.9073 110.795 13.3236 111.086 13.7884C111.384 14.2532 111.617 14.7631 111.783 15.3181C111.95 15.8662 112.033 16.4489 112.033 17.0663ZM108.453 17.0663C108.453 16.7333 108.432 16.383 108.391 16.0153C108.356 15.6407 108.294 15.2765 108.204 14.9227C108.113 14.5619 107.988 14.2185 107.829 13.8925C107.676 13.5595 107.485 13.2715 107.257 13.0287C107.028 12.779 106.754 12.5813 106.434 12.4356C106.115 12.283 105.744 12.2066 105.321 12.2066C104.919 12.2066 104.561 12.283 104.249 12.4356C103.937 12.5882 103.663 12.7929 103.427 13.0496C103.198 13.2993 103.004 13.5907 102.844 13.9237C102.692 14.2567 102.567 14.6035 102.47 14.9643C102.373 15.3181 102.303 15.6788 102.262 16.0465C102.22 16.4073 102.199 16.7472 102.199 17.0663C102.199 17.3855 102.22 17.7289 102.262 18.0965C102.303 18.4573 102.373 18.818 102.47 19.1788C102.567 19.5395 102.692 19.8864 102.844 20.2194C103.004 20.5455 103.198 20.8368 103.427 21.0935C103.663 21.3433 103.937 21.5445 104.249 21.6971C104.561 21.8497 104.919 21.926 105.321 21.926C105.737 21.926 106.105 21.8532 106.424 21.7075C106.743 21.5549 107.017 21.3537 107.246 21.1039C107.482 20.8542 107.676 20.5663 107.829 20.2402C107.982 19.9142 108.103 19.5708 108.193 19.21C108.29 18.8493 108.356 18.485 108.391 18.1174C108.432 17.7497 108.453 17.3993 108.453 17.0663Z" fill="white"/>
<path d="M117.632 11.4262C117.632 11.6898 117.579 11.9361 117.475 12.165C117.378 12.394 117.243 12.5951 117.07 12.7686C116.903 12.9351 116.702 13.0704 116.466 13.1744C116.237 13.2715 115.994 13.3201 115.738 13.3201C115.474 13.3201 115.228 13.2715 114.999 13.1744C114.77 13.0773 114.569 12.942 114.395 12.7686C114.222 12.5951 114.086 12.394 113.989 12.165C113.892 11.9361 113.844 11.6898 113.844 11.4262C113.844 11.1071 113.885 10.781 113.969 10.448C114.052 10.115 114.166 9.79242 114.312 9.48023C114.465 9.16111 114.641 8.8628 114.843 8.5853C115.044 8.30086 115.262 8.05458 115.498 7.84646L116.997 8.62692C116.851 8.74486 116.702 8.89402 116.549 9.07439C116.404 9.24783 116.317 9.4282 116.289 9.61551C116.483 9.67795 116.664 9.76814 116.83 9.88607C116.997 10.004 117.139 10.1428 117.257 10.3023C117.375 10.4619 117.465 10.6388 117.527 10.833C117.597 11.0203 117.632 11.2181 117.632 11.4262Z" fill="white"/>
<path d="M130.431 19.262C130.431 19.7893 130.355 20.2576 130.202 20.6669C130.05 21.0762 129.841 21.4335 129.578 21.7387C129.314 22.037 129.002 22.2902 128.641 22.4984C128.28 22.6995 127.892 22.8626 127.476 22.9875C127.066 23.1123 126.636 23.2025 126.185 23.258C125.734 23.3135 125.287 23.3413 124.843 23.3413C124.246 23.3413 123.719 23.3031 123.261 23.2268C122.803 23.1505 122.366 23.0291 121.95 22.8626C121.534 22.6891 121.118 22.4671 120.701 22.1966C120.292 21.926 119.834 21.5965 119.328 21.208L121.378 19.5326C121.565 19.8864 121.811 20.209 122.117 20.5004C122.429 20.7848 122.751 21.0311 123.084 21.2392C123.417 21.4473 123.74 21.6069 124.052 21.7179C124.364 21.8289 124.618 21.8844 124.812 21.8844C124.971 21.8844 125.152 21.8809 125.353 21.874C125.554 21.8601 125.759 21.8393 125.967 21.8116C126.175 21.7769 126.38 21.7283 126.581 21.6659C126.782 21.6034 126.959 21.5202 127.112 21.4161C127.271 21.3051 127.396 21.1698 127.486 21.0103C127.583 20.8438 127.632 20.6461 127.632 20.4171C127.632 20.1813 127.569 19.9766 127.445 19.8032C127.327 19.6228 127.171 19.4667 126.976 19.3349C126.782 19.2031 126.56 19.0921 126.31 19.0019C126.061 18.9117 125.807 18.8319 125.551 18.7625C125.301 18.6932 125.058 18.6342 124.822 18.5856C124.586 18.5301 124.382 18.4781 124.208 18.4295C123.889 18.3394 123.553 18.2492 123.199 18.159C122.845 18.0619 122.495 17.9543 122.148 17.8364C121.801 17.7115 121.468 17.5658 121.149 17.3993C120.837 17.2328 120.559 17.0351 120.316 16.8062C120.08 16.5703 119.89 16.2963 119.744 15.9841C119.605 15.665 119.536 15.2938 119.536 14.8706C119.536 14.0936 119.688 13.445 119.994 12.9247C120.306 12.3974 120.715 11.9777 121.222 11.6655C121.728 11.3464 122.304 11.1209 122.949 10.9891C123.594 10.8573 124.25 10.7914 124.916 10.7914C125.374 10.7914 125.856 10.84 126.362 10.9371C126.869 11.0273 127.361 11.166 127.84 11.3533C128.319 11.5337 128.766 11.7557 129.182 12.0193C129.599 12.283 129.945 12.5847 130.223 12.9247L128.173 14.6105C128.02 14.1942 127.819 13.837 127.569 13.5386C127.327 13.2403 127.06 12.9975 126.768 12.8102C126.484 12.616 126.189 12.4737 125.884 12.3836C125.585 12.2934 125.308 12.2483 125.051 12.2483C124.801 12.2483 124.52 12.2587 124.208 12.2795C123.896 12.3003 123.601 12.3593 123.324 12.4564C123.053 12.5535 122.821 12.7027 122.626 12.9039C122.439 13.0981 122.346 13.3687 122.346 13.7155C122.346 13.9653 122.401 14.1804 122.512 14.3607C122.63 14.5342 122.783 14.6868 122.97 14.8186C123.157 14.9435 123.369 15.051 123.605 15.1412C123.847 15.2244 124.094 15.3008 124.343 15.3701C124.593 15.4326 124.836 15.4881 125.072 15.5366C125.308 15.5852 125.519 15.6372 125.707 15.6927C126.026 15.7829 126.362 15.8766 126.716 15.9737C127.077 16.0639 127.431 16.1714 127.778 16.2963C128.124 16.4142 128.457 16.5564 128.777 16.7229C129.103 16.8825 129.387 17.0802 129.63 17.3161C129.873 17.552 130.067 17.8295 130.213 18.1486C130.358 18.4608 130.431 18.8319 130.431 19.262Z" fill="white"/>
<path d="M137.185 23.1019H133.657V12.4772H131.472V11.0828H133.657V6.66016H137.185V11.0828H140.827V12.4772H137.185V23.1019Z" fill="white"/>
<path d="M154.615 17.0663C154.615 17.6907 154.532 18.2769 154.365 18.825C154.199 19.373 153.966 19.8795 153.668 20.3443C153.377 20.8091 153.023 21.2288 152.607 21.6034C152.19 21.9711 151.733 22.2833 151.233 22.54C150.741 22.7967 150.21 22.9944 149.641 23.1331C149.079 23.2719 148.5 23.3413 147.903 23.3413C147.306 23.3413 146.727 23.2719 146.165 23.1331C145.603 22.9944 145.073 22.7967 144.573 22.54C144.081 22.2833 143.626 21.9711 143.21 21.6034C142.794 21.2288 142.436 20.8091 142.138 20.3443C141.847 19.8795 141.618 19.373 141.451 18.825C141.285 18.27 141.202 17.6838 141.202 17.0663C141.202 16.4489 141.285 15.8662 141.451 15.3181C141.618 14.7631 141.847 14.2532 142.138 13.7884C142.436 13.3236 142.794 12.9073 143.21 12.5396C143.626 12.165 144.081 11.8494 144.573 11.5927C145.073 11.336 145.603 11.1383 146.165 10.9995C146.727 10.8608 147.306 10.7914 147.903 10.7914C148.5 10.7914 149.079 10.8608 149.641 10.9995C150.21 11.1383 150.741 11.336 151.233 11.5927C151.733 11.8494 152.19 12.165 152.607 12.5396C153.023 12.9073 153.377 13.3236 153.668 13.7884C153.966 14.2532 154.199 14.7631 154.365 15.3181C154.532 15.8662 154.615 16.4489 154.615 17.0663ZM151.035 17.0663C151.035 16.7333 151.015 16.383 150.973 16.0153C150.938 15.6407 150.876 15.2765 150.786 14.9227C150.695 14.5619 150.571 14.2185 150.411 13.8925C150.258 13.5595 150.068 13.2715 149.839 13.0287C149.61 12.779 149.336 12.5813 149.017 12.4356C148.697 12.283 148.326 12.2066 147.903 12.2066C147.501 12.2066 147.143 12.283 146.831 12.4356C146.519 12.5882 146.245 12.7929 146.009 13.0496C145.78 13.2993 145.586 13.5907 145.426 13.9237C145.274 14.2567 145.149 14.6035 145.052 14.9643C144.955 15.3181 144.885 15.6788 144.844 16.0465C144.802 16.4073 144.781 16.7472 144.781 17.0663C144.781 17.3855 144.802 17.7289 144.844 18.0965C144.885 18.4573 144.955 18.818 145.052 19.1788C145.149 19.5395 145.274 19.8864 145.426 20.2194C145.586 20.5455 145.78 20.8368 146.009 21.0935C146.245 21.3433 146.519 21.5445 146.831 21.6971C147.143 21.8497 147.501 21.926 147.903 21.926C148.319 21.926 148.687 21.8532 149.006 21.7075C149.325 21.5549 149.599 21.3537 149.828 21.1039C150.064 20.8542 150.258 20.5663 150.411 20.2402C150.564 19.9142 150.685 19.5708 150.775 19.21C150.872 18.8493 150.938 18.485 150.973 18.1174C151.015 17.7497 151.035 17.3993 151.035 17.0663Z" fill="white"/>
<path d="M169.132 16.213C169.132 17.0247 169.031 17.8711 168.83 18.7521C168.636 19.6332 168.362 20.4969 168.008 21.3433C167.654 22.1896 167.231 22.984 166.738 23.7263C166.246 24.4755 165.705 25.1207 165.115 25.6618L163.793 24.9438C163.981 24.5969 164.158 24.2084 164.324 23.7783C164.491 23.3482 164.64 22.8938 164.771 22.4151C164.91 21.9295 165.032 21.43 165.136 20.9166C165.247 20.4033 165.337 19.8968 165.406 19.3973C165.483 18.8909 165.538 18.4018 165.573 17.93C165.614 17.4514 165.635 17.0074 165.635 16.5981C165.635 16.3275 165.625 16.0396 165.604 15.7343C165.583 15.4222 165.538 15.1134 165.469 14.8082C165.406 14.496 165.32 14.1977 165.209 13.9133C165.098 13.6288 164.948 13.3791 164.761 13.164C164.581 12.949 164.359 12.7755 164.095 12.6437C163.838 12.5119 163.533 12.446 163.179 12.446C162.832 12.446 162.524 12.5258 162.253 12.6853C161.983 12.838 161.743 13.0426 161.535 13.2993C161.327 13.549 161.147 13.837 160.994 14.163C160.848 14.4891 160.727 14.8255 160.63 15.1724C160.54 15.5123 160.474 15.8488 160.432 16.1818C160.391 16.5148 160.37 16.8131 160.37 17.0767V23.1019H156.842V11.0828H158.195L159.808 13.882C160.002 13.4172 160.245 12.9941 160.536 12.6125C160.828 12.2309 161.157 11.9049 161.525 11.6343C161.892 11.3637 162.298 11.1556 162.742 11.0099C163.193 10.8643 163.679 10.7914 164.199 10.7914C165.032 10.7914 165.757 10.9267 166.374 11.1973C166.991 11.4678 167.505 11.8459 167.914 12.3315C168.323 12.8102 168.629 13.3825 168.83 14.0485C169.031 14.7076 169.132 15.4291 169.132 16.213Z" fill="white"/>
<path d="M87.5681 43.0818H83.4368V28.0969H94.1968V30.0116H87.5681V34.6424H92.6879V36.5467H87.5681V43.0818Z" fill="white"/>
<path d="M108.099 37.0462C108.099 37.6706 108.016 38.2568 107.85 38.8048C107.683 39.3529 107.451 39.8593 107.152 40.3241C106.861 40.789 106.507 41.2087 106.091 41.5833C105.675 41.951 105.217 42.2632 104.717 42.5199C104.225 42.7765 103.694 42.9743 103.125 43.113C102.563 43.2518 101.984 43.3211 101.387 43.3211C100.791 43.3211 100.212 43.2518 99.6496 43.113C99.0877 42.9743 98.557 42.7765 98.0575 42.5199C97.5649 42.2632 97.1105 41.951 96.6943 41.5833C96.278 41.2087 95.9207 40.789 95.6224 40.3241C95.3311 39.8593 95.1021 39.3529 94.9356 38.8048C94.7691 38.2498 94.6859 37.6636 94.6859 37.0462C94.6859 36.4288 94.7691 35.846 94.9356 35.298C95.1021 34.743 95.3311 34.2331 95.6224 33.7683C95.9207 33.3034 96.278 32.8872 96.6943 32.5195C97.1105 32.1449 97.5649 31.8292 98.0575 31.5725C98.557 31.3159 99.0877 31.1181 99.6496 30.9794C100.212 30.8406 100.791 30.7713 101.387 30.7713C101.984 30.7713 102.563 30.8406 103.125 30.9794C103.694 31.1181 104.225 31.3159 104.717 31.5725C105.217 31.8292 105.675 32.1449 106.091 32.5195C106.507 32.8872 106.861 33.3034 107.152 33.7683C107.451 34.2331 107.683 34.743 107.85 35.298C108.016 35.846 108.099 36.4288 108.099 37.0462ZM104.52 37.0462C104.52 36.7132 104.499 36.3629 104.457 35.9952C104.423 35.6206 104.36 35.2563 104.27 34.9025C104.18 34.5418 104.055 34.1984 103.895 33.8723C103.743 33.5393 103.552 33.2514 103.323 33.0086C103.094 32.7589 102.82 32.5611 102.501 32.4155C102.182 32.2628 101.811 32.1865 101.387 32.1865C100.985 32.1865 100.628 32.2628 100.316 32.4155C100.003 32.5681 99.7294 32.7727 99.4935 33.0294C99.2646 33.2792 99.0704 33.5705 98.9108 33.9035C98.7582 34.2365 98.6333 34.5834 98.5362 34.9442C98.439 35.298 98.3697 35.6587 98.328 36.0264C98.2864 36.3871 98.2656 36.7271 98.2656 37.0462C98.2656 37.3653 98.2864 37.7087 98.328 38.0764C98.3697 38.4372 98.439 38.7979 98.5362 39.1587C98.6333 39.5194 98.7582 39.8663 98.9108 40.1993C99.0704 40.5253 99.2646 40.8167 99.4935 41.0734C99.7294 41.3231 100.003 41.5243 100.316 41.6769C100.628 41.8296 100.985 41.9059 101.387 41.9059C101.804 41.9059 102.171 41.833 102.491 41.6874C102.81 41.5347 103.084 41.3335 103.313 41.0838C103.548 40.834 103.743 40.5461 103.895 40.2201C104.048 39.894 104.169 39.5506 104.26 39.1899C104.357 38.8291 104.423 38.4649 104.457 38.0972C104.499 37.7295 104.52 37.3792 104.52 37.0462Z" fill="white"/>
<path d="M123.022 37.0462C123.022 37.6706 122.939 38.2568 122.772 38.8048C122.606 39.3529 122.373 39.8593 122.075 40.3241C121.784 40.789 121.43 41.2087 121.014 41.5833C120.597 41.951 120.139 42.2632 119.64 42.5199C119.147 42.7765 118.617 42.9743 118.048 43.113C117.486 43.2518 116.907 43.3211 116.31 43.3211C115.713 43.3211 115.134 43.2518 114.572 43.113C114.01 42.9743 113.479 42.7765 112.98 42.5199C112.487 42.2632 112.033 41.951 111.617 41.5833C111.2 41.2087 110.843 40.789 110.545 40.3241C110.254 39.8593 110.025 39.3529 109.858 38.8048C109.692 38.2498 109.608 37.6636 109.608 37.0462C109.608 36.4288 109.692 35.846 109.858 35.298C110.025 34.743 110.254 34.2331 110.545 33.7683C110.843 33.3034 111.2 32.8872 111.617 32.5195C112.033 32.1449 112.487 31.8292 112.98 31.5725C113.479 31.3159 114.01 31.1181 114.572 30.9794C115.134 30.8406 115.713 30.7713 116.31 30.7713C116.907 30.7713 117.486 30.8406 118.048 30.9794C118.617 31.1181 119.147 31.3159 119.64 31.5725C120.139 31.8292 120.597 32.1449 121.014 32.5195C121.43 32.8872 121.784 33.3034 122.075 33.7683C122.373 34.2331 122.606 34.743 122.772 35.298C122.939 35.846 123.022 36.4288 123.022 37.0462ZM119.442 37.0462C119.442 36.7132 119.421 36.3629 119.38 35.9952C119.345 35.6206 119.283 35.2563 119.192 34.9025C119.102 34.5418 118.977 34.1984 118.818 33.8723C118.665 33.5393 118.474 33.2514 118.245 33.0086C118.017 32.7589 117.743 32.5611 117.423 32.4155C117.104 32.2628 116.733 32.1865 116.31 32.1865C115.908 32.1865 115.55 32.2628 115.238 32.4155C114.926 32.5681 114.652 32.7727 114.416 33.0294C114.187 33.2792 113.993 33.5705 113.833 33.9035C113.681 34.2365 113.556 34.5834 113.459 34.9442C113.362 35.298 113.292 35.6587 113.251 36.0264C113.209 36.3871 113.188 36.7271 113.188 37.0462C113.188 37.3653 113.209 37.7087 113.251 38.0764C113.292 38.4372 113.362 38.7979 113.459 39.1587C113.556 39.5194 113.681 39.8663 113.833 40.1993C113.993 40.5253 114.187 40.8167 114.416 41.0734C114.652 41.3231 114.926 41.5243 115.238 41.6769C115.55 41.8296 115.908 41.9059 116.31 41.9059C116.726 41.9059 117.094 41.833 117.413 41.6874C117.732 41.5347 118.006 41.3335 118.235 41.0838C118.471 40.834 118.665 40.5461 118.818 40.2201C118.97 39.894 119.092 39.5506 119.182 39.1899C119.279 38.8291 119.345 38.4649 119.38 38.0972C119.421 37.7295 119.442 37.3792 119.442 37.0462Z" fill="white"/>
<path d="M137.362 43.0818H136.009L134.448 40.4698C134.295 40.9069 134.084 41.3023 133.813 41.6561C133.549 42.0099 133.241 42.3152 132.887 42.5719C132.54 42.8216 132.155 43.0159 131.732 43.1546C131.316 43.2934 130.875 43.3628 130.41 43.3628C129.495 43.3628 128.676 43.1997 127.954 42.8737C127.233 42.5476 126.622 42.1036 126.123 41.5417C125.623 40.9728 125.242 40.3068 124.978 39.5437C124.715 38.7806 124.583 37.9619 124.583 37.0878C124.583 36.2137 124.715 35.3951 124.978 34.632C125.242 33.8688 125.623 33.2063 126.123 32.6444C126.622 32.0825 127.233 31.6385 127.954 31.3124C128.676 30.9863 129.495 30.8233 130.41 30.8233C131.111 30.8233 131.753 30.9586 132.335 31.2291C132.925 31.4997 133.428 31.9229 133.844 32.4987V26.64H137.362V43.0818ZM133.824 37.0878C133.824 36.8103 133.803 36.5051 133.761 36.1721C133.719 35.8391 133.654 35.5026 133.563 35.1627C133.473 34.8227 133.355 34.4932 133.21 34.1741C133.064 33.855 132.883 33.5705 132.668 33.3208C132.46 33.071 132.214 32.8733 131.93 32.7276C131.652 32.575 131.333 32.4987 130.972 32.4987C130.577 32.4987 130.233 32.5715 129.942 32.7172C129.651 32.856 129.401 33.0468 129.193 33.2896C128.985 33.5254 128.811 33.7995 128.672 34.1117C128.541 34.4238 128.437 34.7499 128.36 35.0898C128.284 35.4298 128.228 35.7732 128.194 36.1201C128.166 36.46 128.152 36.7826 128.152 37.0878C128.152 37.3931 128.166 37.7191 128.194 38.066C128.228 38.4059 128.284 38.7459 128.36 39.0858C128.437 39.4257 128.541 39.7553 128.672 40.0744C128.811 40.3866 128.985 40.6641 129.193 40.9069C129.401 41.1428 129.651 41.3335 129.942 41.4792C130.233 41.618 130.577 41.6874 130.972 41.6874C131.368 41.6874 131.715 41.618 132.013 41.4792C132.311 41.3405 132.564 41.1532 132.772 40.9173C132.988 40.6745 133.161 40.4005 133.293 40.0952C133.432 39.783 133.539 39.457 133.615 39.117C133.692 38.7702 133.744 38.4233 133.771 38.0764C133.806 37.7295 133.824 37.4 133.824 37.0878Z" fill="white"/>
<path d="M97.0481 51.7918L95.2686 52.541C95.1299 52.0901 94.9426 51.6773 94.7067 51.3027C94.4778 50.928 94.2003 50.6089 93.8742 50.3453C93.5551 50.0747 93.1909 49.8666 92.7816 49.7209C92.3722 49.5683 91.9248 49.492 91.4392 49.492C90.9188 49.492 90.4402 49.5787 90.0031 49.7521C89.573 49.9186 89.1845 50.151 88.8376 50.4494C88.4977 50.7477 88.1994 51.0945 87.9427 51.49C87.686 51.8854 87.4709 52.3086 87.2975 52.7595C87.1241 53.2035 86.9957 53.6649 86.9125 54.1436C86.8292 54.6222 86.7876 55.0905 86.7876 55.5484C86.7876 56.2768 86.8708 57.0018 87.0373 57.7233C87.2108 58.4448 87.4813 59.0934 87.849 59.6692C88.2236 60.245 88.7058 60.7133 89.2955 61.0741C89.8852 61.4279 90.5997 61.6048 91.4392 61.6048C91.8832 61.6048 92.3029 61.5319 92.6983 61.3863C93.0937 61.2336 93.451 61.029 93.7701 60.7723C94.0962 60.5087 94.3806 60.1999 94.6234 59.8461C94.8663 59.4923 95.0605 59.1108 95.2062 58.7015L97.0065 59.4195C96.7428 60.0785 96.3821 60.6578 95.9242 61.1573C95.4663 61.6499 94.9426 62.0592 94.3529 62.3852C93.7701 62.7113 93.1423 62.9541 92.4694 63.1137C91.8034 63.2802 91.1304 63.3634 90.4506 63.3634C89.7152 63.3634 89.0076 63.2732 88.3277 63.0929C87.6548 62.9125 87.0269 62.6558 86.4442 62.3228C85.8614 61.9898 85.3307 61.5874 84.852 61.1157C84.3803 60.6439 83.9745 60.1202 83.6345 59.5444C83.3015 58.9686 83.0414 58.3442 82.8541 57.6712C82.6737 56.9914 82.5835 56.2838 82.5835 55.5484C82.5835 54.813 82.6737 54.1089 82.8541 53.4359C83.0414 52.7561 83.3015 52.1282 83.6345 51.5524C83.9745 50.9697 84.3803 50.4424 84.852 49.9707C85.3307 49.4989 85.8614 49.0966 86.4442 48.7636C87.0269 48.4306 87.6548 48.1739 88.3277 47.9935C89.0076 47.8131 89.7152 47.7229 90.4506 47.7229C91.1582 47.7229 91.8485 47.8062 92.5214 47.9727C93.2013 48.1392 93.8326 48.3924 94.4153 48.7323C94.9981 49.0653 95.5149 49.4885 95.9658 50.0019C96.4237 50.5083 96.7845 51.1049 97.0481 51.7918Z" fill="white"/>
<path d="M111.929 57.0261C111.929 57.6504 111.846 58.2366 111.679 58.7847C111.513 59.3328 111.28 59.8392 110.982 60.304C110.691 60.7688 110.337 61.1885 109.921 61.5632C109.504 61.9308 109.046 62.243 108.547 62.4997C108.054 62.7564 107.524 62.9541 106.955 63.0929C106.393 63.2316 105.814 63.301 105.217 63.301C104.62 63.301 104.041 63.2316 103.479 63.0929C102.917 62.9541 102.386 62.7564 101.887 62.4997C101.394 62.243 100.94 61.9308 100.524 61.5632C100.108 61.1885 99.7502 60.7688 99.4519 60.304C99.1605 59.8392 98.9316 59.3328 98.7651 58.7847C98.5986 58.2297 98.5154 57.6435 98.5154 57.0261C98.5154 56.4086 98.5986 55.8259 98.7651 55.2778C98.9316 54.7228 99.1605 54.2129 99.4519 53.7481C99.7502 53.2833 100.108 52.8671 100.524 52.4994C100.94 52.1248 101.394 51.8091 101.887 51.5524C102.386 51.2957 102.917 51.098 103.479 50.9593C104.041 50.8205 104.62 50.7511 105.217 50.7511C105.814 50.7511 106.393 50.8205 106.955 50.9593C107.524 51.098 108.054 51.2957 108.547 51.5524C109.046 51.8091 109.504 52.1248 109.921 52.4994C110.337 52.8671 110.691 53.2833 110.982 53.7481C111.28 54.2129 111.513 54.7228 111.679 55.2778C111.846 55.8259 111.929 56.4086 111.929 57.0261ZM108.349 57.0261C108.349 56.6931 108.328 56.3427 108.287 55.975C108.252 55.6004 108.19 55.2362 108.099 54.8824C108.009 54.5216 107.884 54.1782 107.725 53.8522C107.572 53.5192 107.381 53.2313 107.152 52.9885C106.924 52.7387 106.65 52.541 106.33 52.3953C106.011 52.2427 105.64 52.1664 105.217 52.1664C104.815 52.1664 104.457 52.2427 104.145 52.3953C103.833 52.5479 103.559 52.7526 103.323 53.0093C103.094 53.259 102.9 53.5504 102.74 53.8834C102.588 54.2164 102.463 54.5633 102.366 54.924C102.269 55.2778 102.199 55.6386 102.158 56.0063C102.116 56.367 102.095 56.7069 102.095 57.0261C102.095 57.3452 102.116 57.6886 102.158 58.0563C102.199 58.417 102.269 58.7778 102.366 59.1385C102.463 59.4993 102.588 59.8461 102.74 60.1791C102.9 60.5052 103.094 60.7966 103.323 61.0533C103.559 61.303 103.833 61.5042 104.145 61.6568C104.457 61.8094 104.815 61.8857 105.217 61.8857C105.633 61.8857 106.001 61.8129 106.32 61.6672C106.639 61.5146 106.913 61.3134 107.142 61.0637C107.378 60.8139 107.572 60.526 107.725 60.1999C107.877 59.8739 107.999 59.5305 108.089 59.1697C108.186 58.809 108.252 58.4448 108.287 58.0771C108.328 57.7094 108.349 57.3591 108.349 57.0261Z" fill="white"/>
<path d="M132.752 56.0479C132.752 56.8734 132.655 57.7337 132.46 58.6286C132.266 59.5235 131.992 60.3977 131.638 61.251C131.291 62.0973 130.872 62.8986 130.379 63.6548C129.887 64.411 129.338 65.0666 128.735 65.6216L127.413 64.9035C127.615 64.5428 127.798 64.137 127.965 63.686C128.131 63.2351 128.284 62.7599 128.423 62.2604C128.561 61.7609 128.683 61.2475 128.787 60.7203C128.891 60.193 128.978 59.6692 129.047 59.1489C129.123 58.6217 129.179 58.1118 129.214 57.6192C129.248 57.1267 129.266 56.6653 129.266 56.2352C129.266 55.9924 129.259 55.7288 129.245 55.4443C129.231 55.1599 129.2 54.8755 129.151 54.591C129.11 54.3066 129.044 54.036 128.953 53.7793C128.863 53.5157 128.738 53.2833 128.579 53.0821C128.426 52.874 128.232 52.711 127.996 52.593C127.767 52.4682 127.49 52.4057 127.164 52.4057C126.844 52.4057 126.57 52.4924 126.341 52.6659C126.119 52.8324 125.929 53.0509 125.769 53.3215C125.61 53.592 125.481 53.8973 125.384 54.2372C125.294 54.5771 125.225 54.9205 125.176 55.2674C125.127 55.6074 125.093 55.9334 125.072 56.2456C125.058 56.5578 125.051 56.8214 125.051 57.0365V63.0616H121.544V57.4631C121.544 57.2203 121.548 56.9289 121.555 56.589C121.562 56.2421 121.551 55.8814 121.523 55.5068C121.503 55.1321 121.458 54.761 121.388 54.3933C121.326 54.0187 121.222 53.6857 121.076 53.3943C120.937 53.1029 120.746 52.8671 120.504 52.6867C120.261 52.4994 119.956 52.4057 119.588 52.4057C119.276 52.4057 119.012 52.4924 118.797 52.6659C118.589 52.8393 118.412 53.0648 118.266 53.3423C118.128 53.6128 118.017 53.9216 117.933 54.2684C117.857 54.6084 117.798 54.9518 117.756 55.2986C117.722 55.6386 117.701 55.9646 117.694 56.2768C117.687 56.5821 117.684 56.8353 117.684 57.0365V63.0616H114.156V51.0425H115.509L116.799 53.8418C117.09 52.8705 117.548 52.1143 118.173 51.5732C118.804 51.0252 119.64 50.7511 120.681 50.7511C121.617 50.7511 122.394 50.9454 123.012 51.3339C123.629 51.7224 124.115 52.3537 124.468 53.2278C124.67 52.8462 124.892 52.5028 125.134 52.1976C125.384 51.8923 125.658 51.6322 125.956 51.4171C126.262 51.2021 126.598 51.039 126.966 50.928C127.334 50.8101 127.739 50.7511 128.183 50.7511C129.002 50.7511 129.699 50.8864 130.275 51.157C130.858 51.4206 131.333 51.7883 131.701 52.26C132.068 52.7318 132.335 53.2937 132.502 53.9458C132.668 54.591 132.752 55.2917 132.752 56.0479Z" fill="white"/>
<path d="M147.872 57.0261C147.872 57.9002 147.74 58.7188 147.476 59.4819C147.213 60.245 146.831 60.911 146.332 61.4799C145.832 62.0418 145.222 62.4858 144.5 62.8119C143.779 63.138 142.96 63.301 142.044 63.301C141.344 63.301 140.699 63.1657 140.109 62.8951C139.526 62.6177 139.027 62.1945 138.61 61.6256V68.6081H135.093V51.0425H136.446L138.007 53.6545C138.159 53.2174 138.368 52.822 138.631 52.4682C138.902 52.1074 139.21 51.8022 139.557 51.5524C139.911 51.2957 140.296 51.098 140.712 50.9593C141.136 50.8205 141.58 50.7511 142.044 50.7511C142.96 50.7511 143.779 50.9142 144.5 51.2402C145.222 51.5663 145.832 52.0138 146.332 52.5826C146.831 53.1446 147.213 53.8071 147.476 54.5702C147.74 55.3333 147.872 56.1519 147.872 57.0261ZM144.303 57.0261C144.303 56.7208 144.285 56.3982 144.251 56.0583C144.223 55.7114 144.171 55.368 144.094 55.0281C144.018 54.6881 143.911 54.3621 143.772 54.0499C143.64 53.7377 143.47 53.4637 143.262 53.2278C143.054 52.985 142.801 52.7942 142.502 52.6555C142.211 52.5098 141.871 52.4369 141.482 52.4369C141.08 52.4369 140.73 52.5063 140.431 52.6451C140.14 52.7838 139.887 52.9746 139.672 53.2174C139.464 53.4533 139.29 53.7273 139.151 54.0395C139.02 54.3447 138.916 54.6673 138.839 55.0073C138.763 55.3472 138.707 55.6906 138.673 56.0375C138.645 56.3843 138.631 56.7139 138.631 57.0261C138.631 57.3036 138.652 57.6123 138.694 57.9522C138.735 58.2852 138.801 58.6217 138.891 58.9616C138.982 59.3015 139.099 59.6311 139.245 59.9502C139.391 60.2693 139.568 60.5538 139.776 60.8035C139.991 61.0533 140.237 61.2544 140.515 61.4071C140.799 61.5528 141.122 61.6256 141.482 61.6256C141.878 61.6256 142.221 61.5562 142.513 61.4175C142.804 61.2718 143.054 61.081 143.262 60.8451C143.47 60.6023 143.64 60.3248 143.772 60.0126C143.911 59.7005 144.018 59.3744 144.094 59.0345C144.171 58.6945 144.223 58.3511 144.251 58.0042C144.285 57.6574 144.303 57.3313 144.303 57.0261Z" fill="white"/>
<path d="M162.243 63.0616H158.726V61.6256C158.309 62.1945 157.806 62.6177 157.217 62.8951C156.634 63.1657 155.992 63.301 155.291 63.301C154.376 63.301 153.557 63.138 152.836 62.8119C152.114 62.4858 151.504 62.0418 151.004 61.4799C150.505 60.911 150.123 60.245 149.859 59.4819C149.596 58.7188 149.464 57.9002 149.464 57.0261C149.464 56.1519 149.596 55.3333 149.859 54.5702C150.123 53.8071 150.505 53.1446 151.004 52.5826C151.504 52.0138 152.114 51.5663 152.836 51.2402C153.557 50.9142 154.376 50.7511 155.291 50.7511C155.756 50.7511 156.197 50.8205 156.613 50.9593C157.036 51.098 157.421 51.2957 157.768 51.5524C158.122 51.8022 158.431 52.1074 158.694 52.4682C158.965 52.822 159.176 53.2174 159.329 53.6545L160.89 51.0425H162.243V63.0616ZM158.705 57.0261C158.705 56.7139 158.687 56.3843 158.653 56.0375C158.625 55.6906 158.573 55.3472 158.497 55.0073C158.42 54.6673 158.313 54.3447 158.174 54.0395C158.042 53.7273 157.869 53.4533 157.654 53.2174C157.446 52.9746 157.192 52.7838 156.894 52.6451C156.596 52.5063 156.249 52.4369 155.853 52.4369C155.458 52.4369 155.115 52.5098 154.823 52.6555C154.532 52.7942 154.282 52.985 154.074 53.2278C153.866 53.4637 153.692 53.7377 153.554 54.0499C153.422 54.3621 153.318 54.6881 153.241 55.0281C153.165 55.368 153.11 55.7114 153.075 56.0583C153.047 56.3982 153.033 56.7208 153.033 57.0261C153.033 57.3313 153.047 57.6574 153.075 58.0042C153.11 58.3511 153.165 58.6945 153.241 59.0345C153.318 59.3744 153.422 59.7005 153.554 60.0126C153.692 60.3248 153.866 60.6023 154.074 60.8451C154.282 61.081 154.532 61.2718 154.823 61.4175C155.115 61.5562 155.458 61.6256 155.853 61.6256C156.214 61.6256 156.533 61.5528 156.811 61.4071C157.095 61.2544 157.341 61.0533 157.55 60.8035C157.765 60.5538 157.945 60.2693 158.091 59.9502C158.236 59.6311 158.354 59.3015 158.445 58.9616C158.535 58.6217 158.601 58.2852 158.642 57.9522C158.684 57.6123 158.705 57.3036 158.705 57.0261Z" fill="white"/>
<path d="M177.477 56.1728C177.477 56.9844 177.377 57.8308 177.176 58.7119C176.981 59.5929 176.707 60.4566 176.354 61.303C176 62.1494 175.577 62.9437 175.084 63.686C174.591 64.4353 174.05 65.0804 173.461 65.6216L172.139 64.9035C172.326 64.5567 172.503 64.1682 172.67 63.738C172.836 63.3079 172.985 62.8535 173.117 62.3748C173.256 61.8892 173.377 61.3897 173.481 60.8764C173.592 60.363 173.683 59.8565 173.752 59.357C173.828 58.8506 173.884 58.3615 173.919 57.8898C173.96 57.4111 173.981 56.9671 173.981 56.5578C173.981 56.2872 173.971 55.9993 173.95 55.6941C173.929 55.3819 173.884 55.0732 173.814 54.7679C173.752 54.4557 173.665 54.1574 173.554 53.873C173.443 53.5886 173.294 53.3388 173.107 53.1237C172.926 52.9087 172.704 52.7352 172.441 52.6034C172.184 52.4716 171.879 52.4057 171.525 52.4057C171.178 52.4057 170.87 52.4855 170.599 52.6451C170.328 52.7977 170.089 53.0023 169.881 53.259C169.673 53.5088 169.492 53.7967 169.34 54.1227C169.194 54.4488 169.073 54.7853 168.976 55.1321C168.885 55.4721 168.82 55.8085 168.778 56.1415C168.736 56.4745 168.715 56.7728 168.715 57.0365V63.0616H165.188V51.0425H166.541L168.154 53.8418C168.348 53.377 168.591 52.9538 168.882 52.5722C169.173 52.1907 169.503 51.8646 169.871 51.594C170.238 51.3235 170.644 51.1154 171.088 50.9697C171.539 50.824 172.025 50.7511 172.545 50.7511C173.377 50.7511 174.102 50.8864 174.72 51.157C175.337 51.4275 175.851 51.8056 176.26 52.2913C176.669 52.7699 176.974 53.3423 177.176 54.0083C177.377 54.6673 177.477 55.3888 177.477 56.1728Z" fill="white"/>
<path d="M190.412 51.0425L186.042 61.6152C185.542 62.8223 184.984 64.0155 184.366 65.1949C183.756 66.3812 183.093 67.519 182.379 68.6081L181.005 67.7756C181.179 67.4635 181.383 67.1027 181.619 66.6934C181.855 66.2841 182.087 65.8609 182.316 65.4239C182.545 64.9868 182.757 64.5532 182.951 64.1231C183.145 63.6999 183.295 63.3114 183.399 62.9576L178.143 51.0425H181.661L185.23 59.1697L187.977 51.0425H190.412Z" fill="white"/>
</svg>
