<svg width="224" height="60" viewBox="0 0 224 60" fill="none" xmlns="http://www.w3.org/2000/svg">
<g style="mix-blend-mode:luminosity">
<path d="M18.4309 34.1659V22.029C18.3885 20.4192 17.7954 19.4024 16.6728 18.5128C15.5502 17.602 14.5123 17.1572 12.9025 17.136H12.2882C10.6361 17.1784 9.55581 17.7079 8.43319 18.767C7.31057 19.8049 6.73867 20.864 6.69631 22.4314V33.6576C6.73867 35.225 7.31057 36.2841 8.43319 37.322C9.55581 38.3599 10.6149 38.9106 12.2882 38.953H12.9025C14.4911 38.9318 15.5502 38.4658 16.6728 37.555C17.7954 36.6442 18.3885 35.691 18.4309 34.1659ZM17.7107 42.9986C17.52 43.1257 17.3294 43.274 17.1176 43.4434L17.0541 43.4858C17.0117 43.507 16.9693 43.5493 16.927 43.5705C16.8846 43.6129 16.8422 43.6341 16.7999 43.6552C16.7575 43.6764 16.7152 43.7188 16.6728 43.74C16.6304 43.7612 16.5881 43.8035 16.5457 43.8247C16.5033 43.8459 16.4398 43.8882 16.3974 43.9094C16.3551 43.9306 16.2915 43.973 16.2492 43.9942C16.2068 44.0153 16.1433 44.0577 16.1009 44.0789C16.0585 44.1001 15.995 44.1212 15.9526 44.1636C15.9103 44.1848 15.8467 44.206 15.7832 44.2271C15.7408 44.2483 15.6773 44.2695 15.6137 44.2907C15.5502 44.3119 15.5078 44.3331 15.4443 44.3542C15.4019 44.3754 15.3384 44.3966 15.2748 44.4178C15.2113 44.439 15.1689 44.4601 15.1054 44.4813C15.0418 44.5025 14.9995 44.5237 14.9359 44.5237C14.8724 44.5449 14.83 44.5661 14.7665 44.5661C14.7029 44.5872 14.6605 44.5872 14.597 44.6084C14.5546 44.6296 14.4911 44.6296 14.4487 44.6508C14.4064 44.6508 14.3428 44.672 14.3005 44.672C14.2581 44.672 14.1946 44.6931 14.1522 44.6931C13.5167 44.7991 12.8813 44.8626 12.2035 44.8626H11.7163C8.49673 44.7779 5.80669 43.7188 3.64618 41.6854C1.48567 39.6519 0.363046 37.089 0.27832 34.0177V21.923C0.363046 18.8517 1.48567 16.2888 3.64618 14.2553C5.80669 12.2219 8.49673 11.1629 11.7163 11.0781H12.3518C12.966 11.0781 13.5379 11.1205 14.0675 11.2052L14.2157 11.2264C14.2581 11.2264 14.3216 11.2476 14.3852 11.2476C14.4487 11.2476 14.4911 11.2688 14.5546 11.2899C14.6182 11.3111 14.6605 11.3111 14.7241 11.3323C14.7876 11.3535 14.83 11.3535 14.8935 11.3747C14.9571 11.3959 14.9995 11.3958 15.063 11.417C15.1265 11.4382 15.1689 11.4594 15.2324 11.4594C15.2748 11.4806 15.3384 11.5018 15.4019 11.5229C15.4654 11.5441 15.5078 11.5653 15.5714 11.5865C15.6349 11.6077 15.6773 11.6288 15.7408 11.65C15.8043 11.6712 15.8467 11.6924 15.9103 11.7136C15.9526 11.7348 16.0162 11.7559 16.0585 11.7771C16.1009 11.7983 16.1644 11.8195 16.2068 11.8618C16.2492 11.883 16.3127 11.9042 16.3551 11.9466C16.3974 11.9677 16.4398 12.0101 16.5033 12.0313L16.5457 12.0525L16.6092 12.0948L16.6728 12.1372L16.7363 12.1796L16.7999 12.2219L16.8634 12.2643L16.927 12.3067L16.9905 12.349L17.0541 12.3914L17.0964 12.4337L17.1388 12.4761L17.1811 12.5185L17.2235 12.5608L17.2659 12.6032L17.3082 12.6456L17.3506 12.6879L17.393 12.7303L17.4353 12.7726C17.4353 12.7726 17.4777 12.815 17.52 12.8574C17.5412 12.8786 17.5836 12.8997 17.6048 12.8997C17.6471 12.9209 17.6895 12.9209 17.7107 12.9421C17.753 12.9421 17.7954 12.9633 17.8378 12.9633C17.8801 12.9633 17.9225 12.9633 17.9649 12.9421C18.0072 12.9421 18.0496 12.9209 18.0708 12.8997C18.1131 12.8786 18.1343 12.8574 18.1767 12.8362C18.219 12.815 18.2402 12.7938 18.2614 12.7726C18.2826 12.7515 18.3038 12.7091 18.3249 12.6879C18.3461 12.6667 18.3673 12.6244 18.3885 12.582C18.4097 12.5396 18.4097 12.5185 18.4309 12.4761C18.4309 12.4337 18.452 12.3914 18.452 12.349C18.452 11.9466 18.4309 11.417 18.8968 11.2688C19.1722 11.184 19.4899 11.2264 19.7653 11.2264H22.4342H23.8533C24.2769 11.2264 24.8912 11.1205 25.0818 11.6288C25.2089 12.0101 25.1242 12.7938 25.1242 13.1963V18.8517V32.069V38.9953C25.1242 41.2829 25.2089 43.6129 24.9547 45.8793C24.2346 52.2337 21.0574 57.635 14.3216 58.8212C10.2548 59.5414 6.18795 58.0798 3.05309 55.4957C2.67183 55.178 1.86693 54.6484 1.90929 54.0977C1.93048 53.9071 2.0152 53.7376 2.14229 53.5894C2.14229 53.5894 4.74761 50.8358 4.93825 50.5816C5.12888 50.3698 5.38306 50.0732 5.6796 50.0732C6.08205 50.0732 6.52686 50.4545 7.26821 50.8993C8.5391 51.6407 9.89471 52.3185 11.3562 52.5515C12.267 52.6786 13.2626 52.5515 14.1522 52.2761C17.5624 51.1747 18.5156 46.8537 18.7062 43.4858V43.4223C18.7062 43.4011 18.7062 43.3799 18.7062 43.3587C18.7062 43.3375 18.7062 43.3164 18.7062 43.2952C18.7062 43.274 18.685 43.2528 18.685 43.2316C18.685 43.2104 18.6638 43.1893 18.6638 43.1681C18.6638 43.1469 18.6427 43.1257 18.6427 43.1257C18.6427 43.1045 18.6215 43.1045 18.6215 43.0834C18.6215 43.0622 18.6003 43.0622 18.5791 43.041C18.5579 43.041 18.5579 43.0198 18.5368 42.9986C18.5156 42.9774 18.5156 42.9774 18.4944 42.9563C18.4732 42.9563 18.4732 42.9351 18.452 42.9139C18.4309 42.9139 18.4309 42.8927 18.4097 42.8927C18.3885 42.8927 18.3673 42.8715 18.3673 42.8715C18.3461 42.8715 18.3249 42.8504 18.3038 42.8504C18.2826 42.8504 18.2614 42.8504 18.2402 42.8292C18.219 42.8292 18.1979 42.8292 18.1767 42.8292C18.1555 42.8292 18.1343 42.8292 18.1131 42.8292C18.0919 42.8292 18.0708 42.8292 18.0496 42.8292C18.0284 42.8292 18.0072 42.8292 17.986 42.8292C17.9649 42.8292 17.9437 42.8292 17.9225 42.8504C17.9013 42.8504 17.8801 42.8715 17.8801 42.8715C17.7954 42.9563 17.7319 42.9774 17.7107 42.9986Z" fill="#D40E14"/>
<path d="M71.1517 44.1418V39.6937C71.1517 39.4395 71.0881 39.2488 70.9399 39.1218C70.8128 38.9947 70.6221 38.9523 70.4103 38.9523H58.1886C57.8921 38.9523 57.6803 38.8888 57.5532 38.804C57.4473 38.6981 57.3625 38.571 57.3625 38.3804C57.3625 38.211 57.4261 37.978 57.5108 37.8509L70.9187 12.5602C70.9611 12.4755 70.9822 12.3907 71.0246 12.306C71.0458 12.2213 71.067 12.1154 71.067 12.0518C71.0458 11.6706 70.7916 11.4799 70.2621 11.4587H48.2969C47.7885 11.4376 47.5555 11.6917 47.5555 12.2001V16.6482C47.5343 17.1566 47.7885 17.4107 48.2969 17.3896H59.756C60.0102 17.3896 60.222 17.4319 60.3703 17.5378C60.5186 17.6437 60.5609 17.792 60.5821 17.9826C60.5821 18.0674 60.5609 18.1521 60.5398 18.2368C60.5186 18.3427 60.4762 18.4274 60.4339 18.491L46.8989 43.7817C46.8565 43.8664 46.8353 43.9511 46.793 44.0359C46.7718 44.1418 46.7506 44.2265 46.7506 44.29C46.7718 44.6713 47.026 44.8619 47.5767 44.8831H70.4315C70.6857 44.8831 70.8763 44.8196 71.0034 44.7137C71.0881 44.5866 71.1517 44.396 71.1517 44.1418Z" fill="#D40E14"/>
<path d="M33.1944 7.15941C33.2156 7.41359 33.2791 7.58304 33.4062 7.71013C33.5545 7.8584 33.7663 7.92195 34.084 7.94313H38.7016C38.9981 7.94313 39.2311 7.8584 39.3794 7.71013C39.5065 7.58304 39.5912 7.39241 39.5912 7.15941V7.03233V1.90641C39.5912 1.60987 39.5065 1.35569 39.3582 1.2286C39.2099 1.08033 38.9981 1.01679 38.6804 0.995605H38.3203C38.0238 0.995605 37.7908 1.05914 37.5366 1.3345L33.6604 5.65553L33.4698 5.86735C33.2579 6.10034 33.1732 6.31216 33.1732 6.56633V7.01115C33.1732 7.07469 33.1944 7.15941 33.1944 7.15941Z" fill="#D40E14"/>
<path d="M39.5488 12.2217C39.5488 11.9675 39.4853 11.7557 39.3582 11.6286C39.2311 11.5015 39.0193 11.438 38.744 11.438H33.9358C33.6604 11.438 33.4486 11.5227 33.3215 11.671C33.1944 11.8193 33.1309 11.9887 33.1309 12.2217V12.3488V30.4166V44.0787C33.1309 44.3328 33.1944 44.5447 33.3215 44.6717C33.4486 44.7988 33.6604 44.8624 33.9358 44.8624H38.744C39.0193 44.8624 39.2311 44.7776 39.3582 44.6294C39.4853 44.4811 39.5488 44.3116 39.5488 44.0787V12.2217Z" fill="#D40E14"/>
<path d="M87.9059 44.2907C87.8423 44.206 87.7152 44.1424 87.567 44.1424H84.6227L87.9482 37.7456C88.0118 37.6397 88.033 37.5338 88.033 37.4491C88.033 37.3008 87.9906 37.1949 87.8847 37.089C87.7788 36.9831 87.6517 36.9407 87.5034 36.9407H84.1567C84.0085 36.9407 83.8814 36.9831 83.8178 37.089C83.7543 37.1737 83.7119 37.2796 83.7119 37.3855C83.7119 37.4914 83.7543 37.5973 83.8178 37.6821C83.8814 37.7668 84.0085 37.8303 84.1567 37.8303H86.9315L83.606 44.206C83.5637 44.2907 83.5425 44.3966 83.5425 44.4813C83.5425 44.6296 83.5848 44.7567 83.6696 44.8626C83.7543 44.9685 83.8814 45.032 84.0508 45.032H87.5881C87.7364 45.032 87.8423 44.9897 87.927 44.8838C87.9906 44.799 88.033 44.6931 88.033 44.5872C88.0118 44.5025 87.9694 44.3966 87.9059 44.2907ZM93.6461 39.779C93.6461 39.6308 93.6037 39.5249 93.4978 39.4401C93.4131 39.3554 93.3071 39.3342 93.2012 39.3342C93.0953 39.3342 92.9894 39.3766 92.9047 39.4401C92.82 39.5037 92.7564 39.6308 92.7564 39.779V43.2316C92.7564 43.507 92.6505 43.74 92.4599 43.9306C92.2692 44.1212 92.0363 44.2271 91.7397 44.2271H91.6338C91.3584 44.2271 91.1255 44.1212 90.9348 43.9306C90.7442 43.74 90.6383 43.507 90.6383 43.2316V39.779C90.6383 39.6308 90.5959 39.5249 90.49 39.4401C90.4053 39.3554 90.2994 39.3342 90.1935 39.3342C90.0876 39.3342 89.9817 39.3766 89.8969 39.4401C89.8122 39.5037 89.7487 39.6308 89.7487 39.779V43.2316C89.7487 43.5705 89.791 43.8459 89.8969 44.0789C90.0028 44.3119 90.1299 44.5025 90.2994 44.6508C90.4688 44.799 90.6806 44.9261 90.8925 44.9897C91.1255 45.0744 91.3584 45.0956 91.6126 45.0956H91.7185C91.9303 45.0956 92.0998 45.0744 92.2904 45.0109C92.4599 44.9473 92.6082 44.8626 92.7141 44.7567C92.7352 44.8838 92.7988 44.9685 92.8835 45.0109C92.9682 45.0744 93.053 45.0956 93.1589 45.0956C93.2648 45.0956 93.3707 45.0532 93.4554 44.9897C93.5401 44.9261 93.6037 44.799 93.6037 44.672V39.779H93.6461ZM99.6404 43.4222C99.6404 43.041 99.5557 42.7444 99.4074 42.5326C99.2591 42.3208 99.0685 42.1514 98.8355 42.0243C98.6237 41.8972 98.3695 41.8124 98.1153 41.7489C97.84 41.6854 97.607 41.6218 97.374 41.5795C97.1622 41.5159 96.9715 41.4524 96.8021 41.3465C96.6538 41.2406 96.5691 41.0923 96.5691 40.9016V40.8593C96.5691 40.6898 96.675 40.5416 96.8444 40.4145C97.0139 40.2874 97.2681 40.2238 97.5858 40.2238H97.6282C97.9035 40.2238 98.0942 40.2662 98.2424 40.3298C98.3907 40.4145 98.5178 40.478 98.6449 40.5416C98.7296 40.5839 98.8143 40.6051 98.8991 40.6051C99.0261 40.6051 99.1321 40.5627 99.1956 40.478C99.2803 40.3933 99.3227 40.2874 99.3227 40.1815C99.3227 40.0332 99.2591 39.9273 99.1532 39.8426C99.1109 39.8002 99.0473 39.7579 98.9414 39.6943C98.8567 39.6308 98.7508 39.5884 98.6025 39.5248C98.4754 39.4825 98.3272 39.4189 98.1577 39.3978C97.9883 39.3554 97.7976 39.3342 97.607 39.3342H97.6282C97.4375 39.3342 97.2469 39.3554 97.0139 39.4189C96.8021 39.4613 96.5903 39.546 96.3996 39.6731C96.209 39.8002 96.0396 39.9485 95.9125 40.1391C95.7854 40.3297 95.7218 40.5627 95.7218 40.8381C95.7218 41.1982 95.8066 41.4947 95.9548 41.6854C96.1031 41.876 96.2937 42.0454 96.5056 42.1514C96.7385 42.2573 96.9715 42.342 97.2469 42.3843C97.5011 42.4267 97.7553 42.4903 97.9883 42.575C98.2001 42.6385 98.3907 42.7444 98.5602 42.8715C98.7084 42.9986 98.7931 43.1892 98.7931 43.4222V43.4646C98.7931 43.6552 98.6872 43.8459 98.4966 43.9941C98.306 44.1636 98.0306 44.2483 97.6705 44.2483H97.607C97.3952 44.2483 97.1622 44.1636 96.9292 44.0153C96.6962 43.8671 96.5055 43.6976 96.3573 43.507C96.2937 43.4222 96.2302 43.3799 96.1666 43.3375C96.1031 43.3163 96.0184 43.2952 95.9548 43.2952C95.8277 43.2952 95.7218 43.3375 95.6371 43.4222C95.5524 43.507 95.4888 43.6129 95.4888 43.74C95.4888 43.7611 95.51 43.8459 95.5524 43.9518C95.6371 44.1212 95.7642 44.2907 95.9125 44.439C96.0607 44.5872 96.2302 44.7143 96.3996 44.799C96.5691 44.9049 96.7597 44.9685 96.9715 45.032C97.1622 45.0956 97.3528 45.1168 97.5434 45.1168H97.607C97.84 45.1168 98.0942 45.0744 98.3272 45.0109C98.5601 44.9473 98.7932 44.8414 98.9838 44.6931C99.1744 44.566 99.3439 44.3966 99.4498 44.1848C99.5769 43.973 99.6192 43.74 99.6192 43.4646V43.4222H99.6404ZM105.825 44.3966C105.762 44.3119 105.677 44.2695 105.529 44.2271C105.317 44.1848 105.232 44.0577 105.232 43.8459V41.1346C105.232 40.8805 105.19 40.6475 105.084 40.4357C104.999 40.2238 104.872 40.0332 104.703 39.8638C104.533 39.6943 104.343 39.5672 104.11 39.4825C103.877 39.3978 103.644 39.3342 103.39 39.3342H103.305C103.157 39.3342 102.987 39.3554 102.818 39.3766C102.648 39.4189 102.5 39.4613 102.33 39.546C102.182 39.6308 102.034 39.7367 101.886 39.8849C101.737 40.0332 101.631 40.2027 101.547 40.4145C101.526 40.478 101.504 40.5416 101.504 40.6263C101.504 40.7534 101.547 40.8593 101.653 40.9228C101.737 40.9864 101.843 41.0287 101.949 41.0287C102.034 41.0287 102.097 41.0076 102.161 40.9864C102.225 40.944 102.288 40.8805 102.33 40.7957C102.436 40.6051 102.563 40.4568 102.712 40.3509C102.86 40.245 103.051 40.2027 103.284 40.2027H103.368C103.623 40.2027 103.856 40.2662 104.046 40.4145C104.237 40.5627 104.322 40.7957 104.322 41.1558C104.322 41.177 104.322 41.2194 104.322 41.2617C104.322 41.3041 104.3 41.3253 104.3 41.3465C104.258 41.41 104.152 41.4524 103.983 41.4947C103.813 41.5371 103.623 41.5583 103.411 41.6006C103.199 41.643 102.966 41.6854 102.712 41.7489C102.479 41.8124 102.246 41.8972 102.034 42.0243C101.822 42.1514 101.653 42.2996 101.526 42.5114C101.398 42.7021 101.335 42.9562 101.335 43.274V43.4222C101.335 43.6976 101.398 43.9306 101.504 44.1424C101.61 44.3542 101.759 44.5237 101.928 44.672C102.097 44.8202 102.309 44.9261 102.521 44.9897C102.754 45.0532 102.987 45.0956 103.22 45.0956H103.326C103.813 45.0956 104.237 44.9473 104.597 44.6296C104.682 44.7355 104.788 44.8414 104.893 44.9049C105.021 44.9897 105.19 45.032 105.381 45.0744C105.381 45.0744 105.423 45.0744 105.465 45.0744C105.614 45.0744 105.719 45.032 105.783 44.9473C105.847 44.8626 105.889 44.7567 105.889 44.6296C105.91 44.566 105.889 44.4813 105.825 44.3966ZM104.343 43.2316C104.343 43.507 104.237 43.74 104.046 43.9306C103.856 44.1212 103.601 44.2271 103.347 44.2271H103.241C102.945 44.2271 102.712 44.1424 102.521 43.9941C102.33 43.8459 102.246 43.6552 102.246 43.4011V43.3163C102.246 43.1045 102.309 42.9562 102.458 42.8503C102.585 42.7444 102.775 42.6597 102.987 42.5962C103.199 42.5326 103.432 42.4903 103.665 42.4479C103.919 42.4055 104.152 42.3632 104.364 42.3208V43.2316H104.343ZM114.616 41.1982C114.616 40.8805 114.573 40.6051 114.467 40.3509C114.362 40.1179 114.234 39.9273 114.044 39.7578C113.874 39.6096 113.663 39.4825 113.43 39.4189C113.197 39.3342 112.964 39.313 112.709 39.313H112.603C112.307 39.313 112.032 39.3766 111.799 39.4825C111.544 39.6096 111.333 39.7578 111.163 39.9697C110.994 39.7578 110.761 39.6096 110.528 39.4825C110.274 39.3554 110.019 39.313 109.723 39.313H109.617C109.405 39.313 109.214 39.3342 109.045 39.3978C108.876 39.4613 108.727 39.546 108.6 39.6519C108.579 39.5249 108.515 39.4401 108.431 39.3978C108.346 39.3342 108.261 39.313 108.155 39.313C108.049 39.313 107.944 39.3554 107.838 39.4401C107.753 39.5249 107.689 39.6308 107.689 39.779V44.672C107.689 44.8202 107.732 44.9261 107.838 45.0109C107.922 45.0744 108.028 45.1168 108.134 45.1168C108.24 45.1168 108.346 45.0744 108.431 45.0109C108.515 44.9473 108.579 44.8202 108.579 44.672V41.1135C108.579 40.8381 108.685 40.6263 108.897 40.4568C109.109 40.2874 109.342 40.2027 109.596 40.2027H109.702C109.977 40.2027 110.21 40.2874 110.422 40.478C110.612 40.6686 110.718 40.9016 110.718 41.1982V44.6296C110.718 44.7779 110.761 44.9049 110.867 44.9685C110.951 45.0532 111.057 45.0744 111.163 45.0744C111.269 45.0744 111.375 45.032 111.46 44.9685C111.544 44.9049 111.608 44.7779 111.608 44.6296V41.1982C111.608 40.9016 111.714 40.6686 111.904 40.478C112.095 40.2874 112.328 40.1815 112.625 40.1815H112.731C113.027 40.1815 113.26 40.2662 113.451 40.4357C113.641 40.6051 113.726 40.8381 113.726 41.177V44.6508C113.726 44.799 113.768 44.905 113.874 44.9897C113.959 45.0532 114.065 45.0956 114.171 45.0956C114.277 45.0956 114.383 45.0532 114.467 44.9897C114.552 44.9261 114.616 44.799 114.616 44.6508V41.1982ZM123.597 41.1982C123.597 40.8805 123.554 40.6051 123.448 40.3509C123.342 40.1179 123.215 39.9273 123.025 39.7578C122.855 39.6096 122.643 39.4825 122.432 39.4189C122.199 39.3342 121.966 39.313 121.712 39.313H121.606C121.309 39.313 121.034 39.3766 120.801 39.4825C120.547 39.6096 120.335 39.7578 120.165 39.9697C119.996 39.7578 119.784 39.6096 119.53 39.4825C119.297 39.3554 119.021 39.313 118.725 39.313H118.598C118.386 39.313 118.195 39.3342 118.026 39.3978C117.856 39.4613 117.708 39.546 117.602 39.6519C117.581 39.5249 117.518 39.4401 117.433 39.3978C117.348 39.3342 117.263 39.313 117.179 39.313C117.052 39.313 116.946 39.3554 116.861 39.4401C116.776 39.5249 116.713 39.6308 116.713 39.779V44.672C116.713 44.8202 116.755 44.9261 116.861 45.0109C116.946 45.0744 117.052 45.1168 117.157 45.1168C117.263 45.1168 117.369 45.0744 117.454 45.0109C117.539 44.9473 117.602 44.8202 117.602 44.672V41.1135C117.602 40.8381 117.708 40.6263 117.899 40.4568C118.089 40.2874 118.344 40.2027 118.598 40.2027H118.704C118.979 40.2027 119.233 40.2874 119.424 40.478C119.615 40.6686 119.72 40.9016 119.72 41.1982V44.6296C119.72 44.7779 119.763 44.9049 119.869 44.9685C119.953 45.0532 120.059 45.0744 120.165 45.0744C120.271 45.0744 120.377 45.032 120.462 44.9685C120.547 44.9049 120.61 44.7779 120.61 44.6296V41.1982C120.61 40.9016 120.716 40.6686 120.907 40.478C121.097 40.2874 121.33 40.1815 121.627 40.1815H121.733C122.029 40.1815 122.262 40.2662 122.453 40.4357C122.643 40.6051 122.728 40.8381 122.728 41.177V44.6508C122.728 44.799 122.771 44.905 122.876 44.9897C122.961 45.0532 123.067 45.0956 123.173 45.0956C123.279 45.0956 123.385 45.0532 123.47 44.9897C123.554 44.9261 123.618 44.799 123.618 44.6508V41.1982H123.597ZM129.464 41.2194C129.464 40.944 129.422 40.6898 129.316 40.4568C129.21 40.2238 129.083 40.0332 128.913 39.8426C128.744 39.6731 128.532 39.546 128.32 39.4401C128.087 39.3554 127.854 39.2919 127.579 39.2919H127.452C127.198 39.2919 126.943 39.3342 126.732 39.4401C126.499 39.546 126.308 39.6731 126.117 39.8426C125.948 40.012 125.821 40.2238 125.715 40.4357C125.63 40.6687 125.567 40.9017 125.567 41.177V43.1893C125.567 43.4646 125.609 43.6976 125.715 43.9306C125.821 44.1636 125.948 44.3542 126.117 44.5237C126.287 44.6931 126.499 44.8202 126.732 44.9261C126.965 45.032 127.198 45.0744 127.452 45.0744H127.579C127.981 45.0744 128.32 44.9685 128.638 44.7567C128.934 44.5449 129.167 44.2907 129.294 43.9518C129.316 43.8882 129.337 43.8247 129.337 43.7611C129.337 43.6341 129.294 43.5282 129.189 43.4222C129.104 43.3375 128.998 43.2952 128.871 43.2952C128.786 43.2952 128.723 43.3163 128.659 43.3587C128.595 43.4011 128.532 43.4646 128.49 43.5705C128.405 43.74 128.299 43.8671 128.151 43.9941C128.002 44.1212 127.812 44.1636 127.579 44.1636H127.452C127.176 44.1636 126.943 44.0577 126.753 43.867C126.562 43.6764 126.456 43.4434 126.456 43.1681V42.575H129.019C129.146 42.575 129.252 42.5326 129.337 42.4479C129.422 42.3632 129.464 42.2573 129.464 42.1302V41.2194ZM128.574 41.8125H126.456V41.2194C126.456 40.944 126.562 40.6898 126.753 40.4992C126.965 40.3086 127.198 40.2027 127.473 40.2027H127.6C127.854 40.2027 128.087 40.3086 128.278 40.4992C128.468 40.6898 128.574 40.944 128.574 41.2194V41.8125ZM135.289 41.2194C135.289 40.9016 135.246 40.6263 135.141 40.3721C135.035 40.1391 134.908 39.9273 134.738 39.779C134.569 39.6308 134.357 39.5037 134.145 39.4401C133.912 39.3554 133.679 39.3342 133.425 39.3342H133.319C133.128 39.3342 132.938 39.3554 132.747 39.4189C132.578 39.4825 132.429 39.5672 132.323 39.6731C132.302 39.546 132.239 39.4613 132.154 39.4189C132.069 39.3554 131.963 39.3342 131.879 39.3342C131.752 39.3342 131.646 39.3766 131.561 39.4613C131.476 39.546 131.413 39.6519 131.413 39.8002V44.6931C131.413 44.8414 131.455 44.9473 131.561 45.032C131.646 45.0956 131.752 45.1379 131.857 45.1379C131.963 45.1379 132.069 45.0956 132.154 45.032C132.239 44.9685 132.302 44.8414 132.302 44.6931V41.2406C132.302 40.9652 132.408 40.7322 132.599 40.5416C132.789 40.3509 133.022 40.245 133.298 40.245H133.404C133.679 40.245 133.933 40.3509 134.124 40.5416C134.314 40.7322 134.42 40.9652 134.42 41.2406V44.6931C134.42 44.8414 134.463 44.9473 134.569 45.032C134.653 45.0956 134.759 45.1379 134.886 45.1379C134.992 45.1379 135.098 45.0956 135.183 45.032C135.268 44.9685 135.31 44.8414 135.31 44.6931V41.2194H135.289ZM141.601 44.3966C141.537 44.3119 141.453 44.2695 141.326 44.2271C141.114 44.1848 141.029 44.0577 141.029 43.8459V41.1346C141.029 40.8805 140.987 40.6475 140.881 40.4357C140.796 40.2238 140.669 40.0332 140.499 39.8638C140.33 39.6943 140.139 39.5672 139.906 39.4825C139.673 39.3978 139.44 39.3342 139.186 39.3342H139.102C138.953 39.3342 138.784 39.3554 138.614 39.3766C138.445 39.4189 138.297 39.4613 138.127 39.546C137.979 39.6308 137.831 39.7367 137.682 39.8849C137.555 40.0332 137.428 40.2027 137.343 40.4145C137.322 40.478 137.301 40.5416 137.301 40.6263C137.301 40.7534 137.343 40.8593 137.449 40.9228C137.534 40.9864 137.64 41.0287 137.746 41.0287C137.831 41.0287 137.894 41.0076 137.979 40.9864C138.042 40.944 138.106 40.8805 138.148 40.7957C138.254 40.6051 138.381 40.4568 138.53 40.3509C138.678 40.245 138.869 40.2027 139.102 40.2027H139.186C139.44 40.2027 139.673 40.2662 139.864 40.4145C140.055 40.5627 140.139 40.7957 140.139 41.1558C140.139 41.177 140.139 41.2194 140.139 41.2617C140.139 41.3041 140.139 41.3253 140.118 41.3465C140.076 41.41 139.97 41.4524 139.8 41.4947C139.631 41.5371 139.44 41.5583 139.229 41.6006C139.017 41.643 138.784 41.6854 138.53 41.7489C138.297 41.8124 138.064 41.8972 137.852 42.0243C137.64 42.1514 137.492 42.2996 137.343 42.5114C137.216 42.7021 137.153 42.9562 137.153 43.274V43.4222C137.153 43.6976 137.216 43.9306 137.322 44.1424C137.428 44.3542 137.576 44.5237 137.746 44.672C137.915 44.8202 138.127 44.9261 138.36 44.9897C138.572 45.0532 138.826 45.0956 139.059 45.0956H139.165C139.652 45.0956 140.076 44.9473 140.436 44.6296C140.521 44.7355 140.605 44.8414 140.732 44.9049C140.86 44.9897 141.029 45.032 141.22 45.0744C141.22 45.0744 141.262 45.0744 141.304 45.0744C141.453 45.0744 141.559 45.032 141.622 44.9473C141.686 44.8626 141.728 44.7567 141.728 44.6296C141.686 44.566 141.643 44.4813 141.601 44.3966ZM140.118 43.2316C140.118 43.507 140.012 43.74 139.822 43.9306C139.631 44.1212 139.377 44.2271 139.123 44.2271H139.017C138.72 44.2271 138.487 44.1424 138.297 43.9941C138.106 43.8459 138.021 43.6552 138.021 43.4011V43.3163C138.021 43.1045 138.085 42.9562 138.233 42.8503C138.36 42.7444 138.551 42.6597 138.763 42.5962C138.974 42.5326 139.207 42.4903 139.44 42.4479C139.695 42.4055 139.928 42.3632 140.139 42.3208V43.2316H140.118ZM146.367 39.9061C146.218 39.6943 146.049 39.546 145.816 39.4613C145.583 39.3766 145.371 39.3342 145.138 39.3342C144.99 39.3342 144.863 39.3342 144.757 39.3766C144.651 39.3978 144.566 39.4189 144.503 39.4613C144.418 39.4825 144.355 39.5249 144.312 39.5884C144.27 39.5037 144.206 39.4401 144.143 39.3978C144.079 39.3554 143.994 39.3554 143.91 39.3554C143.804 39.3554 143.698 39.3978 143.592 39.4825C143.486 39.5672 143.444 39.6731 143.444 39.8214V44.6931C143.444 44.8414 143.486 44.9685 143.592 45.032C143.698 45.1168 143.783 45.1379 143.91 45.1379C144.016 45.1379 144.122 45.0956 144.206 45.032C144.312 44.9685 144.355 44.8414 144.355 44.6931V41.0499C144.355 40.9652 144.355 40.8593 144.376 40.7746C144.397 40.6898 144.418 40.6051 144.482 40.5204C144.545 40.4357 144.609 40.3933 144.715 40.3298C144.821 40.2874 144.948 40.2662 145.138 40.2662C145.286 40.2662 145.392 40.2874 145.477 40.3509C145.562 40.4145 145.625 40.4568 145.668 40.5204C145.774 40.6263 145.901 40.6898 146.028 40.6898C146.155 40.6898 146.24 40.6475 146.346 40.5627C146.43 40.478 146.473 40.3721 146.473 40.2662C146.473 40.1179 146.43 40.012 146.367 39.9061ZM152.17 41.2194C152.17 40.9652 152.128 40.711 152.022 40.478C151.916 40.245 151.789 40.0544 151.62 39.8849C151.45 39.7155 151.26 39.5672 151.027 39.4825C150.794 39.3766 150.54 39.3342 150.285 39.3342H150.201C149.989 39.3342 149.798 39.3554 149.608 39.4401C149.417 39.5037 149.269 39.6096 149.184 39.7367V37.3432C149.184 37.1949 149.142 37.089 149.036 37.0043C148.951 36.9407 148.845 36.8983 148.739 36.8983C148.633 36.8983 148.527 36.9407 148.443 37.0043C148.358 37.089 148.294 37.1949 148.294 37.3432V44.6931C148.294 44.8414 148.337 44.9473 148.443 45.0109C148.527 45.0744 148.633 45.1168 148.739 45.1168C148.845 45.1168 148.93 45.0956 149.014 45.032C149.099 44.9685 149.163 44.8838 149.163 44.7779C149.247 44.8626 149.375 44.9473 149.544 45.0109C149.713 45.0744 149.925 45.1168 150.179 45.1168H150.285C150.54 45.1168 150.794 45.0744 151.027 44.9685C151.26 44.8626 151.45 44.7355 151.62 44.566C151.789 44.3966 151.937 44.206 152.022 43.973C152.128 43.74 152.17 43.507 152.17 43.2316V41.2194ZM151.281 43.2316C151.281 43.507 151.175 43.74 150.984 43.9306C150.794 44.1212 150.561 44.2271 150.264 44.2271H150.158C149.883 44.2271 149.65 44.1424 149.459 43.973C149.247 43.8035 149.163 43.5917 149.163 43.2952V41.1135C149.163 40.8381 149.247 40.6263 149.459 40.4568C149.65 40.2874 149.883 40.2027 150.158 40.2027H150.264C150.54 40.2027 150.794 40.3086 150.984 40.4992C151.175 40.6898 151.281 40.9228 151.281 41.1982V43.2316ZM157.974 41.2194C157.974 40.944 157.932 40.6898 157.826 40.4568C157.72 40.2238 157.593 40.0332 157.423 39.8426C157.254 39.6731 157.042 39.546 156.809 39.4401C156.576 39.3554 156.343 39.2919 156.068 39.2919H155.941C155.687 39.2919 155.432 39.3342 155.221 39.4401C154.988 39.546 154.797 39.6731 154.628 39.8426C154.458 40.012 154.31 40.2238 154.225 40.4357C154.119 40.6687 154.077 40.9017 154.077 41.177V43.1893C154.077 43.4646 154.119 43.6976 154.225 43.9306C154.331 44.1636 154.458 44.3542 154.628 44.5237C154.797 44.6931 155.009 44.8202 155.221 44.9261C155.454 45.032 155.687 45.0744 155.941 45.0744H156.068C156.47 45.0744 156.809 44.9685 157.127 44.7567C157.423 44.5449 157.656 44.2907 157.784 43.9518C157.826 43.8882 157.826 43.8247 157.826 43.7611C157.826 43.6341 157.784 43.5282 157.678 43.4222C157.593 43.3375 157.487 43.2952 157.36 43.2952C157.275 43.2952 157.212 43.3163 157.127 43.3587C157.063 43.4011 157 43.4646 156.957 43.5705C156.873 43.74 156.767 43.8671 156.619 43.9941C156.47 44.1212 156.28 44.1636 156.047 44.1636H155.92C155.644 44.1636 155.411 44.0577 155.221 43.867C155.03 43.6764 154.924 43.4434 154.924 43.1681V42.575H157.487C157.614 42.575 157.72 42.5326 157.805 42.4479C157.889 42.3632 157.932 42.2573 157.932 42.1302V41.2194H157.974ZM157.085 41.8125H154.966V41.2194C154.966 40.944 155.072 40.6898 155.263 40.4992C155.454 40.3086 155.687 40.2027 155.983 40.2027H156.11C156.364 40.2027 156.597 40.3086 156.788 40.4992C156.979 40.6898 157.085 40.944 157.085 41.2194V41.8125ZM160.855 37.322C160.855 37.1737 160.813 37.0678 160.707 36.9831C160.622 36.9195 160.516 36.8772 160.41 36.8772C160.304 36.8772 160.198 36.9195 160.114 36.9831C160.029 37.0678 159.965 37.1737 159.965 37.322V37.5762C159.965 37.7244 160.008 37.8303 160.114 37.9151C160.198 37.9786 160.304 38.021 160.41 38.021C160.516 38.021 160.622 37.9786 160.707 37.9151C160.791 37.8303 160.855 37.7244 160.855 37.5762V37.322ZM160.855 39.779C160.855 39.6308 160.813 39.5249 160.707 39.4401C160.622 39.3554 160.516 39.3342 160.41 39.3342C160.304 39.3342 160.198 39.3766 160.114 39.4401C160.029 39.5037 159.965 39.6308 159.965 39.779V44.672C159.965 44.8202 160.008 44.9261 160.114 45.0109C160.198 45.0744 160.304 45.1168 160.41 45.1168C160.516 45.1168 160.622 45.0744 160.707 45.0109C160.791 44.9473 160.855 44.8202 160.855 44.672V39.779ZM165.494 44.3754C165.43 44.2907 165.324 44.2271 165.176 44.2271C164.985 44.206 164.837 44.1424 164.71 44.0365C164.583 43.9306 164.498 43.7611 164.498 43.5705V40.2662H165.134C165.282 40.2662 165.388 40.2238 165.472 40.1179C165.536 40.0332 165.578 39.9273 165.578 39.8214C165.578 39.7155 165.536 39.6096 165.472 39.5248C165.388 39.4401 165.282 39.3766 165.134 39.3766H164.498V37.3432C164.498 37.1949 164.456 37.089 164.35 37.0043C164.265 36.9407 164.159 36.8983 164.053 36.8983C163.947 36.8983 163.841 36.9407 163.757 37.0043C163.672 37.089 163.608 37.1949 163.608 37.3432V39.3766H163.206C163.058 39.3766 162.952 39.4189 162.867 39.5248C162.782 39.6096 162.761 39.7155 162.761 39.8214C162.761 39.9273 162.804 40.0332 162.867 40.1179C162.931 40.2027 163.058 40.2662 163.206 40.2662H163.608V43.5917C163.608 43.8035 163.651 43.9941 163.714 44.1848C163.799 44.3754 163.905 44.5449 164.053 44.672C164.202 44.8202 164.35 44.9261 164.54 44.9897C164.731 45.0744 164.922 45.1168 165.134 45.1168C165.282 45.1168 165.409 45.0744 165.472 44.9897C165.536 44.905 165.578 44.799 165.578 44.6931C165.6 44.566 165.557 44.4601 165.494 44.3754ZM172.123 44.9473C171.933 44.6508 171.763 44.3119 171.615 43.9306C171.467 43.5493 171.361 43.1257 171.276 42.6809C171.191 42.2361 171.149 41.7489 171.149 41.2617C171.149 40.7746 171.191 40.3086 171.276 39.8638C171.361 39.4189 171.467 38.9953 171.615 38.614C171.763 38.2328 171.912 37.8939 172.102 37.5762C172.293 37.2796 172.484 37.0254 172.674 36.8348C172.759 36.7501 172.801 36.6653 172.801 36.5594C172.801 36.4535 172.759 36.3476 172.653 36.2629C172.547 36.1782 172.441 36.1358 172.356 36.1358C172.251 36.1358 172.145 36.1782 172.06 36.2841C171.827 36.5383 171.594 36.8348 171.382 37.1949C171.17 37.555 170.98 37.9362 170.831 38.3811C170.683 38.8047 170.556 39.2707 170.45 39.7578C170.365 40.245 170.302 40.7534 170.302 41.3041C170.302 41.8336 170.344 42.3632 170.45 42.8715C170.535 43.3799 170.662 43.8459 170.831 44.2907C171.001 44.7143 171.17 45.1168 171.403 45.4769C171.615 45.8369 171.848 46.1335 172.102 46.3665C172.187 46.4512 172.293 46.5147 172.399 46.5147C172.526 46.5147 172.632 46.4724 172.717 46.3665C172.822 46.2817 172.865 46.197 172.865 46.0699C172.865 45.964 172.822 45.8793 172.717 45.7734C172.505 45.4768 172.314 45.2439 172.123 44.9473ZM178.796 41.0711C178.796 40.944 178.753 40.8593 178.647 40.7534C178.563 40.6687 178.457 40.6263 178.33 40.6263H176.656C176.508 40.6263 176.402 40.6687 176.317 40.7746C176.254 40.8593 176.211 40.9652 176.211 41.0711C176.211 41.177 176.254 41.2829 176.317 41.3676C176.402 41.4524 176.508 41.5159 176.656 41.5159H177.885V42.8715C177.885 43.0622 177.842 43.2316 177.779 43.4011C177.715 43.5705 177.609 43.6976 177.482 43.8247C177.355 43.9518 177.228 44.0365 177.059 44.1212C176.889 44.1848 176.72 44.2271 176.529 44.2271H176.423C176.233 44.2271 176.063 44.1848 175.894 44.1212C175.724 44.0577 175.597 43.9518 175.47 43.8247C175.343 43.6976 175.258 43.5705 175.174 43.4011C175.11 43.2316 175.068 43.0622 175.068 42.8927V39.1012C175.068 38.9318 175.11 38.7623 175.174 38.5929C175.237 38.4234 175.343 38.2963 175.47 38.1692C175.597 38.0421 175.724 37.9574 175.894 37.8727C176.063 37.8091 176.233 37.7668 176.423 37.7668H176.529C176.91 37.7668 177.228 37.8727 177.44 38.1057C177.652 38.3175 177.8 38.5929 177.864 38.9318C177.885 39.0589 177.948 39.1648 178.033 39.2283C178.118 39.2919 178.203 39.313 178.308 39.313C178.414 39.313 178.52 39.2707 178.605 39.2071C178.69 39.1224 178.753 39.0165 178.753 38.8894V38.8259C178.711 38.5505 178.626 38.2963 178.499 38.0633C178.372 37.8303 178.203 37.6185 178.012 37.4703C177.821 37.3008 177.588 37.1737 177.334 37.0678C177.08 36.9619 176.805 36.9195 176.529 36.9195H176.423C176.127 36.9195 175.83 36.9831 175.555 37.089C175.279 37.2161 175.046 37.3643 174.835 37.555C174.644 37.7456 174.475 37.9786 174.369 38.254C174.242 38.5293 174.199 38.8047 174.199 39.1224V42.9139C174.199 43.2316 174.263 43.507 174.369 43.7823C174.475 44.0577 174.644 44.2907 174.835 44.4813C175.025 44.672 175.279 44.8414 175.555 44.9473C175.83 45.0532 176.127 45.1168 176.423 45.1168H176.529C176.847 45.1168 177.122 45.0532 177.398 44.9473C177.673 44.8414 177.906 44.672 178.118 44.4813C178.308 44.2907 178.478 44.0577 178.584 43.7823C178.711 43.507 178.753 43.2316 178.753 42.9139V41.0711H178.796ZM182.036 37.322C182.036 37.1737 181.994 37.0678 181.888 36.9831C181.803 36.9195 181.697 36.8772 181.592 36.8772C181.486 36.8772 181.38 36.9195 181.295 36.9831C181.21 37.0678 181.147 37.1737 181.147 37.322V44.672C181.147 44.8202 181.189 44.9261 181.295 45.0109C181.38 45.0744 181.486 45.1168 181.592 45.1168C181.697 45.1168 181.803 45.0744 181.888 45.0109C181.973 44.9473 182.036 44.8202 182.036 44.672V37.322ZM188.539 44.2907C188.454 44.206 188.348 44.1424 188.2 44.1424H185.256L188.581 37.7456C188.645 37.6397 188.666 37.5338 188.666 37.4491C188.666 37.3008 188.624 37.1949 188.518 37.089C188.412 36.9831 188.285 36.9407 188.137 36.9407H184.79C184.642 36.9407 184.515 36.9831 184.451 37.089C184.388 37.1737 184.345 37.2796 184.345 37.3855C184.345 37.4914 184.388 37.5973 184.451 37.6821C184.515 37.7668 184.642 37.8303 184.79 37.8303H187.565L184.239 44.206C184.197 44.2907 184.176 44.3966 184.176 44.4813C184.176 44.6296 184.218 44.7567 184.303 44.8626C184.388 44.9685 184.515 45.032 184.684 45.032H188.221C188.37 45.032 188.476 44.9897 188.56 44.8838C188.624 44.799 188.666 44.6931 188.666 44.5872C188.666 44.5025 188.624 44.3966 188.539 44.2907ZM192.585 39.6943C192.5 39.2071 192.373 38.7411 192.225 38.2963C192.076 37.8515 191.886 37.4702 191.674 37.1102C191.462 36.7501 191.229 36.4535 190.975 36.2205C190.869 36.1358 190.784 36.0723 190.678 36.0723C190.594 36.0723 190.488 36.1146 190.382 36.1994C190.276 36.2841 190.234 36.39 190.234 36.4959C190.234 36.6018 190.276 36.6865 190.361 36.7713C190.573 36.9619 190.763 37.2161 190.933 37.5126C191.123 37.8091 191.271 38.1692 191.42 38.5505C191.568 38.9318 191.674 39.3554 191.759 39.8002C191.843 40.245 191.886 40.711 191.886 41.1982C191.886 41.7065 191.843 42.1725 191.759 42.6173C191.674 43.0622 191.568 43.4858 191.42 43.867C191.271 44.2483 191.123 44.5872 190.933 44.8838C190.742 45.1803 190.551 45.4345 190.34 45.6251C190.255 45.7098 190.212 45.8158 190.212 45.9005C190.212 46.0064 190.255 46.1123 190.361 46.197C190.467 46.2817 190.573 46.3453 190.678 46.3453C190.784 46.3453 190.869 46.3029 190.975 46.197C191.229 45.964 191.462 45.6675 191.674 45.3074C191.886 44.9473 192.076 44.566 192.246 44.1212C192.415 43.6764 192.542 43.2104 192.627 42.7021C192.712 42.1937 192.775 41.6854 192.775 41.1346C192.712 40.711 192.669 40.2027 192.585 39.6943ZM201.862 41.0711C201.862 40.944 201.82 40.8593 201.735 40.7534C201.65 40.6687 201.545 40.6263 201.417 40.6263H199.744C199.596 40.6263 199.49 40.6687 199.405 40.7746C199.342 40.8593 199.299 40.9652 199.299 41.0711C199.299 41.177 199.342 41.2829 199.405 41.3676C199.49 41.4524 199.596 41.5159 199.744 41.5159H200.973V42.8715C200.973 43.0622 200.93 43.2316 200.867 43.4011C200.803 43.5705 200.697 43.6976 200.57 43.8247C200.443 43.9518 200.316 44.0365 200.147 44.1212C199.977 44.1848 199.808 44.2271 199.617 44.2271H199.49C199.299 44.2271 199.13 44.1848 198.96 44.1212C198.791 44.0577 198.664 43.9518 198.537 43.8247C198.41 43.6976 198.325 43.5705 198.24 43.4011C198.177 43.2316 198.134 43.0622 198.134 42.8927V39.1012C198.134 38.9318 198.177 38.7623 198.24 38.5929C198.304 38.4234 198.41 38.2963 198.537 38.1692C198.664 38.0421 198.791 37.9574 198.96 37.8727C199.13 37.8091 199.299 37.7668 199.49 37.7668H199.617C199.998 37.7668 200.295 37.8727 200.528 38.1057C200.761 38.3175 200.888 38.5929 200.951 38.9318C200.973 39.0589 201.036 39.1648 201.121 39.2283C201.206 39.2919 201.29 39.313 201.396 39.313C201.502 39.313 201.608 39.2707 201.714 39.2071C201.799 39.1224 201.862 39.0165 201.862 38.8894V38.8259C201.82 38.5505 201.735 38.2963 201.608 38.0633C201.481 37.8303 201.312 37.6185 201.121 37.4703C200.93 37.3008 200.697 37.1737 200.443 37.0678C200.189 36.9619 199.914 36.9195 199.638 36.9195H199.511C199.215 36.9195 198.918 36.9831 198.643 37.089C198.367 37.2161 198.134 37.3643 197.944 37.555C197.753 37.7456 197.584 37.9786 197.478 38.254C197.351 38.5293 197.308 38.8047 197.308 39.1224V42.9139C197.308 43.2316 197.372 43.507 197.478 43.7823C197.584 44.0577 197.753 44.2907 197.944 44.4813C198.134 44.672 198.388 44.8414 198.643 44.9473C198.918 45.0532 199.215 45.1168 199.511 45.1168H199.638C199.935 45.1168 200.231 45.0532 200.507 44.9473C200.782 44.8414 201.015 44.672 201.227 44.4813C201.417 44.2907 201.587 44.0577 201.693 43.7823C201.82 43.507 201.862 43.2316 201.862 42.9139V41.0711ZM210.907 41.1982C210.907 40.8805 210.864 40.6051 210.758 40.3509C210.653 40.1179 210.525 39.9273 210.335 39.7578C210.165 39.6096 209.954 39.4825 209.721 39.4189C209.488 39.3342 209.255 39.313 209 39.313H208.895C208.598 39.313 208.323 39.3766 208.09 39.4825C207.835 39.6096 207.624 39.7578 207.454 39.9697C207.285 39.7578 207.073 39.6096 206.819 39.4825C206.565 39.3554 206.31 39.313 206.014 39.313H205.908C205.696 39.313 205.505 39.3342 205.336 39.3978C205.167 39.4613 205.018 39.546 204.912 39.6519C204.891 39.5249 204.828 39.4401 204.743 39.3978C204.658 39.3342 204.573 39.313 204.468 39.313C204.34 39.313 204.256 39.3554 204.15 39.4401C204.065 39.5249 204.002 39.6308 204.002 39.779V44.672C204.002 44.8202 204.044 44.9261 204.15 45.0109C204.235 45.0744 204.34 45.1168 204.446 45.1168C204.552 45.1168 204.658 45.0744 204.743 45.0109C204.828 44.9473 204.891 44.8202 204.891 44.672V41.1135C204.891 40.8381 204.997 40.6263 205.188 40.4568C205.4 40.2874 205.633 40.2027 205.887 40.2027H205.993C206.268 40.2027 206.522 40.2874 206.713 40.478C206.903 40.6686 207.009 40.9016 207.009 41.1982V44.6296C207.009 44.7779 207.052 44.9049 207.158 44.9685C207.242 45.0532 207.348 45.0744 207.454 45.0744C207.56 45.0744 207.666 45.032 207.751 44.9685C207.835 44.9049 207.899 44.7779 207.899 44.6296V41.1982C207.899 40.9016 208.005 40.6686 208.196 40.478C208.386 40.2874 208.619 40.1815 208.916 40.1815H209.022C209.318 40.1815 209.551 40.2662 209.742 40.4357C209.932 40.6051 210.017 40.8381 210.017 41.177V44.6508C210.017 44.799 210.059 44.905 210.165 44.9897C210.25 45.0532 210.356 45.0956 210.462 45.0956C210.568 45.0956 210.674 45.0532 210.758 44.9897C210.843 44.9261 210.907 44.799 210.907 44.6508V41.1982ZM216.965 41.2194C216.965 40.9652 216.922 40.711 216.816 40.478C216.71 40.245 216.583 40.0544 216.414 39.8849C216.244 39.7155 216.054 39.5672 215.821 39.4825C215.588 39.3766 215.334 39.3342 215.079 39.3342H214.995C214.783 39.3342 214.592 39.3554 214.402 39.4401C214.211 39.5037 214.063 39.6096 213.957 39.7367V37.3432C213.957 37.1949 213.915 37.089 213.809 37.0043C213.724 36.9407 213.618 36.8983 213.512 36.8983C213.406 36.8983 213.3 36.9407 213.215 37.0043C213.131 37.089 213.067 37.1949 213.067 37.3432V44.6931C213.067 44.8414 213.11 44.9473 213.215 45.0109C213.3 45.0744 213.406 45.1168 213.512 45.1168C213.618 45.1168 213.703 45.0956 213.787 45.032C213.872 44.9685 213.936 44.8838 213.936 44.7779C214.02 44.8626 214.148 44.9473 214.317 45.0109C214.486 45.0744 214.698 45.1168 214.952 45.1168H215.058C215.312 45.1168 215.567 45.0744 215.778 44.9685C216.011 44.8626 216.202 44.7355 216.393 44.566C216.562 44.3966 216.71 44.206 216.795 43.973C216.901 43.74 216.943 43.507 216.943 43.2316V41.2194H216.965ZM216.075 43.2316C216.075 43.507 215.969 43.74 215.778 43.9306C215.588 44.1212 215.355 44.2271 215.058 44.2271H214.952C214.677 44.2271 214.444 44.1424 214.253 43.973C214.063 43.8035 213.957 43.5917 213.957 43.2952V41.1135C213.957 40.8381 214.063 40.6263 214.253 40.4568C214.444 40.2874 214.677 40.2027 214.952 40.2027H215.058C215.334 40.2027 215.588 40.3086 215.778 40.4992C215.969 40.6898 216.075 40.9228 216.075 41.1982V43.2316ZM223.722 37.322C223.722 37.1737 223.679 37.0678 223.573 36.9831C223.489 36.9195 223.383 36.8772 223.277 36.8772C223.171 36.8772 223.065 36.9195 222.98 36.9831C222.895 37.0678 222.832 37.1737 222.832 37.322V40.4145H220.057V37.322C220.057 37.1737 220.015 37.0678 219.909 36.9831C219.824 36.9195 219.718 36.8772 219.612 36.8772C219.506 36.8772 219.401 36.9195 219.316 36.9831C219.231 37.0678 219.168 37.1737 219.168 37.322V44.672C219.168 44.8202 219.21 44.9261 219.316 45.0109C219.401 45.0744 219.506 45.1168 219.612 45.1168C219.718 45.1168 219.824 45.0744 219.909 45.0109C219.994 44.9473 220.057 44.8202 220.057 44.672V41.3041H222.832V44.672C222.832 44.8202 222.874 44.9473 222.98 45.0109C223.065 45.0744 223.171 45.1168 223.277 45.1168C223.383 45.1168 223.489 45.0744 223.573 45.0109C223.658 44.9473 223.722 44.8414 223.722 44.672V37.322Z" fill="#D40E14"/>
<path d="M86.1267 24.2108C86.0631 24.126 85.936 24.0625 85.7878 24.0625C85.576 24.0625 85.3641 24.1049 85.1735 24.1896C84.9829 24.2743 84.8346 24.3802 84.6863 24.5073C84.5381 24.6344 84.4533 24.8039 84.3686 24.9945C84.3051 25.1851 84.2627 25.3969 84.2627 25.6087V26.5407H84.0085C83.8603 26.5407 83.7544 26.5831 83.6696 26.689C83.6061 26.7737 83.5637 26.8796 83.5637 26.9855C83.5637 27.0914 83.6061 27.1974 83.6696 27.2821C83.7544 27.3668 83.8603 27.4304 84.0085 27.4304H84.2627V31.8573C84.2627 32.0056 84.3051 32.1115 84.411 32.1962C84.4957 32.2597 84.6016 32.3021 84.7075 32.3021C84.8134 32.3021 84.9193 32.2597 85.0041 32.1962C85.0888 32.1326 85.1523 32.0267 85.1523 31.8573V27.4304H85.7031C85.8513 27.4304 85.9572 27.388 86.042 27.2821C86.1055 27.1974 86.1479 27.0914 86.1479 26.9855C86.1479 26.8796 86.1055 26.7737 86.042 26.689C85.9784 26.6043 85.8513 26.5407 85.7031 26.5407H85.1523V25.6087C85.1523 25.4393 85.2159 25.2698 85.3218 25.1428C85.4277 25.0157 85.576 24.9521 85.7666 24.9521C85.9149 24.9521 86.0208 24.9098 86.1055 24.8039C86.1902 24.7191 86.2114 24.6132 86.2114 24.5073C86.2326 24.4014 86.2114 24.2955 86.1267 24.2108ZM91.3373 24.5073C91.3373 24.359 91.295 24.2531 91.189 24.1684C91.0831 24.0837 90.9984 24.0625 90.8713 24.0625C90.7654 24.0625 90.6595 24.1049 90.5748 24.1684C90.4901 24.232 90.4265 24.359 90.4265 24.5073V24.7615C90.4265 24.9098 90.4689 25.0157 90.5748 25.1004C90.6595 25.1851 90.7654 25.2063 90.8713 25.2063C90.9772 25.2063 91.0831 25.1639 91.1679 25.1004C91.2526 25.0368 91.3161 24.9098 91.3161 24.7615V24.5073H91.3373ZM89.1768 24.5073C89.1768 24.359 89.1345 24.2531 89.0285 24.1684C88.9438 24.0837 88.8379 24.0625 88.732 24.0625C88.6261 24.0625 88.5202 24.1049 88.4355 24.1684C88.3507 24.232 88.2872 24.359 88.2872 24.5073V24.7615C88.2872 24.9098 88.3295 25.0157 88.4355 25.1004C88.5202 25.1851 88.6261 25.2063 88.732 25.2063C88.8379 25.2063 88.9438 25.1639 89.0285 25.1004C89.1133 25.0368 89.1768 24.9098 89.1768 24.7615V24.5073ZM91.7821 26.9644C91.7821 26.8161 91.7398 26.7102 91.6339 26.6255C91.5491 26.5619 91.4432 26.5196 91.3373 26.5196C91.2314 26.5196 91.1255 26.5619 91.0408 26.6255C90.9561 26.7102 90.8925 26.8161 90.8925 26.9644V30.4169C90.8925 30.6923 90.7866 30.9253 90.596 31.1159C90.4053 31.3066 90.1723 31.4125 89.8758 31.4125H89.7699C89.4945 31.4125 89.2615 31.3066 89.0709 31.1159C88.8803 30.9253 88.7744 30.6923 88.7744 30.4169V26.9644C88.7744 26.8161 88.732 26.7102 88.6261 26.6255C88.5414 26.5619 88.4355 26.5196 88.3295 26.5196C88.2236 26.5196 88.1177 26.5619 88.033 26.6255C87.9483 26.7102 87.8847 26.8161 87.8847 26.9644V30.4169C87.8847 30.7558 87.9271 31.0312 88.033 31.2642C88.1389 31.4972 88.266 31.6878 88.4355 31.8361C88.6049 31.9844 88.8167 32.1115 89.0285 32.175C89.2615 32.2386 89.4945 32.2809 89.7487 32.2809H89.8546C90.0664 32.2809 90.2571 32.2597 90.4265 32.1962C90.6172 32.1326 90.7442 32.0479 90.8713 31.942C90.8925 32.0691 90.9561 32.1538 91.0408 32.1962C91.1255 32.2597 91.2102 32.2809 91.3161 32.2809C91.4221 32.2809 91.528 32.2386 91.6127 32.175C91.6974 32.0903 91.761 31.9844 91.761 31.8573V26.9644H91.7821ZM96.781 27.0914C96.6327 26.8796 96.4632 26.7314 96.2303 26.6466C95.9973 26.5619 95.7854 26.5196 95.5524 26.5196C95.4042 26.5196 95.2559 26.5407 95.1712 26.5619C95.0653 26.5831 94.9805 26.6043 94.917 26.6466C94.8323 26.6678 94.7687 26.7102 94.7264 26.7737C94.684 26.689 94.6416 26.6255 94.5569 26.5831C94.4934 26.5407 94.4086 26.5407 94.3451 26.5407C94.2392 26.5407 94.1333 26.5831 94.0274 26.6678C93.9215 26.7525 93.8791 26.8585 93.8791 26.9855V31.8573C93.8791 32.0056 93.9215 32.1326 94.0274 32.1962C94.1121 32.2597 94.218 32.3021 94.3239 32.3021C94.4298 32.3021 94.5357 32.2597 94.6205 32.1962C94.7052 32.1115 94.7687 32.0056 94.7687 31.8573V28.2141C94.7687 28.1293 94.7687 28.0234 94.7899 27.9387C94.8111 27.854 94.8323 27.7693 94.8958 27.6845C94.9594 27.621 95.0229 27.5574 95.1288 27.4939C95.2347 27.4515 95.3618 27.4304 95.5524 27.4304C95.7007 27.4304 95.8066 27.4515 95.8913 27.5151C95.9761 27.5786 96.0396 27.621 96.082 27.6634C96.1879 27.7693 96.315 27.8328 96.4421 27.8328C96.5692 27.8328 96.6539 27.7904 96.7386 27.7057C96.8233 27.621 96.8657 27.5151 96.8657 27.4092C96.8869 27.3033 96.8445 27.1974 96.781 27.0914ZM103.453 24.5073C103.453 24.359 103.411 24.2531 103.305 24.1684C103.22 24.0837 103.114 24.0625 102.987 24.0625C102.881 24.0625 102.775 24.1049 102.691 24.1684C102.606 24.232 102.542 24.359 102.542 24.5073V31.8573C102.542 32.0056 102.585 32.1115 102.691 32.1962C102.775 32.2597 102.881 32.3021 102.987 32.3021C103.093 32.3021 103.199 32.2597 103.305 32.1962C103.39 32.1326 103.453 32.0267 103.453 31.8573V24.5073ZM109.723 28.4047C109.723 28.087 109.68 27.8116 109.575 27.5574C109.469 27.3244 109.342 27.1126 109.172 26.9644C109.003 26.8161 108.812 26.689 108.579 26.6255C108.346 26.5619 108.113 26.5196 107.859 26.5196H107.753C107.541 26.5196 107.351 26.5407 107.181 26.6043C107.012 26.6678 106.863 26.7525 106.757 26.8585C106.736 26.7314 106.673 26.6466 106.588 26.6043C106.503 26.5407 106.419 26.5196 106.313 26.5196C106.186 26.5196 106.08 26.5619 105.995 26.6466C105.91 26.7314 105.847 26.8373 105.847 26.9644V31.8573C105.847 32.0056 105.889 32.1115 105.995 32.1962C106.08 32.2597 106.186 32.3021 106.291 32.3021C106.397 32.3021 106.503 32.2597 106.588 32.1962C106.673 32.1326 106.736 32.0267 106.736 31.8573V28.4047C106.736 28.1293 106.842 27.8963 107.033 27.7057C107.223 27.5151 107.456 27.4092 107.732 27.4092H107.838C108.113 27.4092 108.346 27.5151 108.558 27.7057C108.748 27.8963 108.854 28.1293 108.854 28.4047V31.8573C108.854 32.0056 108.897 32.1115 109.003 32.1962C109.109 32.2597 109.193 32.3021 109.32 32.3021C109.426 32.3021 109.532 32.2597 109.617 32.1962C109.702 32.1326 109.744 32.0267 109.744 31.8573V28.4047H109.723ZM114.107 31.5607C114.044 31.476 113.938 31.4125 113.79 31.4125C113.62 31.3913 113.451 31.3278 113.324 31.2218C113.197 31.1159 113.112 30.9465 113.112 30.7559V27.4515H113.747C113.896 27.4515 114.002 27.4092 114.086 27.3033C114.171 27.2185 114.192 27.1126 114.192 27.0067C114.192 26.9008 114.15 26.7949 114.086 26.7102C114.023 26.6255 113.896 26.5619 113.747 26.5619H113.112V24.5285C113.112 24.3802 113.07 24.2743 112.964 24.1896C112.879 24.1049 112.773 24.0837 112.667 24.0837C112.561 24.0837 112.455 24.126 112.371 24.1896C112.286 24.2531 112.222 24.3802 112.222 24.5285V26.5619H111.799C111.65 26.5619 111.544 26.6043 111.46 26.7102C111.396 26.7949 111.354 26.9008 111.354 27.0067C111.354 27.1126 111.396 27.2185 111.46 27.3033C111.523 27.388 111.65 27.4515 111.799 27.4515H112.222V30.777C112.222 30.9888 112.265 31.1795 112.349 31.3701C112.434 31.5607 112.54 31.7302 112.688 31.8573C112.837 32.0056 112.985 32.1115 113.175 32.1962C113.366 32.2809 113.557 32.3233 113.769 32.3233C113.917 32.3233 114.044 32.2809 114.107 32.1962C114.171 32.1115 114.213 32.0056 114.213 31.8996C114.213 31.7514 114.171 31.6455 114.107 31.5607ZM119.721 28.4259C119.721 28.1505 119.678 27.8963 119.572 27.6634C119.466 27.4304 119.339 27.2397 119.17 27.0703C119 26.9008 118.789 26.7737 118.556 26.6678C118.323 26.5831 118.09 26.5196 117.814 26.5196H117.708C117.454 26.5196 117.2 26.5619 116.967 26.6678C116.734 26.7737 116.543 26.9008 116.374 27.0703C116.204 27.2397 116.056 27.4515 115.971 27.6845C115.865 27.9175 115.823 28.1505 115.823 28.4259V30.4381C115.823 30.7135 115.865 30.9465 115.971 31.1795C116.077 31.4125 116.204 31.6031 116.374 31.7726C116.543 31.942 116.755 32.0691 116.967 32.175C117.2 32.2809 117.433 32.3233 117.708 32.3233H117.814C118.217 32.3233 118.556 32.2174 118.852 32.0056C119.149 31.7937 119.382 31.5396 119.53 31.2007C119.551 31.1371 119.572 31.0736 119.572 31.01C119.572 30.8829 119.53 30.777 119.424 30.6711C119.318 30.5652 119.233 30.544 119.106 30.544C119.022 30.544 118.958 30.5652 118.873 30.6076C118.81 30.6499 118.746 30.7135 118.704 30.8194C118.619 30.9888 118.513 31.1159 118.365 31.243C118.217 31.3701 118.026 31.4125 117.793 31.4125H117.687C117.412 31.4125 117.179 31.3066 116.988 31.1159C116.797 30.9253 116.692 30.6923 116.692 30.4169V29.8239H119.255C119.382 29.8239 119.488 29.7815 119.572 29.6968C119.657 29.6121 119.699 29.5061 119.699 29.3791V28.4259H119.721ZM118.831 28.9978H116.713V28.4047C116.713 28.1293 116.819 27.8752 117.009 27.6845C117.2 27.4939 117.454 27.388 117.708 27.388H117.835C118.09 27.388 118.323 27.4939 118.513 27.6845C118.725 27.8752 118.81 28.1293 118.81 28.4047V28.9978H118.831ZM124.529 27.0914C124.38 26.8796 124.211 26.7314 123.978 26.6466C123.766 26.5619 123.533 26.5196 123.3 26.5196C123.152 26.5196 123.025 26.5407 122.919 26.5619C122.813 26.5831 122.728 26.6043 122.665 26.6466C122.58 26.6678 122.516 26.7102 122.474 26.7737C122.432 26.689 122.368 26.6255 122.305 26.5831C122.241 26.5407 122.156 26.5407 122.072 26.5407C121.966 26.5407 121.86 26.5831 121.754 26.6678C121.648 26.7525 121.606 26.8585 121.606 26.9855V31.8573C121.606 32.0056 121.648 32.1326 121.733 32.1962C121.839 32.2597 121.923 32.3021 122.05 32.3021C122.156 32.3021 122.262 32.2597 122.347 32.1962C122.453 32.1115 122.495 32.0056 122.495 31.8573V28.2141C122.495 28.1293 122.495 28.0234 122.516 27.9387C122.538 27.854 122.559 27.7693 122.622 27.6845C122.686 27.621 122.749 27.5574 122.855 27.4939C122.961 27.4515 123.088 27.4304 123.279 27.4304C123.427 27.4304 123.533 27.4515 123.618 27.5151C123.703 27.5786 123.766 27.621 123.809 27.6634C123.914 27.7693 124.042 27.8328 124.169 27.8328C124.296 27.8328 124.38 27.7904 124.465 27.7057C124.55 27.621 124.592 27.5151 124.592 27.4092C124.635 27.3033 124.592 27.1974 124.529 27.0914ZM130.036 28.4047C130.036 28.087 129.994 27.8116 129.888 27.5574C129.782 27.3244 129.655 27.1126 129.485 26.9644C129.316 26.8161 129.104 26.689 128.892 26.6255C128.659 26.5619 128.426 26.5196 128.172 26.5196H128.066C127.854 26.5196 127.664 26.5407 127.494 26.6043C127.325 26.6678 127.176 26.7525 127.07 26.8585C127.049 26.7314 126.986 26.6466 126.901 26.6043C126.816 26.5407 126.71 26.5196 126.626 26.5196C126.499 26.5196 126.393 26.5619 126.308 26.6466C126.223 26.7314 126.16 26.8373 126.16 26.9644V31.8573C126.16 32.0056 126.202 32.1115 126.308 32.1962C126.393 32.2597 126.499 32.3021 126.626 32.3021C126.732 32.3021 126.837 32.2597 126.922 32.1962C127.007 32.1326 127.07 32.0267 127.07 31.8573V28.4047C127.07 28.1293 127.176 27.8963 127.367 27.7057C127.558 27.5151 127.791 27.4092 128.066 27.4092H128.172C128.447 27.4092 128.68 27.5151 128.892 27.7057C129.083 27.8963 129.189 28.1293 129.189 28.4047V31.8573C129.189 32.0056 129.231 32.1115 129.337 32.1962C129.422 32.2597 129.528 32.3021 129.633 32.3021C129.739 32.3021 129.845 32.2597 129.93 32.1962C130.015 32.1326 130.057 32.0267 130.057 31.8573V28.4047H130.036ZM136.369 31.5819C136.306 31.4972 136.221 31.4548 136.073 31.4337C135.861 31.3913 135.776 31.2642 135.776 31.0524V28.3412C135.776 28.087 135.734 27.854 135.628 27.6422C135.543 27.4304 135.416 27.2397 135.247 27.0703C135.077 26.9008 134.886 26.7737 134.653 26.689C134.42 26.6043 134.187 26.5407 133.933 26.5407H133.849C133.7 26.5407 133.531 26.5619 133.361 26.5831C133.192 26.6255 133.044 26.6678 132.874 26.7525C132.726 26.8373 132.578 26.9432 132.429 27.0914C132.281 27.2397 132.175 27.4092 132.09 27.621C132.069 27.6845 132.048 27.7481 132.048 27.8328C132.048 27.9599 132.09 28.0658 132.196 28.1293C132.281 28.1929 132.387 28.2352 132.493 28.2352C132.556 28.2352 132.641 28.2141 132.705 28.1929C132.768 28.1505 132.832 28.087 132.874 28.0023C132.98 27.8116 133.107 27.6634 133.234 27.5574C133.383 27.4515 133.573 27.4092 133.806 27.4092H133.891C134.145 27.4092 134.378 27.4727 134.569 27.621C134.759 27.7693 134.844 28.0023 134.844 28.3623C134.844 28.3835 134.844 28.4259 134.844 28.4682C134.844 28.5106 134.823 28.5318 134.823 28.553C134.781 28.6165 134.675 28.6589 134.505 28.7012C134.336 28.7436 134.145 28.7648 133.933 28.8072C133.721 28.8495 133.488 28.8919 133.234 28.9554C133.001 29.019 132.768 29.1037 132.556 29.2308C132.345 29.3579 132.196 29.5061 132.048 29.718C131.921 29.9086 131.836 30.1628 131.836 30.4805V30.6288C131.836 30.9041 131.9 31.1371 132.006 31.3489C132.112 31.5607 132.26 31.7302 132.429 31.8785C132.599 32.0267 132.811 32.1326 133.022 32.1962C133.255 32.2597 133.488 32.3021 133.721 32.3021H133.827C134.315 32.3021 134.738 32.1538 135.098 31.8361C135.183 31.942 135.289 32.0479 135.395 32.1115C135.522 32.1962 135.691 32.2386 135.882 32.2809C135.882 32.2809 135.924 32.3021 135.967 32.3021C136.115 32.3021 136.221 32.2597 136.284 32.175C136.348 32.0903 136.39 31.9844 136.39 31.8573C136.454 31.7514 136.412 31.6666 136.369 31.5819ZM134.886 30.4169C134.886 30.6923 134.781 30.9465 134.59 31.1371C134.399 31.3277 134.166 31.4337 133.891 31.4337H133.785C133.488 31.4337 133.255 31.3701 133.065 31.2218C132.874 31.0736 132.789 30.8829 132.789 30.6288V30.5017C132.789 30.2899 132.853 30.1416 133.001 30.0357C133.128 29.9298 133.319 29.845 133.531 29.7815C133.743 29.718 133.976 29.6756 134.209 29.6332C134.463 29.5909 134.696 29.5485 134.908 29.5061V30.4169H134.886ZM140.33 31.5607C140.267 31.476 140.161 31.4125 140.012 31.4125C139.843 31.3913 139.673 31.3278 139.546 31.2218C139.419 31.1159 139.335 30.9465 139.335 30.7559V27.4515H139.97C140.118 27.4515 140.224 27.4092 140.309 27.3033C140.372 27.2185 140.415 27.1126 140.415 27.0067C140.415 26.9008 140.372 26.7949 140.309 26.7102C140.224 26.6255 140.118 26.5619 139.97 26.5619H139.335V24.5285C139.335 24.3802 139.292 24.2743 139.186 24.1896C139.102 24.1049 138.996 24.0837 138.89 24.0837C138.784 24.0837 138.678 24.126 138.593 24.1896C138.508 24.2531 138.445 24.3802 138.445 24.5285V26.5619H138.042C137.894 26.5619 137.788 26.6043 137.704 26.7102C137.619 26.7949 137.598 26.9008 137.598 27.0067C137.598 27.1126 137.64 27.2185 137.704 27.3033C137.767 27.388 137.894 27.4515 138.042 27.4515H138.445V30.777C138.445 30.9888 138.487 31.1795 138.572 31.3701C138.657 31.5607 138.763 31.7302 138.911 31.8573C139.059 32.0056 139.207 32.1115 139.398 32.1962C139.589 32.2809 139.779 32.3233 139.991 32.3233C140.161 32.3233 140.267 32.2809 140.33 32.1962C140.394 32.1115 140.436 32.0056 140.436 31.8996C140.436 31.7514 140.394 31.6455 140.33 31.5607ZM143.211 24.5073C143.211 24.359 143.168 24.2531 143.063 24.1684C142.978 24.0837 142.872 24.0625 142.766 24.0625C142.66 24.0625 142.554 24.1049 142.469 24.1684C142.385 24.232 142.321 24.359 142.321 24.5073V24.7615C142.321 24.9098 142.364 25.0157 142.469 25.1004C142.554 25.1851 142.66 25.2063 142.766 25.2063C142.872 25.2063 142.978 25.1639 143.063 25.1004C143.147 25.0368 143.211 24.9098 143.211 24.7615V24.5073ZM143.211 26.9644C143.211 26.8161 143.168 26.7102 143.063 26.6255C142.978 26.5619 142.872 26.5196 142.766 26.5196C142.66 26.5196 142.554 26.5619 142.469 26.6255C142.385 26.7102 142.321 26.8161 142.321 26.9644V31.8573C142.321 32.0056 142.364 32.1115 142.469 32.1962C142.554 32.2597 142.66 32.3021 142.766 32.3021C142.872 32.3021 142.978 32.2597 143.063 32.1962C143.147 32.1326 143.211 32.0267 143.211 31.8573V26.9644ZM149.205 28.4047C149.205 28.1505 149.163 27.8963 149.057 27.6634C148.972 27.4304 148.824 27.2397 148.654 27.0491C148.485 26.8796 148.273 26.7525 148.04 26.6466C147.807 26.5407 147.553 26.4984 147.299 26.4984H147.193C146.939 26.4984 146.685 26.5407 146.452 26.6466C146.219 26.7525 146.028 26.8796 145.858 27.0491C145.689 27.2185 145.541 27.4304 145.456 27.6634C145.35 27.8963 145.308 28.1293 145.308 28.4047V30.4169C145.308 30.6923 145.35 30.9253 145.456 31.1583C145.562 31.3913 145.689 31.5819 145.858 31.7514C146.028 31.9208 146.24 32.0479 146.452 32.1538C146.685 32.2597 146.918 32.3021 147.193 32.3021H147.32C147.574 32.3021 147.828 32.2597 148.061 32.1538C148.294 32.0479 148.485 31.9208 148.676 31.7514C148.845 31.5819 148.972 31.3913 149.078 31.1583C149.184 30.9253 149.226 30.6923 149.226 30.4169V28.4047H149.205ZM148.316 30.4169C148.316 30.6923 148.21 30.9253 148.019 31.1159C147.828 31.3066 147.595 31.4125 147.32 31.4125H147.214C146.939 31.4125 146.685 31.3066 146.494 31.1159C146.303 30.9253 146.197 30.6923 146.197 30.4169V28.4047C146.197 28.1293 146.303 27.8963 146.494 27.7057C146.685 27.5151 146.918 27.4092 147.193 27.4092H147.32C147.595 27.4092 147.828 27.5151 148.019 27.7057C148.21 27.8963 148.316 28.1293 148.316 28.4047V30.4169ZM155.136 28.4047C155.136 28.087 155.094 27.8116 154.988 27.5574C154.882 27.3244 154.755 27.1126 154.585 26.9644C154.416 26.8161 154.225 26.689 153.992 26.6255C153.759 26.5619 153.526 26.5196 153.272 26.5196H153.166C152.954 26.5196 152.764 26.5407 152.594 26.6043C152.425 26.6678 152.276 26.7525 152.171 26.8585C152.149 26.7314 152.086 26.6466 152.001 26.6043C151.916 26.5407 151.832 26.5196 151.726 26.5196C151.599 26.5196 151.514 26.5619 151.408 26.6466C151.323 26.7314 151.26 26.8373 151.26 26.9644V31.8573C151.26 32.0056 151.302 32.1115 151.408 32.1962C151.493 32.2597 151.599 32.3021 151.705 32.3021C151.81 32.3021 151.916 32.2597 152.001 32.1962C152.086 32.1326 152.149 32.0267 152.149 31.8573V28.4047C152.149 28.1293 152.255 27.8963 152.446 27.7057C152.637 27.5151 152.87 27.4092 153.145 27.4092H153.251C153.526 27.4092 153.759 27.5151 153.95 27.7057C154.14 27.8963 154.246 28.1293 154.246 28.4047V31.8573C154.246 32.0056 154.289 32.1115 154.395 32.1962C154.501 32.2597 154.585 32.3021 154.712 32.3021C154.818 32.3021 154.924 32.2597 155.009 32.1962C155.094 32.1326 155.136 32.0267 155.136 31.8573V28.4047ZM161.448 31.5819C161.384 31.4972 161.3 31.4548 161.151 31.4337C160.94 31.3913 160.855 31.2642 160.855 31.0524V28.3412C160.855 28.087 160.813 27.854 160.707 27.6422C160.622 27.4304 160.474 27.2397 160.325 27.0703C160.156 26.9008 159.965 26.7737 159.732 26.689C159.499 26.6043 159.266 26.5407 159.012 26.5407H158.927C158.779 26.5407 158.61 26.5619 158.44 26.5831C158.271 26.6255 158.101 26.6678 157.953 26.7525C157.805 26.8373 157.657 26.9432 157.508 27.0914C157.36 27.2397 157.254 27.4092 157.169 27.621C157.148 27.6845 157.127 27.7481 157.127 27.8328C157.127 27.9599 157.169 28.0658 157.275 28.1293C157.36 28.1929 157.466 28.2352 157.572 28.2352C157.657 28.2352 157.72 28.2141 157.784 28.1929C157.847 28.1505 157.911 28.087 157.953 28.0023C158.059 27.8116 158.186 27.6634 158.334 27.5574C158.483 27.4515 158.673 27.4092 158.906 27.4092H158.991C159.245 27.4092 159.478 27.4727 159.669 27.621C159.859 27.7693 159.944 28.0023 159.944 28.3623C159.944 28.3835 159.944 28.4259 159.944 28.4682C159.944 28.5106 159.944 28.5318 159.923 28.553C159.881 28.6165 159.775 28.6589 159.605 28.7012C159.436 28.7436 159.245 28.7648 159.033 28.8072C158.822 28.8495 158.589 28.8919 158.334 28.9554C158.101 29.019 157.868 29.1037 157.657 29.2308C157.445 29.3579 157.275 29.5061 157.148 29.718C157.021 29.9086 156.958 30.1628 156.958 30.4805V30.6288C156.958 30.9041 157.021 31.1371 157.127 31.3489C157.233 31.5607 157.381 31.7302 157.551 31.8785C157.72 32.0267 157.932 32.1326 158.144 32.1962C158.377 32.2597 158.61 32.3021 158.843 32.3021H158.949C159.436 32.3021 159.859 32.1538 160.198 31.8361C160.283 31.942 160.389 32.0479 160.516 32.1115C160.643 32.1962 160.813 32.2386 161.003 32.2809C161.003 32.2809 161.046 32.3021 161.088 32.3021C161.236 32.3021 161.342 32.2597 161.406 32.175C161.469 32.0903 161.512 31.9844 161.512 31.8573C161.533 31.7514 161.512 31.6666 161.448 31.5819ZM159.965 30.4169C159.965 30.6923 159.859 30.9465 159.669 31.1371C159.478 31.3277 159.224 31.4337 158.97 31.4337H158.843C158.546 31.4337 158.313 31.3701 158.123 31.2218C157.932 31.0736 157.847 30.8829 157.847 30.6288V30.5017C157.847 30.2899 157.911 30.1416 158.059 30.0357C158.207 29.9298 158.377 29.845 158.589 29.7815C158.8 29.718 159.033 29.6756 159.266 29.6332C159.521 29.5909 159.754 29.5485 159.965 29.5061V30.4169ZM165.176 31.5396C165.112 31.4548 164.985 31.3913 164.837 31.3913C164.668 31.3913 164.498 31.3277 164.371 31.2007C164.244 31.0736 164.18 30.9253 164.18 30.7347V24.5073C164.18 24.359 164.138 24.2531 164.032 24.1684C163.947 24.0837 163.842 24.0625 163.736 24.0625C163.63 24.0625 163.524 24.1049 163.418 24.1684C163.333 24.232 163.291 24.359 163.291 24.5073V30.7559C163.291 30.9677 163.333 31.1583 163.418 31.3489C163.503 31.5396 163.609 31.709 163.757 31.8361C163.905 31.9844 164.053 32.0903 164.244 32.175C164.435 32.2597 164.625 32.3021 164.837 32.3021C164.985 32.3021 165.112 32.2597 165.176 32.175C165.24 32.0903 165.282 31.9844 165.282 31.8785C165.303 31.7514 165.261 31.6455 165.176 31.5396ZM170.81 28.4259C170.81 28.1505 170.768 27.8963 170.662 27.6634C170.556 27.4304 170.429 27.2397 170.26 27.0703C170.09 26.9008 169.878 26.7737 169.666 26.6678C169.433 26.5831 169.2 26.5196 168.946 26.5196H168.798C168.544 26.5196 168.29 26.5619 168.078 26.6678C167.845 26.7737 167.654 26.9008 167.464 27.0703C167.294 27.2397 167.167 27.4515 167.061 27.6845C166.955 27.9175 166.913 28.1505 166.913 28.4259V30.4381C166.913 30.7135 166.955 30.9465 167.061 31.1795C167.167 31.4125 167.294 31.6031 167.464 31.7726C167.633 31.942 167.845 32.0691 168.078 32.175C168.311 32.2809 168.544 32.3233 168.798 32.3233H168.925C169.328 32.3233 169.666 32.2174 169.984 32.0056C170.281 31.7937 170.514 31.5396 170.641 31.2007C170.662 31.1371 170.683 31.0736 170.683 31.01C170.683 30.8829 170.641 30.777 170.535 30.6711C170.45 30.5864 170.344 30.544 170.217 30.544C170.132 30.544 170.069 30.5652 169.984 30.6076C169.921 30.6499 169.857 30.7135 169.815 30.8194C169.73 30.9888 169.624 31.1159 169.476 31.243C169.328 31.3701 169.137 31.4125 168.904 31.4125H168.798C168.523 31.4125 168.29 31.3066 168.099 31.1159C167.908 30.9253 167.802 30.6923 167.802 30.4169V29.8239H170.365C170.493 29.8239 170.598 29.7815 170.683 29.6968C170.768 29.6121 170.81 29.5061 170.81 29.3791V28.4259ZM169.899 28.9978H167.781V28.4047C167.781 28.1293 167.887 27.8752 168.078 27.6845C168.268 27.4939 168.523 27.388 168.777 27.388H168.904C169.158 27.388 169.391 27.4939 169.582 27.6845C169.772 27.8752 169.878 28.1293 169.878 28.4047V28.9978H169.899Z" fill="#D40E14"/>
<path d="M88.6687 13.5352C88.6687 13.2386 88.6052 12.9421 88.4993 12.6667C88.3722 12.3914 88.2239 12.1584 88.0121 11.9677C87.8214 11.7771 87.5884 11.6076 87.3131 11.5017C87.0377 11.3746 86.7624 11.3323 86.4447 11.3323H84.5383C84.4324 11.3323 84.3265 11.3746 84.2206 11.4594C84.1359 11.5441 84.0935 11.65 84.0935 11.7771V18.9788C84.0935 19.0847 84.1359 19.1906 84.2206 19.2965C84.3053 19.3812 84.4112 19.4236 84.5383 19.4236H86.4447C86.7624 19.4236 87.0377 19.3601 87.3131 19.2542C87.5884 19.1271 87.8214 18.9788 88.0121 18.7882C88.2027 18.5975 88.3722 18.3434 88.4993 18.0892C88.6263 17.8138 88.6687 17.5173 88.6687 17.2207V13.5352ZM87.7791 17.1996C87.7791 17.3902 87.7367 17.5596 87.6732 17.7291C87.6096 17.8985 87.5037 18.0256 87.3978 18.1527C87.2919 18.2798 87.1436 18.3645 86.9742 18.4493C86.8047 18.5128 86.6353 18.5552 86.4447 18.5552H85.0043V12.2431H86.4658C86.6565 12.2431 86.8259 12.2854 86.9954 12.349C87.1648 12.4125 87.2919 12.5184 87.419 12.6455C87.5249 12.7726 87.6308 12.8997 87.6944 13.0692C87.7579 13.2386 87.8003 13.4081 87.8003 13.5987V17.1996H87.7791ZM94.6207 15.6109C94.6207 15.3356 94.5783 15.0814 94.4724 14.8484C94.3665 14.6154 94.2394 14.4248 94.07 14.2341C93.9005 14.0647 93.6887 13.9376 93.4769 13.8317C93.2439 13.747 92.9897 13.6834 92.7356 13.6834H92.6296C92.3755 13.6834 92.1213 13.7258 91.8883 13.8317C91.6553 13.9376 91.4647 14.0647 91.2952 14.2341C91.1258 14.4036 90.9775 14.6154 90.8928 14.8272C90.7869 15.0602 90.7445 15.2932 90.7445 15.5686V17.5808C90.7445 17.8562 90.7869 18.0892 90.8928 18.3222C90.9987 18.5552 91.1258 18.7458 91.2952 18.9153C91.4647 19.0847 91.6765 19.2118 91.8883 19.3177C92.1213 19.4236 92.3755 19.466 92.6296 19.466H92.7356C93.138 19.466 93.4769 19.3601 93.7946 19.1482C94.0912 18.9364 94.3242 18.6823 94.4512 18.3434C94.4724 18.2798 94.4936 18.2163 94.4936 18.1527C94.4936 18.0256 94.4512 17.9197 94.3453 17.8138C94.2606 17.7291 94.1547 17.6867 94.0276 17.6867C93.9429 17.6867 93.8793 17.7079 93.8158 17.7503C93.7523 17.7926 93.6887 17.8774 93.6464 17.9621C93.5616 18.1315 93.4557 18.2586 93.3074 18.3857C93.1592 18.5128 92.9686 18.5552 92.7356 18.5552H92.6296C92.3543 18.5552 92.1213 18.4493 91.9306 18.2586C91.74 18.068 91.6341 17.835 91.6341 17.5596V16.9666H94.1971C94.3242 16.9666 94.4301 16.9242 94.5148 16.8395C94.5995 16.7547 94.6419 16.6488 94.6419 16.5217V15.6109H94.6207ZM93.7311 16.204H91.6129V15.6109C91.6129 15.3356 91.7188 15.0814 91.9095 14.8908C92.1001 14.7001 92.3543 14.5942 92.6085 14.5942H92.7144C92.9685 14.5942 93.2015 14.7001 93.3922 14.8908C93.5828 15.0814 93.6887 15.3356 93.6887 15.6109V16.204H93.7311ZM100.382 14.1494C100.382 14.0011 100.34 13.8952 100.234 13.8105C100.149 13.7258 100.043 13.7046 99.9373 13.7046C99.8314 13.7046 99.7254 13.747 99.6407 13.8105C99.556 13.8741 99.4924 14.0011 99.4924 14.1494V17.602C99.4924 17.8774 99.3865 18.1104 99.1959 18.301C99.0053 18.4916 98.7511 18.5975 98.4757 18.5975H98.3698C98.0945 18.5975 97.8615 18.4916 97.6708 18.301C97.4802 18.1104 97.3743 17.8774 97.3743 17.602V14.1494C97.3743 14.0011 97.3319 13.8952 97.226 13.8105C97.1413 13.7258 97.0354 13.7046 96.9295 13.7046C96.8236 13.7046 96.7177 13.747 96.6329 13.8105C96.5482 13.8741 96.4847 14.0011 96.4847 14.1494V17.602C96.4847 17.9409 96.527 18.2163 96.6329 18.4493C96.7388 18.6823 96.8659 18.8729 97.0354 19.0212C97.2048 19.1694 97.4167 19.2965 97.6285 19.3601C97.8615 19.4448 98.0945 19.466 98.3486 19.466H98.4546C98.6664 19.466 98.857 19.4448 99.0264 19.3812C99.1959 19.3177 99.3442 19.233 99.4713 19.1271C99.4924 19.2542 99.556 19.3389 99.6407 19.3812C99.7254 19.4448 99.8313 19.466 99.9161 19.466C100.022 19.466 100.128 19.4236 100.213 19.3601C100.297 19.2965 100.361 19.1694 100.361 19.0423V14.1494H100.382ZM104.936 18.7458C104.873 18.6611 104.767 18.5975 104.618 18.5975C104.428 18.5763 104.279 18.5128 104.152 18.4069C104.025 18.301 103.941 18.1315 103.941 17.9409V14.6366H104.576C104.724 14.6366 104.83 14.5942 104.915 14.4883C105 14.4036 105.021 14.2977 105.021 14.1918C105.021 14.0859 104.978 13.98 104.915 13.8952C104.851 13.8105 104.724 13.747 104.576 13.747H103.941V11.7135C103.941 11.5653 103.898 11.4594 103.792 11.3746C103.708 11.3111 103.602 11.2687 103.496 11.2687C103.39 11.2687 103.284 11.3111 103.199 11.3746C103.114 11.4594 103.051 11.5653 103.051 11.7135V13.747H102.648C102.5 13.747 102.394 13.7893 102.31 13.8952C102.225 13.98 102.204 14.0859 102.204 14.1918C102.204 14.2977 102.246 14.4036 102.31 14.4883C102.373 14.573 102.5 14.6366 102.648 14.6366H103.051V17.9621C103.051 18.1739 103.093 18.3645 103.178 18.5552C103.263 18.7458 103.369 18.9153 103.496 19.0423C103.644 19.1906 103.792 19.2965 103.983 19.3812C104.174 19.466 104.364 19.5083 104.576 19.5083C104.745 19.5083 104.851 19.466 104.915 19.3812C104.978 19.2965 105.021 19.1906 105.021 19.0847C105.021 18.9364 105 18.8305 104.936 18.7458ZM110.697 17.8138C110.697 17.4326 110.613 17.136 110.464 16.9242C110.316 16.7124 110.126 16.5429 109.893 16.4158C109.681 16.2888 109.427 16.204 109.172 16.1405C108.897 16.0769 108.664 16.0134 108.431 15.971C108.219 15.9075 108.029 15.8439 107.88 15.738C107.732 15.6321 107.647 15.4839 107.647 15.2932V15.2509C107.647 15.0814 107.753 14.9331 107.923 14.806C108.092 14.679 108.346 14.6154 108.685 14.6154H108.728C109.003 14.6154 109.194 14.6578 109.342 14.7213C109.49 14.806 109.617 14.8696 109.744 14.9331C109.85 14.9755 109.935 14.9967 109.998 14.9967C110.126 14.9967 110.231 14.9543 110.316 14.8696C110.401 14.7849 110.422 14.679 110.422 14.573C110.422 14.4248 110.38 14.3189 110.253 14.2341C110.21 14.1918 110.147 14.1494 110.041 14.0859C109.956 14.0223 109.85 13.98 109.702 13.9164C109.575 13.8741 109.427 13.8105 109.257 13.7893C109.088 13.747 108.897 13.7258 108.706 13.7258H108.664C108.473 13.7258 108.283 13.747 108.05 13.8105C107.838 13.8529 107.626 13.9376 107.435 14.0647C107.245 14.1918 107.075 14.3401 106.948 14.5307C106.821 14.7213 106.758 14.9543 106.758 15.2297C106.758 15.5898 106.842 15.8863 106.991 16.0769C107.139 16.2676 107.33 16.437 107.541 16.5429C107.774 16.6488 108.007 16.7336 108.283 16.7759C108.558 16.8183 108.791 16.8818 109.024 16.9454C109.236 17.0089 109.427 17.1148 109.575 17.2419C109.723 17.369 109.808 17.5385 109.808 17.7926V17.835C109.808 18.0256 109.702 18.2163 109.511 18.3645C109.321 18.534 109.045 18.6187 108.685 18.6187H108.643C108.431 18.6187 108.198 18.534 107.965 18.3857C107.732 18.2374 107.541 18.068 107.393 17.8774C107.351 17.7926 107.287 17.7503 107.203 17.7079C107.139 17.6867 107.054 17.6655 106.991 17.6655C106.864 17.6655 106.758 17.7079 106.673 17.7926C106.588 17.8774 106.525 17.9833 106.525 18.1104C106.525 18.1315 106.546 18.2163 106.588 18.3222C106.673 18.4916 106.8 18.6611 106.948 18.8093C107.097 18.9576 107.266 19.0847 107.435 19.1694C107.605 19.2753 107.796 19.3389 108.007 19.4024C108.198 19.466 108.389 19.4872 108.579 19.4872H108.643C108.876 19.4872 109.13 19.4448 109.363 19.3812C109.596 19.3177 109.829 19.2118 110.02 19.0635C110.21 18.9364 110.38 18.767 110.486 18.5552C110.613 18.3434 110.655 18.1104 110.655 17.835V17.8138H110.697ZM116.268 17.2631C116.183 17.1996 116.078 17.1572 115.95 17.1572C115.845 17.1572 115.739 17.1996 115.654 17.2631C115.569 17.3478 115.506 17.4537 115.506 17.602C115.484 17.8774 115.4 18.1104 115.209 18.301C115.018 18.4916 114.785 18.5975 114.51 18.5975H114.404C114.129 18.5975 113.875 18.4916 113.684 18.301C113.493 18.1104 113.387 17.8774 113.387 17.602V15.5898C113.387 15.3144 113.493 15.0814 113.684 14.8908C113.875 14.7001 114.108 14.5942 114.383 14.5942H114.51C114.785 14.5942 115.018 14.679 115.209 14.8696C115.4 15.0602 115.506 15.2932 115.506 15.5898C115.506 15.738 115.569 15.8439 115.654 15.9075C115.739 15.971 115.845 16.0134 115.95 16.0134C116.056 16.0134 116.162 15.971 116.268 15.9075C116.353 15.8228 116.416 15.7169 116.416 15.5686C116.416 15.3144 116.374 15.0602 116.268 14.8272C116.162 14.5942 116.035 14.4036 115.866 14.2341C115.696 14.0647 115.506 13.9164 115.273 13.8317C115.04 13.7258 114.807 13.6834 114.552 13.6834H114.425C114.171 13.6834 113.917 13.7258 113.684 13.8317C113.451 13.9376 113.26 14.0647 113.091 14.2341C112.922 14.4036 112.794 14.5942 112.688 14.8272C112.583 15.0602 112.54 15.3144 112.54 15.5686V17.5808C112.54 17.8562 112.583 18.0892 112.688 18.3222C112.794 18.5552 112.922 18.7458 113.091 18.9153C113.26 19.0847 113.472 19.2118 113.684 19.3177C113.917 19.4236 114.171 19.466 114.425 19.466H114.552C114.807 19.466 115.061 19.4236 115.273 19.3177C115.506 19.2118 115.696 19.0847 115.887 18.9153C116.056 18.7458 116.205 18.5552 116.289 18.3222C116.395 18.0892 116.438 17.8562 116.438 17.5808C116.395 17.4537 116.353 17.3266 116.268 17.2631ZM122.284 15.5898C122.284 15.3356 122.241 15.0814 122.135 14.8484C122.03 14.6154 121.902 14.4248 121.733 14.2553C121.564 14.0859 121.352 13.9376 121.14 13.8529C120.907 13.747 120.653 13.7046 120.399 13.7046H120.293C120.102 13.7046 119.89 13.7258 119.7 13.7893C119.509 13.8529 119.361 13.9376 119.276 14.0435V11.6924C119.276 11.5441 119.234 11.4382 119.128 11.3535C119.043 11.2899 118.937 11.2476 118.81 11.2476C118.704 11.2476 118.598 11.2899 118.513 11.3535C118.429 11.4382 118.365 11.5441 118.365 11.6924V19.0635C118.365 19.2118 118.408 19.3177 118.513 19.4024C118.598 19.466 118.704 19.5083 118.81 19.5083C118.916 19.5083 119.022 19.466 119.128 19.4024C119.212 19.3389 119.276 19.233 119.276 19.0635V15.5474C119.276 15.3991 119.297 15.272 119.361 15.145C119.424 15.0179 119.509 14.9331 119.594 14.8484C119.7 14.7637 119.805 14.7001 119.933 14.6578C120.06 14.6154 120.187 14.5942 120.335 14.5942C120.462 14.5942 120.589 14.6154 120.716 14.6578C120.843 14.7001 120.949 14.7637 121.055 14.8484C121.161 14.9331 121.225 15.039 121.288 15.1661C121.352 15.2932 121.373 15.4415 121.373 15.6109V19.0635C121.373 19.2118 121.415 19.3177 121.521 19.4024C121.606 19.466 121.712 19.5083 121.839 19.5083C121.945 19.5083 122.051 19.466 122.135 19.4024C122.22 19.3389 122.284 19.233 122.284 19.0635V15.5898ZM128.087 15.6109C128.087 15.3356 128.045 15.0814 127.939 14.8484C127.833 14.6154 127.706 14.4248 127.537 14.2341C127.367 14.0647 127.177 13.9376 126.944 13.8317C126.711 13.747 126.478 13.6834 126.223 13.6834H126.096C125.842 13.6834 125.588 13.7258 125.355 13.8317C125.122 13.9376 124.931 14.0647 124.741 14.2341C124.571 14.4036 124.444 14.6154 124.338 14.8272C124.232 15.0602 124.19 15.2932 124.19 15.5686V17.5808C124.19 17.8562 124.232 18.0892 124.338 18.3222C124.444 18.5552 124.571 18.7458 124.741 18.9153C124.91 19.0847 125.122 19.2118 125.355 19.3177C125.588 19.4236 125.821 19.466 126.096 19.466H126.223C126.626 19.466 126.965 19.3601 127.283 19.1482C127.579 18.9364 127.812 18.6823 127.939 18.3434C127.96 18.2798 127.982 18.2163 127.982 18.1527C127.982 18.0256 127.939 17.9197 127.833 17.8138C127.727 17.7291 127.621 17.6867 127.516 17.6867C127.431 17.6867 127.367 17.7079 127.283 17.7503C127.219 17.7926 127.155 17.8774 127.113 17.9621C127.028 18.1315 126.922 18.2586 126.774 18.3857C126.626 18.5128 126.435 18.5552 126.202 18.5552H126.075C125.8 18.5552 125.567 18.4493 125.376 18.2586C125.186 18.068 125.08 17.835 125.08 17.5596V16.9666H127.643C127.77 16.9666 127.876 16.9242 127.96 16.8395C128.045 16.7547 128.087 16.6488 128.087 16.5217V15.6109ZM127.198 16.204H125.08V15.6109C125.08 15.3356 125.186 15.0814 125.376 14.8908C125.567 14.7001 125.821 14.5942 126.096 14.5942H126.202C126.456 14.5942 126.689 14.7001 126.901 14.8908C127.092 15.0814 127.198 15.3356 127.198 15.6109V16.204ZM138.466 15.4627C138.466 15.3356 138.424 15.2509 138.339 15.145C138.255 15.0602 138.149 15.0179 138.022 15.0179H136.348C136.2 15.0179 136.094 15.0602 136.009 15.1661C135.946 15.2509 135.903 15.3568 135.903 15.4627C135.903 15.5686 135.946 15.6745 136.009 15.7592C136.073 15.8439 136.2 15.9075 136.348 15.9075H137.577V17.2631C137.577 17.4537 137.556 17.6232 137.471 17.7926C137.407 17.9621 137.301 18.0892 137.195 18.2163C137.068 18.3434 136.941 18.4281 136.772 18.5128C136.602 18.5763 136.433 18.6187 136.242 18.6187H136.115C135.925 18.6187 135.755 18.5763 135.586 18.5128C135.416 18.4493 135.289 18.3434 135.162 18.2163C135.035 18.0892 134.95 17.9621 134.866 17.7926C134.802 17.6232 134.76 17.4537 134.76 17.2631V13.4716C134.76 13.3022 134.802 13.1327 134.866 12.9633C134.929 12.7938 135.035 12.6667 135.162 12.5396C135.289 12.4125 135.416 12.3278 135.586 12.2431C135.755 12.1795 135.925 12.1372 136.115 12.1372H136.242C136.624 12.1372 136.92 12.2431 137.153 12.4549C137.386 12.6667 137.513 12.9421 137.577 13.281C137.598 13.4081 137.661 13.514 137.746 13.5775C137.831 13.6411 137.916 13.6622 138.022 13.6622C138.127 13.6622 138.233 13.6199 138.339 13.5563C138.424 13.4928 138.488 13.3657 138.488 13.2386V13.1751C138.445 12.8997 138.36 12.6455 138.233 12.4125C138.106 12.1795 137.937 11.9677 137.746 11.7983C137.556 11.6288 137.323 11.5017 137.068 11.3958C136.814 11.2899 136.539 11.2476 136.264 11.2476H136.136C135.84 11.2476 135.543 11.3111 135.268 11.417C134.993 11.5441 134.76 11.6924 134.548 11.883C134.357 12.0736 134.188 12.3066 134.061 12.582C133.955 12.8573 133.891 13.1327 133.891 13.4504V17.2419C133.891 17.5596 133.955 17.835 134.061 18.1104C134.188 18.3857 134.336 18.6187 134.548 18.8093C134.738 19 134.993 19.1694 135.268 19.2753C135.543 19.3812 135.819 19.4448 136.136 19.4448H136.264C136.56 19.4448 136.857 19.3812 137.132 19.2753C137.407 19.1694 137.64 19 137.831 18.8093C138.022 18.6187 138.191 18.3857 138.318 18.1104C138.445 17.835 138.488 17.5596 138.488 17.2419V15.4627H138.466ZM144.418 15.6109C144.418 15.3356 144.376 15.0814 144.27 14.8484C144.164 14.6154 144.037 14.4248 143.868 14.2341C143.698 14.0647 143.486 13.9376 143.275 13.8317C143.042 13.747 142.787 13.6834 142.533 13.6834H142.427C142.173 13.6834 141.919 13.7258 141.686 13.8317C141.453 13.9376 141.262 14.0647 141.072 14.2341C140.902 14.4036 140.775 14.6154 140.669 14.8272C140.563 15.0602 140.521 15.2932 140.521 15.5686V17.5808C140.521 17.8562 140.563 18.0892 140.669 18.3222C140.775 18.5552 140.902 18.7458 141.072 18.9153C141.241 19.0847 141.453 19.2118 141.686 19.3177C141.919 19.4236 142.152 19.466 142.427 19.466H142.533C142.936 19.466 143.275 19.3601 143.592 19.1482C143.889 18.9364 144.122 18.6823 144.249 18.3434C144.27 18.2798 144.291 18.2163 144.291 18.1527C144.291 18.0256 144.249 17.9197 144.143 17.8138C144.058 17.7291 143.952 17.6867 143.825 17.6867C143.741 17.6867 143.677 17.7079 143.592 17.7503C143.529 17.7926 143.465 17.8774 143.423 17.9621C143.338 18.1315 143.232 18.2586 143.084 18.3857C142.936 18.5128 142.745 18.5552 142.512 18.5552H142.406C142.131 18.5552 141.898 18.4493 141.707 18.2586C141.516 18.068 141.411 17.835 141.411 17.5596V16.9666H143.974C144.101 16.9666 144.207 16.9242 144.291 16.8395C144.376 16.7547 144.418 16.6488 144.418 16.5217V15.6109ZM143.529 16.204H141.411V15.6109C141.411 15.3356 141.516 15.0814 141.707 14.8908C141.898 14.7001 142.152 14.5942 142.406 14.5942H142.512C142.766 14.5942 142.999 14.7001 143.19 14.8908C143.38 15.0814 143.486 15.3356 143.486 15.6109V16.204H143.529ZM150.264 17.8138C150.264 17.4326 150.18 17.136 150.031 16.9242C149.883 16.7124 149.693 16.5429 149.481 16.4158C149.248 16.2888 149.015 16.204 148.739 16.1405C148.464 16.0769 148.231 16.0134 148.019 15.971C147.786 15.9075 147.617 15.8439 147.447 15.738C147.299 15.6321 147.214 15.4839 147.214 15.2932V15.2509C147.214 15.0814 147.32 14.9331 147.49 14.806C147.659 14.679 147.913 14.6154 148.231 14.6154H148.273C148.528 14.6154 148.739 14.6578 148.888 14.7213L149.29 14.9331C149.375 14.9755 149.46 14.9967 149.544 14.9967C149.671 14.9967 149.777 14.9543 149.841 14.8696C149.926 14.7849 149.968 14.679 149.968 14.573C149.968 14.4248 149.904 14.3189 149.798 14.2341C149.756 14.1918 149.671 14.1494 149.587 14.0859C149.502 14.0223 149.375 13.98 149.269 13.9164C149.142 13.8741 148.994 13.8105 148.824 13.7893C148.655 13.747 148.464 13.7258 148.273 13.7258H148.231C148.04 13.7258 147.829 13.747 147.617 13.8105C147.405 13.8529 147.193 13.9376 147.003 14.0647C146.812 14.1918 146.642 14.3401 146.515 14.5307C146.388 14.7213 146.325 14.9543 146.325 15.2297C146.325 15.5898 146.409 15.8863 146.558 16.0769C146.706 16.2676 146.897 16.437 147.13 16.5429C147.341 16.6488 147.596 16.7336 147.871 16.7759C148.125 16.8183 148.379 16.8818 148.591 16.9454C148.824 17.0089 148.994 17.1148 149.163 17.2419C149.311 17.369 149.396 17.5385 149.396 17.7926V17.835C149.396 18.0256 149.29 18.2163 149.099 18.3645C148.909 18.534 148.633 18.6187 148.273 18.6187H148.21C147.998 18.6187 147.765 18.534 147.532 18.3857C147.299 18.2374 147.13 18.068 146.981 17.8774C146.918 17.7926 146.854 17.7503 146.791 17.7079C146.727 17.6867 146.642 17.6655 146.579 17.6655C146.473 17.6655 146.367 17.7079 146.261 17.7926C146.176 17.8774 146.113 17.9833 146.113 18.1104C146.113 18.1315 146.134 18.2163 146.176 18.3222C146.261 18.4916 146.388 18.6611 146.537 18.8093C146.685 18.9576 146.854 19.0847 147.024 19.1694C147.193 19.2753 147.384 19.3389 147.596 19.4024C147.786 19.466 147.998 19.4872 148.167 19.4872H148.231C148.464 19.4872 148.718 19.4448 148.951 19.3812C149.184 19.3177 149.417 19.2118 149.608 19.0635C149.798 18.9364 149.968 18.767 150.074 18.5552C150.18 18.3434 150.243 18.1104 150.243 17.835V17.8138H150.264ZM155.941 15.6109C155.941 15.3356 155.899 15.0814 155.793 14.8484C155.687 14.6154 155.56 14.4248 155.39 14.2341C155.221 14.0647 155.009 13.9376 154.797 13.8317C154.564 13.747 154.31 13.6834 154.056 13.6834H153.929C153.675 13.6834 153.421 13.7258 153.209 13.8317C152.976 13.9376 152.785 14.0647 152.594 14.2341C152.425 14.4036 152.277 14.6154 152.192 14.8272C152.086 15.0602 152.044 15.2932 152.044 15.5686V17.5808C152.044 17.8562 152.086 18.0892 152.192 18.3222C152.277 18.5552 152.425 18.7458 152.594 18.9153C152.764 19.0847 152.976 19.2118 153.209 19.3177C153.442 19.4236 153.675 19.466 153.929 19.466H154.056C154.458 19.466 154.797 19.3601 155.094 19.1482C155.39 18.9364 155.623 18.6823 155.75 18.3434C155.772 18.2798 155.793 18.2163 155.793 18.1527C155.793 18.0256 155.75 17.9197 155.645 17.8138C155.56 17.7291 155.454 17.6867 155.327 17.6867C155.242 17.6867 155.179 17.7079 155.115 17.7503C155.051 17.7926 154.988 17.8774 154.946 17.9621C154.861 18.1315 154.755 18.2586 154.607 18.3857C154.458 18.5128 154.268 18.5552 154.035 18.5552H153.908C153.632 18.5552 153.399 18.4493 153.209 18.2586C153.018 18.068 152.912 17.835 152.912 17.5596V16.9666H155.475C155.602 16.9666 155.708 16.9242 155.793 16.8395C155.878 16.7547 155.92 16.6488 155.92 16.5217V15.6109H155.941ZM155.051 16.204H152.933V15.6109C152.933 15.3356 153.039 15.0814 153.23 14.8908C153.42 14.7001 153.675 14.5942 153.929 14.5942H154.056C154.31 14.5942 154.543 14.7001 154.734 14.8908C154.924 15.0814 155.03 15.3356 155.03 15.6109V16.204H155.051ZM159.817 18.7458C159.754 18.6399 159.627 18.5975 159.478 18.5975C159.309 18.5975 159.139 18.5128 159.012 18.4069C158.885 18.2798 158.822 18.1315 158.822 17.9409V11.6924C158.822 11.5441 158.779 11.4382 158.674 11.3535C158.589 11.2899 158.483 11.2476 158.377 11.2476C158.271 11.2476 158.165 11.2899 158.059 11.3535C157.975 11.4382 157.911 11.5441 157.911 11.6924V17.9409C157.911 18.1527 157.953 18.3434 158.017 18.534C158.102 18.7246 158.208 18.8941 158.356 19.0212C158.504 19.1694 158.652 19.2753 158.843 19.3601C159.034 19.4448 159.224 19.4872 159.436 19.4872C159.584 19.4872 159.711 19.4448 159.775 19.3601C159.838 19.2753 159.881 19.1694 159.881 19.0635C159.923 18.9364 159.881 18.8305 159.817 18.7458ZM163.503 18.7458C163.439 18.6399 163.312 18.5975 163.164 18.5975C162.995 18.5975 162.825 18.5128 162.698 18.4069C162.571 18.2798 162.507 18.1315 162.507 17.9409V11.6924C162.507 11.5441 162.465 11.4382 162.359 11.3535C162.253 11.2899 162.168 11.2476 162.041 11.2476C161.935 11.2476 161.83 11.2899 161.745 11.3535C161.66 11.4382 161.597 11.5441 161.597 11.6924V17.9409C161.597 18.1527 161.639 18.3434 161.702 18.534C161.787 18.7246 161.893 18.8941 162.041 19.0212C162.19 19.1694 162.359 19.2753 162.529 19.3601C162.719 19.4448 162.91 19.4872 163.122 19.4872C163.27 19.4872 163.397 19.4448 163.461 19.3601C163.524 19.2753 163.566 19.1694 163.566 19.0635C163.588 18.9364 163.566 18.8305 163.503 18.7458ZM169.285 17.8138C169.285 17.4326 169.201 17.136 169.052 16.9242C168.904 16.7124 168.714 16.5429 168.502 16.4158C168.269 16.2888 168.036 16.204 167.76 16.1405C167.485 16.0769 167.252 16.0134 167.04 15.971C166.807 15.9075 166.638 15.8439 166.489 15.738C166.341 15.6321 166.256 15.4839 166.256 15.2932V15.2509C166.256 15.0814 166.362 14.9331 166.532 14.806C166.701 14.679 166.955 14.6154 167.273 14.6154H167.316C167.591 14.6154 167.782 14.6578 167.93 14.7213C168.078 14.806 168.226 14.8696 168.332 14.9331C168.417 14.9755 168.502 14.9967 168.586 14.9967C168.714 14.9967 168.819 14.9543 168.883 14.8696C168.968 14.7849 169.01 14.679 169.01 14.573C169.01 14.4248 168.947 14.3189 168.841 14.2341C168.798 14.1918 168.735 14.1494 168.629 14.0859C168.544 14.0223 168.438 13.98 168.29 13.9164C168.163 13.8741 168.015 13.8105 167.845 13.7893C167.676 13.747 167.485 13.7258 167.294 13.7258H167.252C167.061 13.7258 166.85 13.747 166.638 13.8105C166.405 13.8529 166.214 13.9376 166.023 14.0647C165.833 14.1918 165.663 14.3401 165.536 14.5307C165.409 14.7213 165.346 14.9543 165.346 15.2297C165.346 15.5898 165.43 15.8863 165.579 16.0769C165.727 16.2676 165.918 16.437 166.151 16.5429C166.362 16.6488 166.617 16.7336 166.871 16.7759C167.146 16.8183 167.379 16.8818 167.612 16.9454C167.824 17.0089 168.015 17.1148 168.184 17.2419C168.332 17.369 168.417 17.5385 168.417 17.7926V17.835C168.417 18.0256 168.311 18.2163 168.12 18.3645C167.93 18.534 167.654 18.6187 167.294 18.6187H167.231C167.019 18.6187 166.786 18.534 166.553 18.3857C166.32 18.2374 166.151 18.068 166.002 17.8774C165.939 17.7926 165.875 17.7503 165.812 17.7079C165.748 17.6867 165.663 17.6655 165.6 17.6655C165.494 17.6655 165.388 17.7079 165.282 17.7926C165.197 17.8774 165.134 17.9833 165.134 18.1104C165.134 18.1315 165.155 18.2163 165.197 18.3222C165.282 18.4916 165.409 18.6611 165.557 18.8093C165.706 18.9576 165.875 19.0847 166.045 19.1694C166.214 19.2753 166.405 19.3389 166.617 19.4024C166.807 19.466 167.019 19.4872 167.188 19.4872H167.252C167.485 19.4872 167.739 19.4448 167.972 19.3812C168.205 19.3177 168.438 19.2118 168.629 19.0635C168.819 18.9364 168.989 18.767 169.095 18.5552C169.201 18.3434 169.264 18.1104 169.264 17.835V17.8138H169.285ZM174.835 17.2631C174.729 17.1996 174.644 17.1572 174.538 17.1572C174.433 17.1572 174.327 17.1996 174.242 17.2631C174.157 17.3478 174.094 17.4537 174.094 17.602C174.072 17.8774 173.967 18.1104 173.776 18.301C173.585 18.4916 173.352 18.5975 173.077 18.5975H172.971C172.696 18.5975 172.441 18.4916 172.251 18.301C172.06 18.1104 171.954 17.8774 171.954 17.602V15.5898C171.954 15.3144 172.06 15.0814 172.251 14.8908C172.441 14.7001 172.674 14.5942 172.95 14.5942H173.077C173.352 14.5942 173.585 14.679 173.776 14.8696C173.967 15.0602 174.072 15.2932 174.094 15.5898C174.094 15.738 174.157 15.8439 174.242 15.9075C174.327 15.971 174.433 16.0134 174.538 16.0134C174.644 16.0134 174.75 15.971 174.835 15.9075C174.92 15.8228 174.983 15.7169 174.983 15.5686C174.983 15.3144 174.941 15.0602 174.835 14.8272C174.729 14.5942 174.602 14.4036 174.433 14.2341C174.263 14.0647 174.072 13.9164 173.839 13.8317C173.606 13.7258 173.352 13.6834 173.098 13.6834H172.971C172.717 13.6834 172.463 13.7258 172.251 13.8317C172.018 13.9376 171.827 14.0647 171.658 14.2341C171.488 14.4036 171.361 14.5942 171.255 14.8272C171.149 15.0602 171.107 15.3144 171.107 15.5686V17.5808C171.107 17.8562 171.149 18.0892 171.255 18.3222C171.361 18.5552 171.488 18.7458 171.658 18.9153C171.827 19.0847 172.039 19.2118 172.272 19.3177C172.505 19.4236 172.738 19.466 172.992 19.466H173.119C173.373 19.466 173.628 19.4236 173.861 19.3177C174.094 19.2118 174.284 19.0847 174.475 18.9153C174.644 18.7458 174.771 18.5552 174.877 18.3222C174.983 18.0892 175.026 17.8562 175.026 17.5808C174.962 17.4537 174.92 17.3266 174.835 17.2631ZM180.745 15.5898C180.745 15.3356 180.702 15.0814 180.596 14.8484C180.49 14.6154 180.363 14.4248 180.194 14.2553C180.024 14.0859 179.813 13.9376 179.601 13.8529C179.368 13.747 179.135 13.7046 178.859 13.7046H178.754C178.542 13.7046 178.351 13.7258 178.16 13.7893C177.97 13.8529 177.822 13.9376 177.737 14.0435V11.6924C177.737 11.5441 177.694 11.4382 177.589 11.3535C177.483 11.2899 177.398 11.2476 177.292 11.2476C177.186 11.2476 177.08 11.2899 176.995 11.3535C176.911 11.4382 176.847 11.5441 176.847 11.6924V19.0635C176.847 19.2118 176.89 19.3177 176.995 19.4024C177.08 19.466 177.186 19.5083 177.292 19.5083C177.398 19.5083 177.504 19.466 177.589 19.4024C177.673 19.3389 177.737 19.233 177.737 19.0635V15.5474C177.737 15.3991 177.758 15.272 177.822 15.145C177.885 15.0179 177.97 14.9331 178.055 14.8484C178.16 14.7637 178.266 14.7001 178.393 14.6578C178.521 14.6154 178.648 14.5942 178.796 14.5942C178.923 14.5942 179.05 14.6154 179.177 14.6578C179.304 14.7001 179.41 14.7637 179.516 14.8484C179.622 14.9331 179.707 15.039 179.749 15.1661C179.813 15.2932 179.834 15.4415 179.834 15.6109V19.0635C179.834 19.2118 179.876 19.3177 179.982 19.4024C180.067 19.466 180.173 19.5083 180.279 19.5083C180.385 19.5083 180.49 19.466 180.575 19.4024C180.66 19.3389 180.723 19.233 180.723 19.0635V15.5898H180.745ZM187.014 18.767C186.951 18.6823 186.866 18.6399 186.739 18.6187C186.527 18.5763 186.442 18.4493 186.442 18.2374V15.5262C186.442 15.272 186.4 15.039 186.294 14.8272C186.209 14.6154 186.061 14.4248 185.913 14.2553C185.743 14.0859 185.553 13.9588 185.32 13.8741C185.087 13.7893 184.854 13.7258 184.6 13.7258H184.515C184.367 13.7258 184.197 13.747 184.028 13.7893C183.858 13.8317 183.71 13.8741 183.541 13.9588C183.392 14.0435 183.244 14.1494 183.096 14.2977C182.969 14.446 182.842 14.6154 182.757 14.8272C182.714 14.8908 182.714 14.9543 182.714 15.039C182.714 15.1661 182.757 15.272 182.863 15.3356C182.947 15.3991 183.053 15.4415 183.159 15.4415C183.244 15.4415 183.308 15.4203 183.392 15.3991C183.456 15.3568 183.519 15.2932 183.562 15.2085C183.668 15.0179 183.795 14.8696 183.943 14.7637C184.091 14.6578 184.282 14.6154 184.515 14.6154H184.6C184.854 14.6154 185.087 14.679 185.277 14.8272C185.468 14.9755 185.553 15.2085 185.553 15.5686C185.553 15.5898 185.553 15.6321 185.553 15.6745C185.553 15.7169 185.532 15.738 185.532 15.7592C185.489 15.8228 185.383 15.8651 185.214 15.9075C185.044 15.9498 184.854 15.971 184.642 16.0134C184.43 16.0558 184.197 16.0981 183.943 16.1617C183.71 16.2252 183.477 16.3099 183.265 16.437C183.053 16.5641 182.884 16.7124 182.757 16.9242C182.63 17.1148 182.566 17.369 182.566 17.6867V17.835C182.566 18.1104 182.63 18.3434 182.736 18.5552C182.842 18.767 182.99 18.9364 183.159 19.0847C183.329 19.233 183.541 19.3389 183.774 19.4024C184.007 19.466 184.24 19.5083 184.473 19.5083H184.578C185.066 19.5083 185.489 19.3601 185.849 19.0423C185.934 19.1482 186.019 19.2542 186.167 19.3177C186.294 19.4024 186.464 19.4448 186.654 19.4872C186.654 19.4872 186.697 19.4872 186.739 19.4872C186.887 19.4872 186.993 19.4448 187.057 19.3601C187.141 19.2753 187.163 19.1694 187.163 19.0423C187.12 18.9576 187.078 18.8517 187.014 18.767ZM185.532 17.602C185.532 17.8774 185.426 18.1104 185.235 18.301C185.044 18.4916 184.79 18.5975 184.536 18.5975H184.43C184.134 18.5975 183.879 18.5128 183.71 18.3645C183.519 18.2163 183.435 18.0256 183.435 17.7715V17.6867C183.435 17.4749 183.498 17.3266 183.646 17.2207C183.795 17.1148 183.964 17.0301 184.176 16.9666C184.388 16.903 184.621 16.8606 184.854 16.8183C185.087 16.7759 185.341 16.7336 185.553 16.6912V17.602H185.532ZM190.954 11.3958C190.891 11.3111 190.763 11.2476 190.615 11.2476C190.403 11.2476 190.192 11.2899 190.001 11.3746C189.81 11.4594 189.662 11.5653 189.514 11.6924C189.387 11.8195 189.281 11.9889 189.196 12.1795C189.111 12.3702 189.09 12.582 189.09 12.7938V13.7258H188.836C188.688 13.7258 188.582 13.7682 188.497 13.8741C188.433 13.9588 188.391 14.0647 188.391 14.1706C188.391 14.2765 188.433 14.3824 188.497 14.4671C188.561 14.5519 188.688 14.6154 188.836 14.6154H189.09V19.0635C189.09 19.2118 189.132 19.3177 189.238 19.4024C189.323 19.466 189.429 19.5083 189.535 19.5083C189.641 19.5083 189.747 19.466 189.853 19.4024C189.937 19.3389 190.001 19.233 190.001 19.0635V14.6366H190.552C190.7 14.6366 190.806 14.5942 190.891 14.4883C190.954 14.4036 190.996 14.2977 190.996 14.1918C190.996 14.0859 190.954 13.98 190.891 13.8952C190.827 13.8105 190.7 13.747 190.552 13.747H190.001V12.815C190.001 12.6455 190.064 12.4761 190.17 12.349C190.297 12.2219 190.425 12.1584 190.615 12.1584C190.763 12.1584 190.869 12.116 190.954 12.0101C191.039 11.9254 191.06 11.8195 191.06 11.7135C191.06 11.5865 191.018 11.5017 190.954 11.3958ZM194.809 18.7458C194.746 18.6611 194.64 18.5975 194.491 18.5975C194.322 18.5763 194.152 18.5128 194.004 18.4069C193.877 18.301 193.792 18.1315 193.792 17.9409V14.6366H194.428C194.576 14.6366 194.682 14.5942 194.767 14.4883C194.851 14.4036 194.873 14.2977 194.873 14.1918C194.873 14.0859 194.83 13.98 194.767 13.8952C194.703 13.8105 194.576 13.747 194.428 13.747H193.792V11.7135C193.792 11.5653 193.75 11.4594 193.644 11.3746C193.538 11.3111 193.454 11.2687 193.348 11.2687C193.242 11.2687 193.136 11.3111 193.051 11.3746C192.945 11.4594 192.903 11.5653 192.903 11.7135V13.747H192.5C192.352 13.747 192.246 13.7893 192.161 13.8952C192.098 13.98 192.056 14.0859 192.056 14.1918C192.056 14.2977 192.098 14.4036 192.161 14.4883C192.225 14.573 192.352 14.6366 192.5 14.6366H192.903V17.9621C192.903 18.1739 192.945 18.3645 193.009 18.5552C193.093 18.7458 193.199 18.9153 193.348 19.0423C193.496 19.1906 193.644 19.2965 193.835 19.3812C194.025 19.466 194.216 19.5083 194.428 19.5083C194.576 19.5083 194.703 19.466 194.767 19.3812C194.83 19.2965 194.873 19.1906 194.873 19.0847C194.894 18.9364 194.873 18.8305 194.809 18.7458Z" fill="#D40E14"/>
</g>
</svg>
