<svg width="206" height="42" viewBox="0 0 206 42" fill="none" xmlns="http://www.w3.org/2000/svg">
<g style="mix-blend-mode:luminosity">
<mask id="mask0_114_499" style="mask-type:luminance" maskUnits="userSpaceOnUse" x="0" y="0" width="42" height="42">
<path d="M25.7792 34.0646C28.4759 34.0321 31.0362 33.6357 33.3041 32.8754C33.8759 32.6869 34.4152 32.4725 34.9351 32.2386C34.3048 33.7786 33.3755 35.0588 32.1734 36.0205C29.7886 37.775 26.9813 38.9772 23.9272 39.4385C24.694 38.1194 25.3048 36.2544 25.7792 34.0646ZM13.0818 37.8075C13.0233 37.762 12.9648 37.7165 12.8933 37.684C11.8341 37.1707 11.4052 34.8053 11.9576 31.1859C13.998 32.1021 16.2204 32.8299 18.5532 33.3303C20.3207 33.7072 22.0817 33.9411 23.8037 34.0321C22.959 37.7035 21.8738 39.6335 21.159 39.6335C21.1135 39.6335 21.068 39.6335 21.0225 39.6465C18.1763 39.627 15.4861 38.9772 13.0753 37.814M3.21756 26.1173C3.05511 25.4935 2.95114 24.8632 2.91215 24.2198C3.54897 25.1296 4.32875 26.0198 5.25149 26.8711C6.64859 28.1642 8.31212 29.3209 10.1576 30.3086C9.78071 32.4205 9.67024 34.3375 9.91067 35.8775C6.72008 33.4667 4.33525 30.0552 3.21106 26.1108M26.9619 20.9773C26.9619 20.23 26.9489 19.4827 26.9294 18.7354C29.3077 18.5794 31.5106 17.9621 33.3106 16.9224C34.9806 20.2235 35.8773 23.7065 35.8643 26.9946C35.8643 27.9498 35.7799 28.853 35.6304 29.7108C34.7726 30.2371 33.7849 30.692 32.6737 31.0624C30.6983 31.7252 28.4759 32.0891 26.1171 32.1476C26.6824 28.7491 26.9554 24.8047 26.9554 20.9708M18.9301 31.4523C16.5648 30.9454 14.3294 30.1982 12.302 29.2429C12.9648 26.2473 14.206 22.6278 16.1684 18.5989C16.4543 18.0141 16.7402 17.4423 17.0392 16.8834C18.4103 17.5007 19.9048 17.9881 21.4709 18.326C22.6601 18.5794 23.8492 18.7224 25.0124 18.7614C25.0319 19.4827 25.0449 20.217 25.0449 20.9773C25.0449 25.4805 24.681 29.2169 24.1676 32.1346C22.4586 32.0566 20.6976 31.8357 18.9301 31.4588M6.53813 25.461C4.91358 23.9599 3.8024 22.3744 3.23056 20.7953C3.67893 19.0278 4.54969 17.2538 5.83632 15.5513C7.05148 13.9397 8.56555 12.4842 10.3071 11.243C10.8074 12.1463 11.5092 13.03 12.3995 13.8683C13.2507 14.661 14.2385 15.3823 15.3366 16.0127C15.0312 16.5845 14.7388 17.1693 14.4464 17.7607C12.7504 21.2372 11.3663 24.9606 10.554 28.3462C9.04642 27.4949 7.6883 26.5267 6.53163 25.4545M25.6557 7.69501C27.8261 9.31305 29.821 11.399 31.4846 13.8423C31.803 14.3036 32.0954 14.778 32.3813 15.2524C30.8543 16.1361 28.9243 16.6625 26.8449 16.8119C26.6694 13.5109 26.273 10.3398 25.6557 7.70151M21.8673 16.4545C20.4832 16.1621 19.1706 15.7332 17.9619 15.2069C19.7424 12.0878 21.6983 9.37803 23.6218 7.3571C24.2196 9.72244 24.7265 12.9 24.9409 16.8444C23.9272 16.7989 22.9005 16.6755 21.8738 16.4545M13.7056 12.4712C12.9128 11.7304 12.315 10.9571 11.9121 10.1838C13.7056 9.10511 15.6875 8.22786 17.7929 7.59104C19.0471 7.21415 20.3207 6.93472 21.5879 6.73978C19.7554 8.7867 17.9294 11.3925 16.2594 14.3361C15.3041 13.7838 14.4464 13.1535 13.7056 12.4647M9.59226 6.37588C9.56627 6.47336 9.54028 6.57083 9.51429 6.6748C9.31934 7.57154 9.34533 8.50078 9.57277 9.41702C7.51935 10.8336 5.73235 12.5166 4.30276 14.3946C3.86738 14.973 3.47749 15.5513 3.12659 16.1426C4.18579 12.2307 6.48614 8.82569 9.58577 6.37588M11.3793 7.07119C11.5937 6.07697 12.185 5.19322 13.1078 4.45892C15.3366 3.78961 17.9294 3.95207 20.6586 4.95278C19.5085 5.15423 18.3648 5.42065 17.2276 5.75856C15.1157 6.38888 13.1338 7.25313 11.3078 8.30584C11.2688 7.88995 11.2883 7.47407 11.3728 7.07119M26.8774 4.5499C27.5337 4.12752 28.138 3.8351 28.6384 3.71163C29.6001 4.09503 30.5488 4.58239 31.4521 5.20621C30.003 4.84881 28.4694 4.62788 26.8774 4.5499ZM23.6608 2.50298C24.4341 2.58745 25.2658 2.72391 26.1106 2.92536C25.5777 3.21128 25.0254 3.56868 24.4666 3.99755C24.2196 3.43221 23.9467 2.93186 23.6608 2.50298ZM21.5879 3.25676C20.7236 2.92536 19.8659 2.67193 19.0276 2.48348C19.7034 2.4055 20.3857 2.36652 21.081 2.36652C21.4059 2.36652 21.8088 2.7629 22.2247 3.51669C22.0168 3.42572 21.8023 3.33474 21.5879 3.25676ZM0.559814 21.0032C0.559814 22.9592 0.839236 24.8437 1.35259 26.6372C1.38508 26.7606 1.41107 26.8776 1.45006 26.9946C1.45656 27.0205 1.46956 27.04 1.47606 27.0595C4.06882 35.4357 11.8861 41.5439 21.107 41.5439C25.3698 41.5439 29.3402 40.2378 32.6218 38.0024C32.6542 37.983 32.6867 37.97 32.7192 37.944C32.9142 37.8075 33.1026 37.671 33.2846 37.5281C37.0665 34.7339 39.8542 30.679 41.0304 25.9873C41.0954 25.7729 41.1538 25.552 41.1993 25.331C41.2123 25.279 41.2123 25.2271 41.2188 25.1751C41.4982 23.8299 41.6477 22.4328 41.6477 20.9967C41.6477 18.222 41.1019 15.5318 40.0362 12.9975C39.8282 12.5101 39.2694 12.2827 38.782 12.4907C38.2947 12.6921 38.0672 13.2574 38.2752 13.7383C39.2499 16.0322 39.7372 18.4755 39.7372 20.9903C39.7372 22.5303 39.5488 24.0314 39.1914 25.4675C38.912 26.3707 38.4116 27.209 37.7293 27.9693C37.7488 27.6444 37.7553 27.3195 37.7553 26.9816C37.7618 23.3166 36.7481 19.4437 34.8701 15.8047C36.2477 14.6221 37.125 13.16 37.4304 11.5224C37.5279 11.0026 37.1835 10.5022 36.6636 10.4112C36.1438 10.3138 35.6499 10.6582 35.5524 11.178C35.351 12.2567 34.7921 13.2509 33.9149 14.0957C33.642 13.6408 33.356 13.199 33.0571 12.7571C31.3806 10.3008 29.3857 8.16937 27.2088 6.47335C30.0875 6.6618 32.7452 7.3571 34.8896 8.55926C35.2275 8.74771 35.6694 8.74771 35.9878 8.48129C36.3972 8.14338 36.4492 7.53905 36.1113 7.13617C33.0311 2.82788 27.7091 0.456055 21.1135 0.456055C9.78721 0.456055 0.566312 9.67045 0.566312 21.0032" fill="white"/>
</mask>
<g mask="url(#mask0_114_499)">
<path d="M41.6868 0.462891H0.598877V41.5508H41.6868V0.462891Z" fill="url(#paint0_radial_114_499)"/>
</g>
<path d="M173.599 30.744C174.931 30.744 175.672 31.3938 175.672 32.5635C175.672 33.6747 174.944 34.331 173.729 34.331H172.878V36.027H171.754V30.7375H173.599V30.744ZM172.878 33.4148H173.547C174.204 33.4148 174.528 33.1224 174.528 32.5635C174.528 32.0047 174.171 31.6733 173.508 31.6733H172.871V33.4083L172.878 33.4148ZM169.681 33.9086C169.681 34.6884 169.382 35.0653 168.771 35.0653C168.16 35.0653 167.842 34.6754 167.842 33.9086V30.744H166.718V33.8372C166.718 34.5909 166.9 35.1693 167.276 35.5462C167.627 35.8971 168.128 36.0725 168.778 36.0725C169.707 36.0725 170.811 35.6891 170.811 33.8372V30.744H169.687V33.9086H169.681ZM163.644 30.6985C164.788 30.6985 166.003 31.4068 166.003 33.3953C166.003 35.3837 164.781 36.0725 163.644 36.0725C162.507 36.0725 161.272 35.3707 161.272 33.3953C161.272 31.4198 162.494 30.6985 163.644 30.6985ZM163.644 35.0848C164.092 35.0848 164.846 34.8639 164.846 33.3888C164.846 31.9137 164.092 31.6928 163.644 31.6928C162.864 31.6928 162.435 32.2971 162.435 33.3888C162.435 34.4805 162.864 35.0848 163.644 35.0848ZM160.109 34.422C160.297 34.7989 160.46 35.1238 160.83 35.1238H161.097V35.9945H161.064C161.064 35.9945 160.856 36.0595 160.512 36.0595C159.622 36.0595 159.349 35.4487 159.108 34.9094C158.913 34.4675 158.738 34.0841 158.277 34.0841H157.783V36.027H156.652V30.7375H158.53C159.895 30.7375 160.538 31.2704 160.538 32.4206C160.538 33.1289 160.109 33.5642 159.687 33.7527C159.875 33.9346 159.999 34.1816 160.116 34.422M157.789 33.2068H158.413C159.043 33.2068 159.427 32.9144 159.427 32.4465C159.427 31.9527 159.089 31.6668 158.497 31.6668H157.789V33.2068ZM153.663 34.0906H154.826V34.1491C154.826 34.4935 154.709 35.0653 153.897 35.0653C153.13 35.0653 152.675 34.435 152.675 33.3823C152.675 32.3296 153.111 31.6863 153.871 31.6863C154.781 31.6863 154.813 32.6025 154.813 32.6415V32.7L155.866 32.5375V32.492C155.866 32.1086 155.528 30.6855 153.858 30.6855C152.37 30.6855 151.512 31.6668 151.512 33.3823C151.512 35.0978 152.396 36.0595 153.877 36.0595C155.359 36.0595 155.892 35.0263 155.892 34.1361V33.2198H153.669V34.0841L153.663 34.0906ZM150.29 30.7375H148.952L147.204 33.1159V30.7375H146.06V36.027H147.204V33.5902L148.997 36.027H150.349L148.302 33.3628L150.29 30.744V30.7375ZM143.922 34.0061L142.077 30.7375H140.933V36.027H142.057V32.8754L143.896 36.027H145.046V30.7375H143.916V34.0061H143.922ZM138.704 30.7765L140.628 36.027H139.458L139.003 34.7274H137.242L136.807 36.027H135.624L137.567 30.7375H138.678L138.698 30.7765H138.704ZM138.126 32.1866L137.554 33.8501H138.711L138.126 32.1866ZM134.584 33.2393C134.994 33.3563 135.52 33.7332 135.52 34.526C135.52 35.4812 134.844 36.027 133.661 36.027H131.433V30.7375H133.441C134.584 30.7375 135.169 31.2119 135.169 32.1606C135.169 32.8884 134.838 33.1484 134.578 33.2393M133.324 32.9014C133.791 32.9014 134.012 32.7 134.012 32.2776C134.012 31.8747 133.733 31.6733 133.181 31.6733H132.55V32.9014H133.317H133.324ZM132.557 35.0913H133.441C134.012 35.0913 134.279 34.8769 134.279 34.409C134.279 33.8372 133.811 33.7202 133.408 33.7202H132.55V35.0848L132.557 35.0913ZM126.793 30.7375C128.437 30.7375 129.418 31.7577 129.418 33.4668C129.418 35.0913 128.541 36.0205 127.014 36.0205H125.22V30.731H126.793V30.7375ZM126.345 35.0913H127.001C127.813 35.0913 128.301 34.4805 128.301 33.4603C128.301 32.2776 127.787 31.6798 126.773 31.6798H126.345V35.0978V35.0913ZM122.407 30.7375H121.282V36.027H124.694V35.0913H122.407V30.7375ZM119.762 34.422C119.95 34.7989 120.113 35.1238 120.483 35.1238H120.75V35.9945H120.711C120.711 35.9945 120.509 36.0595 120.165 36.0595C119.281 36.0595 119.002 35.4487 118.761 34.9094C118.566 34.4675 118.397 34.0841 117.929 34.0841H117.436V36.027H116.311V30.7375H118.183C119.554 30.7375 120.191 31.2704 120.191 32.4206C120.191 33.1289 119.762 33.5642 119.34 33.7527C119.528 33.9346 119.651 34.1816 119.768 34.422M117.442 33.2068H118.072C118.696 33.2068 119.086 32.9144 119.086 32.4465C119.086 31.9527 118.748 31.6668 118.157 31.6668H117.449V33.2068H117.442ZM113.309 30.692C114.453 30.692 115.675 31.4003 115.675 33.3888C115.675 35.3772 114.453 36.066 113.309 36.066C112.166 36.066 110.944 35.3642 110.944 33.3888C110.944 31.4133 112.166 30.692 113.309 30.692ZM113.309 35.0783C113.758 35.0783 114.505 34.8574 114.505 33.3823C114.505 31.9072 113.751 31.6863 113.309 31.6863C112.529 31.6863 112.107 32.2906 112.107 33.3823C112.107 34.474 112.536 35.0783 113.309 35.0783ZM109.508 30.731H110.781L109.267 36.0205H107.994L107.071 32.7065L106.135 36.0205H104.862L103.341 30.731H104.654L105.544 34.5909L106.61 30.731H107.552L108.585 34.5909L109.508 30.731Z" fill="#113154"/>
<path d="M52.597 29.1587H51.2454V36.0208H52.597V29.1587Z" fill="#2BACE2"/>
<path d="M53.8057 36.0208V29.1587H56.4049C57.8085 29.1587 58.6208 29.6915 58.6208 30.9717C58.6208 32.1868 57.893 32.3948 57.5486 32.3948V32.4143C58.01 32.4143 59.0822 32.8172 59.0822 34.0973C59.0822 35.5269 57.9515 36.0208 56.6908 36.0208H53.8057ZM56.249 32.0244C56.9833 32.0244 57.2302 31.6605 57.2302 31.1341C57.2302 30.6078 56.8663 30.2569 56.0605 30.2569H55.1573V32.0244H56.2425H56.249ZM56.3919 34.9226C57.0677 34.9226 57.5811 34.7081 57.5811 33.9543C57.5811 33.246 57.0612 32.9731 56.3659 32.9731H55.1573V34.9226H56.3919Z" fill="#2BACE2"/>
<path d="M65.626 36.0081C65.626 36.0081 65.3725 36.0796 64.9177 36.0796C62.8383 36.0796 63.4101 33.4608 61.9545 33.4608H61.2332V36.0276H59.8816V29.1655H62.2924C63.9819 29.1655 64.8852 29.7829 64.8852 31.3229C64.8852 32.3301 64.2289 32.8695 63.696 33.0644C64.4043 33.6428 64.4433 34.9749 65.3465 34.9749H65.6325V36.0016L65.626 36.0081ZM62.1365 32.4406C62.9487 32.4406 63.5466 32.0702 63.5466 31.3619C63.5466 30.6536 63.0657 30.2637 62.2469 30.2637H61.2397V32.4406H62.143H62.1365Z" fill="#2BACE2"/>
<path d="M66.2236 36.0208V29.1587H68.2316C70.0316 29.1587 71.6431 30.1334 71.6431 32.7067C71.6431 35.15 70.194 36.0208 68.524 36.0208H66.2236ZM68.5175 34.9226C69.5702 34.9226 70.3045 34.1558 70.3045 32.6872C70.3045 31.2186 69.6612 30.2569 68.2186 30.2569H67.5817V34.9226H68.524H68.5175Z" fill="#2BACE2"/>
<path d="M75.6653 34.4555C74.957 34.4555 74.3982 33.8901 74.3982 33.1818C74.3982 32.4735 74.957 31.9082 75.6653 31.9082C76.3736 31.9082 76.939 32.4735 76.939 33.1818C76.939 33.8901 76.3671 34.4555 75.6653 34.4555Z" fill="#2BACE2"/>
<path d="M81.358 29.1587H80.0063V36.0208H81.358V29.1587Z" fill="#2BACE2"/>
<path d="M82.56 36.0208V29.1587H84.5679C86.3744 29.1587 87.9794 30.1334 87.9794 32.7067C87.9794 35.15 86.5303 36.0208 84.8603 36.0208H82.5535H82.56ZM84.8538 34.9226C85.9065 34.9226 86.6408 34.1558 86.6408 32.6872C86.6408 31.2186 85.991 30.2569 84.5549 30.2569H83.9181V34.9226H84.8603H84.8538Z" fill="#2BACE2"/>
<path d="M92.4565 34.3121H90.0197L89.4414 36.0276H88.0312L90.5525 29.1655H91.9301L94.4514 36.0276H93.0478L92.45 34.3121H92.4565ZM90.3836 33.2789H92.1121L91.2413 30.7901L90.3901 33.2789H90.3836Z" fill="#2BACE2"/>
<path d="M47.6584 12.5039H57.8606V14.5963H54.1176V25.0909H51.4079V14.5963H47.6584V12.5039Z" fill="#113154"/>
<path d="M59.2964 25.0909V12.5039H61.9996V17.475H66.7628V12.5039H69.4985V25.0909H66.7953V19.5674H61.9996V25.0909H59.2964Z" fill="#113154"/>
<path d="M71.6953 12.5039H80.1364V14.5963H74.3985V17.5465H79.7725V19.6324H74.3985V23.0049H80.3314V25.0909H71.6953V12.5039Z" fill="#113154"/>
<path d="M93.5676 12.5039H96.6153L98.8117 21.9717H98.8506L100.878 12.5039H103.458L100.248 25.0909H97.2456L94.9777 15.5061H94.9452L92.5019 25.0909H89.4348L86.3677 12.5039H89.1554L91.0918 21.9717H91.1243L93.5676 12.5039Z" fill="#113154"/>
<path d="M104.374 18.8008C104.374 15.0838 106.252 12.2441 110.424 12.2441C114.596 12.2441 116.474 15.0903 116.474 18.8008C116.474 22.5112 114.589 25.3574 110.424 25.3574C106.259 25.3574 104.374 22.5177 104.374 18.8008ZM107.246 18.8008C107.246 20.9582 107.753 23.4015 110.424 23.4015C113.095 23.4015 113.595 20.9582 113.595 18.8008C113.595 16.6434 113.088 14.1936 110.424 14.1936C107.76 14.1936 107.246 16.6369 107.246 18.8008Z" fill="#113154"/>
<path d="M120.958 25.0973H118.255V12.5039H123.609C125.773 12.5234 127.989 13.2187 127.989 15.7855C127.989 17.423 126.93 18.5082 125.377 18.8331V18.8656C127.45 19.093 127.45 20.3667 127.677 22.1082C127.8 22.914 127.904 24.3955 128.405 25.0909H125.422C125.195 23.9732 125.071 22.8425 124.954 21.7053C124.883 21.01 124.707 20.0483 123.824 20.0158H120.964V25.0909L120.958 25.0973ZM120.958 17.9299H123.226C124.408 17.9104 125.11 17.319 125.11 16.2014C125.11 15.0837 124.415 14.6158 123.226 14.5963H120.958V17.9299Z" fill="#113154"/>
<path d="M130.049 25.0909V12.5039H132.752V23.0049H138.211V25.0909H130.049Z" fill="#113154"/>
<path d="M139.679 12.5043H143.968C147.892 12.4718 150.329 14.4213 150.329 18.801C150.329 23.1808 147.886 25.1302 143.968 25.0913H139.679V12.5043ZM142.382 23.0053H143.779C146.989 23.0378 147.457 20.809 147.457 18.801C147.457 16.7931 146.989 14.5642 143.779 14.5967H142.382V22.9988V23.0053Z" fill="#113154"/>
<path d="M157.172 25.0915V12.5045H161.896C164.144 12.3681 166.445 13.3103 166.445 15.7666C166.445 17.1442 165.483 18.0995 164.229 18.5218V18.5543C165.821 18.8857 167.004 19.9839 167.004 21.8359C167.004 24.3312 163.865 25.2344 161.928 25.098H157.165L157.172 25.0915ZM161.987 22.9991C163.261 22.9991 164.125 22.7716 164.125 21.3225C164.125 19.8735 163.254 19.646 161.987 19.646H159.875V22.9926H161.987V22.9991ZM161.987 17.5601C163.118 17.5601 163.748 17.0922 163.748 16.0785C163.748 15.0648 163.124 14.5969 161.987 14.5969H159.875V17.5601H161.987Z" fill="#113154"/>
<path d="M167.848 25.0909L172.397 12.5039H175.607L179.98 25.0909H177.264L176.361 22.4201H171.37L170.428 25.0909H167.848ZM175.679 20.3342L173.95 14.9667H173.918L172.072 20.3342H175.679Z" fill="#113154"/>
<path d="M188.902 25.0909L183.931 14.6288L183.899 14.6678V25.0909H181.371V12.5039H185.38L190.176 22.4071L190.208 22.3746V12.5039H192.736V25.0909H188.902Z" fill="#113154"/>
<path d="M197.662 17.9429H197.694L201.879 12.5039H205.037L200.417 18.1378L205.44 25.0909H202.074L197.694 18.6772H197.662V25.0909H194.959V12.5039H197.662V17.9429Z" fill="#113154"/>
<path d="M98.7338 36.8199C98.5259 36.8199 98.3569 36.651 98.3569 36.4431V28.8012C98.3569 28.5933 98.5259 28.4243 98.7338 28.4243C98.9418 28.4243 99.1107 28.5933 99.1107 28.8012V36.4431C99.1107 36.651 98.9418 36.8199 98.7338 36.8199Z" fill="#113154"/>
</g>
<defs>
<radialGradient id="paint0_radial_114_499" cx="0" cy="0" r="1" gradientUnits="userSpaceOnUse" gradientTransform="translate(39.8848 7.06392) scale(34.0122 34.0122)">
<stop stop-color="white"/>
<stop offset="0.17" stop-color="#B9E3F5"/>
<stop offset="0.43" stop-color="#53BBE7"/>
<stop offset="0.54" stop-color="#2BACE2"/>
<stop offset="0.72" stop-color="#2079A7"/>
<stop offset="0.91" stop-color="#15456B"/>
<stop offset="1" stop-color="#113154"/>
</radialGradient>
</defs>
</svg>
