<svg width="24" height="24" viewBox="0 0 24 24" fill="none" xmlns="http://www.w3.org/2000/svg">
<path d="M19.9525 7.92023C19.9647 8.09654 19.9647 8.27286 19.9647 8.4508C19.9647 13.8727 15.8371 20.1258 8.28966 20.1258V20.1225C6.06013 20.1258 3.8769 19.4872 2 18.283C2.32419 18.322 2.65001 18.3415 2.97664 18.3423C4.82429 18.3439 6.61913 17.724 8.07272 16.5824C6.31688 16.5491 4.77717 15.4043 4.23928 13.7329C4.85436 13.8516 5.48812 13.8272 6.09181 13.6623C4.17753 13.2755 2.80033 11.5936 2.80033 9.64031C2.80033 9.62244 2.80033 9.60538 2.80033 9.58831C3.37071 9.90601 4.00934 10.0823 4.6626 10.1018C2.85964 8.89687 2.30388 6.49833 3.39265 4.62305C5.47593 7.18653 8.54966 8.74493 11.8493 8.90987C11.5186 7.48472 11.9703 5.99132 13.0364 4.98949C14.689 3.43597 17.2882 3.51559 18.8418 5.16743C19.7607 4.98624 20.6415 4.64905 21.4475 4.17129C21.1412 5.12112 20.5001 5.92794 19.6437 6.44064C20.457 6.34476 21.2517 6.12701 22 5.79469C21.4491 6.62021 20.7552 7.33928 19.9525 7.92023Z" fill="white"/>
</svg>
